  0
SECTION
  2
HEADER
  9
$ANGBASE
  50
0.0
  9
$ANGDIR
  70
  1
  9
$MEASUREMENT
  70
0
  0
ENDSEC
  0
SECTION
  2
TABLES
  0
TABLE
  2
LTYPE
  70
1
  0
LTYPE
  2
CONTINUOUS
  70
0
  3
Solid line
  72
65
  73
0
  40
0.0
  0
ENDTAB
  0
TABLE
  2
STYLE
  70
4
  0
STYLE
  2
KICAD
  70
0
  40
0
  41
1
  42
1
  50
0
  71
0
  3
isocp.shx
  0
STYLE
  2
KICADB
  70
0
  40
0
  41
1
  42
1
  50
0
  71
0
  3
isocp.shx
  0
STYLE
  2
KICADI
  70
0
  40
0
  41
1
  42
1
  50
15
  71
0
  3
isocp.shx
  0
STYLE
  2
KICADBI
  70
0
  40
0
  41
1
  42
1
  50
15
  71
0
  3
isocp.shx
  0
ENDTAB
  0
TABLE
  2
LAYER
  70
30
  0
LAYER
  2
BLACK
  70
0
  62
7
  6
CONTINUOUS
  0
LAYER
  2
GRAY1
  70
0
  62
251
  6
CONTINUOUS
  0
LAYER
  2
GRAY2
  70
0
  62
8
  6
CONTINUOUS
  0
LAYER
  2
GRAY3
  70
0
  62
9
  6
CONTINUOUS
  0
LAYER
  2
WHITE
  70
0
  62
7
  6
CONTINUOUS
  0
LAYER
  2
LYELLOW
  70
0
  62
51
  6
CONTINUOUS
  0
LAYER
  2
BLUE1
  70
0
  62
178
  6
CONTINUOUS
  0
LAYER
  2
GREEN1
  70
0
  62
98
  6
CONTINUOUS
  0
LAYER
  2
CYAN1
  70
0
  62
138
  6
CONTINUOUS
  0
LAYER
  2
RED1
  70
0
  62
18
  6
CONTINUOUS
  0
LAYER
  2
MAGENTA1
  70
0
  62
228
  6
CONTINUOUS
  0
LAYER
  2
BROWN1
  70
0
  62
58
  6
CONTINUOUS
  0
LAYER
  2
BLUE2
  70
0
  62
5
  6
CONTINUOUS
  0
LAYER
  2
GREEN2
  70
0
  62
3
  6
CONTINUOUS
  0
LAYER
  2
CYAN2
  70
0
  62
4
  6
CONTINUOUS
  0
LAYER
  2
RED2
  70
0
  62
1
  6
CONTINUOUS
  0
LAYER
  2
MAGENTA2
  70
0
  62
6
  6
CONTINUOUS
  0
LAYER
  2
BROWN2
  70
0
  62
54
  6
CONTINUOUS
  0
LAYER
  2
BLUE3
  70
0
  62
171
  6
CONTINUOUS
  0
LAYER
  2
GREEN3
  70
0
  62
91
  6
CONTINUOUS
  0
LAYER
  2
CYAN3
  70
0
  62
131
  6
CONTINUOUS
  0
LAYER
  2
RED3
  70
0
  62
11
  6
CONTINUOUS
  0
LAYER
  2
MAGENTA3
  70
0
  62
221
  6
CONTINUOUS
  0
LAYER
  2
YELLOW3
  70
0
  62
2
  6
CONTINUOUS
  0
LAYER
  2
BLUE4
  70
0
  62
5
  6
CONTINUOUS
  0
LAYER
  2
GREEN4
  70
0
  62
3
  6
CONTINUOUS
  0
LAYER
  2
CYAN4
  70
0
  62
4
  6
CONTINUOUS
  0
LAYER
  2
RED4
  70
0
  62
1
  6
CONTINUOUS
  0
LAYER
  2
MAGENTA4
  70
0
  62
6
  6
CONTINUOUS
  0
LAYER
  2
YELLOW4
  70
0
  62
2
  6
CONTINUOUS
  0
ENDTAB
  0
ENDSEC
  0
SECTION
  2
ENTITIES
0
LINE
8
Black
10
118.506
20
-105.529
11
112.079
21
-110.922
0
LINE
8
Black
10
112.079
20
-110.922
11
104.195
21
-113.791
0
LINE
8
Black
10
104.195
20
-113.791
11
95.805
21
-113.791
0
LINE
8
Black
10
95.805
20
-113.791
11
87.9209
21
-110.922
0
LINE
8
Black
10
87.9209
20
-110.922
11
81.4938
21
-105.529
0
LINE
8
Black
10
81.4938
20
-105.529
11
77.2987
21
-98.2626
0
LINE
8
Black
10
77.2987
20
-98.2626
11
75.8418
21
-90
0
LINE
8
Black
10
75.8418
20
-90
11
77.2987
21
-81.7374
0
LINE
8
Black
10
77.2987
20
-81.7374
11
81.4938
21
-74.4714
0
LINE
8
Black
10
81.4938
20
-74.4714
11
87.9209
21
-69.0784
0
LINE
8
Black
10
87.9209
20
-69.0784
11
95.805
21
-66.2088
0
LINE
8
Black
10
95.805
20
-66.2088
11
104.195
21
-66.2088
0
LINE
8
Black
10
104.195
20
-66.2088
11
112.079
21
-69.0784
0
LINE
8
Black
10
112.079
20
-69.0784
11
118.506
21
-74.4714
0
LINE
8
Black
10
118.506
20
-74.4714
11
122.701
21
-81.7374
0
LINE
8
Black
10
122.701
20
-81.7374
11
124.158
21
-90
0
LINE
8
Black
10
124.158
20
-90
11
122.701
21
-98.2626
0
LINE
8
Black
10
122.701
20
-98.2626
11
118.506
21
-105.529
0
LINE
8
Black
10
118.391
20
-74.5678
11
112.004
21
-69.2083
0
LINE
8
Black
10
112.004
20
-69.2083
11
104.169
21
-66.3565
0
LINE
8
Black
10
104.169
20
-66.3565
11
95.831
21
-66.3565
0
LINE
8
Black
10
95.831
20
-66.3565
11
87.9959
21
-69.2083
0
LINE
8
Black
10
87.9959
20
-69.2083
11
81.6087
21
-74.5678
0
LINE
8
Black
10
81.6087
20
-74.5678
11
77.4397
21
-81.7887
0
LINE
8
Black
10
77.4397
20
-81.7887
11
75.9918
21
-90
0
LINE
8
Black
10
75.9918
20
-90
11
77.4397
21
-98.2113
0
LINE
8
Black
10
77.4397
20
-98.2113
11
81.6087
21
-105.432
0
LINE
8
Black
10
81.6087
20
-105.432
11
87.9959
21
-110.792
0
LINE
8
Black
10
87.9959
20
-110.792
11
95.831
21
-113.643
0
LINE
8
Black
10
95.831
20
-113.643
11
104.169
21
-113.643
0
LINE
8
Black
10
104.169
20
-113.643
11
112.004
21
-110.792
0
LINE
8
Black
10
112.004
20
-110.792
11
118.391
21
-105.432
0
LINE
8
Black
10
118.391
20
-105.432
11
122.56
21
-98.2113
0
LINE
8
Black
10
122.56
20
-98.2113
11
124.008
21
-90
0
LINE
8
Black
10
124.008
20
-90
11
122.56
21
-81.7887
0
LINE
8
Black
10
122.56
20
-81.7887
11
118.391
21
-74.5678
0
LINE
8
Black
10
95.4355
20
-65.3087
11
94.9891
21
-65.6833
0
LINE
8
Black
10
94.9891
20
-65.6833
11
94.4414
21
-65.8826
0
LINE
8
Black
10
94.4414
20
-65.8826
11
93.8586
21
-65.8826
0
LINE
8
Black
10
93.8586
20
-65.8826
11
93.3109
21
-65.6833
0
LINE
8
Black
10
93.3109
20
-65.6833
11
92.8645
21
-65.3087
0
LINE
8
Black
10
92.8645
20
-65.3087
11
92.5731
21
-64.804
0
LINE
8
Black
10
92.5731
20
-64.804
11
92.4719
21
-64.23
0
LINE
8
Black
10
92.4719
20
-64.23
11
92.5731
21
-63.656
0
LINE
8
Black
10
92.5731
20
-63.656
11
92.8645
21
-63.1513
0
LINE
8
Black
10
92.8645
20
-63.1513
11
93.3109
21
-62.7767
0
LINE
8
Black
10
93.3109
20
-62.7767
11
93.8586
21
-62.5774
0
LINE
8
Black
10
93.8586
20
-62.5774
11
94.4414
21
-62.5774
0
LINE
8
Black
10
94.4414
20
-62.5774
11
94.9891
21
-62.7767
0
LINE
8
Black
10
94.9891
20
-62.7767
11
95.4355
21
-63.1513
0
LINE
8
Black
10
95.4355
20
-63.1513
11
95.7269
21
-63.656
0
LINE
8
Black
10
95.7269
20
-63.656
11
95.8281
21
-64.23
0
LINE
8
Black
10
95.8281
20
-64.23
11
95.7269
21
-64.804
0
LINE
8
Black
10
95.7269
20
-64.804
11
95.4355
21
-65.3087
0
LINE
8
Black
10
95.3206
20
-63.2477
11
94.9141
21
-62.9066
0
LINE
8
Black
10
94.9141
20
-62.9066
11
94.4154
21
-62.7251
0
LINE
8
Black
10
94.4154
20
-62.7251
11
93.8846
21
-62.7251
0
LINE
8
Black
10
93.8846
20
-62.7251
11
93.3859
21
-62.9066
0
LINE
8
Black
10
93.3859
20
-62.9066
11
92.9794
21
-63.2477
0
LINE
8
Black
10
92.9794
20
-63.2477
11
92.714
21
-63.7074
0
LINE
8
Black
10
92.714
20
-63.7074
11
92.6219
21
-64.23
0
LINE
8
Black
10
92.6219
20
-64.23
11
92.714
21
-64.7526
0
LINE
8
Black
10
92.714
20
-64.7526
11
92.9794
21
-65.2123
0
LINE
8
Black
10
92.9794
20
-65.2123
11
93.3859
21
-65.5534
0
LINE
8
Black
10
93.3859
20
-65.5534
11
93.8846
21
-65.7349
0
LINE
8
Black
10
93.8846
20
-65.7349
11
94.4154
21
-65.7349
0
LINE
8
Black
10
94.4154
20
-65.7349
11
94.9141
21
-65.5534
0
LINE
8
Black
10
94.9141
20
-65.5534
11
95.3206
21
-65.2123
0
LINE
8
Black
10
95.3206
20
-65.2123
11
95.586
21
-64.7526
0
LINE
8
Black
10
95.586
20
-64.7526
11
95.6781
21
-64.23
0
LINE
8
Black
10
95.6781
20
-64.23
11
95.586
21
-63.7074
0
LINE
8
Black
10
95.586
20
-63.7074
11
95.3206
21
-63.2477
  0
ENDSEC
  0
EOF
