G04 #@! TF.FileFunction,Copper,L2,Bot,Signal*
%FSLAX46Y46*%
G04 Gerber Fmt 4.6, Leading zero omitted, Abs format (unit mm)*
G04 Created by KiCad (PCBNEW 4.0.7) date 03/16/20 11:51:46*
%MOMM*%
%LPD*%
G01*
G04 APERTURE LIST*
%ADD10C,0.100000*%
%ADD11C,1.000000*%
%ADD12C,1.000000*%
%ADD13R,0.750000X0.800000*%
%ADD14C,5.999480*%
%ADD15R,0.700000X0.600000*%
%ADD16R,3.200000X1.000000*%
%ADD17R,1.000000X3.200000*%
%ADD18C,4.000500*%
%ADD19R,1.600000X1.000000*%
%ADD20R,0.800000X0.750000*%
%ADD21R,1.700000X0.900000*%
%ADD22R,0.900000X0.500000*%
%ADD23R,0.500000X0.900000*%
%ADD24R,1.250000X1.000000*%
%ADD25C,0.750000*%
%ADD26O,0.850000X0.850000*%
%ADD27C,0.500000*%
%ADD28C,0.650000*%
%ADD29C,0.300000*%
%ADD30C,0.500000*%
G04 APERTURE END LIST*
D10*
D11*
X-11425481Y19750208D03*
D12*
X-12175550Y20775048D02*
X-12175550Y20775048D01*
X-12450321Y19000139D02*
X-12450321Y19000139D01*
X-13200390Y20024978D02*
X-13200390Y20024978D01*
X-13475160Y18250070D02*
X-13475160Y18250070D01*
X-14225229Y19274909D02*
X-14225229Y19274909D01*
X-14500000Y17500000D02*
X-14500000Y17500000D01*
D13*
X-11500000Y16750000D03*
X-11500000Y15250000D03*
D14*
X3500000Y-22000000D03*
D15*
X-18000000Y5000000D03*
X-18000000Y3600000D03*
D16*
X-8000000Y16250000D03*
X-8000000Y22450000D03*
D17*
X16250000Y8000000D03*
X22450000Y8000000D03*
X-16250000Y-8000000D03*
X-22450000Y-8000000D03*
D14*
X-3500000Y-22000000D03*
D18*
X0Y23250000D03*
X23250000Y0D03*
X-23250000Y0D03*
D13*
X-13500000Y13750000D03*
X-13500000Y12250000D03*
X-11500000Y12250000D03*
X-11500000Y13750000D03*
X-11500000Y9250000D03*
X-11500000Y10750000D03*
D19*
X-22250000Y3750000D03*
X-22250000Y6750000D03*
D13*
X-16500000Y3500000D03*
X-16500000Y5000000D03*
D20*
X-19500000Y8000000D03*
X-18000000Y8000000D03*
D13*
X-2635Y14750000D03*
X-2635Y16250000D03*
D20*
X14750000Y6189D03*
X16250000Y6189D03*
X-15000000Y2000000D03*
X-16500000Y2000000D03*
D21*
X-20000000Y3750000D03*
X-20000000Y6650000D03*
D22*
X-19500000Y10750000D03*
X-19500000Y9250000D03*
X-15000000Y8250000D03*
X-15000000Y6750000D03*
X-22500000Y-3750000D03*
X-22500000Y-5250000D03*
X-16500000Y6750000D03*
X-16500000Y8250000D03*
D23*
X-5250000Y18000000D03*
X-3750000Y18000000D03*
X-5250000Y16500000D03*
X-3750000Y16500000D03*
D22*
X-19500000Y13750000D03*
X-19500000Y12250000D03*
X-15000000Y12250000D03*
X-15000000Y13750000D03*
D23*
X-5250000Y21000000D03*
X-3750000Y21000000D03*
X-5250000Y19500000D03*
X-3750000Y19500000D03*
D22*
X22500000Y5250000D03*
X22500000Y3750000D03*
X-18000000Y13750000D03*
X-18000000Y12250000D03*
X-16500000Y12250000D03*
X-16500000Y13750000D03*
X18000000Y5250000D03*
X18000000Y3750000D03*
X16500000Y5250000D03*
X16500000Y3750000D03*
D23*
X-5250000Y22500000D03*
X-3750000Y22500000D03*
D22*
X21000000Y5250000D03*
X21000000Y3750000D03*
X19500000Y5250000D03*
X19500000Y3750000D03*
X-18000000Y-5250000D03*
X-18000000Y-3750000D03*
X-16500000Y-5250000D03*
X-16500000Y-3750000D03*
X-21000000Y-5250000D03*
X-21000000Y-3750000D03*
X-19500000Y-5250000D03*
X-19500000Y-3750000D03*
X-18000000Y9250000D03*
X-18000000Y10750000D03*
X-16500000Y10750000D03*
X-16500000Y9250000D03*
X-13500000Y10750000D03*
X-13500000Y9250000D03*
X-15000000Y10750000D03*
X-15000000Y9250000D03*
D24*
X-21250000Y10250000D03*
X-21250000Y8250000D03*
D25*
X-10000000Y-22000000D03*
X10000000Y22000000D03*
D26*
X-17500000Y6000000D03*
D27*
X-11500000Y15250000D03*
X-9000000Y13000000D03*
X-10500000Y9500000D03*
X-5250000Y18000000D03*
X-5250000Y21250000D03*
X18000000Y5250000D03*
X21250000Y5250000D03*
X-21250000Y-5250000D03*
X-20750000Y11500000D03*
X-3000000Y17750000D03*
X-11250000Y16250000D03*
X1000000Y19500000D03*
D28*
X1000000Y22250000D03*
X-1000000Y24250000D03*
X1000000Y24250000D03*
X1500000Y23250000D03*
X-1000000Y22250000D03*
X-1500000Y23250000D03*
X0Y24750000D03*
X0Y21750000D03*
D27*
X1500000Y20000000D03*
X1500000Y19000000D03*
X500000Y20000000D03*
X0Y19500000D03*
X-1000000Y19500000D03*
X-1500000Y20000000D03*
X-1500000Y19000000D03*
X-500000Y20000000D03*
X-500000Y19000000D03*
X500000Y19000000D03*
X17750000Y3000000D03*
X-9000000Y12250000D03*
X19500000Y1000000D03*
D28*
X22250000Y1000000D03*
X22250000Y-1000000D03*
X24250000Y-1000000D03*
X23250000Y-1500000D03*
X24250000Y1006189D03*
X23250000Y1500000D03*
X21750000Y0D03*
X24750000Y0D03*
D27*
X20000000Y1500000D03*
X20000000Y500000D03*
X20095743Y-493811D03*
X19500000Y-1000000D03*
X20000000Y-1500000D03*
X19000000Y-1500000D03*
X19000000Y-500000D03*
X19500000Y0D03*
X19000000Y500000D03*
X19000000Y1500000D03*
X-24750000Y4500000D03*
X-24750000Y3500000D03*
X-24750000Y2500000D03*
X-17750000Y-3000000D03*
X-11250000Y9000000D03*
X-19500000Y-1000000D03*
X-20000000Y1500000D03*
X-20000000Y500000D03*
D28*
X-22250000Y-1000000D03*
X-22250000Y1000000D03*
X-24250000Y1000000D03*
X-24250000Y-1000000D03*
X-23250000Y-1500000D03*
X-23250000Y1500000D03*
X-21750000Y0D03*
X-24750000Y0D03*
D27*
X-19500000Y1000000D03*
X-20000000Y-500000D03*
X-20000000Y-1500000D03*
X-19000000Y-1500000D03*
X-19000000Y-500000D03*
X-19500000Y0D03*
X-19000000Y500000D03*
X-19000000Y1500000D03*
X-13750000Y6500000D03*
X9750000Y10000000D03*
X8750000Y10750000D03*
X9750000Y10750000D03*
X9750000Y9250000D03*
X8750000Y10000000D03*
X7750000Y10750000D03*
X1000000Y17250000D03*
X0Y17250000D03*
X-1000000Y17250000D03*
X500000Y16750000D03*
X9750000Y11500000D03*
X6750000Y11500000D03*
X7750000Y11500000D03*
X8750000Y11500000D03*
X9750000Y14500000D03*
X8750000Y14500000D03*
X7750000Y14500000D03*
X6750000Y14500000D03*
X7750000Y15500000D03*
X8750000Y15500000D03*
X9750000Y15500000D03*
X9750000Y16500000D03*
X8750000Y16500000D03*
X7750000Y16500000D03*
X6750000Y16500000D03*
X6750000Y15500000D03*
X0Y16250000D03*
X-16750000Y-1500000D03*
X-1500000Y16750000D03*
X-17250000Y1000000D03*
X-17250000Y0D03*
X-16750000Y-500000D03*
X-16750000Y1500000D03*
X17250000Y-1000000D03*
X16250000Y-1000000D03*
X16250000Y0D03*
X17250000Y0D03*
X16750000Y500000D03*
X16750000Y-500000D03*
X16750000Y-1500000D03*
X17750000Y-1500000D03*
X17845743Y-493811D03*
X17750000Y500000D03*
X17250000Y1000000D03*
X16750000Y1500000D03*
X17750000Y1500000D03*
X1500000Y16750000D03*
X-500000Y16750000D03*
X-1500000Y17750000D03*
X-502635Y17703189D03*
X500000Y17750000D03*
X1500000Y17750000D03*
X-16750000Y500000D03*
X-17250000Y-1000000D03*
X-17750000Y-1500000D03*
X-17750000Y-500000D03*
X-17750000Y500000D03*
X-23500000Y9500000D03*
X-18000000Y2750000D03*
X-16500000Y5000000D03*
X-15000000Y13750000D03*
X-17250000Y13750000D03*
X-12750000Y8000000D03*
X-5250000Y16000000D03*
X-5250000Y19250000D03*
X17250000Y6750000D03*
X16000000Y5250000D03*
X19250000Y5250000D03*
X-14000000Y4500000D03*
X-12000000Y8000000D03*
X-14750000Y500000D03*
X-16000000Y-5250000D03*
X-18000000Y-5250000D03*
X-14250000Y0D03*
X-19250000Y-5250000D03*
X-15234998Y1000000D03*
X-22500000Y-5250000D03*
X-13750000Y16500000D03*
X-11500000Y18250000D03*
X-9500000Y14500000D03*
X-2500000Y15750000D03*
X3000000Y15750000D03*
X22500000Y5250000D03*
X-15250000Y16000000D03*
X-17250000Y16000000D03*
X-5250000Y22500000D03*
D28*
X-16500000Y-15250000D03*
X-13250000Y-15250000D03*
X-11500000Y-15250000D03*
X-16500000Y-16750000D03*
X-14750000Y-15250000D03*
X-14750000Y-16750000D03*
X-11500000Y-16750000D03*
X-13250000Y-16750000D03*
X-11500000Y-13750000D03*
X-13250000Y-13750000D03*
X-13250000Y-12250000D03*
X-11500000Y-12250000D03*
X-16500000Y-13750000D03*
X-14750000Y-13750000D03*
X-14750000Y-12250000D03*
X-16500000Y-12250000D03*
X-3500000Y-24250000D03*
X-1250000Y-22000000D03*
X-5000000Y-23500000D03*
X-2000000Y-20500000D03*
X-5750000Y-21750000D03*
X-2000000Y-23500000D03*
X-5000000Y-20500000D03*
X-3500000Y-19750000D03*
D27*
X-6750000Y24250000D03*
X-6250000Y20250000D03*
X-9250000Y22750000D03*
X-8750000Y22250000D03*
X-8250000Y22750000D03*
X-7750000Y22250000D03*
X-7250000Y22750000D03*
X-6750000Y22250000D03*
X24750000Y4500000D03*
X22750000Y9250000D03*
X22250000Y8750000D03*
X22750000Y8250000D03*
X22250000Y7750000D03*
X22750000Y7250000D03*
X22250000Y6750000D03*
X-23250000Y-4500000D03*
X-22750000Y-9250000D03*
X-22250000Y-8750000D03*
X-22750000Y-8250000D03*
X-22750000Y-7250000D03*
X-22250000Y-6750000D03*
X-22250000Y-7750000D03*
X-3750000Y16500000D03*
X-3750000Y19250000D03*
X16500000Y3750000D03*
X19000000Y3750000D03*
X-16500000Y-3750000D03*
X-19250000Y-3750000D03*
X18500000Y6000000D03*
X-3000000Y13000000D03*
X-16750000Y19000000D03*
X3000000Y13000000D03*
X15750000Y16500000D03*
X12750000Y14500000D03*
X12750000Y15500000D03*
X12750000Y16500000D03*
X13750000Y16500000D03*
X13750000Y14500000D03*
X13750000Y15500000D03*
X14750000Y15500000D03*
X14750000Y16500000D03*
X15750000Y15500000D03*
X15750000Y14500000D03*
X14750000Y14500000D03*
X-8500000Y13500000D03*
X15750000Y-16750000D03*
X14750000Y-16750000D03*
X13750000Y-16750000D03*
X12750000Y-16750000D03*
X15750000Y-15750000D03*
X15750000Y-14750000D03*
X14750000Y-15750000D03*
X14750000Y-14750000D03*
X13750000Y-15750000D03*
X13750000Y-14750000D03*
X12750000Y-15750000D03*
X12750000Y-14750000D03*
X-8250000Y18500000D03*
X-10250000Y18500000D03*
X-22250000Y11500000D03*
X-24000000Y-3750000D03*
X-16500000Y3500000D03*
X-15500000Y3500000D03*
X16000000Y9250000D03*
X16500000Y8750000D03*
X16000000Y8250000D03*
X16500000Y7750000D03*
X16000000Y7250000D03*
X16500000Y6750000D03*
X-500000Y-16750000D03*
X-9250000Y16000000D03*
X-8750000Y16500000D03*
X-8250000Y16000000D03*
X-7750000Y16500000D03*
X-7250000Y16000000D03*
X-6750000Y16500000D03*
D28*
X2000000Y-23500000D03*
X3500000Y-24250000D03*
D27*
X-16000000Y-9250000D03*
X-16500000Y-8750000D03*
X-16000000Y-8250000D03*
X-16500000Y-7750000D03*
X-16000000Y-7250000D03*
X-16500000Y-6750000D03*
X-22250000Y6000000D03*
X-22250000Y9000000D03*
X-22250000Y8000000D03*
X-22250000Y7000000D03*
X-21750000Y7500000D03*
X-15500000Y2000000D03*
D28*
X3500000Y-19750000D03*
X5000000Y-23500000D03*
X1250000Y-22000000D03*
X2000000Y-20500000D03*
X5750000Y-22000000D03*
X5000000Y-20500000D03*
D27*
X-15000000Y5750000D03*
X-22750000Y8500000D03*
X-22750000Y6500000D03*
X-21750000Y6500000D03*
X-22750000Y7500000D03*
X-21750000Y8500000D03*
X-15750000Y10750000D03*
X-15750000Y12250000D03*
X-15000000Y11500000D03*
X-16500000Y11500000D03*
X-15750000Y11500000D03*
X-16500000Y10750000D03*
X-15000000Y10750000D03*
X-15000000Y12250000D03*
X-16500000Y12250000D03*
X-21000000Y3750000D03*
X-21500000Y2000000D03*
X24000000Y3750000D03*
X-16000000Y19000000D03*
X-16750000Y17500000D03*
X-3750000Y24000000D03*
X-18000000Y16250000D03*
X-18500000Y6000000D03*
X-18750000Y15000000D03*
X-13500000Y13750000D03*
X-13500000Y10000000D03*
X-20250000Y9500000D03*
X-21500000Y11500000D03*
X-17750000Y7000000D03*
X-14250000Y6000000D03*
X-15750000Y16500000D03*
X-18250000Y11500000D03*
X-18250000Y12250000D03*
X-22750000Y5500000D03*
X-20700002Y6500000D03*
D29*
X-11500000Y13750000D02*
X-9750000Y13750000D01*
X-9750000Y13750000D02*
X-9000000Y13000000D01*
X-11250000Y13750000D02*
X-11500000Y13750000D01*
X-10500000Y9500000D02*
X-11500000Y10500000D01*
X-20000000Y15500000D02*
X-19250000Y16250000D01*
X-20000000Y15250000D02*
X-20000000Y15500000D01*
X-21000000Y13000000D02*
X-21000000Y14250000D01*
X-21000000Y14250000D02*
X-20000000Y15250000D01*
X-19250000Y16250000D02*
X-18888002Y16250000D01*
X-18888002Y16250000D02*
X-16888002Y18250000D01*
X-16888002Y18250000D02*
X-15250000Y18250000D01*
X-15250000Y18250000D02*
X-14250000Y19250000D01*
X-19500000Y10750000D02*
X-20250000Y11500000D01*
X-20250000Y11500000D02*
X-20750000Y11500000D01*
X-20750000Y11500000D02*
X-20750000Y11853553D01*
X-21000000Y13000000D02*
X-21000010Y13000010D01*
X-20750000Y12750000D02*
X-21000000Y13000000D01*
X-20750000Y11853553D02*
X-20750000Y12750000D01*
X-11500000Y16750000D02*
X-11500000Y16500000D01*
X-11500000Y16500000D02*
X-11250000Y16250000D01*
X-11500000Y12250000D02*
X-9000000Y12250000D01*
X-24750000Y3500000D02*
X-24750000Y4500000D01*
X-23250000Y0D02*
X-23250000Y1000000D01*
X-23250000Y1000000D02*
X-24750000Y2500000D01*
X-17250000Y2500000D02*
X-17250000Y2750000D01*
X-17750000Y2000000D02*
X-17250000Y2500000D01*
X-18500000Y2000000D02*
X-17750000Y2000000D01*
X-19000000Y1500000D02*
X-18500000Y2000000D01*
X-13250000Y4250000D02*
X-13250000Y5250000D01*
X-13750000Y3750000D02*
X-13250000Y4250000D01*
X-13750000Y2750000D02*
X-13750000Y3750000D01*
X-17250000Y2750000D02*
X-13750000Y2750000D01*
X-13250000Y5250000D02*
X-12499992Y6000008D01*
X-12499992Y6000008D02*
X-12500000Y6000016D01*
X-12500000Y6000016D02*
X-12500000Y6500000D01*
X-12500000Y6500000D02*
X-11250000Y7750000D01*
X-11250000Y7750000D02*
X-11250000Y9000000D01*
X-15000000Y8250000D02*
X-16500000Y8250000D01*
X-14000000Y7250000D02*
X-15000000Y8250000D01*
X-14000000Y7250000D02*
X-13999999Y6749999D01*
X-13999999Y6749999D02*
X-13750000Y6500000D01*
D30*
X-18000000Y2750000D02*
X-23750000Y2750000D01*
X-23750000Y8750000D02*
X-23750000Y2750000D01*
D29*
X9750000Y14500000D02*
X9750000Y11500000D01*
X6750000Y14500000D02*
X6750000Y11500000D01*
X7750000Y14500000D02*
X7750000Y11500000D01*
X8750000Y14500000D02*
X8750000Y11500000D01*
D30*
X-16500000Y2000000D02*
X-16500000Y1750000D01*
X-16500000Y1750000D02*
X-16750000Y1500000D01*
X-23500000Y9500000D02*
X-23500000Y9000000D01*
X-23500000Y9000000D02*
X-23750000Y8750000D01*
D29*
X-16500000Y5000000D02*
X-18000000Y5000000D01*
X-19500000Y13750000D02*
X-18750000Y13000000D01*
X-18750000Y13000000D02*
X-15750000Y13000000D01*
X-15750000Y13000000D02*
X-15000000Y13750000D01*
X-17250000Y13750000D02*
X-18000000Y13750000D01*
X-16500000Y13750000D02*
X-17250000Y13750000D01*
X-13500000Y8750000D02*
X-13500000Y9250000D01*
X-12750000Y8000000D02*
X-13500000Y8750000D01*
X-15000000Y9250000D02*
X-13500000Y9250000D01*
X-18000000Y8000000D02*
X-18000000Y9250000D01*
X-16500000Y9250000D02*
X-15000000Y9250000D01*
X-18000000Y9250000D02*
X-16500000Y9250000D01*
X16500000Y5250000D02*
X17250000Y6000000D01*
X17250000Y6000000D02*
X17250000Y6750000D01*
X16000000Y5250000D02*
X16500000Y5250000D01*
X-15000000Y250000D02*
X-14750000Y500000D01*
X-15000000Y-4250000D02*
X-15000000Y250000D01*
X-16000000Y-5250000D02*
X-15000000Y-4250000D01*
X-14000000Y5250000D02*
X-14000000Y4500000D01*
X-14000000Y5250000D02*
X-13000000Y6250000D01*
X-12000000Y7750000D02*
X-12000000Y8000000D01*
X-13000000Y6750000D02*
X-12000000Y7750000D01*
X-13000000Y6250000D02*
X-13000000Y6750000D01*
X-16000000Y-5250000D02*
X-16500000Y-5250000D01*
X-14500000Y-4500000D02*
X-14500000Y-250000D01*
X-15250000Y-5250000D02*
X-14500000Y-4500000D01*
X-15500000Y-6000000D02*
X-15250000Y-5750000D01*
X-15250000Y-5750000D02*
X-15250000Y-5250000D01*
X-19250000Y-5250000D02*
X-18500000Y-6000000D01*
X-18500000Y-6000000D02*
X-15500000Y-6000000D01*
X-14500000Y-250000D02*
X-14250000Y0D01*
X-22500000Y-5250000D02*
X-21750000Y-4500000D01*
X-21750000Y-4500000D02*
X-16000000Y-4500000D01*
X-16000000Y-4500000D02*
X-15500000Y-4000000D01*
X-15500000Y-4000000D02*
X-15500000Y-3457120D01*
X-15500000Y-3457120D02*
X-15500018Y-3457102D01*
X-15500018Y-3457102D02*
X-15500018Y734980D01*
X-15500018Y734980D02*
X-15234998Y1000000D01*
X-13000000Y17250000D02*
X-13000000Y17500000D01*
X-13750000Y16500000D02*
X-13000000Y17250000D01*
X-13000000Y17500000D02*
X-12500000Y18000000D01*
X-12500000Y18000000D02*
X-11750000Y18000000D01*
X-11750000Y18000000D02*
X-11500000Y18250000D01*
X-2500000Y15750000D02*
X-2250001Y15500001D01*
X-2250001Y15500001D02*
X2750001Y15500001D01*
X2750001Y15500001D02*
X3000000Y15750000D01*
X-13500000Y14500000D02*
X-9500000Y14500000D01*
X-13500000Y14500000D02*
X-15000000Y16000000D01*
X-15000000Y16000000D02*
X-15250000Y16000000D01*
X-12500000Y16750000D02*
X-12500000Y17250000D01*
X-13500000Y15750000D02*
X-12500000Y16750000D01*
X-15249998Y16999998D02*
X-14000000Y15750000D01*
X-14000000Y15750000D02*
X-13500000Y15750000D01*
X-17250000Y16000000D02*
X-16000001Y17249999D01*
X-16000001Y17249999D02*
X-15500001Y17249999D01*
X-15500001Y17249999D02*
X-15249998Y16999998D01*
X-10250000Y17500000D02*
X-5250000Y22500000D01*
X-12250000Y17500000D02*
X-10250000Y17500000D01*
X-12500000Y17250000D02*
X-12250000Y17500000D01*
X-3750000Y18000000D02*
X-3750000Y16500000D01*
X-3750000Y21000000D02*
X-3750000Y19250000D01*
X16500000Y3750000D02*
X18000000Y3750000D01*
X19500000Y3750000D02*
X21000000Y3750000D01*
X-18000000Y-3750000D02*
X-16500000Y-3750000D01*
X-21000000Y-3750000D02*
X-19255000Y-3750000D01*
X18500000Y7750000D02*
X18500000Y6000000D01*
X16500000Y7750000D02*
X18500000Y7750000D01*
X-3000000Y14750000D02*
X-4500000Y14750000D01*
X-2635Y14750000D02*
X-3000000Y14750000D01*
X-3000000Y14750000D02*
X-3000000Y13000000D01*
X3000000Y14750000D02*
X3250000Y14750000D01*
X-2635Y14750000D02*
X3000000Y14750000D01*
X3000000Y14750000D02*
X3000000Y13250000D01*
X-18500000Y-6750000D02*
X-16500000Y-6750000D01*
X-19250000Y-6000000D02*
X-18500000Y-6750000D01*
X-13250000Y-4500000D02*
X-13250000Y-9250000D01*
X-16000000Y-9250000D02*
X-13250000Y-9250000D01*
X-13250000Y-9250000D02*
X-10750000Y-9250000D01*
X-10750000Y-9250000D02*
X-3250000Y-16750000D01*
X-3250000Y-16750000D02*
X-500000Y-16750000D01*
X12000000Y17250000D02*
X12750000Y16500000D01*
X4750000Y17250000D02*
X12000000Y17250000D01*
X4000000Y16500000D02*
X4750000Y17250000D01*
X3250000Y14750000D02*
X4000000Y15500000D01*
X4000000Y15500000D02*
X4000000Y16500000D01*
X14750000Y14500000D02*
X14750000Y4500000D01*
X14750000Y-14750000D02*
X14750000Y6189D01*
X-6750000Y14750000D02*
X-6750000Y16500000D01*
X-6750000Y12500000D02*
X-6750000Y14750000D01*
X-4500000Y14750000D02*
X-6750000Y14750000D01*
X-4500000Y15750000D02*
X-4500000Y14750000D01*
X21750000Y4500000D02*
X14750000Y4500000D01*
X14750000Y6189D02*
X14750000Y4500000D01*
X22500000Y3750000D02*
X21750000Y4500000D01*
X-8250000Y11500000D02*
X-7750000Y11500000D01*
X-10750000Y11500000D02*
X-8250000Y11500000D01*
X-8250000Y11500000D02*
X-8250000Y13250000D01*
X-8250000Y13250000D02*
X-8500000Y13500000D01*
X-9750000Y9250000D02*
X-9750000Y9750000D01*
X-7750000Y11500000D02*
X-6750000Y12500000D01*
X-13250000Y2000000D02*
X-13250000Y3500000D01*
X-13250000Y3500000D02*
X-12750000Y4000000D01*
X-12750000Y4000000D02*
X-12750000Y5042880D01*
X-12750000Y5042880D02*
X-11999984Y5792896D01*
X-11999984Y5792896D02*
X-11999984Y6249984D01*
X-10750000Y11500000D02*
X-12750000Y11500000D01*
X-11999984Y6249984D02*
X-10750000Y7499968D01*
X-9750000Y9750000D02*
X-10750000Y10750000D01*
X-10750000Y7499968D02*
X-10750000Y8250000D01*
X-10750000Y8250000D02*
X-9750000Y9250000D01*
X-10750000Y10750000D02*
X-10750000Y11500000D01*
X-12750000Y11500000D02*
X-13500000Y12250000D01*
X-4500000Y15750000D02*
X-4500000Y21750000D01*
X-4500000Y21750000D02*
X-3750000Y22500000D01*
X14750000Y6189D02*
X14743811Y6189D01*
X-13250000Y2000000D02*
X-13250000Y-4500000D01*
X-15000000Y2000000D02*
X-13792880Y2000000D01*
X-13792880Y2000000D02*
X-13250000Y2000000D01*
X-8250000Y18500000D02*
X-8250000Y16550000D01*
X-8250000Y16550000D02*
X-8000000Y16300000D01*
X-10250000Y18500000D02*
X-11500000Y19750000D01*
X-15249999Y5999999D02*
X-15000000Y5750000D01*
X-15499999Y5999999D02*
X-15249999Y5999999D01*
X-16250000Y6750000D02*
X-15499999Y5999999D01*
X-16500000Y6750000D02*
X-16250000Y6750000D01*
D30*
X-22750000Y11000000D02*
X-22250000Y11500000D01*
D29*
X-24000000Y-5250000D02*
X-24000000Y-3750000D01*
X-24000000Y-5250000D02*
X-23250000Y-6000000D01*
X-23250000Y-6000000D02*
X-19250000Y-6000000D01*
D30*
X-22250000Y9000000D02*
X-22250000Y7000000D01*
X-22750000Y9500000D02*
X-22250000Y9000000D01*
X-22750000Y11000000D02*
X-22750000Y9500000D01*
X-15500000Y2000000D02*
X-15000000Y2000000D01*
D29*
X-19500000Y8000000D02*
X-21000000Y8000000D01*
X-21000000Y8000000D02*
X-21250000Y8250000D01*
X-15000000Y12250000D02*
X-13500000Y12250000D01*
X-15000000Y10750000D02*
X-13500000Y10750000D01*
D30*
X-20000000Y3750000D02*
X-21000000Y3750000D01*
X-21000000Y3750000D02*
X-22250000Y3750000D01*
D29*
X-20750000Y1250000D02*
X-21500000Y2000000D01*
X-3750000Y24000000D02*
X-3000000Y23250000D01*
X-3000000Y23250000D02*
X-3000000Y22500000D01*
X-3000000Y22500000D02*
X-1250000Y20750000D01*
X20750000Y12500000D02*
X23500000Y9750000D01*
X23500000Y9750000D02*
X23500000Y4250000D01*
X23500000Y4250000D02*
X24000000Y3750000D01*
X-1250000Y20750000D02*
X12500000Y20750000D01*
X20750000Y12500000D02*
X12500000Y20750000D01*
X-3750000Y24000000D02*
X-4250000Y23500000D01*
X-4250000Y23500000D02*
X-9750000Y23500000D01*
X-9750000Y23500000D02*
X-11500000Y21750000D01*
X-11500000Y21750000D02*
X-12500000Y21750000D01*
X-12500000Y21750000D02*
X-13250000Y21000000D01*
X-14250000Y20250000D02*
X-14750000Y20250000D01*
X-13250000Y21000000D02*
X-13500000Y21000000D01*
X-13500000Y21000000D02*
X-14250000Y20250000D01*
X-14750000Y20250000D02*
X-16000000Y19000000D01*
X-15000002Y17500000D02*
X-14500000Y17500000D01*
X-15250001Y17749999D02*
X-15000002Y17500000D01*
X-16500001Y17749999D02*
X-15250001Y17749999D01*
X-16750000Y17500000D02*
X-16500001Y17749999D01*
X-18000000Y16250000D02*
X-16750000Y17500000D01*
X-13500000Y13750000D02*
X-13669998Y13750000D01*
X-13669998Y13750000D02*
X-14419998Y14500000D01*
X-14419998Y14500000D02*
X-18250000Y14500000D01*
X-18250000Y14500000D02*
X-18750000Y15000000D01*
X-20000000Y3750000D02*
X-18000000Y3750000D01*
D30*
X-20000000Y3750000D02*
X-20000000Y4500000D01*
X-20000000Y4500000D02*
X-18500000Y6000000D01*
D29*
X-20000000Y3750000D02*
X-19250000Y3750000D01*
D30*
X-18000000Y10000000D02*
X-13500000Y10000000D01*
X-19750000Y10000000D02*
X-18000000Y10000000D01*
D29*
X-18000000Y10000000D02*
X-18000000Y10750000D01*
D30*
X-20250000Y9500000D02*
X-19750000Y10000000D01*
D29*
X-20750000Y1250000D02*
X-20750000Y-1250000D01*
X-20750000Y-1250000D02*
X-22500000Y-3000000D01*
X-22500000Y-3000000D02*
X-22500000Y-3750000D01*
D30*
X-21750000Y4500000D02*
X-22750000Y3500000D01*
X-21750000Y4500000D02*
X-21750000Y3500000D01*
X-22750000Y3500000D02*
X-21750000Y3500000D01*
X-22750000Y4500000D02*
X-21750000Y3500000D01*
X-22750000Y4500000D02*
X-22750000Y3500000D01*
X-21750000Y4500000D02*
X-22750000Y4500000D01*
D29*
X-19500000Y9250000D02*
X-20000000Y9250000D01*
X-20000000Y9250000D02*
X-20250000Y9500000D01*
X-21500000Y11500000D02*
X-21500000Y10500000D01*
X-21500000Y10500000D02*
X-21250000Y10250000D01*
X-17750000Y7000000D02*
X-17500000Y7250000D01*
X-17500000Y7250000D02*
X-17250000Y7250000D01*
X-17250000Y7250000D02*
X-17000000Y7500000D01*
X-15000000Y6750000D02*
X-14250000Y6000000D01*
X-15750000Y7500000D02*
X-15000000Y6750000D01*
X-17000000Y7500000D02*
X-15750000Y7500000D01*
X-19500000Y12250000D02*
X-20500000Y13250000D01*
X-20500000Y13250000D02*
X-20500000Y14000000D01*
X-20500000Y14000000D02*
X-19500000Y15000000D01*
X-19500000Y15000000D02*
X-19500000Y15250000D01*
X-17250000Y15000000D02*
X-15750000Y16500000D01*
X-19500000Y15250000D02*
X-19000000Y15750000D01*
X-19000000Y15750000D02*
X-18500000Y15750000D01*
X-18500000Y15750000D02*
X-17750000Y15000000D01*
X-17750000Y15000000D02*
X-17250000Y15000000D01*
X-18750000Y11500000D02*
X-19500000Y12250000D01*
X-18250000Y11500000D02*
X-18750000Y11500000D01*
D30*
X-20700002Y6500000D02*
X-20700002Y6049998D01*
X-22750000Y5500000D02*
X-22500000Y5250000D01*
X-22500000Y5250000D02*
X-21500000Y5250000D01*
X-21500000Y5250000D02*
X-20700002Y6049998D01*
D10*
G36*
X-24250000Y2750000D02*
X-24245410Y2703183D01*
X-24241144Y2656309D01*
X-24240649Y2654627D01*
X-24240478Y2652883D01*
X-24226880Y2607845D01*
X-24213592Y2562697D01*
X-24212780Y2561143D01*
X-24212273Y2559465D01*
X-24190171Y2517896D01*
X-24168382Y2476218D01*
X-24167285Y2474853D01*
X-24166461Y2473304D01*
X-24136718Y2436836D01*
X-24107236Y2400168D01*
X-24105892Y2399040D01*
X-24104785Y2397683D01*
X-24068585Y2367735D01*
X-24032484Y2337443D01*
X-24030945Y2336597D01*
X-24029596Y2335481D01*
X-23988227Y2313112D01*
X-23946971Y2290432D01*
X-23945301Y2289902D01*
X-23943758Y2289068D01*
X-23898789Y2275148D01*
X-23853956Y2260926D01*
X-23852215Y2260731D01*
X-23850539Y2260212D01*
X-23803694Y2255288D01*
X-23756981Y2250049D01*
X-23753618Y2250025D01*
X-23753491Y2250012D01*
X-23753363Y2250024D01*
X-23750000Y2250000D01*
X-21934824Y2250000D01*
X-21940273Y2242042D01*
X-21978901Y2151916D01*
X-21999288Y2056004D01*
X-22000657Y1957959D01*
X-21982956Y1861515D01*
X-21946860Y1770345D01*
X-21893742Y1687924D01*
X-21825628Y1617389D01*
X-21745110Y1561427D01*
X-21655256Y1522171D01*
X-21568862Y1503176D01*
X-21150000Y1084314D01*
X-21150000Y-1084314D01*
X-22782843Y-2717157D01*
X-22806323Y-2745742D01*
X-22830045Y-2774013D01*
X-22831058Y-2775855D01*
X-22832394Y-2777482D01*
X-22849858Y-2810053D01*
X-22867654Y-2842423D01*
X-22868290Y-2844429D01*
X-22869284Y-2846282D01*
X-22880075Y-2881579D01*
X-22891259Y-2916835D01*
X-22891494Y-2918929D01*
X-22892108Y-2920938D01*
X-22895841Y-2957687D01*
X-22899961Y-2994415D01*
X-22899990Y-2998522D01*
X-22899998Y-2998604D01*
X-22899991Y-2998680D01*
X-22900000Y-3000000D01*
X-22900000Y-3200000D01*
X-25373684Y-3200000D01*
X-25672497Y358479D01*
X-25113940Y5338133D01*
X-24250000Y8061617D01*
X-24250000Y2750000D01*
X-24250000Y2750000D01*
G37*
X-24250000Y2750000D02*
X-24245410Y2703183D01*
X-24241144Y2656309D01*
X-24240649Y2654627D01*
X-24240478Y2652883D01*
X-24226880Y2607845D01*
X-24213592Y2562697D01*
X-24212780Y2561143D01*
X-24212273Y2559465D01*
X-24190171Y2517896D01*
X-24168382Y2476218D01*
X-24167285Y2474853D01*
X-24166461Y2473304D01*
X-24136718Y2436836D01*
X-24107236Y2400168D01*
X-24105892Y2399040D01*
X-24104785Y2397683D01*
X-24068585Y2367735D01*
X-24032484Y2337443D01*
X-24030945Y2336597D01*
X-24029596Y2335481D01*
X-23988227Y2313112D01*
X-23946971Y2290432D01*
X-23945301Y2289902D01*
X-23943758Y2289068D01*
X-23898789Y2275148D01*
X-23853956Y2260926D01*
X-23852215Y2260731D01*
X-23850539Y2260212D01*
X-23803694Y2255288D01*
X-23756981Y2250049D01*
X-23753618Y2250025D01*
X-23753491Y2250012D01*
X-23753363Y2250024D01*
X-23750000Y2250000D01*
X-21934824Y2250000D01*
X-21940273Y2242042D01*
X-21978901Y2151916D01*
X-21999288Y2056004D01*
X-22000657Y1957959D01*
X-21982956Y1861515D01*
X-21946860Y1770345D01*
X-21893742Y1687924D01*
X-21825628Y1617389D01*
X-21745110Y1561427D01*
X-21655256Y1522171D01*
X-21568862Y1503176D01*
X-21150000Y1084314D01*
X-21150000Y-1084314D01*
X-22782843Y-2717157D01*
X-22806323Y-2745742D01*
X-22830045Y-2774013D01*
X-22831058Y-2775855D01*
X-22832394Y-2777482D01*
X-22849858Y-2810053D01*
X-22867654Y-2842423D01*
X-22868290Y-2844429D01*
X-22869284Y-2846282D01*
X-22880075Y-2881579D01*
X-22891259Y-2916835D01*
X-22891494Y-2918929D01*
X-22892108Y-2920938D01*
X-22895841Y-2957687D01*
X-22899961Y-2994415D01*
X-22899990Y-2998522D01*
X-22899998Y-2998604D01*
X-22899991Y-2998680D01*
X-22900000Y-3000000D01*
X-22900000Y-3200000D01*
X-25373684Y-3200000D01*
X-25672497Y358479D01*
X-25113940Y5338133D01*
X-24250000Y8061617D01*
X-24250000Y2750000D01*
G36*
X-18550000Y-2000000D02*
X-18548020Y-2013930D01*
X-18542239Y-2026756D01*
X-18535355Y-2035355D01*
X-17785355Y-2785355D01*
X-17774106Y-2793805D01*
X-17760948Y-2798787D01*
X-17750000Y-2800000D01*
X-17300000Y-2800000D01*
X-17300000Y-3200000D01*
X-22100000Y-3200000D01*
X-22100000Y-3165686D01*
X-20467157Y-1532843D01*
X-20443677Y-1504258D01*
X-20419955Y-1475987D01*
X-20418942Y-1474145D01*
X-20417606Y-1472518D01*
X-20400142Y-1439947D01*
X-20382346Y-1407577D01*
X-20381710Y-1405571D01*
X-20380716Y-1403718D01*
X-20369912Y-1368380D01*
X-20358741Y-1333165D01*
X-20358507Y-1331076D01*
X-20357891Y-1329062D01*
X-20354153Y-1292263D01*
X-20350039Y-1255585D01*
X-20350010Y-1251478D01*
X-20350002Y-1251396D01*
X-20350009Y-1251320D01*
X-20350000Y-1250000D01*
X-20350000Y1250000D01*
X-20353607Y1286784D01*
X-20356826Y1323580D01*
X-20357413Y1325599D01*
X-20357618Y1327694D01*
X-20368301Y1363077D01*
X-20378606Y1398547D01*
X-20379574Y1400415D01*
X-20380182Y1402428D01*
X-20397531Y1435058D01*
X-20414532Y1467855D01*
X-20415844Y1469498D01*
X-20416832Y1471357D01*
X-20440202Y1500011D01*
X-20463236Y1528866D01*
X-20466124Y1531796D01*
X-20466172Y1531854D01*
X-20466226Y1531899D01*
X-20467157Y1532843D01*
X-21004086Y2069772D01*
X-21019024Y2145215D01*
X-21056390Y2235871D01*
X-21065777Y2250000D01*
X-18550000Y2250000D01*
X-18550000Y-2000000D01*
X-18550000Y-2000000D01*
G37*
X-18550000Y-2000000D02*
X-18548020Y-2013930D01*
X-18542239Y-2026756D01*
X-18535355Y-2035355D01*
X-17785355Y-2785355D01*
X-17774106Y-2793805D01*
X-17760948Y-2798787D01*
X-17750000Y-2800000D01*
X-17300000Y-2800000D01*
X-17300000Y-3200000D01*
X-22100000Y-3200000D01*
X-22100000Y-3165686D01*
X-20467157Y-1532843D01*
X-20443677Y-1504258D01*
X-20419955Y-1475987D01*
X-20418942Y-1474145D01*
X-20417606Y-1472518D01*
X-20400142Y-1439947D01*
X-20382346Y-1407577D01*
X-20381710Y-1405571D01*
X-20380716Y-1403718D01*
X-20369912Y-1368380D01*
X-20358741Y-1333165D01*
X-20358507Y-1331076D01*
X-20357891Y-1329062D01*
X-20354153Y-1292263D01*
X-20350039Y-1255585D01*
X-20350010Y-1251478D01*
X-20350002Y-1251396D01*
X-20350009Y-1251320D01*
X-20350000Y-1250000D01*
X-20350000Y1250000D01*
X-20353607Y1286784D01*
X-20356826Y1323580D01*
X-20357413Y1325599D01*
X-20357618Y1327694D01*
X-20368301Y1363077D01*
X-20378606Y1398547D01*
X-20379574Y1400415D01*
X-20380182Y1402428D01*
X-20397531Y1435058D01*
X-20414532Y1467855D01*
X-20415844Y1469498D01*
X-20416832Y1471357D01*
X-20440202Y1500011D01*
X-20463236Y1528866D01*
X-20466124Y1531796D01*
X-20466172Y1531854D01*
X-20466226Y1531899D01*
X-20467157Y1532843D01*
X-21004086Y2069772D01*
X-21019024Y2145215D01*
X-21056390Y2235871D01*
X-21065777Y2250000D01*
X-18550000Y2250000D01*
X-18550000Y-2000000D01*
G36*
X25675000Y0D02*
X25664990Y-716888D01*
X25036960Y-5688258D01*
X23455280Y-10442963D01*
X20980195Y-14799900D01*
X18550000Y-17615309D01*
X18550000Y2000000D01*
X18548020Y2013930D01*
X18542239Y2026756D01*
X18535355Y2035355D01*
X17785355Y2785355D01*
X17774106Y2793805D01*
X17760948Y2798787D01*
X17750000Y2800000D01*
X17300000Y2800000D01*
X17300000Y3200000D01*
X25361238Y3200000D01*
X25675000Y0D01*
X25675000Y0D01*
G37*
X25675000Y0D02*
X25664990Y-716888D01*
X25036960Y-5688258D01*
X23455280Y-10442963D01*
X20980195Y-14799900D01*
X18550000Y-17615309D01*
X18550000Y2000000D01*
X18548020Y2013930D01*
X18542239Y2026756D01*
X18535355Y2035355D01*
X17785355Y2785355D01*
X17774106Y2793805D01*
X17760948Y2798787D01*
X17750000Y2800000D01*
X17300000Y2800000D01*
X17300000Y3200000D01*
X25361238Y3200000D01*
X25675000Y0D01*
G36*
X-24478901Y-3598084D02*
X-24499288Y-3693996D01*
X-24500657Y-3792041D01*
X-24482956Y-3888485D01*
X-24446860Y-3979655D01*
X-24400000Y-4052366D01*
X-24400000Y-5250000D01*
X-24396393Y-5286784D01*
X-24393174Y-5323580D01*
X-24392587Y-5325599D01*
X-24392382Y-5327694D01*
X-24381699Y-5363077D01*
X-24371394Y-5398547D01*
X-24370426Y-5400415D01*
X-24369818Y-5402428D01*
X-24352469Y-5435058D01*
X-24335468Y-5467855D01*
X-24334156Y-5469498D01*
X-24333168Y-5471357D01*
X-24309807Y-5500000D01*
X-24286764Y-5528866D01*
X-24283876Y-5531796D01*
X-24283828Y-5531854D01*
X-24283774Y-5531899D01*
X-24282843Y-5532843D01*
X-23532843Y-6282843D01*
X-23504258Y-6306323D01*
X-23475987Y-6330045D01*
X-23474145Y-6331058D01*
X-23472518Y-6332394D01*
X-23439947Y-6349858D01*
X-23407577Y-6367654D01*
X-23405571Y-6368290D01*
X-23403718Y-6369284D01*
X-23368421Y-6380075D01*
X-23333165Y-6391259D01*
X-23331071Y-6391494D01*
X-23329062Y-6392108D01*
X-23292358Y-6395836D01*
X-23255585Y-6399961D01*
X-23251467Y-6399990D01*
X-23251396Y-6399997D01*
X-23251330Y-6399991D01*
X-23250000Y-6400000D01*
X-19800000Y-6400000D01*
X-19800000Y-16156112D01*
X-21581548Y-13908358D01*
X-23872011Y-9451598D01*
X-25253198Y-4634829D01*
X-25344293Y-3550000D01*
X-24458292Y-3550000D01*
X-24478901Y-3598084D01*
X-24478901Y-3598084D01*
G37*
X-24478901Y-3598084D02*
X-24499288Y-3693996D01*
X-24500657Y-3792041D01*
X-24482956Y-3888485D01*
X-24446860Y-3979655D01*
X-24400000Y-4052366D01*
X-24400000Y-5250000D01*
X-24396393Y-5286784D01*
X-24393174Y-5323580D01*
X-24392587Y-5325599D01*
X-24392382Y-5327694D01*
X-24381699Y-5363077D01*
X-24371394Y-5398547D01*
X-24370426Y-5400415D01*
X-24369818Y-5402428D01*
X-24352469Y-5435058D01*
X-24335468Y-5467855D01*
X-24334156Y-5469498D01*
X-24333168Y-5471357D01*
X-24309807Y-5500000D01*
X-24286764Y-5528866D01*
X-24283876Y-5531796D01*
X-24283828Y-5531854D01*
X-24283774Y-5531899D01*
X-24282843Y-5532843D01*
X-23532843Y-6282843D01*
X-23504258Y-6306323D01*
X-23475987Y-6330045D01*
X-23474145Y-6331058D01*
X-23472518Y-6332394D01*
X-23439947Y-6349858D01*
X-23407577Y-6367654D01*
X-23405571Y-6368290D01*
X-23403718Y-6369284D01*
X-23368421Y-6380075D01*
X-23333165Y-6391259D01*
X-23331071Y-6391494D01*
X-23329062Y-6392108D01*
X-23292358Y-6395836D01*
X-23255585Y-6399961D01*
X-23251467Y-6399990D01*
X-23251396Y-6399997D01*
X-23251330Y-6399991D01*
X-23250000Y-6400000D01*
X-19800000Y-6400000D01*
X-19800000Y-16156112D01*
X-21581548Y-13908358D01*
X-23872011Y-9451598D01*
X-25253198Y-4634829D01*
X-25344293Y-3550000D01*
X-24458292Y-3550000D01*
X-24478901Y-3598084D01*
G36*
X-23201209Y-4000000D02*
X-23198034Y-4039811D01*
X-23177123Y-4107336D01*
X-23138228Y-4166362D01*
X-23084429Y-4212214D01*
X-23019985Y-4241263D01*
X-22950000Y-4251209D01*
X-22066895Y-4251209D01*
X-22564477Y-4748791D01*
X-22950000Y-4748791D01*
X-22989811Y-4751966D01*
X-23057336Y-4772877D01*
X-23116362Y-4811772D01*
X-23162214Y-4865571D01*
X-23191263Y-4930015D01*
X-23201209Y-5000000D01*
X-23201209Y-5483105D01*
X-23600000Y-5084314D01*
X-23600000Y-4050406D01*
X-23563149Y-3998166D01*
X-23523267Y-3908588D01*
X-23501543Y-3812970D01*
X-23499979Y-3700972D01*
X-23519024Y-3604785D01*
X-23541605Y-3550000D01*
X-23201209Y-3550000D01*
X-23201209Y-4000000D01*
X-23201209Y-4000000D01*
G37*
X-23201209Y-4000000D02*
X-23198034Y-4039811D01*
X-23177123Y-4107336D01*
X-23138228Y-4166362D01*
X-23084429Y-4212214D01*
X-23019985Y-4241263D01*
X-22950000Y-4251209D01*
X-22066895Y-4251209D01*
X-22564477Y-4748791D01*
X-22950000Y-4748791D01*
X-22989811Y-4751966D01*
X-23057336Y-4772877D01*
X-23116362Y-4811772D01*
X-23162214Y-4865571D01*
X-23191263Y-4930015D01*
X-23201209Y-5000000D01*
X-23201209Y-5483105D01*
X-23600000Y-5084314D01*
X-23600000Y-4050406D01*
X-23563149Y-3998166D01*
X-23523267Y-3908588D01*
X-23501543Y-3812970D01*
X-23499979Y-3700972D01*
X-23519024Y-3604785D01*
X-23541605Y-3550000D01*
X-23201209Y-3550000D01*
X-23201209Y-4000000D01*
G36*
X-14035355Y-11535355D02*
X-14024106Y-11543805D01*
X-14010948Y-11548787D01*
X-14000000Y-11550000D01*
X-10800000Y-11550000D01*
X-10800000Y-14500000D01*
X-10798020Y-14513930D01*
X-10792239Y-14526756D01*
X-10785355Y-14535355D01*
X-7035355Y-18285355D01*
X-7024106Y-18293805D01*
X-7010948Y-18298787D01*
X-7000000Y-18300000D01*
X-175000Y-18300000D01*
X-175000Y-25641461D01*
X-537697Y-25669369D01*
X-5513330Y-25076061D01*
X-10278961Y-23527613D01*
X-12891944Y-22067266D01*
X-10801052Y-22067266D01*
X-10772730Y-22221577D01*
X-10714976Y-22367448D01*
X-10629988Y-22499323D01*
X-10521005Y-22612179D01*
X-10392176Y-22701717D01*
X-10248410Y-22764527D01*
X-10095182Y-22798216D01*
X-9938328Y-22801502D01*
X-9783823Y-22774258D01*
X-9637553Y-22717524D01*
X-9505088Y-22633459D01*
X-9391474Y-22525266D01*
X-9301038Y-22397066D01*
X-9237226Y-22253741D01*
X-9202468Y-22100752D01*
X-9199966Y-21921556D01*
X-9230439Y-21767656D01*
X-9290224Y-21622605D01*
X-9377045Y-21491930D01*
X-9487593Y-21380607D01*
X-9617659Y-21292876D01*
X-9762289Y-21232079D01*
X-9915973Y-21200533D01*
X-10072857Y-21199437D01*
X-10226966Y-21228835D01*
X-10372430Y-21287607D01*
X-10503709Y-21373513D01*
X-10615801Y-21483282D01*
X-10704438Y-21612732D01*
X-10766242Y-21756934D01*
X-10798861Y-21910393D01*
X-10801052Y-22067266D01*
X-12891944Y-22067266D01*
X-14653071Y-21083006D01*
X-18469049Y-17835354D01*
X-19450000Y-16597702D01*
X-19450000Y-10050000D01*
X-15520710Y-10050000D01*
X-14035355Y-11535355D01*
X-14035355Y-11535355D01*
G37*
X-14035355Y-11535355D02*
X-14024106Y-11543805D01*
X-14010948Y-11548787D01*
X-14000000Y-11550000D01*
X-10800000Y-11550000D01*
X-10800000Y-14500000D01*
X-10798020Y-14513930D01*
X-10792239Y-14526756D01*
X-10785355Y-14535355D01*
X-7035355Y-18285355D01*
X-7024106Y-18293805D01*
X-7010948Y-18298787D01*
X-7000000Y-18300000D01*
X-175000Y-18300000D01*
X-175000Y-25641461D01*
X-537697Y-25669369D01*
X-5513330Y-25076061D01*
X-10278961Y-23527613D01*
X-12891944Y-22067266D01*
X-10801052Y-22067266D01*
X-10772730Y-22221577D01*
X-10714976Y-22367448D01*
X-10629988Y-22499323D01*
X-10521005Y-22612179D01*
X-10392176Y-22701717D01*
X-10248410Y-22764527D01*
X-10095182Y-22798216D01*
X-9938328Y-22801502D01*
X-9783823Y-22774258D01*
X-9637553Y-22717524D01*
X-9505088Y-22633459D01*
X-9391474Y-22525266D01*
X-9301038Y-22397066D01*
X-9237226Y-22253741D01*
X-9202468Y-22100752D01*
X-9199966Y-21921556D01*
X-9230439Y-21767656D01*
X-9290224Y-21622605D01*
X-9377045Y-21491930D01*
X-9487593Y-21380607D01*
X-9617659Y-21292876D01*
X-9762289Y-21232079D01*
X-9915973Y-21200533D01*
X-10072857Y-21199437D01*
X-10226966Y-21228835D01*
X-10372430Y-21287607D01*
X-10503709Y-21373513D01*
X-10615801Y-21483282D01*
X-10704438Y-21612732D01*
X-10766242Y-21756934D01*
X-10798861Y-21910393D01*
X-10801052Y-22067266D01*
X-12891944Y-22067266D01*
X-14653071Y-21083006D01*
X-18469049Y-17835354D01*
X-19450000Y-16597702D01*
X-19450000Y-10050000D01*
X-15520710Y-10050000D01*
X-14035355Y-11535355D01*
G36*
X10200000Y7892250D02*
X8755541Y9507174D01*
X8747212Y9514830D01*
X8738967Y9522624D01*
X8737580Y9523684D01*
X6742173Y11026739D01*
X6732482Y11032652D01*
X6722914Y11038675D01*
X6721348Y11039445D01*
X6300000Y11243034D01*
X6300000Y16700000D01*
X10200000Y16700000D01*
X10200000Y7892250D01*
X10200000Y7892250D01*
G37*
X10200000Y7892250D02*
X8755541Y9507174D01*
X8747212Y9514830D01*
X8738967Y9522624D01*
X8737580Y9523684D01*
X6742173Y11026739D01*
X6732482Y11032652D01*
X6722914Y11038675D01*
X6721348Y11039445D01*
X6300000Y11243034D01*
X6300000Y16700000D01*
X10200000Y16700000D01*
X10200000Y7892250D01*
G36*
X15450000Y-2750000D02*
X15451980Y-2763930D01*
X15457761Y-2776756D01*
X15466888Y-2787464D01*
X15478636Y-2795206D01*
X15492076Y-2799368D01*
X15500000Y-2800000D01*
X18200000Y-2800000D01*
X18200000Y-18020788D01*
X17705982Y-18593113D01*
X13757353Y-21678119D01*
X9284711Y-23937414D01*
X4458417Y-25284939D01*
X175000Y-25614530D01*
X175000Y-12862757D01*
X1395716Y-12848832D01*
X1406992Y-12847596D01*
X1418256Y-12846521D01*
X1419965Y-12846174D01*
X1419967Y-12846174D01*
X1419969Y-12846173D01*
X3864820Y-12333031D01*
X3875585Y-12329646D01*
X3886482Y-12326387D01*
X3888092Y-12325714D01*
X6186713Y-11347470D01*
X6196623Y-11342055D01*
X6206672Y-11336745D01*
X6208121Y-11335772D01*
X8272956Y-9929687D01*
X8281655Y-9922425D01*
X8290452Y-9915289D01*
X8291684Y-9914054D01*
X9976460Y-8202390D01*
X10593468Y-8558864D01*
X10600890Y-8562233D01*
X10604144Y-8564139D01*
X10608168Y-8565537D01*
X10615682Y-8568948D01*
X10622793Y-8570618D01*
X10627188Y-8572145D01*
X10632390Y-8572872D01*
X10639432Y-8574526D01*
X10645837Y-8574752D01*
X10651348Y-8575522D01*
X10657621Y-8575167D01*
X10663812Y-8575385D01*
X10669224Y-8574510D01*
X10675706Y-8574143D01*
X10682810Y-8572313D01*
X10687895Y-8571491D01*
X10692174Y-8569901D01*
X10699330Y-8568058D01*
X10706845Y-8564450D01*
X10710763Y-8562995D01*
X10713916Y-8561057D01*
X10721323Y-8557501D01*
X10728753Y-8551934D01*
X10731546Y-8550217D01*
X10733676Y-8548245D01*
X10740847Y-8542873D01*
X10747612Y-8535349D01*
X10749450Y-8533648D01*
X10750753Y-8531855D01*
X10757158Y-8524732D01*
X10758183Y-8523319D01*
X11546439Y-7420594D01*
X11550609Y-7413359D01*
X11555217Y-7406398D01*
X11556023Y-7404850D01*
X12765275Y-5041947D01*
X12768439Y-5033914D01*
X12772061Y-5026070D01*
X12772904Y-5022579D01*
X12774216Y-5019249D01*
X12775759Y-5010763D01*
X12777789Y-5002357D01*
X12777938Y-4998772D01*
X12778579Y-4995246D01*
X12778444Y-4986616D01*
X12778803Y-4977983D01*
X12778253Y-4974439D01*
X12778197Y-4970853D01*
X12776388Y-4962414D01*
X12775063Y-4953875D01*
X12773833Y-4950500D01*
X12773083Y-4947000D01*
X12769673Y-4939081D01*
X12766712Y-4930953D01*
X12764852Y-4927884D01*
X12763435Y-4924593D01*
X12758548Y-4917482D01*
X12754068Y-4910090D01*
X12751647Y-4907440D01*
X12749617Y-4904487D01*
X12743431Y-4898449D01*
X12737611Y-4892081D01*
X12734730Y-4889958D01*
X12732159Y-4887449D01*
X12724925Y-4882733D01*
X12717971Y-4877609D01*
X12716465Y-4876727D01*
X12106599Y-4524881D01*
X12161472Y-4377163D01*
X12162973Y-4371471D01*
X12165042Y-4365965D01*
X12165481Y-4364276D01*
X12777840Y-1942328D01*
X12779529Y-1931147D01*
X12781381Y-1919947D01*
X12781484Y-1918205D01*
X12879038Y-50000D01*
X15450000Y-50000D01*
X15450000Y-2750000D01*
X15450000Y-2750000D01*
G37*
X15450000Y-2750000D02*
X15451980Y-2763930D01*
X15457761Y-2776756D01*
X15466888Y-2787464D01*
X15478636Y-2795206D01*
X15492076Y-2799368D01*
X15500000Y-2800000D01*
X18200000Y-2800000D01*
X18200000Y-18020788D01*
X17705982Y-18593113D01*
X13757353Y-21678119D01*
X9284711Y-23937414D01*
X4458417Y-25284939D01*
X175000Y-25614530D01*
X175000Y-12862757D01*
X1395716Y-12848832D01*
X1406992Y-12847596D01*
X1418256Y-12846521D01*
X1419965Y-12846174D01*
X1419967Y-12846174D01*
X1419969Y-12846173D01*
X3864820Y-12333031D01*
X3875585Y-12329646D01*
X3886482Y-12326387D01*
X3888092Y-12325714D01*
X6186713Y-11347470D01*
X6196623Y-11342055D01*
X6206672Y-11336745D01*
X6208121Y-11335772D01*
X8272956Y-9929687D01*
X8281655Y-9922425D01*
X8290452Y-9915289D01*
X8291684Y-9914054D01*
X9976460Y-8202390D01*
X10593468Y-8558864D01*
X10600890Y-8562233D01*
X10604144Y-8564139D01*
X10608168Y-8565537D01*
X10615682Y-8568948D01*
X10622793Y-8570618D01*
X10627188Y-8572145D01*
X10632390Y-8572872D01*
X10639432Y-8574526D01*
X10645837Y-8574752D01*
X10651348Y-8575522D01*
X10657621Y-8575167D01*
X10663812Y-8575385D01*
X10669224Y-8574510D01*
X10675706Y-8574143D01*
X10682810Y-8572313D01*
X10687895Y-8571491D01*
X10692174Y-8569901D01*
X10699330Y-8568058D01*
X10706845Y-8564450D01*
X10710763Y-8562995D01*
X10713916Y-8561057D01*
X10721323Y-8557501D01*
X10728753Y-8551934D01*
X10731546Y-8550217D01*
X10733676Y-8548245D01*
X10740847Y-8542873D01*
X10747612Y-8535349D01*
X10749450Y-8533648D01*
X10750753Y-8531855D01*
X10757158Y-8524732D01*
X10758183Y-8523319D01*
X11546439Y-7420594D01*
X11550609Y-7413359D01*
X11555217Y-7406398D01*
X11556023Y-7404850D01*
X12765275Y-5041947D01*
X12768439Y-5033914D01*
X12772061Y-5026070D01*
X12772904Y-5022579D01*
X12774216Y-5019249D01*
X12775759Y-5010763D01*
X12777789Y-5002357D01*
X12777938Y-4998772D01*
X12778579Y-4995246D01*
X12778444Y-4986616D01*
X12778803Y-4977983D01*
X12778253Y-4974439D01*
X12778197Y-4970853D01*
X12776388Y-4962414D01*
X12775063Y-4953875D01*
X12773833Y-4950500D01*
X12773083Y-4947000D01*
X12769673Y-4939081D01*
X12766712Y-4930953D01*
X12764852Y-4927884D01*
X12763435Y-4924593D01*
X12758548Y-4917482D01*
X12754068Y-4910090D01*
X12751647Y-4907440D01*
X12749617Y-4904487D01*
X12743431Y-4898449D01*
X12737611Y-4892081D01*
X12734730Y-4889958D01*
X12732159Y-4887449D01*
X12724925Y-4882733D01*
X12717971Y-4877609D01*
X12716465Y-4876727D01*
X12106599Y-4524881D01*
X12161472Y-4377163D01*
X12162973Y-4371471D01*
X12165042Y-4365965D01*
X12165481Y-4364276D01*
X12777840Y-1942328D01*
X12779529Y-1931147D01*
X12781381Y-1919947D01*
X12781484Y-1918205D01*
X12879038Y-50000D01*
X15450000Y-50000D01*
X15450000Y-2750000D01*
G36*
X-15884875Y2322949D02*
X-15940273Y2242042D01*
X-15978901Y2151916D01*
X-15999288Y2056004D01*
X-16000657Y1957959D01*
X-15982956Y1861515D01*
X-15946860Y1770345D01*
X-15893742Y1687924D01*
X-15825628Y1617389D01*
X-15800000Y1599577D01*
X-15800000Y996958D01*
X-15806341Y989238D01*
X-15830063Y960967D01*
X-15831076Y959125D01*
X-15832412Y957498D01*
X-15849876Y924927D01*
X-15867672Y892557D01*
X-15868308Y890551D01*
X-15869302Y888698D01*
X-15880093Y853401D01*
X-15891277Y818145D01*
X-15891512Y816051D01*
X-15892126Y814042D01*
X-15895859Y777293D01*
X-15899979Y740565D01*
X-15900008Y736458D01*
X-15900016Y736376D01*
X-15900009Y736300D01*
X-15900018Y734980D01*
X-15900018Y-3200000D01*
X-16950000Y-3200000D01*
X-16950000Y-2500000D01*
X-16951980Y-2486070D01*
X-16957761Y-2473244D01*
X-16966888Y-2462536D01*
X-16978636Y-2454794D01*
X-16992076Y-2450632D01*
X-17000000Y-2450000D01*
X-17729290Y-2450000D01*
X-18200000Y-1979290D01*
X-18200000Y1600000D01*
X-17750000Y1600000D01*
X-17713216Y1603607D01*
X-17676420Y1606826D01*
X-17674401Y1607413D01*
X-17672306Y1607618D01*
X-17636923Y1618301D01*
X-17601453Y1628606D01*
X-17599585Y1629574D01*
X-17597572Y1630182D01*
X-17564942Y1647531D01*
X-17532145Y1664532D01*
X-17530502Y1665844D01*
X-17528643Y1666832D01*
X-17499989Y1690202D01*
X-17471134Y1713236D01*
X-17468204Y1716124D01*
X-17468146Y1716172D01*
X-17468101Y1716226D01*
X-17467157Y1717157D01*
X-16967157Y2217157D01*
X-16943677Y2245742D01*
X-16919955Y2274013D01*
X-16918942Y2275855D01*
X-16917606Y2277482D01*
X-16900142Y2310053D01*
X-16882346Y2342423D01*
X-16881710Y2344429D01*
X-16880716Y2346282D01*
X-16879579Y2350000D01*
X-15857251Y2350000D01*
X-15884875Y2322949D01*
X-15884875Y2322949D01*
G37*
X-15884875Y2322949D02*
X-15940273Y2242042D01*
X-15978901Y2151916D01*
X-15999288Y2056004D01*
X-16000657Y1957959D01*
X-15982956Y1861515D01*
X-15946860Y1770345D01*
X-15893742Y1687924D01*
X-15825628Y1617389D01*
X-15800000Y1599577D01*
X-15800000Y996958D01*
X-15806341Y989238D01*
X-15830063Y960967D01*
X-15831076Y959125D01*
X-15832412Y957498D01*
X-15849876Y924927D01*
X-15867672Y892557D01*
X-15868308Y890551D01*
X-15869302Y888698D01*
X-15880093Y853401D01*
X-15891277Y818145D01*
X-15891512Y816051D01*
X-15892126Y814042D01*
X-15895859Y777293D01*
X-15899979Y740565D01*
X-15900008Y736458D01*
X-15900016Y736376D01*
X-15900009Y736300D01*
X-15900018Y734980D01*
X-15900018Y-3200000D01*
X-16950000Y-3200000D01*
X-16950000Y-2500000D01*
X-16951980Y-2486070D01*
X-16957761Y-2473244D01*
X-16966888Y-2462536D01*
X-16978636Y-2454794D01*
X-16992076Y-2450632D01*
X-17000000Y-2450000D01*
X-17729290Y-2450000D01*
X-18200000Y-1979290D01*
X-18200000Y1600000D01*
X-17750000Y1600000D01*
X-17713216Y1603607D01*
X-17676420Y1606826D01*
X-17674401Y1607413D01*
X-17672306Y1607618D01*
X-17636923Y1618301D01*
X-17601453Y1628606D01*
X-17599585Y1629574D01*
X-17597572Y1630182D01*
X-17564942Y1647531D01*
X-17532145Y1664532D01*
X-17530502Y1665844D01*
X-17528643Y1666832D01*
X-17499989Y1690202D01*
X-17471134Y1713236D01*
X-17468204Y1716124D01*
X-17468146Y1716172D01*
X-17468101Y1716226D01*
X-17467157Y1717157D01*
X-16967157Y2217157D01*
X-16943677Y2245742D01*
X-16919955Y2274013D01*
X-16918942Y2275855D01*
X-16917606Y2277482D01*
X-16900142Y2310053D01*
X-16882346Y2342423D01*
X-16881710Y2344429D01*
X-16880716Y2346282D01*
X-16879579Y2350000D01*
X-15857251Y2350000D01*
X-15884875Y2322949D01*
G36*
X16950000Y2500000D02*
X16951980Y2486070D01*
X16957761Y2473244D01*
X16966888Y2462536D01*
X16978636Y2454794D01*
X16992076Y2450632D01*
X17000000Y2450000D01*
X17479290Y2450000D01*
X18200000Y1729290D01*
X18200000Y-2450000D01*
X15800000Y-2450000D01*
X15800000Y3200000D01*
X16950000Y3200000D01*
X16950000Y2500000D01*
X16950000Y2500000D01*
G37*
X16950000Y2500000D02*
X16951980Y2486070D01*
X16957761Y2473244D01*
X16966888Y2462536D01*
X16978636Y2454794D01*
X16992076Y2450632D01*
X17000000Y2450000D01*
X17479290Y2450000D01*
X18200000Y1729290D01*
X18200000Y-2450000D01*
X15800000Y-2450000D01*
X15800000Y3200000D01*
X16950000Y3200000D01*
X16950000Y2500000D01*
G36*
X25186024Y4986967D02*
X25326920Y3550000D01*
X24458296Y3550000D01*
X24476733Y3591412D01*
X24498457Y3687030D01*
X24500021Y3799028D01*
X24480976Y3895215D01*
X24443610Y3985871D01*
X24389347Y4067544D01*
X24320254Y4137120D01*
X24238963Y4191952D01*
X24148569Y4229950D01*
X24069507Y4246179D01*
X23900000Y4415686D01*
X23900000Y9246482D01*
X25186024Y4986967D01*
X25186024Y4986967D01*
G37*
X25186024Y4986967D02*
X25326920Y3550000D01*
X24458296Y3550000D01*
X24476733Y3591412D01*
X24498457Y3687030D01*
X24500021Y3799028D01*
X24480976Y3895215D01*
X24443610Y3985871D01*
X24389347Y4067544D01*
X24320254Y4137120D01*
X24238963Y4191952D01*
X24148569Y4229950D01*
X24069507Y4246179D01*
X23900000Y4415686D01*
X23900000Y9246482D01*
X25186024Y4986967D01*
G36*
X22714645Y9964645D02*
X22725894Y9956195D01*
X22729475Y9954839D01*
X23100000Y9584314D01*
X23100000Y5698943D01*
X23084429Y5712214D01*
X23019985Y5741263D01*
X22950000Y5751209D01*
X22050000Y5751209D01*
X22010189Y5748034D01*
X21942664Y5727123D01*
X21883638Y5688228D01*
X21837786Y5634429D01*
X21808737Y5569985D01*
X21798791Y5500000D01*
X21798791Y5000000D01*
X21801966Y4960189D01*
X21822854Y4892739D01*
X21792313Y4895841D01*
X21755585Y4899961D01*
X21751478Y4899990D01*
X21751396Y4899998D01*
X21751320Y4899991D01*
X21750000Y4900000D01*
X21677733Y4900000D01*
X21691263Y4930015D01*
X21701209Y5000000D01*
X21701209Y5034083D01*
X21726733Y5091412D01*
X21748457Y5187030D01*
X21750021Y5299028D01*
X21730976Y5395215D01*
X21701209Y5467435D01*
X21701209Y5500000D01*
X21698034Y5539811D01*
X21677123Y5607336D01*
X21638228Y5666362D01*
X21584429Y5712214D01*
X21519985Y5741263D01*
X21450000Y5751209D01*
X20550000Y5751209D01*
X20510189Y5748034D01*
X20442664Y5727123D01*
X20383638Y5688228D01*
X20337786Y5634429D01*
X20308737Y5569985D01*
X20298791Y5500000D01*
X20298791Y5000000D01*
X20301966Y4960189D01*
X20320605Y4900000D01*
X20177733Y4900000D01*
X20191263Y4930015D01*
X20201209Y5000000D01*
X20201209Y5500000D01*
X20198034Y5539811D01*
X20177123Y5607336D01*
X20138228Y5666362D01*
X20084429Y5712214D01*
X20019985Y5741263D01*
X19950000Y5751209D01*
X19800000Y5751209D01*
X19800000Y12879290D01*
X22714645Y9964645D01*
X22714645Y9964645D01*
G37*
X22714645Y9964645D02*
X22725894Y9956195D01*
X22729475Y9954839D01*
X23100000Y9584314D01*
X23100000Y5698943D01*
X23084429Y5712214D01*
X23019985Y5741263D01*
X22950000Y5751209D01*
X22050000Y5751209D01*
X22010189Y5748034D01*
X21942664Y5727123D01*
X21883638Y5688228D01*
X21837786Y5634429D01*
X21808737Y5569985D01*
X21798791Y5500000D01*
X21798791Y5000000D01*
X21801966Y4960189D01*
X21822854Y4892739D01*
X21792313Y4895841D01*
X21755585Y4899961D01*
X21751478Y4899990D01*
X21751396Y4899998D01*
X21751320Y4899991D01*
X21750000Y4900000D01*
X21677733Y4900000D01*
X21691263Y4930015D01*
X21701209Y5000000D01*
X21701209Y5034083D01*
X21726733Y5091412D01*
X21748457Y5187030D01*
X21750021Y5299028D01*
X21730976Y5395215D01*
X21701209Y5467435D01*
X21701209Y5500000D01*
X21698034Y5539811D01*
X21677123Y5607336D01*
X21638228Y5666362D01*
X21584429Y5712214D01*
X21519985Y5741263D01*
X21450000Y5751209D01*
X20550000Y5751209D01*
X20510189Y5748034D01*
X20442664Y5727123D01*
X20383638Y5688228D01*
X20337786Y5634429D01*
X20308737Y5569985D01*
X20298791Y5500000D01*
X20298791Y5000000D01*
X20301966Y4960189D01*
X20320605Y4900000D01*
X20177733Y4900000D01*
X20191263Y4930015D01*
X20201209Y5000000D01*
X20201209Y5500000D01*
X20198034Y5539811D01*
X20177123Y5607336D01*
X20138228Y5666362D01*
X20084429Y5712214D01*
X20019985Y5741263D01*
X19950000Y5751209D01*
X19800000Y5751209D01*
X19800000Y12879290D01*
X22714645Y9964645D01*
G36*
X5162676Y25150595D02*
X9949463Y23668836D01*
X14357278Y21285540D01*
X18218229Y18091483D01*
X21385253Y14208328D01*
X23398217Y10422493D01*
X15285355Y18535355D01*
X15274106Y18543805D01*
X15270525Y18545161D01*
X12782843Y21032843D01*
X12754258Y21056323D01*
X12725987Y21080045D01*
X12724145Y21081058D01*
X12722518Y21082394D01*
X12689947Y21099858D01*
X12657577Y21117654D01*
X12655571Y21118290D01*
X12653718Y21119284D01*
X12618421Y21130075D01*
X12583165Y21141259D01*
X12581071Y21141494D01*
X12579062Y21142108D01*
X12542313Y21145841D01*
X12505585Y21149961D01*
X12501478Y21149990D01*
X12501396Y21149998D01*
X12501320Y21149991D01*
X12500000Y21150000D01*
X-1084314Y21150000D01*
X-1867048Y21932734D01*
X9198948Y21932734D01*
X9227270Y21778423D01*
X9285024Y21632552D01*
X9370012Y21500677D01*
X9478995Y21387821D01*
X9607824Y21298283D01*
X9751590Y21235473D01*
X9904818Y21201784D01*
X10061672Y21198498D01*
X10216177Y21225742D01*
X10362447Y21282476D01*
X10494912Y21366541D01*
X10608526Y21474734D01*
X10698962Y21602934D01*
X10762774Y21746259D01*
X10797532Y21899248D01*
X10800034Y22078444D01*
X10769561Y22232344D01*
X10709776Y22377395D01*
X10622955Y22508070D01*
X10512407Y22619393D01*
X10382341Y22707124D01*
X10237711Y22767921D01*
X10084027Y22799467D01*
X9927143Y22800563D01*
X9773034Y22771165D01*
X9627570Y22712393D01*
X9496291Y22626487D01*
X9384199Y22516718D01*
X9295562Y22387268D01*
X9233758Y22243066D01*
X9201139Y22089607D01*
X9198948Y21932734D01*
X-1867048Y21932734D01*
X-2600000Y22665686D01*
X-2600000Y23250000D01*
X-2603607Y23286784D01*
X-2606826Y23323580D01*
X-2607413Y23325599D01*
X-2607618Y23327694D01*
X-2618301Y23363077D01*
X-2628606Y23398547D01*
X-2629574Y23400415D01*
X-2630182Y23402428D01*
X-2647531Y23435058D01*
X-2664532Y23467855D01*
X-2665844Y23469498D01*
X-2666832Y23471357D01*
X-2690202Y23500011D01*
X-2713236Y23528866D01*
X-2716124Y23531796D01*
X-2716172Y23531854D01*
X-2716226Y23531899D01*
X-2717157Y23532843D01*
X-3200000Y24015686D01*
X-3200000Y25366839D01*
X179244Y25674374D01*
X5162676Y25150595D01*
X5162676Y25150595D01*
G37*
X5162676Y25150595D02*
X9949463Y23668836D01*
X14357278Y21285540D01*
X18218229Y18091483D01*
X21385253Y14208328D01*
X23398217Y10422493D01*
X15285355Y18535355D01*
X15274106Y18543805D01*
X15270525Y18545161D01*
X12782843Y21032843D01*
X12754258Y21056323D01*
X12725987Y21080045D01*
X12724145Y21081058D01*
X12722518Y21082394D01*
X12689947Y21099858D01*
X12657577Y21117654D01*
X12655571Y21118290D01*
X12653718Y21119284D01*
X12618421Y21130075D01*
X12583165Y21141259D01*
X12581071Y21141494D01*
X12579062Y21142108D01*
X12542313Y21145841D01*
X12505585Y21149961D01*
X12501478Y21149990D01*
X12501396Y21149998D01*
X12501320Y21149991D01*
X12500000Y21150000D01*
X-1084314Y21150000D01*
X-1867048Y21932734D01*
X9198948Y21932734D01*
X9227270Y21778423D01*
X9285024Y21632552D01*
X9370012Y21500677D01*
X9478995Y21387821D01*
X9607824Y21298283D01*
X9751590Y21235473D01*
X9904818Y21201784D01*
X10061672Y21198498D01*
X10216177Y21225742D01*
X10362447Y21282476D01*
X10494912Y21366541D01*
X10608526Y21474734D01*
X10698962Y21602934D01*
X10762774Y21746259D01*
X10797532Y21899248D01*
X10800034Y22078444D01*
X10769561Y22232344D01*
X10709776Y22377395D01*
X10622955Y22508070D01*
X10512407Y22619393D01*
X10382341Y22707124D01*
X10237711Y22767921D01*
X10084027Y22799467D01*
X9927143Y22800563D01*
X9773034Y22771165D01*
X9627570Y22712393D01*
X9496291Y22626487D01*
X9384199Y22516718D01*
X9295562Y22387268D01*
X9233758Y22243066D01*
X9201139Y22089607D01*
X9198948Y21932734D01*
X-1867048Y21932734D01*
X-2600000Y22665686D01*
X-2600000Y23250000D01*
X-2603607Y23286784D01*
X-2606826Y23323580D01*
X-2607413Y23325599D01*
X-2607618Y23327694D01*
X-2618301Y23363077D01*
X-2628606Y23398547D01*
X-2629574Y23400415D01*
X-2630182Y23402428D01*
X-2647531Y23435058D01*
X-2664532Y23467855D01*
X-2665844Y23469498D01*
X-2666832Y23471357D01*
X-2690202Y23500011D01*
X-2713236Y23528866D01*
X-2716124Y23531796D01*
X-2716172Y23531854D01*
X-2716226Y23531899D01*
X-2717157Y23532843D01*
X-3200000Y24015686D01*
X-3200000Y25366839D01*
X179244Y25674374D01*
X5162676Y25150595D01*
G36*
X-1532843Y20467157D02*
X-1504258Y20443677D01*
X-1475987Y20419955D01*
X-1474145Y20418942D01*
X-1472518Y20417606D01*
X-1439947Y20400142D01*
X-1407577Y20382346D01*
X-1405571Y20381710D01*
X-1403718Y20380716D01*
X-1368380Y20369912D01*
X-1333165Y20358741D01*
X-1331076Y20358507D01*
X-1329062Y20357891D01*
X-1292263Y20354153D01*
X-1255585Y20350039D01*
X-1251478Y20350010D01*
X-1251396Y20350002D01*
X-1251320Y20350009D01*
X-1250000Y20350000D01*
X12334314Y20350000D01*
X14134314Y18550000D01*
X-2000000Y18550000D01*
X-2013930Y18548020D01*
X-2026756Y18542239D01*
X-2035355Y18535355D01*
X-2785355Y17785355D01*
X-2793805Y17774106D01*
X-2798787Y17760948D01*
X-2800000Y17750000D01*
X-2800000Y17550000D01*
X-3200000Y17550000D01*
X-3200000Y22134314D01*
X-1532843Y20467157D01*
X-1532843Y20467157D01*
G37*
X-1532843Y20467157D02*
X-1504258Y20443677D01*
X-1475987Y20419955D01*
X-1474145Y20418942D01*
X-1472518Y20417606D01*
X-1439947Y20400142D01*
X-1407577Y20382346D01*
X-1405571Y20381710D01*
X-1403718Y20380716D01*
X-1368380Y20369912D01*
X-1333165Y20358741D01*
X-1331076Y20358507D01*
X-1329062Y20357891D01*
X-1292263Y20354153D01*
X-1255585Y20350039D01*
X-1251478Y20350010D01*
X-1251396Y20350002D01*
X-1251320Y20350009D01*
X-1250000Y20350000D01*
X12334314Y20350000D01*
X14134314Y18550000D01*
X-2000000Y18550000D01*
X-2013930Y18548020D01*
X-2026756Y18542239D01*
X-2035355Y18535355D01*
X-2785355Y17785355D01*
X-2793805Y17774106D01*
X-2798787Y17760948D01*
X-2800000Y17750000D01*
X-2800000Y17550000D01*
X-3200000Y17550000D01*
X-3200000Y22134314D01*
X-1532843Y20467157D01*
G36*
X-12738639Y-2180369D02*
X-12736715Y-2191545D01*
X-12734951Y-2202725D01*
X-12734500Y-2204411D01*
X-12098126Y-4519993D01*
X-12716465Y-4876727D01*
X-12722740Y-4881216D01*
X-12725767Y-4882933D01*
X-12728831Y-4885574D01*
X-12736306Y-4890922D01*
X-12741725Y-4896689D01*
X-12744245Y-4898861D01*
X-12746627Y-4901905D01*
X-12753012Y-4908700D01*
X-12757264Y-4915500D01*
X-12759278Y-4918074D01*
X-12760995Y-4921466D01*
X-12765946Y-4929385D01*
X-12768800Y-4936892D01*
X-12770293Y-4939842D01*
X-12771329Y-4943544D01*
X-12774616Y-4952188D01*
X-12775946Y-4960032D01*
X-12776870Y-4963334D01*
X-12777178Y-4967306D01*
X-12778693Y-4976241D01*
X-12778478Y-4984034D01*
X-12778759Y-4987657D01*
X-12778262Y-4991852D01*
X-12778019Y-5000627D01*
X-12776347Y-5007999D01*
X-12775886Y-5011883D01*
X-12774485Y-5016206D01*
X-12772622Y-5024418D01*
X-12769678Y-5031035D01*
X-12768364Y-5035091D01*
X-12767656Y-5036685D01*
X-12208405Y-6271849D01*
X-12204235Y-6279084D01*
X-12200519Y-6286563D01*
X-12199584Y-6288036D01*
X-10761051Y-8518745D01*
X-10755632Y-8525577D01*
X-10750600Y-8532706D01*
X-10748063Y-8535120D01*
X-10745891Y-8537859D01*
X-10739249Y-8543508D01*
X-10732928Y-8549524D01*
X-10729973Y-8551398D01*
X-10727308Y-8553665D01*
X-10719698Y-8557915D01*
X-10712327Y-8562590D01*
X-10709061Y-8563856D01*
X-10706009Y-8565560D01*
X-10697715Y-8568252D01*
X-10689579Y-8571405D01*
X-10686134Y-8572011D01*
X-10682805Y-8573092D01*
X-10674134Y-8574124D01*
X-10665553Y-8575634D01*
X-10662061Y-8575560D01*
X-10658580Y-8575974D01*
X-10649866Y-8575301D01*
X-10641163Y-8575116D01*
X-10637752Y-8574365D01*
X-10634257Y-8574095D01*
X-10625840Y-8571742D01*
X-10617338Y-8569870D01*
X-10614137Y-8568470D01*
X-10610762Y-8567527D01*
X-10602966Y-8563586D01*
X-10594985Y-8560097D01*
X-10593468Y-8559235D01*
X-9983960Y-8207094D01*
X-9865179Y-8350677D01*
X-9860956Y-8354870D01*
X-9857170Y-8359471D01*
X-9855926Y-8360695D01*
X-8063367Y-10100624D01*
X-8054508Y-10107683D01*
X-8045745Y-10114867D01*
X-8044287Y-10115826D01*
X-5947914Y-11474443D01*
X-5937837Y-11479654D01*
X-5927861Y-11484991D01*
X-5926244Y-11485649D01*
X-3605905Y-12411202D01*
X-3595033Y-12414349D01*
X-3584185Y-12417655D01*
X-3582472Y-12417986D01*
X-1126550Y-12875223D01*
X-1115290Y-12876197D01*
X-1103990Y-12877335D01*
X-1102245Y-12877327D01*
X-175000Y-12866750D01*
X-175000Y-17950000D01*
X-6979290Y-17950000D01*
X-10450000Y-14479290D01*
X-10450000Y-11250000D01*
X-10451980Y-11236070D01*
X-10457761Y-11223244D01*
X-10466888Y-11212536D01*
X-10478636Y-11204794D01*
X-10492076Y-11200632D01*
X-10500000Y-11200000D01*
X-13979290Y-11200000D01*
X-15464645Y-9714645D01*
X-15475894Y-9706195D01*
X-15489052Y-9701213D01*
X-15500000Y-9700000D01*
X-19450000Y-9700000D01*
X-19450000Y-5751209D01*
X-19314477Y-5751209D01*
X-18782843Y-6282843D01*
X-18754258Y-6306323D01*
X-18725987Y-6330045D01*
X-18724145Y-6331058D01*
X-18722518Y-6332394D01*
X-18689947Y-6349858D01*
X-18657577Y-6367654D01*
X-18655571Y-6368290D01*
X-18653718Y-6369284D01*
X-18618421Y-6380075D01*
X-18583165Y-6391259D01*
X-18581071Y-6391494D01*
X-18579062Y-6392108D01*
X-18542358Y-6395836D01*
X-18505585Y-6399961D01*
X-18501467Y-6399990D01*
X-18501396Y-6399997D01*
X-18501330Y-6399991D01*
X-18500000Y-6400000D01*
X-15500000Y-6400000D01*
X-15463216Y-6396393D01*
X-15426420Y-6393174D01*
X-15424401Y-6392587D01*
X-15422306Y-6392382D01*
X-15386923Y-6381699D01*
X-15351453Y-6371394D01*
X-15349585Y-6370426D01*
X-15347572Y-6369818D01*
X-15314942Y-6352469D01*
X-15282145Y-6335468D01*
X-15280502Y-6334156D01*
X-15278643Y-6333168D01*
X-15249989Y-6309798D01*
X-15221134Y-6286764D01*
X-15218204Y-6283876D01*
X-15218146Y-6283828D01*
X-15218101Y-6283774D01*
X-15217157Y-6282843D01*
X-14967158Y-6032843D01*
X-14943702Y-6004288D01*
X-14919955Y-5975987D01*
X-14918942Y-5974145D01*
X-14917606Y-5972518D01*
X-14900161Y-5939982D01*
X-14882346Y-5907577D01*
X-14881708Y-5905567D01*
X-14880717Y-5903718D01*
X-14869936Y-5868454D01*
X-14858741Y-5833165D01*
X-14858506Y-5831072D01*
X-14857892Y-5829063D01*
X-14854163Y-5792353D01*
X-14850039Y-5755585D01*
X-14850010Y-5751467D01*
X-14850003Y-5751396D01*
X-14850009Y-5751330D01*
X-14850000Y-5750000D01*
X-14850000Y-5415686D01*
X-14217157Y-4782843D01*
X-14193677Y-4754258D01*
X-14169955Y-4725987D01*
X-14168942Y-4724145D01*
X-14167606Y-4722518D01*
X-14150142Y-4689947D01*
X-14132346Y-4657577D01*
X-14131710Y-4655571D01*
X-14130716Y-4653718D01*
X-14119925Y-4618421D01*
X-14108741Y-4583165D01*
X-14108506Y-4581071D01*
X-14107892Y-4579062D01*
X-14104164Y-4542358D01*
X-14100039Y-4505585D01*
X-14100010Y-4501467D01*
X-14100003Y-4501396D01*
X-14100009Y-4501330D01*
X-14100000Y-4500000D01*
X-14100000Y-478136D01*
X-14023471Y-448452D01*
X-13940680Y-395912D01*
X-13869671Y-328291D01*
X-13813149Y-248166D01*
X-13773267Y-158588D01*
X-13751543Y-62970D01*
X-13751362Y-50000D01*
X-12893843Y-50000D01*
X-12738639Y-2180369D01*
X-12738639Y-2180369D01*
G37*
X-12738639Y-2180369D02*
X-12736715Y-2191545D01*
X-12734951Y-2202725D01*
X-12734500Y-2204411D01*
X-12098126Y-4519993D01*
X-12716465Y-4876727D01*
X-12722740Y-4881216D01*
X-12725767Y-4882933D01*
X-12728831Y-4885574D01*
X-12736306Y-4890922D01*
X-12741725Y-4896689D01*
X-12744245Y-4898861D01*
X-12746627Y-4901905D01*
X-12753012Y-4908700D01*
X-12757264Y-4915500D01*
X-12759278Y-4918074D01*
X-12760995Y-4921466D01*
X-12765946Y-4929385D01*
X-12768800Y-4936892D01*
X-12770293Y-4939842D01*
X-12771329Y-4943544D01*
X-12774616Y-4952188D01*
X-12775946Y-4960032D01*
X-12776870Y-4963334D01*
X-12777178Y-4967306D01*
X-12778693Y-4976241D01*
X-12778478Y-4984034D01*
X-12778759Y-4987657D01*
X-12778262Y-4991852D01*
X-12778019Y-5000627D01*
X-12776347Y-5007999D01*
X-12775886Y-5011883D01*
X-12774485Y-5016206D01*
X-12772622Y-5024418D01*
X-12769678Y-5031035D01*
X-12768364Y-5035091D01*
X-12767656Y-5036685D01*
X-12208405Y-6271849D01*
X-12204235Y-6279084D01*
X-12200519Y-6286563D01*
X-12199584Y-6288036D01*
X-10761051Y-8518745D01*
X-10755632Y-8525577D01*
X-10750600Y-8532706D01*
X-10748063Y-8535120D01*
X-10745891Y-8537859D01*
X-10739249Y-8543508D01*
X-10732928Y-8549524D01*
X-10729973Y-8551398D01*
X-10727308Y-8553665D01*
X-10719698Y-8557915D01*
X-10712327Y-8562590D01*
X-10709061Y-8563856D01*
X-10706009Y-8565560D01*
X-10697715Y-8568252D01*
X-10689579Y-8571405D01*
X-10686134Y-8572011D01*
X-10682805Y-8573092D01*
X-10674134Y-8574124D01*
X-10665553Y-8575634D01*
X-10662061Y-8575560D01*
X-10658580Y-8575974D01*
X-10649866Y-8575301D01*
X-10641163Y-8575116D01*
X-10637752Y-8574365D01*
X-10634257Y-8574095D01*
X-10625840Y-8571742D01*
X-10617338Y-8569870D01*
X-10614137Y-8568470D01*
X-10610762Y-8567527D01*
X-10602966Y-8563586D01*
X-10594985Y-8560097D01*
X-10593468Y-8559235D01*
X-9983960Y-8207094D01*
X-9865179Y-8350677D01*
X-9860956Y-8354870D01*
X-9857170Y-8359471D01*
X-9855926Y-8360695D01*
X-8063367Y-10100624D01*
X-8054508Y-10107683D01*
X-8045745Y-10114867D01*
X-8044287Y-10115826D01*
X-5947914Y-11474443D01*
X-5937837Y-11479654D01*
X-5927861Y-11484991D01*
X-5926244Y-11485649D01*
X-3605905Y-12411202D01*
X-3595033Y-12414349D01*
X-3584185Y-12417655D01*
X-3582472Y-12417986D01*
X-1126550Y-12875223D01*
X-1115290Y-12876197D01*
X-1103990Y-12877335D01*
X-1102245Y-12877327D01*
X-175000Y-12866750D01*
X-175000Y-17950000D01*
X-6979290Y-17950000D01*
X-10450000Y-14479290D01*
X-10450000Y-11250000D01*
X-10451980Y-11236070D01*
X-10457761Y-11223244D01*
X-10466888Y-11212536D01*
X-10478636Y-11204794D01*
X-10492076Y-11200632D01*
X-10500000Y-11200000D01*
X-13979290Y-11200000D01*
X-15464645Y-9714645D01*
X-15475894Y-9706195D01*
X-15489052Y-9701213D01*
X-15500000Y-9700000D01*
X-19450000Y-9700000D01*
X-19450000Y-5751209D01*
X-19314477Y-5751209D01*
X-18782843Y-6282843D01*
X-18754258Y-6306323D01*
X-18725987Y-6330045D01*
X-18724145Y-6331058D01*
X-18722518Y-6332394D01*
X-18689947Y-6349858D01*
X-18657577Y-6367654D01*
X-18655571Y-6368290D01*
X-18653718Y-6369284D01*
X-18618421Y-6380075D01*
X-18583165Y-6391259D01*
X-18581071Y-6391494D01*
X-18579062Y-6392108D01*
X-18542358Y-6395836D01*
X-18505585Y-6399961D01*
X-18501467Y-6399990D01*
X-18501396Y-6399997D01*
X-18501330Y-6399991D01*
X-18500000Y-6400000D01*
X-15500000Y-6400000D01*
X-15463216Y-6396393D01*
X-15426420Y-6393174D01*
X-15424401Y-6392587D01*
X-15422306Y-6392382D01*
X-15386923Y-6381699D01*
X-15351453Y-6371394D01*
X-15349585Y-6370426D01*
X-15347572Y-6369818D01*
X-15314942Y-6352469D01*
X-15282145Y-6335468D01*
X-15280502Y-6334156D01*
X-15278643Y-6333168D01*
X-15249989Y-6309798D01*
X-15221134Y-6286764D01*
X-15218204Y-6283876D01*
X-15218146Y-6283828D01*
X-15218101Y-6283774D01*
X-15217157Y-6282843D01*
X-14967158Y-6032843D01*
X-14943702Y-6004288D01*
X-14919955Y-5975987D01*
X-14918942Y-5974145D01*
X-14917606Y-5972518D01*
X-14900161Y-5939982D01*
X-14882346Y-5907577D01*
X-14881708Y-5905567D01*
X-14880717Y-5903718D01*
X-14869936Y-5868454D01*
X-14858741Y-5833165D01*
X-14858506Y-5831072D01*
X-14857892Y-5829063D01*
X-14854163Y-5792353D01*
X-14850039Y-5755585D01*
X-14850010Y-5751467D01*
X-14850003Y-5751396D01*
X-14850009Y-5751330D01*
X-14850000Y-5750000D01*
X-14850000Y-5415686D01*
X-14217157Y-4782843D01*
X-14193677Y-4754258D01*
X-14169955Y-4725987D01*
X-14168942Y-4724145D01*
X-14167606Y-4722518D01*
X-14150142Y-4689947D01*
X-14132346Y-4657577D01*
X-14131710Y-4655571D01*
X-14130716Y-4653718D01*
X-14119925Y-4618421D01*
X-14108741Y-4583165D01*
X-14108506Y-4581071D01*
X-14107892Y-4579062D01*
X-14104164Y-4542358D01*
X-14100039Y-4505585D01*
X-14100010Y-4501467D01*
X-14100003Y-4501396D01*
X-14100009Y-4501330D01*
X-14100000Y-4500000D01*
X-14100000Y-478136D01*
X-14023471Y-448452D01*
X-13940680Y-395912D01*
X-13869671Y-328291D01*
X-13813149Y-248166D01*
X-13773267Y-158588D01*
X-13751543Y-62970D01*
X-13751362Y-50000D01*
X-12893843Y-50000D01*
X-12738639Y-2180369D01*
G36*
X2450000Y15900001D02*
X-2020997Y15900001D01*
X-2056390Y15985871D01*
X-2110653Y16067544D01*
X-2179746Y16137120D01*
X-2261037Y16191952D01*
X-2351431Y16229950D01*
X-2447483Y16249667D01*
X-2545536Y16250351D01*
X-2641854Y16231978D01*
X-2732769Y16195246D01*
X-2814818Y16141554D01*
X-2884875Y16072949D01*
X-2940273Y15992042D01*
X-2978901Y15901916D01*
X-2999288Y15806004D01*
X-2999372Y15800000D01*
X-3200000Y15800000D01*
X-3200000Y17200000D01*
X-2500000Y17200000D01*
X-2486070Y17201980D01*
X-2473244Y17207761D01*
X-2462536Y17216888D01*
X-2454794Y17228636D01*
X-2450632Y17242076D01*
X-2450000Y17250000D01*
X-2450000Y17729290D01*
X-1979290Y18200000D01*
X2450000Y18200000D01*
X2450000Y15900001D01*
X2450000Y15900001D01*
G37*
X2450000Y15900001D02*
X-2020997Y15900001D01*
X-2056390Y15985871D01*
X-2110653Y16067544D01*
X-2179746Y16137120D01*
X-2261037Y16191952D01*
X-2351431Y16229950D01*
X-2447483Y16249667D01*
X-2545536Y16250351D01*
X-2641854Y16231978D01*
X-2732769Y16195246D01*
X-2814818Y16141554D01*
X-2884875Y16072949D01*
X-2940273Y15992042D01*
X-2978901Y15901916D01*
X-2999288Y15806004D01*
X-2999372Y15800000D01*
X-3200000Y15800000D01*
X-3200000Y17200000D01*
X-2500000Y17200000D01*
X-2486070Y17201980D01*
X-2473244Y17207761D01*
X-2462536Y17216888D01*
X-2454794Y17228636D01*
X-2450632Y17242076D01*
X-2450000Y17250000D01*
X-2450000Y17729290D01*
X-1979290Y18200000D01*
X2450000Y18200000D01*
X2450000Y15900001D01*
G36*
X5995718Y18193698D02*
X6024013Y18169955D01*
X6025855Y18168942D01*
X6027482Y18167606D01*
X6060053Y18150142D01*
X6092423Y18132346D01*
X6094429Y18131710D01*
X6096282Y18130716D01*
X6131620Y18119912D01*
X6166835Y18108741D01*
X6168924Y18108507D01*
X6170938Y18107891D01*
X6207732Y18104154D01*
X6244415Y18100039D01*
X6248523Y18100010D01*
X6248605Y18100002D01*
X6248681Y18100009D01*
X6250000Y18100000D01*
X14579290Y18100000D01*
X19450000Y13229290D01*
X19450000Y5751209D01*
X19050000Y5751209D01*
X19010189Y5748034D01*
X18942664Y5727123D01*
X18883638Y5688228D01*
X18837786Y5634429D01*
X18808737Y5569985D01*
X18798791Y5500000D01*
X18798791Y5466526D01*
X18771099Y5401916D01*
X18750712Y5306004D01*
X18749343Y5207959D01*
X18767044Y5111515D01*
X18798791Y5031330D01*
X18798791Y5000000D01*
X18801966Y4960189D01*
X18822877Y4892664D01*
X18861772Y4833638D01*
X18915571Y4787786D01*
X18980015Y4758737D01*
X19050000Y4748791D01*
X19450000Y4748791D01*
X19450000Y4251209D01*
X19050000Y4251209D01*
X19032423Y4249807D01*
X18954464Y4250351D01*
X18858146Y4231978D01*
X18767231Y4195246D01*
X18685182Y4141554D01*
X18666579Y4123337D01*
X18638228Y4166362D01*
X18584429Y4212214D01*
X18519985Y4241263D01*
X18450000Y4251209D01*
X17550000Y4251209D01*
X17510189Y4248034D01*
X17442664Y4227123D01*
X17383638Y4188228D01*
X17351057Y4150000D01*
X17149010Y4150000D01*
X17138228Y4166362D01*
X17084429Y4212214D01*
X17019985Y4241263D01*
X16950000Y4251209D01*
X16050000Y4251209D01*
X16010189Y4248034D01*
X15942664Y4227123D01*
X15883638Y4188228D01*
X15837786Y4134429D01*
X15808737Y4069985D01*
X15798791Y4000000D01*
X15798791Y3550000D01*
X15500000Y3550000D01*
X15486070Y3548020D01*
X15473244Y3542239D01*
X15462536Y3533112D01*
X15454794Y3521364D01*
X15450632Y3507924D01*
X15450000Y3500000D01*
X15450000Y50000D01*
X12884260Y50000D01*
X12911756Y576560D01*
X12911240Y587877D01*
X12910882Y599201D01*
X12910645Y600930D01*
X12553866Y3073485D01*
X12551158Y3084499D01*
X12548611Y3095526D01*
X12548042Y3097176D01*
X11804269Y5207959D01*
X15499343Y5207959D01*
X15517044Y5111515D01*
X15553140Y5020345D01*
X15606258Y4937924D01*
X15674372Y4867389D01*
X15754890Y4811427D01*
X15844744Y4772171D01*
X15940512Y4751115D01*
X16038545Y4749062D01*
X16042806Y4749813D01*
X16050000Y4748791D01*
X16950000Y4748791D01*
X16989811Y4751966D01*
X17057336Y4772877D01*
X17116362Y4811772D01*
X17162214Y4865571D01*
X17191263Y4930015D01*
X17201209Y5000000D01*
X17201209Y5385523D01*
X17298791Y5483105D01*
X17298791Y5000000D01*
X17301966Y4960189D01*
X17322877Y4892664D01*
X17361772Y4833638D01*
X17415571Y4787786D01*
X17480015Y4758737D01*
X17550000Y4748791D01*
X18450000Y4748791D01*
X18489811Y4751966D01*
X18557336Y4772877D01*
X18616362Y4811772D01*
X18662214Y4865571D01*
X18691263Y4930015D01*
X18701209Y5000000D01*
X18701209Y5500000D01*
X18698034Y5539811D01*
X18677123Y5607336D01*
X18638228Y5666362D01*
X18584429Y5712214D01*
X18519985Y5741263D01*
X18450000Y5751209D01*
X17560910Y5751209D01*
X17580045Y5774013D01*
X17581058Y5775855D01*
X17582394Y5777482D01*
X17599858Y5810053D01*
X17617654Y5842423D01*
X17618290Y5844429D01*
X17619284Y5846282D01*
X17630075Y5881579D01*
X17641259Y5916835D01*
X17641494Y5918929D01*
X17642108Y5920938D01*
X17645836Y5957642D01*
X17649961Y5994415D01*
X17649990Y5998533D01*
X17649997Y5998604D01*
X17649991Y5998670D01*
X17650000Y6000000D01*
X17650000Y6449594D01*
X17686851Y6501834D01*
X17726733Y6591412D01*
X17748457Y6687030D01*
X17750021Y6799028D01*
X17730976Y6895215D01*
X17693610Y6985871D01*
X17639347Y7067544D01*
X17570254Y7137120D01*
X17488963Y7191952D01*
X17398569Y7229950D01*
X17302517Y7249667D01*
X17204464Y7250351D01*
X17108146Y7231978D01*
X17017231Y7195246D01*
X16935182Y7141554D01*
X16865125Y7072949D01*
X16809727Y6992042D01*
X16771099Y6901916D01*
X16750712Y6806004D01*
X16749343Y6707959D01*
X16767044Y6611515D01*
X16803140Y6520345D01*
X16850000Y6447634D01*
X16850000Y6165686D01*
X16435523Y5751209D01*
X16050000Y5751209D01*
X16032423Y5749807D01*
X15954464Y5750351D01*
X15858146Y5731978D01*
X15767231Y5695246D01*
X15685182Y5641554D01*
X15615125Y5572949D01*
X15559727Y5492042D01*
X15521099Y5401916D01*
X15500712Y5306004D01*
X15499343Y5207959D01*
X11804269Y5207959D01*
X11717803Y5453343D01*
X11713025Y5463583D01*
X11708367Y5473944D01*
X11707489Y5475452D01*
X10550000Y7431813D01*
X10550000Y17000000D01*
X10548020Y17013930D01*
X10542239Y17026756D01*
X10533112Y17037464D01*
X10521364Y17045206D01*
X10507924Y17049368D01*
X10500000Y17050000D01*
X6000000Y17050000D01*
X5986070Y17048020D01*
X5973244Y17042239D01*
X5962536Y17033112D01*
X5954794Y17021364D01*
X5950632Y17007924D01*
X5950000Y17000000D01*
X5950000Y11412148D01*
X4471998Y12126297D01*
X4461354Y12130211D01*
X4450787Y12134265D01*
X4449101Y12134717D01*
X2125000Y12739630D01*
X2125000Y13452000D01*
X2124135Y13460819D01*
X2124153Y13463380D01*
X2123599Y13466283D01*
X2122619Y13476279D01*
X2120102Y13484614D01*
X2119582Y13487343D01*
X2118382Y13490312D01*
X2115568Y13499634D01*
X2111603Y13507091D01*
X2110443Y13509962D01*
X2108488Y13512949D01*
X2104115Y13521174D01*
X2099009Y13527434D01*
X2097084Y13530376D01*
X2094248Y13533272D01*
X2088696Y13540079D01*
X2082823Y13544938D01*
X2080015Y13547805D01*
X2076199Y13550418D01*
X2069899Y13555630D01*
X2063664Y13559001D01*
X2059886Y13561588D01*
X2055032Y13563668D01*
X2048439Y13567233D01*
X2042229Y13569155D01*
X2037463Y13571198D01*
X2031616Y13572441D01*
X2025135Y13574447D01*
X2019283Y13575062D01*
X2013600Y13576270D01*
X2011864Y13576453D01*
X663126Y13708681D01*
X654776Y13708681D01*
X646444Y13709197D01*
X644700Y13709122D01*
X50000Y13679447D01*
X50000Y15100001D01*
X2750001Y15100001D01*
X2786785Y15103608D01*
X2823581Y15106827D01*
X2825600Y15107414D01*
X2827695Y15107619D01*
X2863078Y15118302D01*
X2898548Y15128607D01*
X2900416Y15129575D01*
X2902429Y15130183D01*
X2935059Y15147532D01*
X2967856Y15164533D01*
X2969499Y15165845D01*
X2971358Y15166833D01*
X3000012Y15190203D01*
X3028867Y15213237D01*
X3031797Y15216125D01*
X3031855Y15216173D01*
X3031900Y15216227D01*
X3032844Y15217158D01*
X3070357Y15254671D01*
X3135110Y15266089D01*
X3226529Y15301548D01*
X3309320Y15354088D01*
X3380329Y15421709D01*
X3436851Y15501834D01*
X3476733Y15591412D01*
X3498457Y15687030D01*
X3500021Y15799028D01*
X3480976Y15895215D01*
X3443610Y15985871D01*
X3389347Y16067544D01*
X3320254Y16137120D01*
X3238963Y16191952D01*
X3148569Y16229950D01*
X3052517Y16249667D01*
X2954464Y16250351D01*
X2858146Y16231978D01*
X2800000Y16208486D01*
X2800000Y18200000D01*
X5988046Y18200000D01*
X5995718Y18193698D01*
X5995718Y18193698D01*
G37*
X5995718Y18193698D02*
X6024013Y18169955D01*
X6025855Y18168942D01*
X6027482Y18167606D01*
X6060053Y18150142D01*
X6092423Y18132346D01*
X6094429Y18131710D01*
X6096282Y18130716D01*
X6131620Y18119912D01*
X6166835Y18108741D01*
X6168924Y18108507D01*
X6170938Y18107891D01*
X6207732Y18104154D01*
X6244415Y18100039D01*
X6248523Y18100010D01*
X6248605Y18100002D01*
X6248681Y18100009D01*
X6250000Y18100000D01*
X14579290Y18100000D01*
X19450000Y13229290D01*
X19450000Y5751209D01*
X19050000Y5751209D01*
X19010189Y5748034D01*
X18942664Y5727123D01*
X18883638Y5688228D01*
X18837786Y5634429D01*
X18808737Y5569985D01*
X18798791Y5500000D01*
X18798791Y5466526D01*
X18771099Y5401916D01*
X18750712Y5306004D01*
X18749343Y5207959D01*
X18767044Y5111515D01*
X18798791Y5031330D01*
X18798791Y5000000D01*
X18801966Y4960189D01*
X18822877Y4892664D01*
X18861772Y4833638D01*
X18915571Y4787786D01*
X18980015Y4758737D01*
X19050000Y4748791D01*
X19450000Y4748791D01*
X19450000Y4251209D01*
X19050000Y4251209D01*
X19032423Y4249807D01*
X18954464Y4250351D01*
X18858146Y4231978D01*
X18767231Y4195246D01*
X18685182Y4141554D01*
X18666579Y4123337D01*
X18638228Y4166362D01*
X18584429Y4212214D01*
X18519985Y4241263D01*
X18450000Y4251209D01*
X17550000Y4251209D01*
X17510189Y4248034D01*
X17442664Y4227123D01*
X17383638Y4188228D01*
X17351057Y4150000D01*
X17149010Y4150000D01*
X17138228Y4166362D01*
X17084429Y4212214D01*
X17019985Y4241263D01*
X16950000Y4251209D01*
X16050000Y4251209D01*
X16010189Y4248034D01*
X15942664Y4227123D01*
X15883638Y4188228D01*
X15837786Y4134429D01*
X15808737Y4069985D01*
X15798791Y4000000D01*
X15798791Y3550000D01*
X15500000Y3550000D01*
X15486070Y3548020D01*
X15473244Y3542239D01*
X15462536Y3533112D01*
X15454794Y3521364D01*
X15450632Y3507924D01*
X15450000Y3500000D01*
X15450000Y50000D01*
X12884260Y50000D01*
X12911756Y576560D01*
X12911240Y587877D01*
X12910882Y599201D01*
X12910645Y600930D01*
X12553866Y3073485D01*
X12551158Y3084499D01*
X12548611Y3095526D01*
X12548042Y3097176D01*
X11804269Y5207959D01*
X15499343Y5207959D01*
X15517044Y5111515D01*
X15553140Y5020345D01*
X15606258Y4937924D01*
X15674372Y4867389D01*
X15754890Y4811427D01*
X15844744Y4772171D01*
X15940512Y4751115D01*
X16038545Y4749062D01*
X16042806Y4749813D01*
X16050000Y4748791D01*
X16950000Y4748791D01*
X16989811Y4751966D01*
X17057336Y4772877D01*
X17116362Y4811772D01*
X17162214Y4865571D01*
X17191263Y4930015D01*
X17201209Y5000000D01*
X17201209Y5385523D01*
X17298791Y5483105D01*
X17298791Y5000000D01*
X17301966Y4960189D01*
X17322877Y4892664D01*
X17361772Y4833638D01*
X17415571Y4787786D01*
X17480015Y4758737D01*
X17550000Y4748791D01*
X18450000Y4748791D01*
X18489811Y4751966D01*
X18557336Y4772877D01*
X18616362Y4811772D01*
X18662214Y4865571D01*
X18691263Y4930015D01*
X18701209Y5000000D01*
X18701209Y5500000D01*
X18698034Y5539811D01*
X18677123Y5607336D01*
X18638228Y5666362D01*
X18584429Y5712214D01*
X18519985Y5741263D01*
X18450000Y5751209D01*
X17560910Y5751209D01*
X17580045Y5774013D01*
X17581058Y5775855D01*
X17582394Y5777482D01*
X17599858Y5810053D01*
X17617654Y5842423D01*
X17618290Y5844429D01*
X17619284Y5846282D01*
X17630075Y5881579D01*
X17641259Y5916835D01*
X17641494Y5918929D01*
X17642108Y5920938D01*
X17645836Y5957642D01*
X17649961Y5994415D01*
X17649990Y5998533D01*
X17649997Y5998604D01*
X17649991Y5998670D01*
X17650000Y6000000D01*
X17650000Y6449594D01*
X17686851Y6501834D01*
X17726733Y6591412D01*
X17748457Y6687030D01*
X17750021Y6799028D01*
X17730976Y6895215D01*
X17693610Y6985871D01*
X17639347Y7067544D01*
X17570254Y7137120D01*
X17488963Y7191952D01*
X17398569Y7229950D01*
X17302517Y7249667D01*
X17204464Y7250351D01*
X17108146Y7231978D01*
X17017231Y7195246D01*
X16935182Y7141554D01*
X16865125Y7072949D01*
X16809727Y6992042D01*
X16771099Y6901916D01*
X16750712Y6806004D01*
X16749343Y6707959D01*
X16767044Y6611515D01*
X16803140Y6520345D01*
X16850000Y6447634D01*
X16850000Y6165686D01*
X16435523Y5751209D01*
X16050000Y5751209D01*
X16032423Y5749807D01*
X15954464Y5750351D01*
X15858146Y5731978D01*
X15767231Y5695246D01*
X15685182Y5641554D01*
X15615125Y5572949D01*
X15559727Y5492042D01*
X15521099Y5401916D01*
X15500712Y5306004D01*
X15499343Y5207959D01*
X11804269Y5207959D01*
X11717803Y5453343D01*
X11713025Y5463583D01*
X11708367Y5473944D01*
X11707489Y5475452D01*
X10550000Y7431813D01*
X10550000Y17000000D01*
X10548020Y17013930D01*
X10542239Y17026756D01*
X10533112Y17037464D01*
X10521364Y17045206D01*
X10507924Y17049368D01*
X10500000Y17050000D01*
X6000000Y17050000D01*
X5986070Y17048020D01*
X5973244Y17042239D01*
X5962536Y17033112D01*
X5954794Y17021364D01*
X5950632Y17007924D01*
X5950000Y17000000D01*
X5950000Y11412148D01*
X4471998Y12126297D01*
X4461354Y12130211D01*
X4450787Y12134265D01*
X4449101Y12134717D01*
X2125000Y12739630D01*
X2125000Y13452000D01*
X2124135Y13460819D01*
X2124153Y13463380D01*
X2123599Y13466283D01*
X2122619Y13476279D01*
X2120102Y13484614D01*
X2119582Y13487343D01*
X2118382Y13490312D01*
X2115568Y13499634D01*
X2111603Y13507091D01*
X2110443Y13509962D01*
X2108488Y13512949D01*
X2104115Y13521174D01*
X2099009Y13527434D01*
X2097084Y13530376D01*
X2094248Y13533272D01*
X2088696Y13540079D01*
X2082823Y13544938D01*
X2080015Y13547805D01*
X2076199Y13550418D01*
X2069899Y13555630D01*
X2063664Y13559001D01*
X2059886Y13561588D01*
X2055032Y13563668D01*
X2048439Y13567233D01*
X2042229Y13569155D01*
X2037463Y13571198D01*
X2031616Y13572441D01*
X2025135Y13574447D01*
X2019283Y13575062D01*
X2013600Y13576270D01*
X2011864Y13576453D01*
X663126Y13708681D01*
X654776Y13708681D01*
X646444Y13709197D01*
X644700Y13709122D01*
X50000Y13679447D01*
X50000Y15100001D01*
X2750001Y15100001D01*
X2786785Y15103608D01*
X2823581Y15106827D01*
X2825600Y15107414D01*
X2827695Y15107619D01*
X2863078Y15118302D01*
X2898548Y15128607D01*
X2900416Y15129575D01*
X2902429Y15130183D01*
X2935059Y15147532D01*
X2967856Y15164533D01*
X2969499Y15165845D01*
X2971358Y15166833D01*
X3000012Y15190203D01*
X3028867Y15213237D01*
X3031797Y15216125D01*
X3031855Y15216173D01*
X3031900Y15216227D01*
X3032844Y15217158D01*
X3070357Y15254671D01*
X3135110Y15266089D01*
X3226529Y15301548D01*
X3309320Y15354088D01*
X3380329Y15421709D01*
X3436851Y15501834D01*
X3476733Y15591412D01*
X3498457Y15687030D01*
X3500021Y15799028D01*
X3480976Y15895215D01*
X3443610Y15985871D01*
X3389347Y16067544D01*
X3320254Y16137120D01*
X3238963Y16191952D01*
X3148569Y16229950D01*
X3052517Y16249667D01*
X2954464Y16250351D01*
X2858146Y16231978D01*
X2800000Y16208486D01*
X2800000Y18200000D01*
X5988046Y18200000D01*
X5995718Y18193698D01*
G36*
X-5800000Y22515686D02*
X-8515686Y19800000D01*
X-9979290Y19800000D01*
X-11200000Y21020710D01*
X-11200000Y21484314D01*
X-9584314Y23100000D01*
X-5800000Y23100000D01*
X-5800000Y22515686D01*
X-5800000Y22515686D01*
G37*
X-5800000Y22515686D02*
X-8515686Y19800000D01*
X-9979290Y19800000D01*
X-11200000Y21020710D01*
X-11200000Y21484314D01*
X-9584314Y23100000D01*
X-5800000Y23100000D01*
X-5800000Y22515686D01*
G36*
X-5800000Y19800000D02*
X-7384314Y19800000D01*
X-5800000Y21384314D01*
X-5800000Y19800000D01*
X-5800000Y19800000D01*
G37*
X-5800000Y19800000D02*
X-7384314Y19800000D01*
X-5800000Y21384314D01*
X-5800000Y19800000D01*
G36*
X-3550000Y24458330D02*
X-3601431Y24479950D01*
X-3697483Y24499667D01*
X-3795536Y24500351D01*
X-3891854Y24481978D01*
X-3982769Y24445246D01*
X-4064818Y24391554D01*
X-4134875Y24322949D01*
X-4190273Y24242042D01*
X-4228901Y24151916D01*
X-4246482Y24069204D01*
X-4415686Y23900000D01*
X-9296754Y23900000D01*
X-4811015Y25220225D01*
X-3550000Y25334986D01*
X-3550000Y24458330D01*
X-3550000Y24458330D01*
G37*
X-3550000Y24458330D02*
X-3601431Y24479950D01*
X-3697483Y24499667D01*
X-3795536Y24500351D01*
X-3891854Y24481978D01*
X-3982769Y24445246D01*
X-4064818Y24391554D01*
X-4134875Y24322949D01*
X-4190273Y24242042D01*
X-4228901Y24151916D01*
X-4246482Y24069204D01*
X-4415686Y23900000D01*
X-9296754Y23900000D01*
X-4811015Y25220225D01*
X-3550000Y25334986D01*
X-3550000Y24458330D01*
G36*
X-3550000Y21701209D02*
X-4000000Y21701209D01*
X-4039811Y21698034D01*
X-4107336Y21677123D01*
X-4166362Y21638228D01*
X-4212214Y21584429D01*
X-4241263Y21519985D01*
X-4251209Y21450000D01*
X-4251209Y20550000D01*
X-4248034Y20510189D01*
X-4227123Y20442664D01*
X-4188228Y20383638D01*
X-4150000Y20351057D01*
X-4150000Y20149010D01*
X-4166362Y20138228D01*
X-4212214Y20084429D01*
X-4241263Y20019985D01*
X-4251209Y19950000D01*
X-4251209Y19050000D01*
X-4248034Y19010189D01*
X-4227123Y18942664D01*
X-4188228Y18883638D01*
X-4134429Y18837786D01*
X-4069985Y18808737D01*
X-4000000Y18798791D01*
X-3966187Y18798791D01*
X-3905256Y18772171D01*
X-3809488Y18751115D01*
X-3711455Y18749062D01*
X-3614890Y18766089D01*
X-3550000Y18791258D01*
X-3550000Y18701209D01*
X-4000000Y18701209D01*
X-4039811Y18698034D01*
X-4107336Y18677123D01*
X-4166362Y18638228D01*
X-4212214Y18584429D01*
X-4241263Y18519985D01*
X-4251209Y18450000D01*
X-4251209Y17550000D01*
X-4248034Y17510189D01*
X-4227123Y17442664D01*
X-4188228Y17383638D01*
X-4150000Y17351057D01*
X-4150000Y17149010D01*
X-4166362Y17138228D01*
X-4212214Y17084429D01*
X-4241263Y17019985D01*
X-4251209Y16950000D01*
X-4251209Y16050000D01*
X-4248034Y16010189D01*
X-4227123Y15942664D01*
X-4188228Y15883638D01*
X-4134429Y15837786D01*
X-4069985Y15808737D01*
X-4000000Y15798791D01*
X-3550000Y15798791D01*
X-3550000Y15500000D01*
X-3548020Y15486070D01*
X-3542239Y15473244D01*
X-3533112Y15462536D01*
X-3521364Y15454794D01*
X-3507924Y15450632D01*
X-3500000Y15450000D01*
X-2901525Y15450000D01*
X-2893742Y15437924D01*
X-2825628Y15367389D01*
X-2745110Y15311427D01*
X-2655256Y15272171D01*
X-2568862Y15253176D01*
X-2532844Y15217158D01*
X-2504259Y15193678D01*
X-2475988Y15169956D01*
X-2474146Y15168943D01*
X-2472519Y15167607D01*
X-2439948Y15150143D01*
X-2407578Y15132347D01*
X-2405572Y15131711D01*
X-2403719Y15130717D01*
X-2368422Y15119926D01*
X-2333166Y15108742D01*
X-2331072Y15108507D01*
X-2329063Y15107893D01*
X-2292314Y15104160D01*
X-2255586Y15100040D01*
X-2251479Y15100011D01*
X-2251397Y15100003D01*
X-2251321Y15100010D01*
X-2250001Y15100001D01*
X-50000Y15100001D01*
X-50000Y13674458D01*
X-2006230Y13576845D01*
X-2014800Y13575571D01*
X-2023423Y13574786D01*
X-2026839Y13573781D01*
X-2030360Y13573257D01*
X-2038510Y13570346D01*
X-2046826Y13567898D01*
X-2049986Y13566246D01*
X-2053334Y13565050D01*
X-2060759Y13560614D01*
X-2068445Y13556596D01*
X-2071222Y13554363D01*
X-2074277Y13552538D01*
X-2080704Y13546739D01*
X-2087458Y13541309D01*
X-2089749Y13538579D01*
X-2092390Y13536196D01*
X-2097571Y13529256D01*
X-2103139Y13522621D01*
X-2104853Y13519504D01*
X-2106985Y13516648D01*
X-2110722Y13508828D01*
X-2114892Y13501243D01*
X-2115968Y13497849D01*
X-2117504Y13494636D01*
X-2119650Y13486242D01*
X-2122268Y13477989D01*
X-2122665Y13474451D01*
X-2123547Y13471001D01*
X-2124022Y13462357D01*
X-2124988Y13453745D01*
X-2125000Y13452000D01*
X-2125000Y12747936D01*
X-2280096Y12721761D01*
X-2285769Y12720222D01*
X-2291576Y12719264D01*
X-2293259Y12718801D01*
X-4697293Y12040032D01*
X-4707835Y12035907D01*
X-4718452Y12031924D01*
X-4720012Y12031144D01*
X-6946422Y10898356D01*
X-6955987Y10892247D01*
X-6965602Y10886293D01*
X-6966982Y10885224D01*
X-8930964Y9341564D01*
X-8939145Y9333728D01*
X-8947437Y9326005D01*
X-8948582Y9324688D01*
X-10575328Y7428956D01*
X-10581838Y7419670D01*
X-10588464Y7410494D01*
X-10589332Y7408980D01*
X-11816880Y5233380D01*
X-11821438Y5223062D01*
X-11826181Y5212718D01*
X-11826738Y5211064D01*
X-12608332Y2838468D01*
X-12610807Y2827424D01*
X-12613442Y2816393D01*
X-12613667Y2814663D01*
X-12919536Y335438D01*
X-12919819Y324116D01*
X-12920261Y312791D01*
X-12920147Y311049D01*
X-12901129Y50000D01*
X-13750171Y50000D01*
X-13769024Y145215D01*
X-13806390Y235871D01*
X-13860653Y317544D01*
X-13929746Y387120D01*
X-14011037Y441952D01*
X-14101431Y479950D01*
X-14197483Y499667D01*
X-14250663Y500038D01*
X-14249979Y549028D01*
X-14269024Y645215D01*
X-14306390Y735871D01*
X-14360653Y817544D01*
X-14429746Y887120D01*
X-14511037Y941952D01*
X-14601431Y979950D01*
X-14697483Y999667D01*
X-14735663Y999933D01*
X-14734977Y1049028D01*
X-14754022Y1145215D01*
X-14791388Y1235871D01*
X-14845651Y1317544D01*
X-14914744Y1387120D01*
X-14996035Y1441952D01*
X-15086429Y1479950D01*
X-15182481Y1499667D01*
X-15280534Y1500351D01*
X-15376852Y1481978D01*
X-15450000Y1452424D01*
X-15450000Y2350000D01*
X-13750000Y2350000D01*
X-13712529Y2353674D01*
X-13675047Y2357085D01*
X-13673701Y2357481D01*
X-13672306Y2357618D01*
X-13636351Y2368474D01*
X-13600157Y2379126D01*
X-13598910Y2379778D01*
X-13597572Y2380182D01*
X-13564421Y2397808D01*
X-13530975Y2415294D01*
X-13529880Y2416174D01*
X-13528643Y2416832D01*
X-13499468Y2440626D01*
X-13470135Y2464211D01*
X-13469234Y2465284D01*
X-13468146Y2466172D01*
X-13444133Y2495199D01*
X-13419955Y2524013D01*
X-13419279Y2525242D01*
X-13418385Y2526323D01*
X-13400465Y2559465D01*
X-13382346Y2592423D01*
X-13381921Y2593762D01*
X-13381255Y2594994D01*
X-13370134Y2630921D01*
X-13358741Y2666835D01*
X-13358585Y2668230D01*
X-13358170Y2669569D01*
X-13354238Y2706984D01*
X-13350039Y2744415D01*
X-13350020Y2747110D01*
X-13350010Y2747207D01*
X-13350019Y2747304D01*
X-13350000Y2750000D01*
X-13350000Y3584314D01*
X-12967157Y3967157D01*
X-12943677Y3995742D01*
X-12919955Y4024013D01*
X-12918942Y4025855D01*
X-12917606Y4027482D01*
X-12900142Y4060053D01*
X-12882346Y4092423D01*
X-12881710Y4094429D01*
X-12880716Y4096282D01*
X-12869912Y4131620D01*
X-12858741Y4166835D01*
X-12858507Y4168924D01*
X-12857891Y4170938D01*
X-12854153Y4207737D01*
X-12850039Y4244415D01*
X-12850010Y4248522D01*
X-12850002Y4248604D01*
X-12850009Y4248680D01*
X-12850000Y4250000D01*
X-12850000Y5084314D01*
X-12217150Y5717165D01*
X-12193201Y5746320D01*
X-12192624Y5747014D01*
X-12169955Y5774029D01*
X-12169645Y5774593D01*
X-12169160Y5775175D01*
X-12168490Y5776404D01*
X-12167598Y5777490D01*
X-12149823Y5810641D01*
X-12149337Y5811532D01*
X-12132346Y5842439D01*
X-12132151Y5843054D01*
X-12131790Y5843716D01*
X-12131369Y5845059D01*
X-12130709Y5846290D01*
X-12119738Y5882174D01*
X-12119459Y5883065D01*
X-12108741Y5916851D01*
X-12108669Y5917495D01*
X-12108445Y5918209D01*
X-12108293Y5919607D01*
X-12107884Y5920945D01*
X-12104088Y5958317D01*
X-12104030Y5958851D01*
X-12100039Y5994431D01*
X-12100030Y5995668D01*
X-12100014Y5995819D01*
X-12100028Y5995981D01*
X-12100011Y5998455D01*
X-12099995Y5998612D01*
X-12100009Y5998758D01*
X-12100000Y6000016D01*
X-12100000Y6334314D01*
X-10967157Y7467157D01*
X-10943677Y7495742D01*
X-10919955Y7524013D01*
X-10918942Y7525855D01*
X-10917606Y7527482D01*
X-10900142Y7560053D01*
X-10882346Y7592423D01*
X-10881710Y7594429D01*
X-10880716Y7596282D01*
X-10869925Y7631579D01*
X-10858741Y7666835D01*
X-10858506Y7668929D01*
X-10857892Y7670938D01*
X-10854159Y7707687D01*
X-10850039Y7744415D01*
X-10850010Y7748522D01*
X-10850002Y7748604D01*
X-10850009Y7748680D01*
X-10850000Y7750000D01*
X-10850000Y8699594D01*
X-10813149Y8751834D01*
X-10773267Y8841412D01*
X-10751543Y8937030D01*
X-10749979Y9049028D01*
X-10753603Y9067330D01*
X-10745110Y9061427D01*
X-10655256Y9022171D01*
X-10559488Y9001115D01*
X-10461455Y8999062D01*
X-10364890Y9016089D01*
X-10273471Y9051548D01*
X-10190680Y9104088D01*
X-10119671Y9171709D01*
X-10063149Y9251834D01*
X-10023267Y9341412D01*
X-10001543Y9437030D01*
X-9999979Y9549028D01*
X-10019024Y9645215D01*
X-10056390Y9735871D01*
X-10110653Y9817544D01*
X-10179746Y9887120D01*
X-10261037Y9941952D01*
X-10351431Y9979950D01*
X-10430494Y9996180D01*
X-10873791Y10439477D01*
X-10873791Y11150000D01*
X-10876966Y11189811D01*
X-10897877Y11257336D01*
X-10936772Y11316362D01*
X-10990571Y11362214D01*
X-11055015Y11391263D01*
X-11125000Y11401209D01*
X-11875000Y11401209D01*
X-11914811Y11398034D01*
X-11982336Y11377123D01*
X-12041362Y11338228D01*
X-12087214Y11284429D01*
X-12116263Y11219985D01*
X-12126209Y11150000D01*
X-12126209Y10350000D01*
X-12123034Y10310189D01*
X-12102123Y10242664D01*
X-12063228Y10183638D01*
X-12009429Y10137786D01*
X-11944985Y10108737D01*
X-11875000Y10098791D01*
X-11664477Y10098791D01*
X-11466895Y9901209D01*
X-11875000Y9901209D01*
X-11914811Y9898034D01*
X-11982336Y9877123D01*
X-12041362Y9838228D01*
X-12087214Y9784429D01*
X-12116263Y9719985D01*
X-12126209Y9650000D01*
X-12126209Y8850000D01*
X-12123034Y8810189D01*
X-12102123Y8742664D01*
X-12063228Y8683638D01*
X-12009429Y8637786D01*
X-11944985Y8608737D01*
X-11875000Y8598791D01*
X-11650000Y8598791D01*
X-11650000Y8357166D01*
X-11679746Y8387120D01*
X-11761037Y8441952D01*
X-11851431Y8479950D01*
X-11947483Y8499667D01*
X-12045536Y8500351D01*
X-12141854Y8481978D01*
X-12232769Y8445246D01*
X-12314818Y8391554D01*
X-12375316Y8332310D01*
X-12429746Y8387120D01*
X-12511037Y8441952D01*
X-12601431Y8479950D01*
X-12680493Y8496179D01*
X-12953756Y8769442D01*
X-12942664Y8772877D01*
X-12883638Y8811772D01*
X-12837786Y8865571D01*
X-12808737Y8930015D01*
X-12798791Y9000000D01*
X-12798791Y9500000D01*
X-12801966Y9539811D01*
X-12822877Y9607336D01*
X-12861772Y9666362D01*
X-12915571Y9712214D01*
X-12980015Y9741263D01*
X-13050000Y9751209D01*
X-13063590Y9751209D01*
X-13063149Y9751834D01*
X-13023267Y9841412D01*
X-13001543Y9937030D01*
X-13000820Y9988824D01*
X-13000012Y9996509D01*
X-13000619Y10003181D01*
X-12999979Y10049028D01*
X-13019024Y10145215D01*
X-13056390Y10235871D01*
X-13110653Y10317544D01*
X-13179746Y10387120D01*
X-13261037Y10441952D01*
X-13351431Y10479950D01*
X-13447483Y10499667D01*
X-13545536Y10500351D01*
X-13547376Y10500000D01*
X-17298791Y10500000D01*
X-17298791Y11000000D01*
X-17301966Y11039811D01*
X-17322877Y11107336D01*
X-17361772Y11166362D01*
X-17415571Y11212214D01*
X-17480015Y11241263D01*
X-17550000Y11251209D01*
X-17813590Y11251209D01*
X-17813149Y11251834D01*
X-17773267Y11341412D01*
X-17751543Y11437030D01*
X-17749979Y11549028D01*
X-17769024Y11645215D01*
X-17806390Y11735871D01*
X-17814974Y11748791D01*
X-17550000Y11748791D01*
X-17510189Y11751966D01*
X-17442664Y11772877D01*
X-17383638Y11811772D01*
X-17337786Y11865571D01*
X-17308737Y11930015D01*
X-17298791Y12000000D01*
X-17298791Y12500000D01*
X-17301966Y12539811D01*
X-17320605Y12600000D01*
X-15750000Y12600000D01*
X-15713216Y12603607D01*
X-15676420Y12606826D01*
X-15674401Y12607413D01*
X-15672306Y12607618D01*
X-15636923Y12618301D01*
X-15601453Y12628606D01*
X-15599585Y12629574D01*
X-15597572Y12630182D01*
X-15564942Y12647531D01*
X-15532145Y12664532D01*
X-15530502Y12665844D01*
X-15528643Y12666832D01*
X-15499989Y12690202D01*
X-15471134Y12713236D01*
X-15468204Y12716124D01*
X-15468146Y12716172D01*
X-15468101Y12716226D01*
X-15467157Y12717157D01*
X-14935523Y13248791D01*
X-14550000Y13248791D01*
X-14510189Y13251966D01*
X-14442664Y13272877D01*
X-14383638Y13311772D01*
X-14337786Y13365571D01*
X-14308737Y13430015D01*
X-14298791Y13500000D01*
X-14298791Y13813107D01*
X-14126209Y13640525D01*
X-14126209Y13350000D01*
X-14123034Y13310189D01*
X-14102123Y13242664D01*
X-14063228Y13183638D01*
X-14009429Y13137786D01*
X-13944985Y13108737D01*
X-13875000Y13098791D01*
X-13125000Y13098791D01*
X-13085189Y13101966D01*
X-13017664Y13122877D01*
X-12958638Y13161772D01*
X-12912786Y13215571D01*
X-12883737Y13280015D01*
X-12873791Y13350000D01*
X-12873791Y14100000D01*
X-12126209Y14100000D01*
X-12126209Y13350000D01*
X-12123034Y13310189D01*
X-12102123Y13242664D01*
X-12063228Y13183638D01*
X-12009429Y13137786D01*
X-11944985Y13108737D01*
X-11875000Y13098791D01*
X-11125000Y13098791D01*
X-11085189Y13101966D01*
X-11017664Y13122877D01*
X-10958638Y13161772D01*
X-10912786Y13215571D01*
X-10883737Y13280015D01*
X-10873791Y13350000D01*
X-9915686Y13350000D01*
X-9495489Y12929803D01*
X-9482956Y12861515D01*
X-9446860Y12770345D01*
X-9393742Y12687924D01*
X-9357120Y12650000D01*
X-10873791Y12650000D01*
X-10876966Y12689811D01*
X-10897877Y12757336D01*
X-10936772Y12816362D01*
X-10990571Y12862214D01*
X-11055015Y12891263D01*
X-11125000Y12901209D01*
X-11875000Y12901209D01*
X-11914811Y12898034D01*
X-11982336Y12877123D01*
X-12041362Y12838228D01*
X-12087214Y12784429D01*
X-12116263Y12719985D01*
X-12126209Y12650000D01*
X-12126209Y11850000D01*
X-12123034Y11810189D01*
X-12102123Y11742664D01*
X-12063228Y11683638D01*
X-12009429Y11637786D01*
X-11944985Y11608737D01*
X-11875000Y11598791D01*
X-11125000Y11598791D01*
X-11085189Y11601966D01*
X-11017664Y11622877D01*
X-10958638Y11661772D01*
X-10912786Y11715571D01*
X-10883737Y11780015D01*
X-10873791Y11850000D01*
X-9300609Y11850000D01*
X-9245110Y11811427D01*
X-9155256Y11772171D01*
X-9059488Y11751115D01*
X-8961455Y11749062D01*
X-8864890Y11766089D01*
X-8773471Y11801548D01*
X-8690680Y11854088D01*
X-8619671Y11921709D01*
X-8563149Y12001834D01*
X-8523267Y12091412D01*
X-8501543Y12187030D01*
X-8499979Y12299028D01*
X-8519024Y12395215D01*
X-8556390Y12485871D01*
X-8610653Y12567544D01*
X-8668201Y12625494D01*
X-8619671Y12671709D01*
X-8563149Y12751834D01*
X-8523267Y12841412D01*
X-8501543Y12937030D01*
X-8499979Y13049028D01*
X-8519024Y13145215D01*
X-8556390Y13235871D01*
X-8610653Y13317544D01*
X-8679746Y13387120D01*
X-8761037Y13441952D01*
X-8851431Y13479950D01*
X-8930493Y13496179D01*
X-9437585Y14003271D01*
X-9364890Y14016089D01*
X-9273471Y14051548D01*
X-9190680Y14104088D01*
X-9119671Y14171709D01*
X-9063149Y14251834D01*
X-9023267Y14341412D01*
X-9001543Y14437030D01*
X-8999979Y14549028D01*
X-9019024Y14645215D01*
X-9056390Y14735871D01*
X-9110653Y14817544D01*
X-9179746Y14887120D01*
X-9261037Y14941952D01*
X-9351431Y14979950D01*
X-9447483Y14999667D01*
X-9545536Y15000351D01*
X-9641854Y14981978D01*
X-9732769Y14945246D01*
X-9801911Y14900000D01*
X-10873791Y14900000D01*
X-10873791Y15650000D01*
X-10876966Y15689811D01*
X-10897877Y15757336D01*
X-10936772Y15816362D01*
X-10963812Y15839408D01*
X-10940680Y15854088D01*
X-10869671Y15921709D01*
X-10813149Y16001834D01*
X-10773267Y16091412D01*
X-10751543Y16187030D01*
X-10749979Y16299028D01*
X-10769024Y16395215D01*
X-10806390Y16485871D01*
X-10860653Y16567544D01*
X-10873791Y16580774D01*
X-10873791Y16950000D01*
X-5751209Y16950000D01*
X-5751209Y16050000D01*
X-5749646Y16030396D01*
X-5750657Y15957959D01*
X-5732956Y15861515D01*
X-5696860Y15770345D01*
X-5643742Y15687924D01*
X-5575628Y15617389D01*
X-5495110Y15561427D01*
X-5405256Y15522171D01*
X-5309488Y15501115D01*
X-5211455Y15499062D01*
X-5114890Y15516089D01*
X-5023471Y15551548D01*
X-4940680Y15604088D01*
X-4869671Y15671709D01*
X-4813149Y15751834D01*
X-4773267Y15841412D01*
X-4751543Y15937030D01*
X-4750093Y16040836D01*
X-4748791Y16050000D01*
X-4748791Y16950000D01*
X-4751966Y16989811D01*
X-4772877Y17057336D01*
X-4811772Y17116362D01*
X-4865571Y17162214D01*
X-4930015Y17191263D01*
X-5000000Y17201209D01*
X-5500000Y17201209D01*
X-5539811Y17198034D01*
X-5607336Y17177123D01*
X-5666362Y17138228D01*
X-5712214Y17084429D01*
X-5741263Y17019985D01*
X-5751209Y16950000D01*
X-10873791Y16950000D01*
X-10873791Y17100000D01*
X-10250000Y17100000D01*
X-10213216Y17103607D01*
X-10176420Y17106826D01*
X-10174401Y17107413D01*
X-10172306Y17107618D01*
X-10136923Y17118301D01*
X-10101453Y17128606D01*
X-10099585Y17129574D01*
X-10097572Y17130182D01*
X-10064942Y17147531D01*
X-10032145Y17164532D01*
X-10030502Y17165844D01*
X-10028643Y17166832D01*
X-9999989Y17190202D01*
X-9971134Y17213236D01*
X-9968204Y17216124D01*
X-9968146Y17216172D01*
X-9968101Y17216226D01*
X-9967157Y17217157D01*
X-8734314Y18450000D01*
X-5751209Y18450000D01*
X-5751209Y17550000D01*
X-5748034Y17510189D01*
X-5727123Y17442664D01*
X-5688228Y17383638D01*
X-5634429Y17337786D01*
X-5569985Y17308737D01*
X-5500000Y17298791D01*
X-5000000Y17298791D01*
X-4960189Y17301966D01*
X-4892664Y17322877D01*
X-4833638Y17361772D01*
X-4787786Y17415571D01*
X-4758737Y17480015D01*
X-4748791Y17550000D01*
X-4748791Y18450000D01*
X-4751966Y18489811D01*
X-4772877Y18557336D01*
X-4811772Y18616362D01*
X-4865571Y18662214D01*
X-4930015Y18691263D01*
X-5000000Y18701209D01*
X-5500000Y18701209D01*
X-5539811Y18698034D01*
X-5607336Y18677123D01*
X-5666362Y18638228D01*
X-5712214Y18584429D01*
X-5741263Y18519985D01*
X-5751209Y18450000D01*
X-8734314Y18450000D01*
X-7734314Y19450000D01*
X-5751209Y19450000D01*
X-5751209Y19050000D01*
X-5748034Y19010189D01*
X-5727123Y18942664D01*
X-5688228Y18883638D01*
X-5634429Y18837786D01*
X-5569985Y18808737D01*
X-5500000Y18798791D01*
X-5466187Y18798791D01*
X-5405256Y18772171D01*
X-5309488Y18751115D01*
X-5211455Y18749062D01*
X-5114890Y18766089D01*
X-5030579Y18798791D01*
X-5000000Y18798791D01*
X-4960189Y18801966D01*
X-4892664Y18822877D01*
X-4833638Y18861772D01*
X-4787786Y18915571D01*
X-4758737Y18980015D01*
X-4748791Y19050000D01*
X-4748791Y19950000D01*
X-4751966Y19989811D01*
X-4772877Y20057336D01*
X-4811772Y20116362D01*
X-4865571Y20162214D01*
X-4930015Y20191263D01*
X-5000000Y20201209D01*
X-5450000Y20201209D01*
X-5450000Y20298791D01*
X-5000000Y20298791D01*
X-4960189Y20301966D01*
X-4892664Y20322877D01*
X-4833638Y20361772D01*
X-4787786Y20415571D01*
X-4758737Y20480015D01*
X-4748791Y20550000D01*
X-4748791Y21450000D01*
X-4751966Y21489811D01*
X-4772877Y21557336D01*
X-4811772Y21616362D01*
X-4865571Y21662214D01*
X-4930015Y21691263D01*
X-5000000Y21701209D01*
X-5033059Y21701209D01*
X-5101431Y21729950D01*
X-5197483Y21749667D01*
X-5295536Y21750351D01*
X-5391854Y21731978D01*
X-5450000Y21708486D01*
X-5450000Y21734314D01*
X-5385523Y21798791D01*
X-5000000Y21798791D01*
X-4960189Y21801966D01*
X-4892664Y21822877D01*
X-4833638Y21861772D01*
X-4787786Y21915571D01*
X-4758737Y21980015D01*
X-4748791Y22050000D01*
X-4748791Y22950000D01*
X-4751966Y22989811D01*
X-4772877Y23057336D01*
X-4800990Y23100000D01*
X-4250000Y23100000D01*
X-4213216Y23103607D01*
X-4176420Y23106826D01*
X-4174401Y23107413D01*
X-4172306Y23107618D01*
X-4136923Y23118301D01*
X-4101453Y23128606D01*
X-4099585Y23129574D01*
X-4097572Y23130182D01*
X-4064942Y23147531D01*
X-4032145Y23164532D01*
X-4030502Y23165844D01*
X-4028643Y23166832D01*
X-3999989Y23190202D01*
X-3987715Y23200000D01*
X-3550000Y23200000D01*
X-3550000Y21701209D01*
X-3550000Y21701209D01*
G37*
X-3550000Y21701209D02*
X-4000000Y21701209D01*
X-4039811Y21698034D01*
X-4107336Y21677123D01*
X-4166362Y21638228D01*
X-4212214Y21584429D01*
X-4241263Y21519985D01*
X-4251209Y21450000D01*
X-4251209Y20550000D01*
X-4248034Y20510189D01*
X-4227123Y20442664D01*
X-4188228Y20383638D01*
X-4150000Y20351057D01*
X-4150000Y20149010D01*
X-4166362Y20138228D01*
X-4212214Y20084429D01*
X-4241263Y20019985D01*
X-4251209Y19950000D01*
X-4251209Y19050000D01*
X-4248034Y19010189D01*
X-4227123Y18942664D01*
X-4188228Y18883638D01*
X-4134429Y18837786D01*
X-4069985Y18808737D01*
X-4000000Y18798791D01*
X-3966187Y18798791D01*
X-3905256Y18772171D01*
X-3809488Y18751115D01*
X-3711455Y18749062D01*
X-3614890Y18766089D01*
X-3550000Y18791258D01*
X-3550000Y18701209D01*
X-4000000Y18701209D01*
X-4039811Y18698034D01*
X-4107336Y18677123D01*
X-4166362Y18638228D01*
X-4212214Y18584429D01*
X-4241263Y18519985D01*
X-4251209Y18450000D01*
X-4251209Y17550000D01*
X-4248034Y17510189D01*
X-4227123Y17442664D01*
X-4188228Y17383638D01*
X-4150000Y17351057D01*
X-4150000Y17149010D01*
X-4166362Y17138228D01*
X-4212214Y17084429D01*
X-4241263Y17019985D01*
X-4251209Y16950000D01*
X-4251209Y16050000D01*
X-4248034Y16010189D01*
X-4227123Y15942664D01*
X-4188228Y15883638D01*
X-4134429Y15837786D01*
X-4069985Y15808737D01*
X-4000000Y15798791D01*
X-3550000Y15798791D01*
X-3550000Y15500000D01*
X-3548020Y15486070D01*
X-3542239Y15473244D01*
X-3533112Y15462536D01*
X-3521364Y15454794D01*
X-3507924Y15450632D01*
X-3500000Y15450000D01*
X-2901525Y15450000D01*
X-2893742Y15437924D01*
X-2825628Y15367389D01*
X-2745110Y15311427D01*
X-2655256Y15272171D01*
X-2568862Y15253176D01*
X-2532844Y15217158D01*
X-2504259Y15193678D01*
X-2475988Y15169956D01*
X-2474146Y15168943D01*
X-2472519Y15167607D01*
X-2439948Y15150143D01*
X-2407578Y15132347D01*
X-2405572Y15131711D01*
X-2403719Y15130717D01*
X-2368422Y15119926D01*
X-2333166Y15108742D01*
X-2331072Y15108507D01*
X-2329063Y15107893D01*
X-2292314Y15104160D01*
X-2255586Y15100040D01*
X-2251479Y15100011D01*
X-2251397Y15100003D01*
X-2251321Y15100010D01*
X-2250001Y15100001D01*
X-50000Y15100001D01*
X-50000Y13674458D01*
X-2006230Y13576845D01*
X-2014800Y13575571D01*
X-2023423Y13574786D01*
X-2026839Y13573781D01*
X-2030360Y13573257D01*
X-2038510Y13570346D01*
X-2046826Y13567898D01*
X-2049986Y13566246D01*
X-2053334Y13565050D01*
X-2060759Y13560614D01*
X-2068445Y13556596D01*
X-2071222Y13554363D01*
X-2074277Y13552538D01*
X-2080704Y13546739D01*
X-2087458Y13541309D01*
X-2089749Y13538579D01*
X-2092390Y13536196D01*
X-2097571Y13529256D01*
X-2103139Y13522621D01*
X-2104853Y13519504D01*
X-2106985Y13516648D01*
X-2110722Y13508828D01*
X-2114892Y13501243D01*
X-2115968Y13497849D01*
X-2117504Y13494636D01*
X-2119650Y13486242D01*
X-2122268Y13477989D01*
X-2122665Y13474451D01*
X-2123547Y13471001D01*
X-2124022Y13462357D01*
X-2124988Y13453745D01*
X-2125000Y13452000D01*
X-2125000Y12747936D01*
X-2280096Y12721761D01*
X-2285769Y12720222D01*
X-2291576Y12719264D01*
X-2293259Y12718801D01*
X-4697293Y12040032D01*
X-4707835Y12035907D01*
X-4718452Y12031924D01*
X-4720012Y12031144D01*
X-6946422Y10898356D01*
X-6955987Y10892247D01*
X-6965602Y10886293D01*
X-6966982Y10885224D01*
X-8930964Y9341564D01*
X-8939145Y9333728D01*
X-8947437Y9326005D01*
X-8948582Y9324688D01*
X-10575328Y7428956D01*
X-10581838Y7419670D01*
X-10588464Y7410494D01*
X-10589332Y7408980D01*
X-11816880Y5233380D01*
X-11821438Y5223062D01*
X-11826181Y5212718D01*
X-11826738Y5211064D01*
X-12608332Y2838468D01*
X-12610807Y2827424D01*
X-12613442Y2816393D01*
X-12613667Y2814663D01*
X-12919536Y335438D01*
X-12919819Y324116D01*
X-12920261Y312791D01*
X-12920147Y311049D01*
X-12901129Y50000D01*
X-13750171Y50000D01*
X-13769024Y145215D01*
X-13806390Y235871D01*
X-13860653Y317544D01*
X-13929746Y387120D01*
X-14011037Y441952D01*
X-14101431Y479950D01*
X-14197483Y499667D01*
X-14250663Y500038D01*
X-14249979Y549028D01*
X-14269024Y645215D01*
X-14306390Y735871D01*
X-14360653Y817544D01*
X-14429746Y887120D01*
X-14511037Y941952D01*
X-14601431Y979950D01*
X-14697483Y999667D01*
X-14735663Y999933D01*
X-14734977Y1049028D01*
X-14754022Y1145215D01*
X-14791388Y1235871D01*
X-14845651Y1317544D01*
X-14914744Y1387120D01*
X-14996035Y1441952D01*
X-15086429Y1479950D01*
X-15182481Y1499667D01*
X-15280534Y1500351D01*
X-15376852Y1481978D01*
X-15450000Y1452424D01*
X-15450000Y2350000D01*
X-13750000Y2350000D01*
X-13712529Y2353674D01*
X-13675047Y2357085D01*
X-13673701Y2357481D01*
X-13672306Y2357618D01*
X-13636351Y2368474D01*
X-13600157Y2379126D01*
X-13598910Y2379778D01*
X-13597572Y2380182D01*
X-13564421Y2397808D01*
X-13530975Y2415294D01*
X-13529880Y2416174D01*
X-13528643Y2416832D01*
X-13499468Y2440626D01*
X-13470135Y2464211D01*
X-13469234Y2465284D01*
X-13468146Y2466172D01*
X-13444133Y2495199D01*
X-13419955Y2524013D01*
X-13419279Y2525242D01*
X-13418385Y2526323D01*
X-13400465Y2559465D01*
X-13382346Y2592423D01*
X-13381921Y2593762D01*
X-13381255Y2594994D01*
X-13370134Y2630921D01*
X-13358741Y2666835D01*
X-13358585Y2668230D01*
X-13358170Y2669569D01*
X-13354238Y2706984D01*
X-13350039Y2744415D01*
X-13350020Y2747110D01*
X-13350010Y2747207D01*
X-13350019Y2747304D01*
X-13350000Y2750000D01*
X-13350000Y3584314D01*
X-12967157Y3967157D01*
X-12943677Y3995742D01*
X-12919955Y4024013D01*
X-12918942Y4025855D01*
X-12917606Y4027482D01*
X-12900142Y4060053D01*
X-12882346Y4092423D01*
X-12881710Y4094429D01*
X-12880716Y4096282D01*
X-12869912Y4131620D01*
X-12858741Y4166835D01*
X-12858507Y4168924D01*
X-12857891Y4170938D01*
X-12854153Y4207737D01*
X-12850039Y4244415D01*
X-12850010Y4248522D01*
X-12850002Y4248604D01*
X-12850009Y4248680D01*
X-12850000Y4250000D01*
X-12850000Y5084314D01*
X-12217150Y5717165D01*
X-12193201Y5746320D01*
X-12192624Y5747014D01*
X-12169955Y5774029D01*
X-12169645Y5774593D01*
X-12169160Y5775175D01*
X-12168490Y5776404D01*
X-12167598Y5777490D01*
X-12149823Y5810641D01*
X-12149337Y5811532D01*
X-12132346Y5842439D01*
X-12132151Y5843054D01*
X-12131790Y5843716D01*
X-12131369Y5845059D01*
X-12130709Y5846290D01*
X-12119738Y5882174D01*
X-12119459Y5883065D01*
X-12108741Y5916851D01*
X-12108669Y5917495D01*
X-12108445Y5918209D01*
X-12108293Y5919607D01*
X-12107884Y5920945D01*
X-12104088Y5958317D01*
X-12104030Y5958851D01*
X-12100039Y5994431D01*
X-12100030Y5995668D01*
X-12100014Y5995819D01*
X-12100028Y5995981D01*
X-12100011Y5998455D01*
X-12099995Y5998612D01*
X-12100009Y5998758D01*
X-12100000Y6000016D01*
X-12100000Y6334314D01*
X-10967157Y7467157D01*
X-10943677Y7495742D01*
X-10919955Y7524013D01*
X-10918942Y7525855D01*
X-10917606Y7527482D01*
X-10900142Y7560053D01*
X-10882346Y7592423D01*
X-10881710Y7594429D01*
X-10880716Y7596282D01*
X-10869925Y7631579D01*
X-10858741Y7666835D01*
X-10858506Y7668929D01*
X-10857892Y7670938D01*
X-10854159Y7707687D01*
X-10850039Y7744415D01*
X-10850010Y7748522D01*
X-10850002Y7748604D01*
X-10850009Y7748680D01*
X-10850000Y7750000D01*
X-10850000Y8699594D01*
X-10813149Y8751834D01*
X-10773267Y8841412D01*
X-10751543Y8937030D01*
X-10749979Y9049028D01*
X-10753603Y9067330D01*
X-10745110Y9061427D01*
X-10655256Y9022171D01*
X-10559488Y9001115D01*
X-10461455Y8999062D01*
X-10364890Y9016089D01*
X-10273471Y9051548D01*
X-10190680Y9104088D01*
X-10119671Y9171709D01*
X-10063149Y9251834D01*
X-10023267Y9341412D01*
X-10001543Y9437030D01*
X-9999979Y9549028D01*
X-10019024Y9645215D01*
X-10056390Y9735871D01*
X-10110653Y9817544D01*
X-10179746Y9887120D01*
X-10261037Y9941952D01*
X-10351431Y9979950D01*
X-10430494Y9996180D01*
X-10873791Y10439477D01*
X-10873791Y11150000D01*
X-10876966Y11189811D01*
X-10897877Y11257336D01*
X-10936772Y11316362D01*
X-10990571Y11362214D01*
X-11055015Y11391263D01*
X-11125000Y11401209D01*
X-11875000Y11401209D01*
X-11914811Y11398034D01*
X-11982336Y11377123D01*
X-12041362Y11338228D01*
X-12087214Y11284429D01*
X-12116263Y11219985D01*
X-12126209Y11150000D01*
X-12126209Y10350000D01*
X-12123034Y10310189D01*
X-12102123Y10242664D01*
X-12063228Y10183638D01*
X-12009429Y10137786D01*
X-11944985Y10108737D01*
X-11875000Y10098791D01*
X-11664477Y10098791D01*
X-11466895Y9901209D01*
X-11875000Y9901209D01*
X-11914811Y9898034D01*
X-11982336Y9877123D01*
X-12041362Y9838228D01*
X-12087214Y9784429D01*
X-12116263Y9719985D01*
X-12126209Y9650000D01*
X-12126209Y8850000D01*
X-12123034Y8810189D01*
X-12102123Y8742664D01*
X-12063228Y8683638D01*
X-12009429Y8637786D01*
X-11944985Y8608737D01*
X-11875000Y8598791D01*
X-11650000Y8598791D01*
X-11650000Y8357166D01*
X-11679746Y8387120D01*
X-11761037Y8441952D01*
X-11851431Y8479950D01*
X-11947483Y8499667D01*
X-12045536Y8500351D01*
X-12141854Y8481978D01*
X-12232769Y8445246D01*
X-12314818Y8391554D01*
X-12375316Y8332310D01*
X-12429746Y8387120D01*
X-12511037Y8441952D01*
X-12601431Y8479950D01*
X-12680493Y8496179D01*
X-12953756Y8769442D01*
X-12942664Y8772877D01*
X-12883638Y8811772D01*
X-12837786Y8865571D01*
X-12808737Y8930015D01*
X-12798791Y9000000D01*
X-12798791Y9500000D01*
X-12801966Y9539811D01*
X-12822877Y9607336D01*
X-12861772Y9666362D01*
X-12915571Y9712214D01*
X-12980015Y9741263D01*
X-13050000Y9751209D01*
X-13063590Y9751209D01*
X-13063149Y9751834D01*
X-13023267Y9841412D01*
X-13001543Y9937030D01*
X-13000820Y9988824D01*
X-13000012Y9996509D01*
X-13000619Y10003181D01*
X-12999979Y10049028D01*
X-13019024Y10145215D01*
X-13056390Y10235871D01*
X-13110653Y10317544D01*
X-13179746Y10387120D01*
X-13261037Y10441952D01*
X-13351431Y10479950D01*
X-13447483Y10499667D01*
X-13545536Y10500351D01*
X-13547376Y10500000D01*
X-17298791Y10500000D01*
X-17298791Y11000000D01*
X-17301966Y11039811D01*
X-17322877Y11107336D01*
X-17361772Y11166362D01*
X-17415571Y11212214D01*
X-17480015Y11241263D01*
X-17550000Y11251209D01*
X-17813590Y11251209D01*
X-17813149Y11251834D01*
X-17773267Y11341412D01*
X-17751543Y11437030D01*
X-17749979Y11549028D01*
X-17769024Y11645215D01*
X-17806390Y11735871D01*
X-17814974Y11748791D01*
X-17550000Y11748791D01*
X-17510189Y11751966D01*
X-17442664Y11772877D01*
X-17383638Y11811772D01*
X-17337786Y11865571D01*
X-17308737Y11930015D01*
X-17298791Y12000000D01*
X-17298791Y12500000D01*
X-17301966Y12539811D01*
X-17320605Y12600000D01*
X-15750000Y12600000D01*
X-15713216Y12603607D01*
X-15676420Y12606826D01*
X-15674401Y12607413D01*
X-15672306Y12607618D01*
X-15636923Y12618301D01*
X-15601453Y12628606D01*
X-15599585Y12629574D01*
X-15597572Y12630182D01*
X-15564942Y12647531D01*
X-15532145Y12664532D01*
X-15530502Y12665844D01*
X-15528643Y12666832D01*
X-15499989Y12690202D01*
X-15471134Y12713236D01*
X-15468204Y12716124D01*
X-15468146Y12716172D01*
X-15468101Y12716226D01*
X-15467157Y12717157D01*
X-14935523Y13248791D01*
X-14550000Y13248791D01*
X-14510189Y13251966D01*
X-14442664Y13272877D01*
X-14383638Y13311772D01*
X-14337786Y13365571D01*
X-14308737Y13430015D01*
X-14298791Y13500000D01*
X-14298791Y13813107D01*
X-14126209Y13640525D01*
X-14126209Y13350000D01*
X-14123034Y13310189D01*
X-14102123Y13242664D01*
X-14063228Y13183638D01*
X-14009429Y13137786D01*
X-13944985Y13108737D01*
X-13875000Y13098791D01*
X-13125000Y13098791D01*
X-13085189Y13101966D01*
X-13017664Y13122877D01*
X-12958638Y13161772D01*
X-12912786Y13215571D01*
X-12883737Y13280015D01*
X-12873791Y13350000D01*
X-12873791Y14100000D01*
X-12126209Y14100000D01*
X-12126209Y13350000D01*
X-12123034Y13310189D01*
X-12102123Y13242664D01*
X-12063228Y13183638D01*
X-12009429Y13137786D01*
X-11944985Y13108737D01*
X-11875000Y13098791D01*
X-11125000Y13098791D01*
X-11085189Y13101966D01*
X-11017664Y13122877D01*
X-10958638Y13161772D01*
X-10912786Y13215571D01*
X-10883737Y13280015D01*
X-10873791Y13350000D01*
X-9915686Y13350000D01*
X-9495489Y12929803D01*
X-9482956Y12861515D01*
X-9446860Y12770345D01*
X-9393742Y12687924D01*
X-9357120Y12650000D01*
X-10873791Y12650000D01*
X-10876966Y12689811D01*
X-10897877Y12757336D01*
X-10936772Y12816362D01*
X-10990571Y12862214D01*
X-11055015Y12891263D01*
X-11125000Y12901209D01*
X-11875000Y12901209D01*
X-11914811Y12898034D01*
X-11982336Y12877123D01*
X-12041362Y12838228D01*
X-12087214Y12784429D01*
X-12116263Y12719985D01*
X-12126209Y12650000D01*
X-12126209Y11850000D01*
X-12123034Y11810189D01*
X-12102123Y11742664D01*
X-12063228Y11683638D01*
X-12009429Y11637786D01*
X-11944985Y11608737D01*
X-11875000Y11598791D01*
X-11125000Y11598791D01*
X-11085189Y11601966D01*
X-11017664Y11622877D01*
X-10958638Y11661772D01*
X-10912786Y11715571D01*
X-10883737Y11780015D01*
X-10873791Y11850000D01*
X-9300609Y11850000D01*
X-9245110Y11811427D01*
X-9155256Y11772171D01*
X-9059488Y11751115D01*
X-8961455Y11749062D01*
X-8864890Y11766089D01*
X-8773471Y11801548D01*
X-8690680Y11854088D01*
X-8619671Y11921709D01*
X-8563149Y12001834D01*
X-8523267Y12091412D01*
X-8501543Y12187030D01*
X-8499979Y12299028D01*
X-8519024Y12395215D01*
X-8556390Y12485871D01*
X-8610653Y12567544D01*
X-8668201Y12625494D01*
X-8619671Y12671709D01*
X-8563149Y12751834D01*
X-8523267Y12841412D01*
X-8501543Y12937030D01*
X-8499979Y13049028D01*
X-8519024Y13145215D01*
X-8556390Y13235871D01*
X-8610653Y13317544D01*
X-8679746Y13387120D01*
X-8761037Y13441952D01*
X-8851431Y13479950D01*
X-8930493Y13496179D01*
X-9437585Y14003271D01*
X-9364890Y14016089D01*
X-9273471Y14051548D01*
X-9190680Y14104088D01*
X-9119671Y14171709D01*
X-9063149Y14251834D01*
X-9023267Y14341412D01*
X-9001543Y14437030D01*
X-8999979Y14549028D01*
X-9019024Y14645215D01*
X-9056390Y14735871D01*
X-9110653Y14817544D01*
X-9179746Y14887120D01*
X-9261037Y14941952D01*
X-9351431Y14979950D01*
X-9447483Y14999667D01*
X-9545536Y15000351D01*
X-9641854Y14981978D01*
X-9732769Y14945246D01*
X-9801911Y14900000D01*
X-10873791Y14900000D01*
X-10873791Y15650000D01*
X-10876966Y15689811D01*
X-10897877Y15757336D01*
X-10936772Y15816362D01*
X-10963812Y15839408D01*
X-10940680Y15854088D01*
X-10869671Y15921709D01*
X-10813149Y16001834D01*
X-10773267Y16091412D01*
X-10751543Y16187030D01*
X-10749979Y16299028D01*
X-10769024Y16395215D01*
X-10806390Y16485871D01*
X-10860653Y16567544D01*
X-10873791Y16580774D01*
X-10873791Y16950000D01*
X-5751209Y16950000D01*
X-5751209Y16050000D01*
X-5749646Y16030396D01*
X-5750657Y15957959D01*
X-5732956Y15861515D01*
X-5696860Y15770345D01*
X-5643742Y15687924D01*
X-5575628Y15617389D01*
X-5495110Y15561427D01*
X-5405256Y15522171D01*
X-5309488Y15501115D01*
X-5211455Y15499062D01*
X-5114890Y15516089D01*
X-5023471Y15551548D01*
X-4940680Y15604088D01*
X-4869671Y15671709D01*
X-4813149Y15751834D01*
X-4773267Y15841412D01*
X-4751543Y15937030D01*
X-4750093Y16040836D01*
X-4748791Y16050000D01*
X-4748791Y16950000D01*
X-4751966Y16989811D01*
X-4772877Y17057336D01*
X-4811772Y17116362D01*
X-4865571Y17162214D01*
X-4930015Y17191263D01*
X-5000000Y17201209D01*
X-5500000Y17201209D01*
X-5539811Y17198034D01*
X-5607336Y17177123D01*
X-5666362Y17138228D01*
X-5712214Y17084429D01*
X-5741263Y17019985D01*
X-5751209Y16950000D01*
X-10873791Y16950000D01*
X-10873791Y17100000D01*
X-10250000Y17100000D01*
X-10213216Y17103607D01*
X-10176420Y17106826D01*
X-10174401Y17107413D01*
X-10172306Y17107618D01*
X-10136923Y17118301D01*
X-10101453Y17128606D01*
X-10099585Y17129574D01*
X-10097572Y17130182D01*
X-10064942Y17147531D01*
X-10032145Y17164532D01*
X-10030502Y17165844D01*
X-10028643Y17166832D01*
X-9999989Y17190202D01*
X-9971134Y17213236D01*
X-9968204Y17216124D01*
X-9968146Y17216172D01*
X-9968101Y17216226D01*
X-9967157Y17217157D01*
X-8734314Y18450000D01*
X-5751209Y18450000D01*
X-5751209Y17550000D01*
X-5748034Y17510189D01*
X-5727123Y17442664D01*
X-5688228Y17383638D01*
X-5634429Y17337786D01*
X-5569985Y17308737D01*
X-5500000Y17298791D01*
X-5000000Y17298791D01*
X-4960189Y17301966D01*
X-4892664Y17322877D01*
X-4833638Y17361772D01*
X-4787786Y17415571D01*
X-4758737Y17480015D01*
X-4748791Y17550000D01*
X-4748791Y18450000D01*
X-4751966Y18489811D01*
X-4772877Y18557336D01*
X-4811772Y18616362D01*
X-4865571Y18662214D01*
X-4930015Y18691263D01*
X-5000000Y18701209D01*
X-5500000Y18701209D01*
X-5539811Y18698034D01*
X-5607336Y18677123D01*
X-5666362Y18638228D01*
X-5712214Y18584429D01*
X-5741263Y18519985D01*
X-5751209Y18450000D01*
X-8734314Y18450000D01*
X-7734314Y19450000D01*
X-5751209Y19450000D01*
X-5751209Y19050000D01*
X-5748034Y19010189D01*
X-5727123Y18942664D01*
X-5688228Y18883638D01*
X-5634429Y18837786D01*
X-5569985Y18808737D01*
X-5500000Y18798791D01*
X-5466187Y18798791D01*
X-5405256Y18772171D01*
X-5309488Y18751115D01*
X-5211455Y18749062D01*
X-5114890Y18766089D01*
X-5030579Y18798791D01*
X-5000000Y18798791D01*
X-4960189Y18801966D01*
X-4892664Y18822877D01*
X-4833638Y18861772D01*
X-4787786Y18915571D01*
X-4758737Y18980015D01*
X-4748791Y19050000D01*
X-4748791Y19950000D01*
X-4751966Y19989811D01*
X-4772877Y20057336D01*
X-4811772Y20116362D01*
X-4865571Y20162214D01*
X-4930015Y20191263D01*
X-5000000Y20201209D01*
X-5450000Y20201209D01*
X-5450000Y20298791D01*
X-5000000Y20298791D01*
X-4960189Y20301966D01*
X-4892664Y20322877D01*
X-4833638Y20361772D01*
X-4787786Y20415571D01*
X-4758737Y20480015D01*
X-4748791Y20550000D01*
X-4748791Y21450000D01*
X-4751966Y21489811D01*
X-4772877Y21557336D01*
X-4811772Y21616362D01*
X-4865571Y21662214D01*
X-4930015Y21691263D01*
X-5000000Y21701209D01*
X-5033059Y21701209D01*
X-5101431Y21729950D01*
X-5197483Y21749667D01*
X-5295536Y21750351D01*
X-5391854Y21731978D01*
X-5450000Y21708486D01*
X-5450000Y21734314D01*
X-5385523Y21798791D01*
X-5000000Y21798791D01*
X-4960189Y21801966D01*
X-4892664Y21822877D01*
X-4833638Y21861772D01*
X-4787786Y21915571D01*
X-4758737Y21980015D01*
X-4748791Y22050000D01*
X-4748791Y22950000D01*
X-4751966Y22989811D01*
X-4772877Y23057336D01*
X-4800990Y23100000D01*
X-4250000Y23100000D01*
X-4213216Y23103607D01*
X-4176420Y23106826D01*
X-4174401Y23107413D01*
X-4172306Y23107618D01*
X-4136923Y23118301D01*
X-4101453Y23128606D01*
X-4099585Y23129574D01*
X-4097572Y23130182D01*
X-4064942Y23147531D01*
X-4032145Y23164532D01*
X-4030502Y23165844D01*
X-4028643Y23166832D01*
X-3999989Y23190202D01*
X-3987715Y23200000D01*
X-3550000Y23200000D01*
X-3550000Y21701209D01*
G36*
X-15701209Y6885523D02*
X-15701209Y6500000D01*
X-15698034Y6460189D01*
X-15677123Y6392664D01*
X-15638228Y6333638D01*
X-15584429Y6287786D01*
X-15519985Y6258737D01*
X-15450000Y6248791D01*
X-15064477Y6248791D01*
X-14745489Y5929803D01*
X-14732956Y5861515D01*
X-14696860Y5770345D01*
X-14643742Y5687924D01*
X-14575628Y5617389D01*
X-14495110Y5561427D01*
X-14405256Y5522171D01*
X-14309488Y5501115D01*
X-14308969Y5501104D01*
X-14330045Y5475987D01*
X-14331058Y5474145D01*
X-14332394Y5472518D01*
X-14349858Y5439947D01*
X-14367654Y5407577D01*
X-14368290Y5405571D01*
X-14369284Y5403718D01*
X-14380075Y5368421D01*
X-14391259Y5333165D01*
X-14391494Y5331071D01*
X-14392108Y5329062D01*
X-14395841Y5292313D01*
X-14399961Y5255585D01*
X-14399990Y5251478D01*
X-14399998Y5251396D01*
X-14399991Y5251320D01*
X-14400000Y5250000D01*
X-14400000Y4800859D01*
X-14440273Y4742042D01*
X-14478901Y4651916D01*
X-14499288Y4556004D01*
X-14500657Y4457959D01*
X-14482956Y4361515D01*
X-14446860Y4270345D01*
X-14393742Y4187924D01*
X-14325628Y4117389D01*
X-14245110Y4061427D01*
X-14155256Y4022171D01*
X-14059488Y4001115D01*
X-14058969Y4001104D01*
X-14080045Y3975987D01*
X-14081058Y3974145D01*
X-14082394Y3972518D01*
X-14099858Y3939947D01*
X-14117654Y3907577D01*
X-14118290Y3905571D01*
X-14119284Y3903718D01*
X-14130075Y3868421D01*
X-14141259Y3833165D01*
X-14141494Y3831071D01*
X-14142108Y3829062D01*
X-14145841Y3792313D01*
X-14149961Y3755585D01*
X-14149990Y3751478D01*
X-14149998Y3751396D01*
X-14149991Y3751320D01*
X-14150000Y3750000D01*
X-14150000Y3150000D01*
X-17250000Y3150000D01*
X-17287471Y3146326D01*
X-17324953Y3142915D01*
X-17326299Y3142519D01*
X-17327694Y3142382D01*
X-17363649Y3131526D01*
X-17399843Y3120874D01*
X-17401090Y3120222D01*
X-17402428Y3119818D01*
X-17435579Y3102192D01*
X-17469025Y3084706D01*
X-17470120Y3083826D01*
X-17471357Y3083168D01*
X-17500532Y3059374D01*
X-17529865Y3035789D01*
X-17530766Y3034716D01*
X-17531854Y3033828D01*
X-17555867Y3004801D01*
X-17563178Y2996088D01*
X-17601990Y3054505D01*
X-17542664Y3072877D01*
X-17483638Y3111772D01*
X-17437786Y3165571D01*
X-17408737Y3230015D01*
X-17398791Y3300000D01*
X-17398791Y3900000D01*
X-17401966Y3939811D01*
X-17422877Y4007336D01*
X-17461772Y4066362D01*
X-17515571Y4112214D01*
X-17580015Y4141263D01*
X-17650000Y4151209D01*
X-18350000Y4151209D01*
X-18365160Y4150000D01*
X-18898791Y4150000D01*
X-18898791Y4200000D01*
X-18901966Y4239811D01*
X-18922877Y4307336D01*
X-18961772Y4366362D01*
X-19015571Y4412214D01*
X-19080015Y4441263D01*
X-19150000Y4451209D01*
X-19341685Y4451209D01*
X-18601209Y5191684D01*
X-18601209Y4700000D01*
X-18598034Y4660189D01*
X-18577123Y4592664D01*
X-18538228Y4533638D01*
X-18484429Y4487786D01*
X-18419985Y4458737D01*
X-18350000Y4448791D01*
X-17650000Y4448791D01*
X-17610189Y4451966D01*
X-17542664Y4472877D01*
X-17483638Y4511772D01*
X-17437786Y4565571D01*
X-17422267Y4600000D01*
X-17126209Y4600000D01*
X-17123034Y4560189D01*
X-17102123Y4492664D01*
X-17063228Y4433638D01*
X-17009429Y4387786D01*
X-16944985Y4358737D01*
X-16875000Y4348791D01*
X-16125000Y4348791D01*
X-16085189Y4351966D01*
X-16017664Y4372877D01*
X-15958638Y4411772D01*
X-15912786Y4465571D01*
X-15883737Y4530015D01*
X-15873791Y4600000D01*
X-15873791Y5400000D01*
X-15876966Y5439811D01*
X-15897877Y5507336D01*
X-15936772Y5566362D01*
X-15990571Y5612214D01*
X-16055015Y5641263D01*
X-16125000Y5651209D01*
X-16875000Y5651209D01*
X-16914811Y5648034D01*
X-16925070Y5644857D01*
X-16874476Y5738427D01*
X-16835521Y5864272D01*
X-16821750Y5995288D01*
X-16833690Y6126482D01*
X-16870885Y6252859D01*
X-16931918Y6369605D01*
X-17014465Y6472273D01*
X-17115381Y6556952D01*
X-17230823Y6620416D01*
X-17356394Y6660250D01*
X-17379037Y6662790D01*
X-17369671Y6671709D01*
X-17313149Y6751834D01*
X-17273267Y6841412D01*
X-17271316Y6850000D01*
X-17250000Y6850000D01*
X-17213216Y6853607D01*
X-17176420Y6856826D01*
X-17174401Y6857413D01*
X-17172306Y6857618D01*
X-17136923Y6868301D01*
X-17101453Y6878606D01*
X-17099585Y6879574D01*
X-17097572Y6880182D01*
X-17064942Y6897531D01*
X-17032145Y6914532D01*
X-17030502Y6915844D01*
X-17028643Y6916832D01*
X-16999989Y6940202D01*
X-16971134Y6963236D01*
X-16968204Y6966124D01*
X-16968146Y6966172D01*
X-16968101Y6966226D01*
X-16967157Y6967157D01*
X-16834315Y7100000D01*
X-15915686Y7100000D01*
X-15701209Y6885523D01*
X-15701209Y6885523D01*
G37*
X-15701209Y6885523D02*
X-15701209Y6500000D01*
X-15698034Y6460189D01*
X-15677123Y6392664D01*
X-15638228Y6333638D01*
X-15584429Y6287786D01*
X-15519985Y6258737D01*
X-15450000Y6248791D01*
X-15064477Y6248791D01*
X-14745489Y5929803D01*
X-14732956Y5861515D01*
X-14696860Y5770345D01*
X-14643742Y5687924D01*
X-14575628Y5617389D01*
X-14495110Y5561427D01*
X-14405256Y5522171D01*
X-14309488Y5501115D01*
X-14308969Y5501104D01*
X-14330045Y5475987D01*
X-14331058Y5474145D01*
X-14332394Y5472518D01*
X-14349858Y5439947D01*
X-14367654Y5407577D01*
X-14368290Y5405571D01*
X-14369284Y5403718D01*
X-14380075Y5368421D01*
X-14391259Y5333165D01*
X-14391494Y5331071D01*
X-14392108Y5329062D01*
X-14395841Y5292313D01*
X-14399961Y5255585D01*
X-14399990Y5251478D01*
X-14399998Y5251396D01*
X-14399991Y5251320D01*
X-14400000Y5250000D01*
X-14400000Y4800859D01*
X-14440273Y4742042D01*
X-14478901Y4651916D01*
X-14499288Y4556004D01*
X-14500657Y4457959D01*
X-14482956Y4361515D01*
X-14446860Y4270345D01*
X-14393742Y4187924D01*
X-14325628Y4117389D01*
X-14245110Y4061427D01*
X-14155256Y4022171D01*
X-14059488Y4001115D01*
X-14058969Y4001104D01*
X-14080045Y3975987D01*
X-14081058Y3974145D01*
X-14082394Y3972518D01*
X-14099858Y3939947D01*
X-14117654Y3907577D01*
X-14118290Y3905571D01*
X-14119284Y3903718D01*
X-14130075Y3868421D01*
X-14141259Y3833165D01*
X-14141494Y3831071D01*
X-14142108Y3829062D01*
X-14145841Y3792313D01*
X-14149961Y3755585D01*
X-14149990Y3751478D01*
X-14149998Y3751396D01*
X-14149991Y3751320D01*
X-14150000Y3750000D01*
X-14150000Y3150000D01*
X-17250000Y3150000D01*
X-17287471Y3146326D01*
X-17324953Y3142915D01*
X-17326299Y3142519D01*
X-17327694Y3142382D01*
X-17363649Y3131526D01*
X-17399843Y3120874D01*
X-17401090Y3120222D01*
X-17402428Y3119818D01*
X-17435579Y3102192D01*
X-17469025Y3084706D01*
X-17470120Y3083826D01*
X-17471357Y3083168D01*
X-17500532Y3059374D01*
X-17529865Y3035789D01*
X-17530766Y3034716D01*
X-17531854Y3033828D01*
X-17555867Y3004801D01*
X-17563178Y2996088D01*
X-17601990Y3054505D01*
X-17542664Y3072877D01*
X-17483638Y3111772D01*
X-17437786Y3165571D01*
X-17408737Y3230015D01*
X-17398791Y3300000D01*
X-17398791Y3900000D01*
X-17401966Y3939811D01*
X-17422877Y4007336D01*
X-17461772Y4066362D01*
X-17515571Y4112214D01*
X-17580015Y4141263D01*
X-17650000Y4151209D01*
X-18350000Y4151209D01*
X-18365160Y4150000D01*
X-18898791Y4150000D01*
X-18898791Y4200000D01*
X-18901966Y4239811D01*
X-18922877Y4307336D01*
X-18961772Y4366362D01*
X-19015571Y4412214D01*
X-19080015Y4441263D01*
X-19150000Y4451209D01*
X-19341685Y4451209D01*
X-18601209Y5191684D01*
X-18601209Y4700000D01*
X-18598034Y4660189D01*
X-18577123Y4592664D01*
X-18538228Y4533638D01*
X-18484429Y4487786D01*
X-18419985Y4458737D01*
X-18350000Y4448791D01*
X-17650000Y4448791D01*
X-17610189Y4451966D01*
X-17542664Y4472877D01*
X-17483638Y4511772D01*
X-17437786Y4565571D01*
X-17422267Y4600000D01*
X-17126209Y4600000D01*
X-17123034Y4560189D01*
X-17102123Y4492664D01*
X-17063228Y4433638D01*
X-17009429Y4387786D01*
X-16944985Y4358737D01*
X-16875000Y4348791D01*
X-16125000Y4348791D01*
X-16085189Y4351966D01*
X-16017664Y4372877D01*
X-15958638Y4411772D01*
X-15912786Y4465571D01*
X-15883737Y4530015D01*
X-15873791Y4600000D01*
X-15873791Y5400000D01*
X-15876966Y5439811D01*
X-15897877Y5507336D01*
X-15936772Y5566362D01*
X-15990571Y5612214D01*
X-16055015Y5641263D01*
X-16125000Y5651209D01*
X-16875000Y5651209D01*
X-16914811Y5648034D01*
X-16925070Y5644857D01*
X-16874476Y5738427D01*
X-16835521Y5864272D01*
X-16821750Y5995288D01*
X-16833690Y6126482D01*
X-16870885Y6252859D01*
X-16931918Y6369605D01*
X-17014465Y6472273D01*
X-17115381Y6556952D01*
X-17230823Y6620416D01*
X-17356394Y6660250D01*
X-17379037Y6662790D01*
X-17369671Y6671709D01*
X-17313149Y6751834D01*
X-17273267Y6841412D01*
X-17271316Y6850000D01*
X-17250000Y6850000D01*
X-17213216Y6853607D01*
X-17176420Y6856826D01*
X-17174401Y6857413D01*
X-17172306Y6857618D01*
X-17136923Y6868301D01*
X-17101453Y6878606D01*
X-17099585Y6879574D01*
X-17097572Y6880182D01*
X-17064942Y6897531D01*
X-17032145Y6914532D01*
X-17030502Y6915844D01*
X-17028643Y6916832D01*
X-16999989Y6940202D01*
X-16971134Y6963236D01*
X-16968204Y6966124D01*
X-16968146Y6966172D01*
X-16968101Y6966226D01*
X-16967157Y6967157D01*
X-16834315Y7100000D01*
X-15915686Y7100000D01*
X-15701209Y6885523D01*
G36*
X-21400000Y13000000D02*
X-21396478Y12964080D01*
X-21393184Y12926430D01*
X-21392584Y12924364D01*
X-21392382Y12922306D01*
X-21381887Y12887546D01*
X-21371404Y12851463D01*
X-21370419Y12849563D01*
X-21369818Y12847572D01*
X-21352660Y12815303D01*
X-21335478Y12782155D01*
X-21334152Y12780495D01*
X-21333168Y12778643D01*
X-21309893Y12750105D01*
X-21286774Y12721144D01*
X-21284464Y12718801D01*
X-21283876Y12718204D01*
X-21283828Y12718146D01*
X-21283774Y12718101D01*
X-21282843Y12717157D01*
X-21150000Y12584315D01*
X-21150000Y11857166D01*
X-21179746Y11887120D01*
X-21261037Y11941952D01*
X-21351431Y11979950D01*
X-21447483Y11999667D01*
X-21545536Y12000351D01*
X-21641854Y11981978D01*
X-21732769Y11945246D01*
X-21814818Y11891554D01*
X-21884875Y11822949D01*
X-21940273Y11742042D01*
X-21978901Y11651916D01*
X-21999288Y11556004D01*
X-22000657Y11457959D01*
X-21982956Y11361515D01*
X-21946860Y11270345D01*
X-21900000Y11197634D01*
X-21900000Y10999215D01*
X-21914811Y10998034D01*
X-21982336Y10977123D01*
X-22041362Y10938228D01*
X-22087214Y10884429D01*
X-22116263Y10819985D01*
X-22126209Y10750000D01*
X-22126209Y9750000D01*
X-22123034Y9710189D01*
X-22102123Y9642664D01*
X-22063228Y9583638D01*
X-22009429Y9537786D01*
X-21944985Y9508737D01*
X-21875000Y9498791D01*
X-20750087Y9498791D01*
X-20750657Y9457959D01*
X-20732956Y9361515D01*
X-20696860Y9270345D01*
X-20643742Y9187924D01*
X-20575628Y9117389D01*
X-20495110Y9061427D01*
X-20405256Y9022171D01*
X-20318861Y9003176D01*
X-20282843Y8967158D01*
X-20254288Y8943702D01*
X-20225987Y8919955D01*
X-20224145Y8918942D01*
X-20222518Y8917606D01*
X-20189982Y8900161D01*
X-20177283Y8893179D01*
X-20177123Y8892664D01*
X-20138228Y8833638D01*
X-20084429Y8787786D01*
X-20019985Y8758737D01*
X-19950000Y8748791D01*
X-19050000Y8748791D01*
X-19010189Y8751966D01*
X-18942664Y8772877D01*
X-18883638Y8811772D01*
X-18837786Y8865571D01*
X-18808737Y8930015D01*
X-18798791Y9000000D01*
X-18798791Y9500000D01*
X-18701209Y9500000D01*
X-18701209Y9000000D01*
X-18698034Y8960189D01*
X-18677123Y8892664D01*
X-18638228Y8833638D01*
X-18584429Y8787786D01*
X-18519985Y8758737D01*
X-18450000Y8748791D01*
X-18400000Y8748791D01*
X-18400000Y8626209D01*
X-18439811Y8623034D01*
X-18507336Y8602123D01*
X-18566362Y8563228D01*
X-18612214Y8509429D01*
X-18641263Y8444985D01*
X-18651209Y8375000D01*
X-18651209Y7625000D01*
X-18648034Y7585189D01*
X-18627123Y7517664D01*
X-18588228Y7458638D01*
X-18534429Y7412786D01*
X-18469985Y7383737D01*
X-18400000Y7373791D01*
X-18082957Y7373791D01*
X-18134875Y7322949D01*
X-18190273Y7242042D01*
X-18228901Y7151916D01*
X-18249288Y7056004D01*
X-18250657Y6957959D01*
X-18232956Y6861515D01*
X-18196860Y6770345D01*
X-18143742Y6687924D01*
X-18075628Y6617389D01*
X-17995110Y6561427D01*
X-17918707Y6528048D01*
X-17978894Y6478960D01*
X-18062866Y6377455D01*
X-18102167Y6304771D01*
X-18110653Y6317544D01*
X-18179746Y6387120D01*
X-18261037Y6441952D01*
X-18351431Y6479950D01*
X-18447483Y6499667D01*
X-18545536Y6500351D01*
X-18641854Y6481978D01*
X-18732769Y6445246D01*
X-18814818Y6391554D01*
X-18884875Y6322949D01*
X-18886432Y6320675D01*
X-18898791Y6308316D01*
X-18898791Y7100000D01*
X-18901966Y7139811D01*
X-18922877Y7207336D01*
X-18961772Y7266362D01*
X-19015571Y7312214D01*
X-19080015Y7341263D01*
X-19150000Y7351209D01*
X-20850000Y7351209D01*
X-20889811Y7348034D01*
X-20957336Y7327123D01*
X-21016362Y7288228D01*
X-21062214Y7234429D01*
X-21091263Y7169985D01*
X-21101209Y7100000D01*
X-21101209Y6799097D01*
X-21140275Y6742042D01*
X-21178903Y6651916D01*
X-21199290Y6556004D01*
X-21200659Y6457959D01*
X-21200002Y6454379D01*
X-21200002Y6257104D01*
X-21707106Y5750000D01*
X-22292894Y5750000D01*
X-22391412Y5848518D01*
X-22429746Y5887120D01*
X-22511037Y5941952D01*
X-22601431Y5979950D01*
X-22697483Y5999667D01*
X-22795536Y6000351D01*
X-22891854Y5981978D01*
X-22982769Y5945246D01*
X-23064818Y5891554D01*
X-23134875Y5822949D01*
X-23190273Y5742042D01*
X-23200000Y5719347D01*
X-23200000Y8592893D01*
X-23146447Y8646446D01*
X-23117129Y8682138D01*
X-23087443Y8717516D01*
X-23086177Y8719820D01*
X-23084508Y8721851D01*
X-23062690Y8762542D01*
X-23040432Y8803029D01*
X-23039637Y8805536D01*
X-23038395Y8807852D01*
X-23024893Y8852015D01*
X-23010926Y8896044D01*
X-23010633Y8898655D01*
X-23009864Y8901171D01*
X-23005199Y8947103D01*
X-23000049Y8993019D01*
X-23000013Y8998168D01*
X-23000004Y8998255D01*
X-23000012Y8998336D01*
X-23000000Y9000000D01*
X-23000000Y9500000D01*
X-23000581Y9505925D01*
X-22999979Y9549028D01*
X-23019024Y9645215D01*
X-23056390Y9735871D01*
X-23110653Y9817544D01*
X-23179746Y9887120D01*
X-23261037Y9941952D01*
X-23351431Y9979950D01*
X-23447483Y9999667D01*
X-23545536Y10000351D01*
X-23640759Y9982187D01*
X-23598800Y10114459D01*
X-21400000Y14114061D01*
X-21400000Y13000000D01*
X-21400000Y13000000D01*
G37*
X-21400000Y13000000D02*
X-21396478Y12964080D01*
X-21393184Y12926430D01*
X-21392584Y12924364D01*
X-21392382Y12922306D01*
X-21381887Y12887546D01*
X-21371404Y12851463D01*
X-21370419Y12849563D01*
X-21369818Y12847572D01*
X-21352660Y12815303D01*
X-21335478Y12782155D01*
X-21334152Y12780495D01*
X-21333168Y12778643D01*
X-21309893Y12750105D01*
X-21286774Y12721144D01*
X-21284464Y12718801D01*
X-21283876Y12718204D01*
X-21283828Y12718146D01*
X-21283774Y12718101D01*
X-21282843Y12717157D01*
X-21150000Y12584315D01*
X-21150000Y11857166D01*
X-21179746Y11887120D01*
X-21261037Y11941952D01*
X-21351431Y11979950D01*
X-21447483Y11999667D01*
X-21545536Y12000351D01*
X-21641854Y11981978D01*
X-21732769Y11945246D01*
X-21814818Y11891554D01*
X-21884875Y11822949D01*
X-21940273Y11742042D01*
X-21978901Y11651916D01*
X-21999288Y11556004D01*
X-22000657Y11457959D01*
X-21982956Y11361515D01*
X-21946860Y11270345D01*
X-21900000Y11197634D01*
X-21900000Y10999215D01*
X-21914811Y10998034D01*
X-21982336Y10977123D01*
X-22041362Y10938228D01*
X-22087214Y10884429D01*
X-22116263Y10819985D01*
X-22126209Y10750000D01*
X-22126209Y9750000D01*
X-22123034Y9710189D01*
X-22102123Y9642664D01*
X-22063228Y9583638D01*
X-22009429Y9537786D01*
X-21944985Y9508737D01*
X-21875000Y9498791D01*
X-20750087Y9498791D01*
X-20750657Y9457959D01*
X-20732956Y9361515D01*
X-20696860Y9270345D01*
X-20643742Y9187924D01*
X-20575628Y9117389D01*
X-20495110Y9061427D01*
X-20405256Y9022171D01*
X-20318861Y9003176D01*
X-20282843Y8967158D01*
X-20254288Y8943702D01*
X-20225987Y8919955D01*
X-20224145Y8918942D01*
X-20222518Y8917606D01*
X-20189982Y8900161D01*
X-20177283Y8893179D01*
X-20177123Y8892664D01*
X-20138228Y8833638D01*
X-20084429Y8787786D01*
X-20019985Y8758737D01*
X-19950000Y8748791D01*
X-19050000Y8748791D01*
X-19010189Y8751966D01*
X-18942664Y8772877D01*
X-18883638Y8811772D01*
X-18837786Y8865571D01*
X-18808737Y8930015D01*
X-18798791Y9000000D01*
X-18798791Y9500000D01*
X-18701209Y9500000D01*
X-18701209Y9000000D01*
X-18698034Y8960189D01*
X-18677123Y8892664D01*
X-18638228Y8833638D01*
X-18584429Y8787786D01*
X-18519985Y8758737D01*
X-18450000Y8748791D01*
X-18400000Y8748791D01*
X-18400000Y8626209D01*
X-18439811Y8623034D01*
X-18507336Y8602123D01*
X-18566362Y8563228D01*
X-18612214Y8509429D01*
X-18641263Y8444985D01*
X-18651209Y8375000D01*
X-18651209Y7625000D01*
X-18648034Y7585189D01*
X-18627123Y7517664D01*
X-18588228Y7458638D01*
X-18534429Y7412786D01*
X-18469985Y7383737D01*
X-18400000Y7373791D01*
X-18082957Y7373791D01*
X-18134875Y7322949D01*
X-18190273Y7242042D01*
X-18228901Y7151916D01*
X-18249288Y7056004D01*
X-18250657Y6957959D01*
X-18232956Y6861515D01*
X-18196860Y6770345D01*
X-18143742Y6687924D01*
X-18075628Y6617389D01*
X-17995110Y6561427D01*
X-17918707Y6528048D01*
X-17978894Y6478960D01*
X-18062866Y6377455D01*
X-18102167Y6304771D01*
X-18110653Y6317544D01*
X-18179746Y6387120D01*
X-18261037Y6441952D01*
X-18351431Y6479950D01*
X-18447483Y6499667D01*
X-18545536Y6500351D01*
X-18641854Y6481978D01*
X-18732769Y6445246D01*
X-18814818Y6391554D01*
X-18884875Y6322949D01*
X-18886432Y6320675D01*
X-18898791Y6308316D01*
X-18898791Y7100000D01*
X-18901966Y7139811D01*
X-18922877Y7207336D01*
X-18961772Y7266362D01*
X-19015571Y7312214D01*
X-19080015Y7341263D01*
X-19150000Y7351209D01*
X-20850000Y7351209D01*
X-20889811Y7348034D01*
X-20957336Y7327123D01*
X-21016362Y7288228D01*
X-21062214Y7234429D01*
X-21091263Y7169985D01*
X-21101209Y7100000D01*
X-21101209Y6799097D01*
X-21140275Y6742042D01*
X-21178903Y6651916D01*
X-21199290Y6556004D01*
X-21200659Y6457959D01*
X-21200002Y6454379D01*
X-21200002Y6257104D01*
X-21707106Y5750000D01*
X-22292894Y5750000D01*
X-22391412Y5848518D01*
X-22429746Y5887120D01*
X-22511037Y5941952D01*
X-22601431Y5979950D01*
X-22697483Y5999667D01*
X-22795536Y6000351D01*
X-22891854Y5981978D01*
X-22982769Y5945246D01*
X-23064818Y5891554D01*
X-23134875Y5822949D01*
X-23190273Y5742042D01*
X-23200000Y5719347D01*
X-23200000Y8592893D01*
X-23146447Y8646446D01*
X-23117129Y8682138D01*
X-23087443Y8717516D01*
X-23086177Y8719820D01*
X-23084508Y8721851D01*
X-23062690Y8762542D01*
X-23040432Y8803029D01*
X-23039637Y8805536D01*
X-23038395Y8807852D01*
X-23024893Y8852015D01*
X-23010926Y8896044D01*
X-23010633Y8898655D01*
X-23009864Y8901171D01*
X-23005199Y8947103D01*
X-23000049Y8993019D01*
X-23000013Y8998168D01*
X-23000004Y8998255D01*
X-23000012Y8998336D01*
X-23000000Y9000000D01*
X-23000000Y9500000D01*
X-23000581Y9505925D01*
X-22999979Y9549028D01*
X-23019024Y9645215D01*
X-23056390Y9735871D01*
X-23110653Y9817544D01*
X-23179746Y9887120D01*
X-23261037Y9941952D01*
X-23351431Y9979950D01*
X-23447483Y9999667D01*
X-23545536Y10000351D01*
X-23640759Y9982187D01*
X-23598800Y10114459D01*
X-21400000Y14114061D01*
X-21400000Y13000000D01*
G36*
X-11670710Y22150000D02*
X-12500000Y22150000D01*
X-12536784Y22146393D01*
X-12573580Y22143174D01*
X-12575599Y22142587D01*
X-12577694Y22142382D01*
X-12613077Y22131699D01*
X-12648547Y22121394D01*
X-12650415Y22120426D01*
X-12652428Y22119818D01*
X-12685058Y22102469D01*
X-12717855Y22085468D01*
X-12719498Y22084156D01*
X-12721357Y22083168D01*
X-12750011Y22059798D01*
X-12778866Y22036764D01*
X-12781796Y22033876D01*
X-12781854Y22033828D01*
X-12781899Y22033774D01*
X-12782843Y22032843D01*
X-13415686Y21400000D01*
X-13500000Y21400000D01*
X-13536784Y21396393D01*
X-13573580Y21393174D01*
X-13575599Y21392587D01*
X-13577694Y21392382D01*
X-13613077Y21381699D01*
X-13648547Y21371394D01*
X-13650415Y21370426D01*
X-13652428Y21369818D01*
X-13685058Y21352469D01*
X-13717855Y21335468D01*
X-13719498Y21334156D01*
X-13721357Y21333168D01*
X-13750011Y21309798D01*
X-13778866Y21286764D01*
X-13781796Y21283876D01*
X-13781854Y21283828D01*
X-13781899Y21283774D01*
X-13782843Y21282843D01*
X-14415686Y20650000D01*
X-14750000Y20650000D01*
X-14786784Y20646393D01*
X-14823580Y20643174D01*
X-14825599Y20642587D01*
X-14827694Y20642382D01*
X-14863077Y20631699D01*
X-14898547Y20621394D01*
X-14900415Y20620426D01*
X-14902428Y20619818D01*
X-14935058Y20602469D01*
X-14967855Y20585468D01*
X-14969498Y20584156D01*
X-14971357Y20583168D01*
X-15000011Y20559798D01*
X-15028866Y20536764D01*
X-15031796Y20533876D01*
X-15031854Y20533828D01*
X-15031899Y20533774D01*
X-15032843Y20532843D01*
X-16070002Y19495684D01*
X-16141854Y19481978D01*
X-16232769Y19445246D01*
X-16314818Y19391554D01*
X-16384875Y19322949D01*
X-16440273Y19242042D01*
X-16478901Y19151916D01*
X-16499288Y19056004D01*
X-16500657Y18957959D01*
X-16482956Y18861515D01*
X-16446860Y18770345D01*
X-16393742Y18687924D01*
X-16357120Y18650000D01*
X-16888002Y18650000D01*
X-16924786Y18646393D01*
X-16961582Y18643174D01*
X-16963601Y18642587D01*
X-16965696Y18642382D01*
X-17001079Y18631699D01*
X-17036549Y18621394D01*
X-17038417Y18620426D01*
X-17040430Y18619818D01*
X-17073060Y18602469D01*
X-17105857Y18585468D01*
X-17107500Y18584156D01*
X-17109359Y18583168D01*
X-17138013Y18559798D01*
X-17166868Y18536764D01*
X-17169798Y18533876D01*
X-17169856Y18533828D01*
X-17169901Y18533774D01*
X-17170845Y18532843D01*
X-19053688Y16650000D01*
X-19250000Y16650000D01*
X-19286784Y16646393D01*
X-19323580Y16643174D01*
X-19325599Y16642587D01*
X-19327694Y16642382D01*
X-19363077Y16631699D01*
X-19398547Y16621394D01*
X-19400415Y16620426D01*
X-19402428Y16619818D01*
X-19417343Y16611887D01*
X-17963856Y18344086D01*
X-14058686Y21483924D01*
X-10450443Y23370267D01*
X-11670710Y22150000D01*
X-11670710Y22150000D01*
G37*
X-11670710Y22150000D02*
X-12500000Y22150000D01*
X-12536784Y22146393D01*
X-12573580Y22143174D01*
X-12575599Y22142587D01*
X-12577694Y22142382D01*
X-12613077Y22131699D01*
X-12648547Y22121394D01*
X-12650415Y22120426D01*
X-12652428Y22119818D01*
X-12685058Y22102469D01*
X-12717855Y22085468D01*
X-12719498Y22084156D01*
X-12721357Y22083168D01*
X-12750011Y22059798D01*
X-12778866Y22036764D01*
X-12781796Y22033876D01*
X-12781854Y22033828D01*
X-12781899Y22033774D01*
X-12782843Y22032843D01*
X-13415686Y21400000D01*
X-13500000Y21400000D01*
X-13536784Y21396393D01*
X-13573580Y21393174D01*
X-13575599Y21392587D01*
X-13577694Y21392382D01*
X-13613077Y21381699D01*
X-13648547Y21371394D01*
X-13650415Y21370426D01*
X-13652428Y21369818D01*
X-13685058Y21352469D01*
X-13717855Y21335468D01*
X-13719498Y21334156D01*
X-13721357Y21333168D01*
X-13750011Y21309798D01*
X-13778866Y21286764D01*
X-13781796Y21283876D01*
X-13781854Y21283828D01*
X-13781899Y21283774D01*
X-13782843Y21282843D01*
X-14415686Y20650000D01*
X-14750000Y20650000D01*
X-14786784Y20646393D01*
X-14823580Y20643174D01*
X-14825599Y20642587D01*
X-14827694Y20642382D01*
X-14863077Y20631699D01*
X-14898547Y20621394D01*
X-14900415Y20620426D01*
X-14902428Y20619818D01*
X-14935058Y20602469D01*
X-14967855Y20585468D01*
X-14969498Y20584156D01*
X-14971357Y20583168D01*
X-15000011Y20559798D01*
X-15028866Y20536764D01*
X-15031796Y20533876D01*
X-15031854Y20533828D01*
X-15031899Y20533774D01*
X-15032843Y20532843D01*
X-16070002Y19495684D01*
X-16141854Y19481978D01*
X-16232769Y19445246D01*
X-16314818Y19391554D01*
X-16384875Y19322949D01*
X-16440273Y19242042D01*
X-16478901Y19151916D01*
X-16499288Y19056004D01*
X-16500657Y18957959D01*
X-16482956Y18861515D01*
X-16446860Y18770345D01*
X-16393742Y18687924D01*
X-16357120Y18650000D01*
X-16888002Y18650000D01*
X-16924786Y18646393D01*
X-16961582Y18643174D01*
X-16963601Y18642587D01*
X-16965696Y18642382D01*
X-17001079Y18631699D01*
X-17036549Y18621394D01*
X-17038417Y18620426D01*
X-17040430Y18619818D01*
X-17073060Y18602469D01*
X-17105857Y18585468D01*
X-17107500Y18584156D01*
X-17109359Y18583168D01*
X-17138013Y18559798D01*
X-17166868Y18536764D01*
X-17169798Y18533876D01*
X-17169856Y18533828D01*
X-17169901Y18533774D01*
X-17170845Y18532843D01*
X-19053688Y16650000D01*
X-19250000Y16650000D01*
X-19286784Y16646393D01*
X-19323580Y16643174D01*
X-19325599Y16642587D01*
X-19327694Y16642382D01*
X-19363077Y16631699D01*
X-19398547Y16621394D01*
X-19400415Y16620426D01*
X-19402428Y16619818D01*
X-19417343Y16611887D01*
X-17963856Y18344086D01*
X-14058686Y21483924D01*
X-10450443Y23370267D01*
X-11670710Y22150000D01*
G36*
X-10032540Y19462037D02*
X-10020675Y19454475D01*
X-10007174Y19450517D01*
X-10000000Y19450000D01*
X-8865686Y19450000D01*
X-10415686Y17900000D01*
X-11142468Y17900000D01*
X-11119671Y17921709D01*
X-11063149Y18001834D01*
X-11023267Y18091412D01*
X-11001543Y18187030D01*
X-10999979Y18299028D01*
X-11019024Y18395215D01*
X-11056390Y18485871D01*
X-11110653Y18567544D01*
X-11179746Y18637120D01*
X-11261037Y18691952D01*
X-11351431Y18729950D01*
X-11447483Y18749667D01*
X-11545536Y18750351D01*
X-11641854Y18731978D01*
X-11732769Y18695246D01*
X-11780120Y18664260D01*
X-11746132Y18733334D01*
X-11708247Y18874721D01*
X-11698548Y19020774D01*
X-11717401Y19165929D01*
X-11764089Y19304657D01*
X-11836834Y19431675D01*
X-11842960Y19440169D01*
X-11847247Y19446025D01*
X-11944811Y19555143D01*
X-12061711Y19643233D01*
X-12193495Y19706939D01*
X-12335143Y19743834D01*
X-12481259Y19752514D01*
X-12500267Y19749910D01*
X-12496201Y19758173D01*
X-12458316Y19899560D01*
X-12448617Y20045613D01*
X-12452842Y20078141D01*
X-12432376Y20068248D01*
X-12290728Y20031353D01*
X-12144612Y20022673D01*
X-11999592Y20042539D01*
X-11861192Y20090195D01*
X-11734685Y20163825D01*
X-11624889Y20260625D01*
X-11535985Y20376907D01*
X-11471361Y20508243D01*
X-11433476Y20649630D01*
X-11432646Y20662128D01*
X-10032540Y19462037D01*
X-10032540Y19462037D01*
G37*
X-10032540Y19462037D02*
X-10020675Y19454475D01*
X-10007174Y19450517D01*
X-10000000Y19450000D01*
X-8865686Y19450000D01*
X-10415686Y17900000D01*
X-11142468Y17900000D01*
X-11119671Y17921709D01*
X-11063149Y18001834D01*
X-11023267Y18091412D01*
X-11001543Y18187030D01*
X-10999979Y18299028D01*
X-11019024Y18395215D01*
X-11056390Y18485871D01*
X-11110653Y18567544D01*
X-11179746Y18637120D01*
X-11261037Y18691952D01*
X-11351431Y18729950D01*
X-11447483Y18749667D01*
X-11545536Y18750351D01*
X-11641854Y18731978D01*
X-11732769Y18695246D01*
X-11780120Y18664260D01*
X-11746132Y18733334D01*
X-11708247Y18874721D01*
X-11698548Y19020774D01*
X-11717401Y19165929D01*
X-11764089Y19304657D01*
X-11836834Y19431675D01*
X-11842960Y19440169D01*
X-11847247Y19446025D01*
X-11944811Y19555143D01*
X-12061711Y19643233D01*
X-12193495Y19706939D01*
X-12335143Y19743834D01*
X-12481259Y19752514D01*
X-12500267Y19749910D01*
X-12496201Y19758173D01*
X-12458316Y19899560D01*
X-12448617Y20045613D01*
X-12452842Y20078141D01*
X-12432376Y20068248D01*
X-12290728Y20031353D01*
X-12144612Y20022673D01*
X-11999592Y20042539D01*
X-11861192Y20090195D01*
X-11734685Y20163825D01*
X-11624889Y20260625D01*
X-11535985Y20376907D01*
X-11471361Y20508243D01*
X-11433476Y20649630D01*
X-11432646Y20662128D01*
X-10032540Y19462037D01*
M02*
