%FSLAX45Y45*%
G04 Gerber Fmt 4.5, Leading zero omitted, Abs format (unit mm)*
G04 Created by KiCad (PCBNEW 4.0.7) date 03/16/20 11:50:23*
%MOMM*%
%LPD*%
G01*
G04 APERTURE LIST*
%ADD10C,0.127000*%
%ADD11C,0.150000*%
%ADD12C,0.200000*%
%ADD13C,0.300000*%
G04 APERTURE END LIST*
D10*
D11*
X-200000Y1345200D02*
X-200000Y1264200D01*
X1265400Y-498500D02*
X1195200Y-458000D01*
X200000Y1345200D02*
X200000Y1264300D01*
X1065600Y-845063D02*
X995500Y-804563D01*
X-1065600Y-845100D02*
X-995500Y-804600D01*
X-1265400Y-498500D02*
X-1195200Y-458000D01*
X1065649Y-845063D02*
G75*
G03X1265400Y-498500I-1065649J845063D01*
G01*
X-1265378Y-498513D02*
G75*
G03X-1065600Y-845100I1265378J498513D01*
G01*
X199967Y1345205D02*
G75*
G03X-200000Y1345200I-199967J-1345205D01*
G01*
X-995511Y-804586D02*
G75*
G03X995500Y-804600I995511J804586D01*
G01*
X1195258Y-458054D02*
G75*
G03X200000Y1264300I-1195258J458054D01*
G01*
X-200050Y1264218D02*
G75*
G03X-1195200Y-458000I200050J-1264218D01*
G01*
X2580000Y0D02*
G75*
G03X2580000Y0I-2580000J0D01*
G01*
D12*
X-2490000Y465000D02*
X-2460000Y435000D01*
X-2460000Y465000D02*
X-2490000Y435000D01*
X-2490000Y365000D02*
X-2460000Y335000D01*
X-2460000Y365000D02*
X-2490000Y335000D01*
X-2490000Y265000D02*
X-2460000Y235000D01*
X-2460000Y265000D02*
X-2490000Y235000D01*
X-2415000Y-360000D02*
X-2385000Y-390000D01*
X-2385000Y-360000D02*
X-2415000Y-390000D01*
X-2365000Y965000D02*
X-2335000Y935000D01*
X-2335000Y965000D02*
X-2365000Y935000D01*
X-2340000Y-435000D02*
X-2310000Y-465000D01*
X-2310000Y-435000D02*
X-2340000Y-465000D01*
X-2290000Y865000D02*
X-2260000Y835000D01*
X-2260000Y865000D02*
X-2290000Y835000D01*
X-2290000Y765000D02*
X-2260000Y735000D01*
X-2260000Y765000D02*
X-2290000Y735000D01*
X-2290000Y665000D02*
X-2260000Y635000D01*
X-2260000Y665000D02*
X-2290000Y635000D01*
X-2290000Y565000D02*
X-2260000Y535000D01*
X-2260000Y565000D02*
X-2290000Y535000D01*
X-2290000Y-710000D02*
X-2260000Y-740000D01*
X-2260000Y-710000D02*
X-2290000Y-740000D01*
X-2290000Y-810000D02*
X-2260000Y-840000D01*
X-2260000Y-810000D02*
X-2290000Y-840000D01*
X-2290000Y-910000D02*
X-2260000Y-940000D01*
X-2260000Y-910000D02*
X-2290000Y-940000D01*
X-2265000Y-510000D02*
X-2235000Y-540000D01*
X-2235000Y-510000D02*
X-2265000Y-540000D01*
X-2240000Y1165000D02*
X-2210000Y1135000D01*
X-2210000Y1165000D02*
X-2240000Y1135000D01*
X-2240000Y915000D02*
X-2210000Y885000D01*
X-2210000Y915000D02*
X-2240000Y885000D01*
X-2240000Y815000D02*
X-2210000Y785000D01*
X-2210000Y815000D02*
X-2240000Y785000D01*
X-2240000Y715000D02*
X-2210000Y685000D01*
X-2210000Y715000D02*
X-2240000Y685000D01*
X-2240000Y615000D02*
X-2210000Y585000D01*
X-2210000Y615000D02*
X-2240000Y585000D01*
X-2240000Y-660000D02*
X-2210000Y-690000D01*
X-2210000Y-660000D02*
X-2240000Y-690000D01*
X-2240000Y-760000D02*
X-2210000Y-790000D01*
X-2210000Y-760000D02*
X-2240000Y-790000D01*
X-2240000Y-860000D02*
X-2210000Y-890000D01*
X-2210000Y-860000D02*
X-2240000Y-890000D01*
X-2190000Y865000D02*
X-2160000Y835000D01*
X-2160000Y865000D02*
X-2190000Y835000D01*
X-2190000Y765000D02*
X-2160000Y735000D01*
X-2160000Y765000D02*
X-2190000Y735000D01*
X-2190000Y665000D02*
X-2160000Y635000D01*
X-2160000Y665000D02*
X-2190000Y635000D01*
X-2165000Y1165000D02*
X-2135000Y1135000D01*
X-2135000Y1165000D02*
X-2165000Y1135000D01*
X-2165000Y215000D02*
X-2135000Y185000D01*
X-2135000Y215000D02*
X-2165000Y185000D01*
X-2140000Y-510000D02*
X-2110000Y-540000D01*
X-2110000Y-510000D02*
X-2140000Y-540000D01*
X-2115000Y390000D02*
X-2085000Y360000D01*
X-2085000Y390000D02*
X-2115000Y360000D01*
X-2090000Y1165000D02*
X-2060000Y1135000D01*
X-2060000Y1165000D02*
X-2090000Y1135000D01*
X-2085000Y665000D02*
X-2055000Y635000D01*
X-2055000Y665000D02*
X-2085000Y635000D01*
X-2040000Y965000D02*
X-2010000Y935000D01*
X-2010000Y965000D02*
X-2040000Y935000D01*
X-2015000Y165000D02*
X-1985000Y135000D01*
X-1985000Y165000D02*
X-2015000Y135000D01*
X-2015000Y65000D02*
X-1985000Y35000D01*
X-1985000Y65000D02*
X-2015000Y35000D01*
X-2015000Y-35000D02*
X-1985000Y-65000D01*
X-1985000Y-35000D02*
X-2015000Y-65000D01*
X-2015000Y-135000D02*
X-1985000Y-165000D01*
X-1985000Y-135000D02*
X-2015000Y-165000D01*
X-1965000Y115000D02*
X-1935000Y85000D01*
X-1935000Y115000D02*
X-1965000Y85000D01*
X-1965000Y15000D02*
X-1935000Y-15000D01*
X-1935000Y15000D02*
X-1965000Y-15000D01*
X-1965000Y-85000D02*
X-1935000Y-115000D01*
X-1935000Y-85000D02*
X-1965000Y-115000D01*
X-1940000Y-360000D02*
X-1910000Y-390000D01*
X-1910000Y-360000D02*
X-1940000Y-390000D01*
X-1940000Y-510000D02*
X-1910000Y-540000D01*
X-1910000Y-510000D02*
X-1940000Y-540000D01*
X-1915000Y165000D02*
X-1885000Y135000D01*
X-1885000Y165000D02*
X-1915000Y135000D01*
X-1915000Y65000D02*
X-1885000Y35000D01*
X-1885000Y65000D02*
X-1915000Y35000D01*
X-1915000Y-35000D02*
X-1885000Y-65000D01*
X-1885000Y-35000D02*
X-1915000Y-65000D01*
X-1915000Y-135000D02*
X-1885000Y-165000D01*
X-1885000Y-135000D02*
X-1915000Y-165000D01*
X-1890000Y1515000D02*
X-1860000Y1485000D01*
X-1860000Y1515000D02*
X-1890000Y1485000D01*
X-1865000Y615000D02*
X-1835000Y585000D01*
X-1835000Y615000D02*
X-1865000Y585000D01*
X-1840000Y1240000D02*
X-1810000Y1210000D01*
X-1810000Y1240000D02*
X-1840000Y1210000D01*
X-1840000Y1165000D02*
X-1810000Y1135000D01*
X-1810000Y1165000D02*
X-1840000Y1135000D01*
X-1815000Y1640000D02*
X-1785000Y1610000D01*
X-1785000Y1640000D02*
X-1815000Y1610000D01*
X-1815000Y290000D02*
X-1785000Y260000D01*
X-1785000Y290000D02*
X-1815000Y260000D01*
X-1815000Y-510000D02*
X-1785000Y-540000D01*
X-1785000Y-510000D02*
X-1815000Y-540000D01*
X-1790000Y715000D02*
X-1760000Y685000D01*
X-1760000Y715000D02*
X-1790000Y685000D01*
X-1790000Y65000D02*
X-1760000Y35000D01*
X-1760000Y65000D02*
X-1790000Y35000D01*
X-1790000Y-35000D02*
X-1760000Y-65000D01*
X-1760000Y-35000D02*
X-1790000Y-65000D01*
X-1790000Y-135000D02*
X-1760000Y-165000D01*
X-1760000Y-135000D02*
X-1790000Y-165000D01*
X-1790000Y-285000D02*
X-1760000Y-315000D01*
X-1760000Y-285000D02*
X-1790000Y-315000D01*
X-1740000Y1615000D02*
X-1710000Y1585000D01*
X-1710000Y1615000D02*
X-1740000Y1585000D01*
X-1740000Y1390000D02*
X-1710000Y1360000D01*
X-1710000Y1390000D02*
X-1740000Y1360000D01*
X-1740000Y115000D02*
X-1710000Y85000D01*
X-1710000Y115000D02*
X-1740000Y85000D01*
X-1740000Y15000D02*
X-1710000Y-15000D01*
X-1710000Y15000D02*
X-1740000Y-15000D01*
X-1740000Y-85000D02*
X-1710000Y-115000D01*
X-1710000Y-85000D02*
X-1740000Y-115000D01*
X-1690000Y1915000D02*
X-1660000Y1885000D01*
X-1660000Y1915000D02*
X-1690000Y1885000D01*
X-1690000Y1765000D02*
X-1660000Y1735000D01*
X-1660000Y1765000D02*
X-1690000Y1735000D01*
X-1690000Y165000D02*
X-1660000Y135000D01*
X-1660000Y165000D02*
X-1690000Y135000D01*
X-1690000Y65000D02*
X-1660000Y35000D01*
X-1660000Y65000D02*
X-1690000Y35000D01*
X-1690000Y-35000D02*
X-1660000Y-65000D01*
X-1660000Y-35000D02*
X-1690000Y-65000D01*
X-1690000Y-135000D02*
X-1660000Y-165000D01*
X-1660000Y-135000D02*
X-1690000Y-165000D01*
X-1665000Y1240000D02*
X-1635000Y1210000D01*
X-1635000Y1240000D02*
X-1665000Y1210000D01*
X-1665000Y1165000D02*
X-1635000Y1135000D01*
X-1635000Y1165000D02*
X-1665000Y1135000D01*
X-1665000Y1090000D02*
X-1635000Y1060000D01*
X-1635000Y1090000D02*
X-1665000Y1060000D01*
X-1665000Y515000D02*
X-1635000Y485000D01*
X-1635000Y515000D02*
X-1665000Y485000D01*
X-1665000Y365000D02*
X-1635000Y335000D01*
X-1635000Y365000D02*
X-1665000Y335000D01*
X-1665000Y-360000D02*
X-1635000Y-390000D01*
X-1635000Y-360000D02*
X-1665000Y-390000D01*
X-1665000Y-660000D02*
X-1635000Y-690000D01*
X-1635000Y-660000D02*
X-1665000Y-690000D01*
X-1665000Y-760000D02*
X-1635000Y-790000D01*
X-1635000Y-760000D02*
X-1665000Y-790000D01*
X-1665000Y-860000D02*
X-1635000Y-890000D01*
X-1635000Y-860000D02*
X-1665000Y-890000D01*
X-1615000Y1915000D02*
X-1585000Y1885000D01*
X-1585000Y1915000D02*
X-1615000Y1885000D01*
X-1615000Y-510000D02*
X-1585000Y-540000D01*
X-1585000Y-510000D02*
X-1615000Y-540000D01*
X-1615000Y-710000D02*
X-1585000Y-740000D01*
X-1585000Y-710000D02*
X-1615000Y-740000D01*
X-1615000Y-810000D02*
X-1585000Y-840000D01*
X-1585000Y-810000D02*
X-1615000Y-840000D01*
X-1615000Y-910000D02*
X-1585000Y-940000D01*
X-1585000Y-910000D02*
X-1615000Y-940000D01*
X-1590000Y1665000D02*
X-1560000Y1635000D01*
X-1560000Y1665000D02*
X-1590000Y1635000D01*
X-1590000Y1240000D02*
X-1560000Y1210000D01*
X-1560000Y1240000D02*
X-1590000Y1210000D01*
X-1590000Y1165000D02*
X-1560000Y1135000D01*
X-1560000Y1165000D02*
X-1590000Y1135000D01*
X-1590000Y1090000D02*
X-1560000Y1060000D01*
X-1560000Y1090000D02*
X-1590000Y1060000D01*
X-1565000Y365000D02*
X-1535000Y335000D01*
X-1535000Y365000D02*
X-1565000Y335000D01*
X-1565000Y215000D02*
X-1535000Y185000D01*
X-1535000Y215000D02*
X-1565000Y185000D01*
X-1540000Y1615000D02*
X-1510000Y1585000D01*
X-1510000Y1615000D02*
X-1540000Y1585000D01*
X-1538500Y115000D02*
X-1508500Y85000D01*
X-1508500Y115000D02*
X-1538500Y85000D01*
X-1515000Y1390000D02*
X-1485000Y1360000D01*
X-1485000Y1390000D02*
X-1515000Y1360000D01*
X-1515000Y1240000D02*
X-1485000Y1210000D01*
X-1485000Y1240000D02*
X-1515000Y1210000D01*
X-1515000Y1165000D02*
X-1485000Y1135000D01*
X-1485000Y1165000D02*
X-1515000Y1135000D01*
X-1515000Y1090000D02*
X-1485000Y1060000D01*
X-1485000Y1090000D02*
X-1515000Y1060000D01*
X-1515000Y590000D02*
X-1485000Y560000D01*
X-1485000Y590000D02*
X-1515000Y560000D01*
X-1490000Y65000D02*
X-1460000Y35000D01*
X-1460000Y65000D02*
X-1490000Y35000D01*
X-1440000Y615000D02*
X-1410000Y585000D01*
X-1410000Y615000D02*
X-1440000Y585000D01*
X-1440000Y15000D02*
X-1410000Y-15000D01*
X-1410000Y15000D02*
X-1440000Y-15000D01*
X-1415000Y465000D02*
X-1385000Y435000D01*
X-1385000Y465000D02*
X-1415000Y435000D01*
X-1390000Y1665000D02*
X-1360000Y1635000D01*
X-1360000Y1665000D02*
X-1390000Y1635000D01*
X-1390000Y665000D02*
X-1360000Y635000D01*
X-1360000Y665000D02*
X-1390000Y635000D01*
X-1365000Y1390000D02*
X-1335000Y1360000D01*
X-1335000Y1390000D02*
X-1365000Y1360000D01*
X-1365000Y1015000D02*
X-1335000Y985000D01*
X-1335000Y1015000D02*
X-1365000Y985000D01*
X-1290000Y815000D02*
X-1260000Y785000D01*
X-1260000Y815000D02*
X-1290000Y785000D01*
X-1215000Y815000D02*
X-1185000Y785000D01*
X-1185000Y815000D02*
X-1215000Y785000D01*
X-1165000Y1840000D02*
X-1135000Y1810000D01*
X-1135000Y1840000D02*
X-1165000Y1810000D01*
X-1165000Y1540000D02*
X-1135000Y1510000D01*
X-1135000Y1540000D02*
X-1165000Y1510000D01*
X-1140000Y1640000D02*
X-1110000Y1610000D01*
X-1110000Y1640000D02*
X-1140000Y1610000D01*
X-1140000Y915000D02*
X-1110000Y885000D01*
X-1110000Y915000D02*
X-1140000Y885000D01*
X-1065000Y965000D02*
X-1035000Y935000D01*
X-1035000Y965000D02*
X-1065000Y935000D01*
X-1040000Y1865000D02*
X-1010000Y1835000D01*
X-1010000Y1865000D02*
X-1040000Y1835000D01*
X-965000Y1465000D02*
X-935000Y1435000D01*
X-935000Y1465000D02*
X-965000Y1435000D01*
X-940000Y2290000D02*
X-910000Y2260000D01*
X-910000Y2290000D02*
X-940000Y2260000D01*
X-940000Y1615000D02*
X-910000Y1585000D01*
X-910000Y1615000D02*
X-940000Y1585000D01*
X-915000Y1315000D02*
X-885000Y1285000D01*
X-885000Y1315000D02*
X-915000Y1285000D01*
X-915000Y1240000D02*
X-885000Y1210000D01*
X-885000Y1240000D02*
X-915000Y1210000D01*
X-890000Y2240000D02*
X-860000Y2210000D01*
X-860000Y2240000D02*
X-890000Y2210000D01*
X-890000Y1665000D02*
X-860000Y1635000D01*
X-860000Y1665000D02*
X-890000Y1635000D01*
X-865000Y1365000D02*
X-835000Y1335000D01*
X-835000Y1365000D02*
X-865000Y1335000D01*
X-840000Y2290000D02*
X-810000Y2260000D01*
X-810000Y2290000D02*
X-840000Y2260000D01*
X-840000Y1865000D02*
X-810000Y1835000D01*
X-810000Y1865000D02*
X-840000Y1835000D01*
X-840000Y1615000D02*
X-810000Y1585000D01*
X-810000Y1615000D02*
X-840000Y1585000D01*
X-790000Y2240000D02*
X-760000Y2210000D01*
X-760000Y2240000D02*
X-790000Y2210000D01*
X-790000Y1665000D02*
X-760000Y1635000D01*
X-760000Y1665000D02*
X-790000Y1635000D01*
X-740000Y2290000D02*
X-710000Y2260000D01*
X-710000Y2290000D02*
X-740000Y2260000D01*
X-740000Y1615000D02*
X-710000Y1585000D01*
X-710000Y1615000D02*
X-740000Y1585000D01*
X-690000Y2440000D02*
X-660000Y2410000D01*
X-660000Y2440000D02*
X-690000Y2410000D01*
X-690000Y2240000D02*
X-660000Y2210000D01*
X-660000Y2240000D02*
X-690000Y2210000D01*
X-690000Y1665000D02*
X-660000Y1635000D01*
X-660000Y1665000D02*
X-690000Y1635000D01*
X-640000Y2040000D02*
X-610000Y2010000D01*
X-610000Y2040000D02*
X-640000Y2010000D01*
X-540000Y2265000D02*
X-510000Y2235000D01*
X-510000Y2265000D02*
X-540000Y2235000D01*
X-540000Y2140000D02*
X-510000Y2110000D01*
X-510000Y2140000D02*
X-540000Y2110000D01*
X-540000Y1940000D02*
X-510000Y1910000D01*
X-510000Y1940000D02*
X-540000Y1910000D01*
X-540000Y1815000D02*
X-510000Y1785000D01*
X-510000Y1815000D02*
X-540000Y1785000D01*
X-540000Y1615000D02*
X-510000Y1585000D01*
X-510000Y1615000D02*
X-540000Y1585000D01*
X-390000Y2415000D02*
X-360000Y2385000D01*
X-360000Y2415000D02*
X-390000Y2385000D01*
X-390000Y1940000D02*
X-360000Y1910000D01*
X-360000Y1940000D02*
X-390000Y1910000D01*
X-390000Y1665000D02*
X-360000Y1635000D01*
X-360000Y1665000D02*
X-390000Y1635000D01*
X-315000Y1790000D02*
X-285000Y1760000D01*
X-285000Y1790000D02*
X-315000Y1760000D01*
X-315000Y1315000D02*
X-285000Y1285000D01*
X-285000Y1315000D02*
X-315000Y1285000D01*
X-265000Y1590000D02*
X-235000Y1560000D01*
X-235000Y1590000D02*
X-265000Y1560000D01*
X-165000Y2015000D02*
X-135000Y1985000D01*
X-135000Y2015000D02*
X-165000Y1985000D01*
X-165000Y1915000D02*
X-135000Y1885000D01*
X-135000Y1915000D02*
X-165000Y1885000D01*
X-165000Y1790000D02*
X-135000Y1760000D01*
X-135000Y1790000D02*
X-165000Y1760000D01*
X-165000Y1690000D02*
X-135000Y1660000D01*
X-135000Y1690000D02*
X-165000Y1660000D01*
X-115000Y1965000D02*
X-85000Y1935000D01*
X-85000Y1965000D02*
X-115000Y1935000D01*
X-115000Y1740000D02*
X-85000Y1710000D01*
X-85000Y1740000D02*
X-115000Y1710000D01*
X-65263Y1785319D02*
X-35264Y1755319D01*
X-35264Y1785319D02*
X-65263Y1755319D01*
X-65000Y2015000D02*
X-35000Y1985000D01*
X-35000Y2015000D02*
X-65000Y1985000D01*
X-65000Y1915000D02*
X-35000Y1885000D01*
X-35000Y1915000D02*
X-65000Y1885000D01*
X-65000Y1690000D02*
X-35000Y1660000D01*
X-35000Y1690000D02*
X-65000Y1660000D01*
X-65000Y-1660000D02*
X-35000Y-1690000D01*
X-35000Y-1660000D02*
X-65000Y-1690000D01*
X-15000Y1965000D02*
X15000Y1935000D01*
X15000Y1965000D02*
X-15000Y1935000D01*
X-15000Y1740000D02*
X15000Y1710000D01*
X15000Y1740000D02*
X-15000Y1710000D01*
X-15000Y1640000D02*
X15000Y1610000D01*
X15000Y1640000D02*
X-15000Y1610000D01*
X35000Y2015000D02*
X65000Y1985000D01*
X65000Y2015000D02*
X35000Y1985000D01*
X35000Y1915000D02*
X65000Y1885000D01*
X65000Y1915000D02*
X35000Y1885000D01*
X35000Y1790000D02*
X65000Y1760000D01*
X65000Y1790000D02*
X35000Y1760000D01*
X35000Y1690000D02*
X65000Y1660000D01*
X65000Y1690000D02*
X35000Y1660000D01*
X85000Y1965000D02*
X115000Y1935000D01*
X115000Y1965000D02*
X85000Y1935000D01*
X85000Y1740000D02*
X115000Y1710000D01*
X115000Y1740000D02*
X85000Y1710000D01*
X135000Y2015000D02*
X165000Y1985000D01*
X165000Y2015000D02*
X135000Y1985000D01*
X135000Y1915000D02*
X165000Y1885000D01*
X165000Y1915000D02*
X135000Y1885000D01*
X135000Y1790000D02*
X165000Y1760000D01*
X165000Y1790000D02*
X135000Y1760000D01*
X135000Y1690000D02*
X165000Y1660000D01*
X165000Y1690000D02*
X135000Y1660000D01*
X285000Y1590000D02*
X315000Y1560000D01*
X315000Y1590000D02*
X285000Y1560000D01*
X285000Y1315000D02*
X315000Y1285000D01*
X315000Y1315000D02*
X285000Y1285000D01*
X660000Y1665000D02*
X690000Y1635000D01*
X690000Y1665000D02*
X660000Y1635000D01*
X660000Y1565000D02*
X690000Y1535000D01*
X690000Y1565000D02*
X660000Y1535000D01*
X660000Y1465000D02*
X690000Y1435000D01*
X690000Y1465000D02*
X660000Y1435000D01*
X660000Y1165000D02*
X690000Y1135000D01*
X690000Y1165000D02*
X660000Y1135000D01*
X760000Y1665000D02*
X790000Y1635000D01*
X790000Y1665000D02*
X760000Y1635000D01*
X760000Y1565000D02*
X790000Y1535000D01*
X790000Y1565000D02*
X760000Y1535000D01*
X760000Y1465000D02*
X790000Y1435000D01*
X790000Y1465000D02*
X760000Y1435000D01*
X760000Y1165000D02*
X790000Y1135000D01*
X790000Y1165000D02*
X760000Y1135000D01*
X760000Y1090000D02*
X790000Y1060000D01*
X790000Y1090000D02*
X760000Y1060000D01*
X860000Y1665000D02*
X890000Y1635000D01*
X890000Y1665000D02*
X860000Y1635000D01*
X860000Y1565000D02*
X890000Y1535000D01*
X890000Y1565000D02*
X860000Y1535000D01*
X860000Y1465000D02*
X890000Y1435000D01*
X890000Y1465000D02*
X860000Y1435000D01*
X860000Y1165000D02*
X890000Y1135000D01*
X890000Y1165000D02*
X860000Y1135000D01*
X860000Y1090000D02*
X890000Y1060000D01*
X890000Y1090000D02*
X860000Y1060000D01*
X860000Y1015000D02*
X890000Y985000D01*
X890000Y1015000D02*
X860000Y985000D01*
X960000Y1665000D02*
X990000Y1635000D01*
X990000Y1665000D02*
X960000Y1635000D01*
X960000Y1565000D02*
X990000Y1535000D01*
X990000Y1565000D02*
X960000Y1535000D01*
X960000Y1465000D02*
X990000Y1435000D01*
X990000Y1465000D02*
X960000Y1435000D01*
X960000Y1165000D02*
X990000Y1135000D01*
X990000Y1165000D02*
X960000Y1135000D01*
X960000Y1090000D02*
X990000Y1060000D01*
X990000Y1090000D02*
X960000Y1060000D01*
X960000Y1015000D02*
X990000Y985000D01*
X990000Y1015000D02*
X960000Y985000D01*
X960000Y940000D02*
X990000Y910000D01*
X990000Y940000D02*
X960000Y910000D01*
X1260000Y1665000D02*
X1290000Y1635000D01*
X1290000Y1665000D02*
X1260000Y1635000D01*
X1260000Y1565000D02*
X1290000Y1535000D01*
X1290000Y1565000D02*
X1260000Y1535000D01*
X1260000Y1465000D02*
X1290000Y1435000D01*
X1290000Y1465000D02*
X1260000Y1435000D01*
X1260000Y-1460000D02*
X1290000Y-1490000D01*
X1290000Y-1460000D02*
X1260000Y-1490000D01*
X1260000Y-1560000D02*
X1290000Y-1590000D01*
X1290000Y-1560000D02*
X1260000Y-1590000D01*
X1260000Y-1660000D02*
X1290000Y-1690000D01*
X1290000Y-1660000D02*
X1260000Y-1690000D01*
X1360000Y1665000D02*
X1390000Y1635000D01*
X1390000Y1665000D02*
X1360000Y1635000D01*
X1360000Y1565000D02*
X1390000Y1535000D01*
X1390000Y1565000D02*
X1360000Y1535000D01*
X1360000Y1465000D02*
X1390000Y1435000D01*
X1390000Y1465000D02*
X1360000Y1435000D01*
X1360000Y-1460000D02*
X1390000Y-1490000D01*
X1390000Y-1460000D02*
X1360000Y-1490000D01*
X1360000Y-1560000D02*
X1390000Y-1590000D01*
X1390000Y-1560000D02*
X1360000Y-1590000D01*
X1360000Y-1660000D02*
X1390000Y-1690000D01*
X1390000Y-1660000D02*
X1360000Y-1690000D01*
X1460000Y1665000D02*
X1490000Y1635000D01*
X1490000Y1665000D02*
X1460000Y1635000D01*
X1460000Y1565000D02*
X1490000Y1535000D01*
X1490000Y1565000D02*
X1460000Y1535000D01*
X1460000Y1465000D02*
X1490000Y1435000D01*
X1490000Y1465000D02*
X1460000Y1435000D01*
X1460000Y-1460000D02*
X1490000Y-1490000D01*
X1490000Y-1460000D02*
X1460000Y-1490000D01*
X1460000Y-1560000D02*
X1490000Y-1590000D01*
X1490000Y-1560000D02*
X1460000Y-1590000D01*
X1460000Y-1660000D02*
X1490000Y-1690000D01*
X1490000Y-1660000D02*
X1460000Y-1690000D01*
X1560000Y1665000D02*
X1590000Y1635000D01*
X1590000Y1665000D02*
X1560000Y1635000D01*
X1560000Y1565000D02*
X1590000Y1535000D01*
X1590000Y1565000D02*
X1560000Y1535000D01*
X1560000Y1465000D02*
X1590000Y1435000D01*
X1590000Y1465000D02*
X1560000Y1435000D01*
X1560000Y-1460000D02*
X1590000Y-1490000D01*
X1590000Y-1460000D02*
X1560000Y-1490000D01*
X1560000Y-1560000D02*
X1590000Y-1590000D01*
X1590000Y-1560000D02*
X1560000Y-1590000D01*
X1560000Y-1660000D02*
X1590000Y-1690000D01*
X1590000Y-1660000D02*
X1560000Y-1690000D01*
X1585000Y940000D02*
X1615000Y910000D01*
X1615000Y940000D02*
X1585000Y910000D01*
X1585000Y840000D02*
X1615000Y810000D01*
X1615000Y840000D02*
X1585000Y810000D01*
X1585000Y740000D02*
X1615000Y710000D01*
X1615000Y740000D02*
X1585000Y710000D01*
X1585000Y540000D02*
X1615000Y510000D01*
X1615000Y540000D02*
X1585000Y510000D01*
X1610000Y15000D02*
X1640000Y-15000D01*
X1640000Y15000D02*
X1610000Y-15000D01*
X1610000Y-85000D02*
X1640000Y-115000D01*
X1640000Y-85000D02*
X1610000Y-115000D01*
X1635000Y890000D02*
X1665000Y860000D01*
X1665000Y890000D02*
X1635000Y860000D01*
X1635000Y790000D02*
X1665000Y760000D01*
X1665000Y790000D02*
X1635000Y760000D01*
X1635000Y690000D02*
X1665000Y660000D01*
X1665000Y690000D02*
X1635000Y660000D01*
X1635000Y390000D02*
X1665000Y360000D01*
X1665000Y390000D02*
X1635000Y360000D01*
X1660000Y165000D02*
X1690000Y135000D01*
X1690000Y165000D02*
X1660000Y135000D01*
X1660000Y65000D02*
X1690000Y35000D01*
X1690000Y65000D02*
X1660000Y35000D01*
X1660000Y-35000D02*
X1690000Y-65000D01*
X1690000Y-35000D02*
X1660000Y-65000D01*
X1660000Y-135000D02*
X1690000Y-165000D01*
X1690000Y-135000D02*
X1660000Y-165000D01*
X1710000Y690000D02*
X1740000Y660000D01*
X1740000Y690000D02*
X1710000Y660000D01*
X1710000Y115000D02*
X1740000Y85000D01*
X1740000Y115000D02*
X1710000Y85000D01*
X1710000Y15000D02*
X1740000Y-15000D01*
X1740000Y15000D02*
X1710000Y-15000D01*
X1710000Y-85000D02*
X1740000Y-115000D01*
X1740000Y-85000D02*
X1710000Y-115000D01*
X1760000Y315000D02*
X1790000Y285000D01*
X1790000Y315000D02*
X1760000Y285000D01*
X1760000Y165000D02*
X1790000Y135000D01*
X1790000Y165000D02*
X1760000Y135000D01*
X1760000Y65000D02*
X1790000Y35000D01*
X1790000Y65000D02*
X1760000Y35000D01*
X1760000Y-135000D02*
X1790000Y-165000D01*
X1790000Y-135000D02*
X1760000Y-165000D01*
X1769574Y-34381D02*
X1799574Y-64381D01*
X1799574Y-34381D02*
X1769574Y-64381D01*
X1785000Y540000D02*
X1815000Y510000D01*
X1815000Y540000D02*
X1785000Y510000D01*
X1835000Y615000D02*
X1865000Y585000D01*
X1865000Y615000D02*
X1835000Y585000D01*
X1885000Y390000D02*
X1915000Y360000D01*
X1915000Y390000D02*
X1885000Y360000D01*
X1885000Y165000D02*
X1915000Y135000D01*
X1915000Y165000D02*
X1885000Y135000D01*
X1885000Y65000D02*
X1915000Y35000D01*
X1915000Y65000D02*
X1885000Y35000D01*
X1885000Y-35000D02*
X1915000Y-65000D01*
X1915000Y-35000D02*
X1885000Y-65000D01*
X1885000Y-135000D02*
X1915000Y-165000D01*
X1915000Y-135000D02*
X1885000Y-165000D01*
X1910000Y540000D02*
X1940000Y510000D01*
X1940000Y540000D02*
X1910000Y510000D01*
X1935000Y115000D02*
X1965000Y85000D01*
X1965000Y115000D02*
X1935000Y85000D01*
X1935000Y15000D02*
X1965000Y-15000D01*
X1965000Y15000D02*
X1935000Y-15000D01*
X1935000Y-85000D02*
X1965000Y-115000D01*
X1965000Y-85000D02*
X1935000Y-115000D01*
X1985000Y165000D02*
X2015000Y135000D01*
X2015000Y165000D02*
X1985000Y135000D01*
X1985000Y65000D02*
X2015000Y35000D01*
X2015000Y65000D02*
X1985000Y35000D01*
X1985000Y-135000D02*
X2015000Y-165000D01*
X2015000Y-135000D02*
X1985000Y-165000D01*
X1994574Y-34381D02*
X2024574Y-64381D01*
X2024574Y-34381D02*
X1994574Y-64381D01*
X2110000Y540000D02*
X2140000Y510000D01*
X2140000Y540000D02*
X2110000Y510000D01*
X2210000Y890000D02*
X2240000Y860000D01*
X2240000Y890000D02*
X2210000Y860000D01*
X2210000Y790000D02*
X2240000Y760000D01*
X2240000Y790000D02*
X2210000Y760000D01*
X2210000Y690000D02*
X2240000Y660000D01*
X2240000Y690000D02*
X2210000Y660000D01*
X2235000Y540000D02*
X2265000Y510000D01*
X2265000Y540000D02*
X2235000Y510000D01*
X2260000Y940000D02*
X2290000Y910000D01*
X2290000Y940000D02*
X2260000Y910000D01*
X2260000Y840000D02*
X2290000Y810000D01*
X2290000Y840000D02*
X2260000Y810000D01*
X2260000Y740000D02*
X2290000Y710000D01*
X2290000Y740000D02*
X2260000Y710000D01*
X2385000Y390000D02*
X2415000Y360000D01*
X2415000Y390000D02*
X2385000Y360000D01*
X2460000Y465000D02*
X2490000Y435000D01*
X2490000Y465000D02*
X2460000Y435000D01*
X-2455000Y0D02*
G75*
G03X-2455000Y0I-20000J0D01*
G01*
X-2405000Y100000D02*
G75*
G03X-2405000Y100000I-20000J0D01*
G01*
X-2405000Y-100000D02*
G75*
G03X-2405000Y-100000I-20000J0D01*
G01*
X-2305000Y150000D02*
G75*
G03X-2305000Y150000I-20000J0D01*
G01*
X-2305000Y-150000D02*
G75*
G03X-2305000Y-150000I-20000J0D01*
G01*
X-2205000Y100000D02*
G75*
G03X-2205000Y100000I-20000J0D01*
G01*
X-2205000Y-100000D02*
G75*
G03X-2205000Y-100000I-20000J0D01*
G01*
X-2155000Y0D02*
G75*
G03X-2155000Y0I-20000J0D01*
G01*
X-1630000Y-1225000D02*
G75*
G03X-1630000Y-1225000I-20000J0D01*
G01*
X-1630000Y-1375000D02*
G75*
G03X-1630000Y-1375000I-20000J0D01*
G01*
X-1630000Y-1525000D02*
G75*
G03X-1630000Y-1525000I-20000J0D01*
G01*
X-1630000Y-1675000D02*
G75*
G03X-1630000Y-1675000I-20000J0D01*
G01*
X-1455000Y-1225000D02*
G75*
G03X-1455000Y-1225000I-20000J0D01*
G01*
X-1455000Y-1375000D02*
G75*
G03X-1455000Y-1375000I-20000J0D01*
G01*
X-1455000Y-1525000D02*
G75*
G03X-1455000Y-1525000I-20000J0D01*
G01*
X-1455000Y-1675000D02*
G75*
G03X-1455000Y-1675000I-20000J0D01*
G01*
X-1305000Y-1225000D02*
G75*
G03X-1305000Y-1225000I-20000J0D01*
G01*
X-1305000Y-1375000D02*
G75*
G03X-1305000Y-1375000I-20000J0D01*
G01*
X-1305000Y-1525000D02*
G75*
G03X-1305000Y-1525000I-20000J0D01*
G01*
X-1305000Y-1675000D02*
G75*
G03X-1305000Y-1675000I-20000J0D01*
G01*
X-1130000Y-1225000D02*
G75*
G03X-1130000Y-1225000I-20000J0D01*
G01*
X-1130000Y-1375000D02*
G75*
G03X-1130000Y-1375000I-20000J0D01*
G01*
X-1130000Y-1525000D02*
G75*
G03X-1130000Y-1525000I-20000J0D01*
G01*
X-1130000Y-1675000D02*
G75*
G03X-1130000Y-1675000I-20000J0D01*
G01*
X-555000Y-2175000D02*
G75*
G03X-555000Y-2175000I-20000J0D01*
G01*
X-480000Y-2050000D02*
G75*
G03X-480000Y-2050000I-20000J0D01*
G01*
X-480000Y-2350000D02*
G75*
G03X-480000Y-2350000I-20000J0D01*
G01*
X-330000Y-1975000D02*
G75*
G03X-330000Y-1975000I-20000J0D01*
G01*
X-330000Y-2425000D02*
G75*
G03X-330000Y-2425000I-20000J0D01*
G01*
X-180000Y-2050000D02*
G75*
G03X-180000Y-2050000I-20000J0D01*
G01*
X-180000Y-2350000D02*
G75*
G03X-180000Y-2350000I-20000J0D01*
G01*
X-130000Y2325000D02*
G75*
G03X-130000Y2325000I-20000J0D01*
G01*
X-105000Y-2200000D02*
G75*
G03X-105000Y-2200000I-20000J0D01*
G01*
X-80000Y2425000D02*
G75*
G03X-80000Y2425000I-20000J0D01*
G01*
X-80000Y2225000D02*
G75*
G03X-80000Y2225000I-20000J0D01*
G01*
X20000Y2475000D02*
G75*
G03X20000Y2475000I-20000J0D01*
G01*
X20000Y2175000D02*
G75*
G03X20000Y2175000I-20000J0D01*
G01*
X120000Y2425000D02*
G75*
G03X120000Y2425000I-20000J0D01*
G01*
X120000Y2225000D02*
G75*
G03X120000Y2225000I-20000J0D01*
G01*
X145000Y-2200000D02*
G75*
G03X145000Y-2200000I-20000J0D01*
G01*
X170000Y2325000D02*
G75*
G03X170000Y2325000I-20000J0D01*
G01*
X220000Y-2050000D02*
G75*
G03X220000Y-2050000I-20000J0D01*
G01*
X220000Y-2350000D02*
G75*
G03X220000Y-2350000I-20000J0D01*
G01*
X370000Y-1975000D02*
G75*
G03X370000Y-1975000I-20000J0D01*
G01*
X370000Y-2425000D02*
G75*
G03X370000Y-2425000I-20000J0D01*
G01*
X520000Y-2050000D02*
G75*
G03X520000Y-2050000I-20000J0D01*
G01*
X520000Y-2350000D02*
G75*
G03X520000Y-2350000I-20000J0D01*
G01*
X595000Y-2200000D02*
G75*
G03X595000Y-2200000I-20000J0D01*
G01*
X2195000Y0D02*
G75*
G03X2195000Y0I-20000J0D01*
G01*
X2245000Y100000D02*
G75*
G03X2245000Y100000I-20000J0D01*
G01*
X2245000Y-100000D02*
G75*
G03X2245000Y-100000I-20000J0D01*
G01*
X2345000Y150000D02*
G75*
G03X2345000Y150000I-20000J0D01*
G01*
X2345000Y-150000D02*
G75*
G03X2345000Y-150000I-20000J0D01*
G01*
X2445000Y100619D02*
G75*
G03X2445000Y100619I-20000J0D01*
G01*
X2445000Y-100000D02*
G75*
G03X2445000Y-100000I-20000J0D01*
G01*
X2495000Y0D02*
G75*
G03X2495000Y0I-20000J0D01*
G01*
X-1750000Y625000D02*
X-1750000Y575000D01*
X-1775000Y600000D02*
X-1725000Y600000D01*
X-1425251Y1725251D02*
X-1425251Y1774749D01*
X-1474749Y1774749D01*
X-1474749Y1725251D01*
X-1425251Y1725251D01*
X-1397774Y1902742D02*
X-1397774Y1952240D01*
X-1447272Y1952240D01*
X-1447272Y1902742D01*
X-1397774Y1902742D01*
X-1322767Y1800258D02*
X-1322767Y1849756D01*
X-1372265Y1849756D01*
X-1372265Y1800258D01*
X-1322767Y1800258D01*
X-1295290Y1977749D02*
X-1295290Y2027247D01*
X-1344788Y2027247D01*
X-1344788Y1977749D01*
X-1295290Y1977749D01*
X-1220283Y1875265D02*
X-1220283Y1924763D01*
X-1269781Y1924763D01*
X-1269781Y1875265D01*
X-1220283Y1875265D01*
X-1192806Y2052756D02*
X-1192806Y2102254D01*
X-1242304Y2102254D01*
X-1242304Y2052756D01*
X-1192806Y2052756D01*
X-1117799Y1950272D02*
X-1117799Y1999770D01*
X-1167297Y1999770D01*
X-1167297Y1950272D01*
X-1117799Y1950272D01*
X-2325000Y-75057D02*
X-2249943Y0D01*
X-2325000Y75057D01*
X-2400057Y0D01*
X-2325000Y-75057D01*
X0Y2249943D02*
X75057Y2325000D01*
X0Y2400057D01*
X-75057Y2325000D01*
X0Y2249943D01*
X2325000Y-75057D02*
X2400057Y0D01*
X2325000Y75057D01*
X2249943Y0D01*
X2325000Y-75057D01*
X-474968Y-2075032D02*
X-225032Y-2324968D01*
X-225032Y-2075032D02*
X-474968Y-2324968D01*
X-225032Y-2200000D02*
G75*
G03X-225032Y-2200000I-124968J0D01*
G01*
X225032Y-2075032D02*
X474968Y-2324968D01*
X474968Y-2075032D02*
X225032Y-2324968D01*
X474968Y-2200000D02*
G75*
G03X474968Y-2200000I-124968J0D01*
G01*
D13*
X-2316072Y-3053214D02*
X-2316072Y-2753214D01*
X-2244643Y-2753214D01*
X-2201786Y-2767500D01*
X-2173214Y-2796072D01*
X-2158929Y-2824643D01*
X-2144643Y-2881786D01*
X-2144643Y-2924643D01*
X-2158929Y-2981786D01*
X-2173214Y-3010357D01*
X-2201786Y-3038929D01*
X-2244643Y-3053214D01*
X-2316072Y-3053214D01*
X-2016071Y-3053214D02*
X-2016071Y-2853214D01*
X-2016071Y-2910357D02*
X-2001786Y-2881786D01*
X-1987500Y-2867500D01*
X-1958929Y-2853214D01*
X-1930357Y-2853214D01*
X-1830357Y-3053214D02*
X-1830357Y-2853214D01*
X-1830357Y-2753214D02*
X-1844643Y-2767500D01*
X-1830357Y-2781786D01*
X-1816071Y-2767500D01*
X-1830357Y-2753214D01*
X-1830357Y-2781786D01*
X-1644643Y-3053214D02*
X-1673214Y-3038929D01*
X-1687500Y-3010357D01*
X-1687500Y-2753214D01*
X-1487500Y-3053214D02*
X-1516071Y-3038929D01*
X-1530357Y-3010357D01*
X-1530357Y-2753214D01*
X-1144643Y-3053214D02*
X-1144643Y-2753214D01*
X-1044643Y-2967500D01*
X-944643Y-2753214D01*
X-944643Y-3053214D01*
X-673214Y-3053214D02*
X-673214Y-2896071D01*
X-687500Y-2867500D01*
X-716071Y-2853214D01*
X-773214Y-2853214D01*
X-801786Y-2867500D01*
X-673214Y-3038929D02*
X-701786Y-3053214D01*
X-773214Y-3053214D01*
X-801786Y-3038929D01*
X-816071Y-3010357D01*
X-816071Y-2981786D01*
X-801786Y-2953214D01*
X-773214Y-2938929D01*
X-701786Y-2938929D01*
X-673214Y-2924643D01*
X-530357Y-2853214D02*
X-530357Y-3153214D01*
X-530357Y-2867500D02*
X-501786Y-2853214D01*
X-444643Y-2853214D01*
X-416071Y-2867500D01*
X-401786Y-2881786D01*
X-387500Y-2910357D01*
X-387500Y-2996071D01*
X-401786Y-3024643D01*
X-416071Y-3038929D01*
X-444643Y-3053214D01*
X-501786Y-3053214D01*
X-530357Y-3038929D01*
X-258929Y-3024643D02*
X-244643Y-3038929D01*
X-258929Y-3053214D01*
X-273214Y-3038929D01*
X-258929Y-3024643D01*
X-258929Y-3053214D01*
X-258929Y-2867500D02*
X-244643Y-2881786D01*
X-258929Y-2896071D01*
X-273214Y-2881786D01*
X-258929Y-2867500D01*
X-258929Y-2896071D01*
X-2617500Y-3532500D02*
X-2587500Y-3562500D01*
X-2587500Y-3532500D02*
X-2617500Y-3562500D01*
X-2258929Y-3383214D02*
X-2230357Y-3383214D01*
X-2201786Y-3397500D01*
X-2187500Y-3411786D01*
X-2173214Y-3440357D01*
X-2158929Y-3497500D01*
X-2158929Y-3568929D01*
X-2173214Y-3626071D01*
X-2187500Y-3654643D01*
X-2201786Y-3668929D01*
X-2230357Y-3683214D01*
X-2258929Y-3683214D01*
X-2287500Y-3668929D01*
X-2301786Y-3654643D01*
X-2316072Y-3626071D01*
X-2330357Y-3568929D01*
X-2330357Y-3497500D01*
X-2316072Y-3440357D01*
X-2301786Y-3411786D01*
X-2287500Y-3397500D01*
X-2258929Y-3383214D01*
X-2030357Y-3654643D02*
X-2016071Y-3668929D01*
X-2030357Y-3683214D01*
X-2044643Y-3668929D01*
X-2030357Y-3654643D01*
X-2030357Y-3683214D01*
X-1916072Y-3383214D02*
X-1730357Y-3383214D01*
X-1830357Y-3497500D01*
X-1787500Y-3497500D01*
X-1758929Y-3511786D01*
X-1744643Y-3526071D01*
X-1730357Y-3554643D01*
X-1730357Y-3626071D01*
X-1744643Y-3654643D01*
X-1758929Y-3668929D01*
X-1787500Y-3683214D01*
X-1873214Y-3683214D01*
X-1901786Y-3668929D01*
X-1916072Y-3654643D01*
X-1544643Y-3383214D02*
X-1516071Y-3383214D01*
X-1487500Y-3397500D01*
X-1473214Y-3411786D01*
X-1458929Y-3440357D01*
X-1444643Y-3497500D01*
X-1444643Y-3568929D01*
X-1458929Y-3626071D01*
X-1473214Y-3654643D01*
X-1487500Y-3668929D01*
X-1516071Y-3683214D01*
X-1544643Y-3683214D01*
X-1573214Y-3668929D01*
X-1587500Y-3654643D01*
X-1601786Y-3626071D01*
X-1616071Y-3568929D01*
X-1616071Y-3497500D01*
X-1601786Y-3440357D01*
X-1587500Y-3411786D01*
X-1573214Y-3397500D01*
X-1544643Y-3383214D01*
X-1316072Y-3683214D02*
X-1316072Y-3483214D01*
X-1316072Y-3511786D02*
X-1301786Y-3497500D01*
X-1273214Y-3483214D01*
X-1230357Y-3483214D01*
X-1201786Y-3497500D01*
X-1187500Y-3526071D01*
X-1187500Y-3683214D01*
X-1187500Y-3526071D02*
X-1173214Y-3497500D01*
X-1144643Y-3483214D01*
X-1101786Y-3483214D01*
X-1073214Y-3497500D01*
X-1058929Y-3526071D01*
X-1058929Y-3683214D01*
X-916071Y-3683214D02*
X-916071Y-3483214D01*
X-916071Y-3511786D02*
X-901786Y-3497500D01*
X-873214Y-3483214D01*
X-830357Y-3483214D01*
X-801786Y-3497500D01*
X-787500Y-3526071D01*
X-787500Y-3683214D01*
X-787500Y-3526071D02*
X-773214Y-3497500D01*
X-744643Y-3483214D01*
X-701786Y-3483214D01*
X-673214Y-3497500D01*
X-658929Y-3526071D01*
X-658929Y-3683214D01*
X-73214Y-3368929D02*
X-330357Y-3754643D01*
X312500Y-3383214D02*
X341071Y-3383214D01*
X369643Y-3397500D01*
X383928Y-3411786D01*
X398214Y-3440357D01*
X412500Y-3497500D01*
X412500Y-3568929D01*
X398214Y-3626071D01*
X383928Y-3654643D01*
X369643Y-3668929D01*
X341071Y-3683214D01*
X312500Y-3683214D01*
X283928Y-3668929D01*
X269643Y-3654643D01*
X255357Y-3626071D01*
X241071Y-3568929D01*
X241071Y-3497500D01*
X255357Y-3440357D01*
X269643Y-3411786D01*
X283928Y-3397500D01*
X312500Y-3383214D01*
X541071Y-3654643D02*
X555357Y-3668929D01*
X541071Y-3683214D01*
X526786Y-3668929D01*
X541071Y-3654643D01*
X541071Y-3683214D01*
X741071Y-3383214D02*
X769643Y-3383214D01*
X798214Y-3397500D01*
X812500Y-3411786D01*
X826785Y-3440357D01*
X841071Y-3497500D01*
X841071Y-3568929D01*
X826785Y-3626071D01*
X812500Y-3654643D01*
X798214Y-3668929D01*
X769643Y-3683214D01*
X741071Y-3683214D01*
X712500Y-3668929D01*
X698214Y-3654643D01*
X683928Y-3626071D01*
X669643Y-3568929D01*
X669643Y-3497500D01*
X683928Y-3440357D01*
X698214Y-3411786D01*
X712500Y-3397500D01*
X741071Y-3383214D01*
X1126786Y-3683214D02*
X955357Y-3683214D01*
X1041071Y-3683214D02*
X1041071Y-3383214D01*
X1012500Y-3426071D01*
X983928Y-3454643D01*
X955357Y-3468929D01*
X1241071Y-3411786D02*
X1255357Y-3397500D01*
X1283928Y-3383214D01*
X1355357Y-3383214D01*
X1383928Y-3397500D01*
X1398214Y-3411786D01*
X1412500Y-3440357D01*
X1412500Y-3468929D01*
X1398214Y-3511786D01*
X1226786Y-3683214D01*
X1412500Y-3683214D01*
X1526786Y-3383214D02*
X1526786Y-3440357D01*
X1641071Y-3383214D02*
X1641071Y-3440357D01*
X2083928Y-3797500D02*
X2069643Y-3783214D01*
X2041071Y-3740357D01*
X2026785Y-3711786D01*
X2012500Y-3668929D01*
X1998214Y-3597500D01*
X1998214Y-3540357D01*
X2012500Y-3468929D01*
X2026785Y-3426071D01*
X2041071Y-3397500D01*
X2069643Y-3354643D01*
X2083928Y-3340357D01*
X2183928Y-3411786D02*
X2198214Y-3397500D01*
X2226786Y-3383214D01*
X2298214Y-3383214D01*
X2326786Y-3397500D01*
X2341071Y-3411786D01*
X2355357Y-3440357D01*
X2355357Y-3468929D01*
X2341071Y-3511786D01*
X2169643Y-3683214D01*
X2355357Y-3683214D01*
X2612500Y-3383214D02*
X2555357Y-3383214D01*
X2526786Y-3397500D01*
X2512500Y-3411786D01*
X2483928Y-3454643D01*
X2469643Y-3511786D01*
X2469643Y-3626071D01*
X2483928Y-3654643D01*
X2498214Y-3668929D01*
X2526786Y-3683214D01*
X2583928Y-3683214D01*
X2612500Y-3668929D01*
X2626786Y-3654643D01*
X2641071Y-3626071D01*
X2641071Y-3554643D01*
X2626786Y-3526071D01*
X2612500Y-3511786D01*
X2583928Y-3497500D01*
X2526786Y-3497500D01*
X2498214Y-3511786D01*
X2483928Y-3526071D01*
X2469643Y-3554643D01*
X2926785Y-3683214D02*
X2755357Y-3683214D01*
X2841071Y-3683214D02*
X2841071Y-3383214D01*
X2812500Y-3426071D01*
X2783928Y-3454643D01*
X2755357Y-3468929D01*
X3283928Y-3683214D02*
X3283928Y-3383214D01*
X3412500Y-3683214D02*
X3412500Y-3526071D01*
X3398214Y-3497500D01*
X3369643Y-3483214D01*
X3326785Y-3483214D01*
X3298214Y-3497500D01*
X3283928Y-3511786D01*
X3598214Y-3683214D02*
X3569643Y-3668929D01*
X3555357Y-3654643D01*
X3541071Y-3626071D01*
X3541071Y-3540357D01*
X3555357Y-3511786D01*
X3569643Y-3497500D01*
X3598214Y-3483214D01*
X3641071Y-3483214D01*
X3669643Y-3497500D01*
X3683928Y-3511786D01*
X3698214Y-3540357D01*
X3698214Y-3626071D01*
X3683928Y-3654643D01*
X3669643Y-3668929D01*
X3641071Y-3683214D01*
X3598214Y-3683214D01*
X3869643Y-3683214D02*
X3841071Y-3668929D01*
X3826786Y-3640357D01*
X3826786Y-3383214D01*
X4098214Y-3668929D02*
X4069643Y-3683214D01*
X4012500Y-3683214D01*
X3983928Y-3668929D01*
X3969643Y-3640357D01*
X3969643Y-3526071D01*
X3983928Y-3497500D01*
X4012500Y-3483214D01*
X4069643Y-3483214D01*
X4098214Y-3497500D01*
X4112500Y-3526071D01*
X4112500Y-3554643D01*
X3969643Y-3583214D01*
X4226786Y-3668929D02*
X4255357Y-3683214D01*
X4312500Y-3683214D01*
X4341071Y-3668929D01*
X4355357Y-3640357D01*
X4355357Y-3626071D01*
X4341071Y-3597500D01*
X4312500Y-3583214D01*
X4269643Y-3583214D01*
X4241071Y-3568929D01*
X4226786Y-3540357D01*
X4226786Y-3526071D01*
X4241071Y-3497500D01*
X4269643Y-3483214D01*
X4312500Y-3483214D01*
X4341071Y-3497500D01*
X4455357Y-3797500D02*
X4469643Y-3783214D01*
X4498214Y-3740357D01*
X4512500Y-3711786D01*
X4526786Y-3668929D01*
X4541071Y-3597500D01*
X4541071Y-3540357D01*
X4526786Y-3468929D01*
X4512500Y-3426071D01*
X4498214Y-3397500D01*
X4469643Y-3354643D01*
X4455357Y-3340357D01*
X-2587500Y-3943500D02*
G75*
G03X-2587500Y-3943500I-20000J0D01*
G01*
X-2258929Y-3779214D02*
X-2230357Y-3779214D01*
X-2201786Y-3793500D01*
X-2187500Y-3807786D01*
X-2173214Y-3836357D01*
X-2158929Y-3893500D01*
X-2158929Y-3964929D01*
X-2173214Y-4022071D01*
X-2187500Y-4050643D01*
X-2201786Y-4064929D01*
X-2230357Y-4079214D01*
X-2258929Y-4079214D01*
X-2287500Y-4064929D01*
X-2301786Y-4050643D01*
X-2316072Y-4022071D01*
X-2330357Y-3964929D01*
X-2330357Y-3893500D01*
X-2316072Y-3836357D01*
X-2301786Y-3807786D01*
X-2287500Y-3793500D01*
X-2258929Y-3779214D01*
X-2030357Y-4050643D02*
X-2016071Y-4064929D01*
X-2030357Y-4079214D01*
X-2044643Y-4064929D01*
X-2030357Y-4050643D01*
X-2030357Y-4079214D01*
X-1758929Y-3879214D02*
X-1758929Y-4079214D01*
X-1830357Y-3764929D02*
X-1901786Y-3979214D01*
X-1716072Y-3979214D01*
X-1544643Y-3779214D02*
X-1516071Y-3779214D01*
X-1487500Y-3793500D01*
X-1473214Y-3807786D01*
X-1458929Y-3836357D01*
X-1444643Y-3893500D01*
X-1444643Y-3964929D01*
X-1458929Y-4022071D01*
X-1473214Y-4050643D01*
X-1487500Y-4064929D01*
X-1516071Y-4079214D01*
X-1544643Y-4079214D01*
X-1573214Y-4064929D01*
X-1587500Y-4050643D01*
X-1601786Y-4022071D01*
X-1616071Y-3964929D01*
X-1616071Y-3893500D01*
X-1601786Y-3836357D01*
X-1587500Y-3807786D01*
X-1573214Y-3793500D01*
X-1544643Y-3779214D01*
X-1316072Y-4079214D02*
X-1316072Y-3879214D01*
X-1316072Y-3907786D02*
X-1301786Y-3893500D01*
X-1273214Y-3879214D01*
X-1230357Y-3879214D01*
X-1201786Y-3893500D01*
X-1187500Y-3922071D01*
X-1187500Y-4079214D01*
X-1187500Y-3922071D02*
X-1173214Y-3893500D01*
X-1144643Y-3879214D01*
X-1101786Y-3879214D01*
X-1073214Y-3893500D01*
X-1058929Y-3922071D01*
X-1058929Y-4079214D01*
X-916071Y-4079214D02*
X-916071Y-3879214D01*
X-916071Y-3907786D02*
X-901786Y-3893500D01*
X-873214Y-3879214D01*
X-830357Y-3879214D01*
X-801786Y-3893500D01*
X-787500Y-3922071D01*
X-787500Y-4079214D01*
X-787500Y-3922071D02*
X-773214Y-3893500D01*
X-744643Y-3879214D01*
X-701786Y-3879214D01*
X-673214Y-3893500D01*
X-658929Y-3922071D01*
X-658929Y-4079214D01*
X-73214Y-3764929D02*
X-330357Y-4150643D01*
X312500Y-3779214D02*
X341071Y-3779214D01*
X369643Y-3793500D01*
X383928Y-3807786D01*
X398214Y-3836357D01*
X412500Y-3893500D01*
X412500Y-3964929D01*
X398214Y-4022071D01*
X383928Y-4050643D01*
X369643Y-4064929D01*
X341071Y-4079214D01*
X312500Y-4079214D01*
X283928Y-4064929D01*
X269643Y-4050643D01*
X255357Y-4022071D01*
X241071Y-3964929D01*
X241071Y-3893500D01*
X255357Y-3836357D01*
X269643Y-3807786D01*
X283928Y-3793500D01*
X312500Y-3779214D01*
X541071Y-4050643D02*
X555357Y-4064929D01*
X541071Y-4079214D01*
X526786Y-4064929D01*
X541071Y-4050643D01*
X541071Y-4079214D01*
X741071Y-3779214D02*
X769643Y-3779214D01*
X798214Y-3793500D01*
X812500Y-3807786D01*
X826785Y-3836357D01*
X841071Y-3893500D01*
X841071Y-3964929D01*
X826785Y-4022071D01*
X812500Y-4050643D01*
X798214Y-4064929D01*
X769643Y-4079214D01*
X741071Y-4079214D01*
X712500Y-4064929D01*
X698214Y-4050643D01*
X683928Y-4022071D01*
X669643Y-3964929D01*
X669643Y-3893500D01*
X683928Y-3836357D01*
X698214Y-3807786D01*
X712500Y-3793500D01*
X741071Y-3779214D01*
X1126786Y-4079214D02*
X955357Y-4079214D01*
X1041071Y-4079214D02*
X1041071Y-3779214D01*
X1012500Y-3822071D01*
X983928Y-3850643D01*
X955357Y-3864929D01*
X1383928Y-3779214D02*
X1326786Y-3779214D01*
X1298214Y-3793500D01*
X1283928Y-3807786D01*
X1255357Y-3850643D01*
X1241071Y-3907786D01*
X1241071Y-4022071D01*
X1255357Y-4050643D01*
X1269643Y-4064929D01*
X1298214Y-4079214D01*
X1355357Y-4079214D01*
X1383928Y-4064929D01*
X1398214Y-4050643D01*
X1412500Y-4022071D01*
X1412500Y-3950643D01*
X1398214Y-3922071D01*
X1383928Y-3907786D01*
X1355357Y-3893500D01*
X1298214Y-3893500D01*
X1269643Y-3907786D01*
X1255357Y-3922071D01*
X1241071Y-3950643D01*
X1526786Y-3779214D02*
X1526786Y-3836357D01*
X1641071Y-3779214D02*
X1641071Y-3836357D01*
X2083928Y-4193500D02*
X2069643Y-4179214D01*
X2041071Y-4136357D01*
X2026785Y-4107786D01*
X2012500Y-4064929D01*
X1998214Y-3993500D01*
X1998214Y-3936357D01*
X2012500Y-3864929D01*
X2026785Y-3822071D01*
X2041071Y-3793500D01*
X2069643Y-3750643D01*
X2083928Y-3736357D01*
X2341071Y-3779214D02*
X2198214Y-3779214D01*
X2183928Y-3922071D01*
X2198214Y-3907786D01*
X2226786Y-3893500D01*
X2298214Y-3893500D01*
X2326786Y-3907786D01*
X2341071Y-3922071D01*
X2355357Y-3950643D01*
X2355357Y-4022071D01*
X2341071Y-4050643D01*
X2326786Y-4064929D01*
X2298214Y-4079214D01*
X2226786Y-4079214D01*
X2198214Y-4064929D01*
X2183928Y-4050643D01*
X2612500Y-3779214D02*
X2555357Y-3779214D01*
X2526786Y-3793500D01*
X2512500Y-3807786D01*
X2483928Y-3850643D01*
X2469643Y-3907786D01*
X2469643Y-4022071D01*
X2483928Y-4050643D01*
X2498214Y-4064929D01*
X2526786Y-4079214D01*
X2583928Y-4079214D01*
X2612500Y-4064929D01*
X2626786Y-4050643D01*
X2641071Y-4022071D01*
X2641071Y-3950643D01*
X2626786Y-3922071D01*
X2612500Y-3907786D01*
X2583928Y-3893500D01*
X2526786Y-3893500D01*
X2498214Y-3907786D01*
X2483928Y-3922071D01*
X2469643Y-3950643D01*
X2998214Y-4079214D02*
X2998214Y-3779214D01*
X3126785Y-4079214D02*
X3126785Y-3922071D01*
X3112500Y-3893500D01*
X3083928Y-3879214D01*
X3041071Y-3879214D01*
X3012500Y-3893500D01*
X2998214Y-3907786D01*
X3312500Y-4079214D02*
X3283928Y-4064929D01*
X3269643Y-4050643D01*
X3255357Y-4022071D01*
X3255357Y-3936357D01*
X3269643Y-3907786D01*
X3283928Y-3893500D01*
X3312500Y-3879214D01*
X3355357Y-3879214D01*
X3383928Y-3893500D01*
X3398214Y-3907786D01*
X3412500Y-3936357D01*
X3412500Y-4022071D01*
X3398214Y-4050643D01*
X3383928Y-4064929D01*
X3355357Y-4079214D01*
X3312500Y-4079214D01*
X3583928Y-4079214D02*
X3555357Y-4064929D01*
X3541071Y-4036357D01*
X3541071Y-3779214D01*
X3812500Y-4064929D02*
X3783928Y-4079214D01*
X3726786Y-4079214D01*
X3698214Y-4064929D01*
X3683928Y-4036357D01*
X3683928Y-3922071D01*
X3698214Y-3893500D01*
X3726786Y-3879214D01*
X3783928Y-3879214D01*
X3812500Y-3893500D01*
X3826786Y-3922071D01*
X3826786Y-3950643D01*
X3683928Y-3979214D01*
X3941071Y-4064929D02*
X3969643Y-4079214D01*
X4026786Y-4079214D01*
X4055357Y-4064929D01*
X4069643Y-4036357D01*
X4069643Y-4022071D01*
X4055357Y-3993500D01*
X4026786Y-3979214D01*
X3983928Y-3979214D01*
X3955357Y-3964929D01*
X3941071Y-3936357D01*
X3941071Y-3922071D01*
X3955357Y-3893500D01*
X3983928Y-3879214D01*
X4026786Y-3879214D01*
X4055357Y-3893500D01*
X4169643Y-4193500D02*
X4183928Y-4179214D01*
X4212500Y-4136357D01*
X4226786Y-4107786D01*
X4241071Y-4064929D01*
X4255357Y-3993500D01*
X4255357Y-3936357D01*
X4241071Y-3864929D01*
X4226786Y-3822071D01*
X4212500Y-3793500D01*
X4183928Y-3750643D01*
X4169643Y-3736357D01*
X-2612500Y-4314500D02*
X-2612500Y-4364500D01*
X-2637500Y-4339500D02*
X-2587500Y-4339500D01*
X-2258929Y-4175214D02*
X-2230357Y-4175214D01*
X-2201786Y-4189500D01*
X-2187500Y-4203786D01*
X-2173214Y-4232357D01*
X-2158929Y-4289500D01*
X-2158929Y-4360929D01*
X-2173214Y-4418072D01*
X-2187500Y-4446643D01*
X-2201786Y-4460929D01*
X-2230357Y-4475214D01*
X-2258929Y-4475214D01*
X-2287500Y-4460929D01*
X-2301786Y-4446643D01*
X-2316072Y-4418072D01*
X-2330357Y-4360929D01*
X-2330357Y-4289500D01*
X-2316072Y-4232357D01*
X-2301786Y-4203786D01*
X-2287500Y-4189500D01*
X-2258929Y-4175214D01*
X-2030357Y-4446643D02*
X-2016071Y-4460929D01*
X-2030357Y-4475214D01*
X-2044643Y-4460929D01*
X-2030357Y-4446643D01*
X-2030357Y-4475214D01*
X-1744643Y-4175214D02*
X-1887500Y-4175214D01*
X-1901786Y-4318072D01*
X-1887500Y-4303786D01*
X-1858929Y-4289500D01*
X-1787500Y-4289500D01*
X-1758929Y-4303786D01*
X-1744643Y-4318072D01*
X-1730357Y-4346643D01*
X-1730357Y-4418072D01*
X-1744643Y-4446643D01*
X-1758929Y-4460929D01*
X-1787500Y-4475214D01*
X-1858929Y-4475214D01*
X-1887500Y-4460929D01*
X-1901786Y-4446643D01*
X-1544643Y-4175214D02*
X-1516071Y-4175214D01*
X-1487500Y-4189500D01*
X-1473214Y-4203786D01*
X-1458929Y-4232357D01*
X-1444643Y-4289500D01*
X-1444643Y-4360929D01*
X-1458929Y-4418072D01*
X-1473214Y-4446643D01*
X-1487500Y-4460929D01*
X-1516071Y-4475214D01*
X-1544643Y-4475214D01*
X-1573214Y-4460929D01*
X-1587500Y-4446643D01*
X-1601786Y-4418072D01*
X-1616071Y-4360929D01*
X-1616071Y-4289500D01*
X-1601786Y-4232357D01*
X-1587500Y-4203786D01*
X-1573214Y-4189500D01*
X-1544643Y-4175214D01*
X-1316072Y-4475214D02*
X-1316072Y-4275214D01*
X-1316072Y-4303786D02*
X-1301786Y-4289500D01*
X-1273214Y-4275214D01*
X-1230357Y-4275214D01*
X-1201786Y-4289500D01*
X-1187500Y-4318072D01*
X-1187500Y-4475214D01*
X-1187500Y-4318072D02*
X-1173214Y-4289500D01*
X-1144643Y-4275214D01*
X-1101786Y-4275214D01*
X-1073214Y-4289500D01*
X-1058929Y-4318072D01*
X-1058929Y-4475214D01*
X-916071Y-4475214D02*
X-916071Y-4275214D01*
X-916071Y-4303786D02*
X-901786Y-4289500D01*
X-873214Y-4275214D01*
X-830357Y-4275214D01*
X-801786Y-4289500D01*
X-787500Y-4318072D01*
X-787500Y-4475214D01*
X-787500Y-4318072D02*
X-773214Y-4289500D01*
X-744643Y-4275214D01*
X-701786Y-4275214D01*
X-673214Y-4289500D01*
X-658929Y-4318072D01*
X-658929Y-4475214D01*
X-73214Y-4160929D02*
X-330357Y-4546643D01*
X312500Y-4175214D02*
X341071Y-4175214D01*
X369643Y-4189500D01*
X383928Y-4203786D01*
X398214Y-4232357D01*
X412500Y-4289500D01*
X412500Y-4360929D01*
X398214Y-4418072D01*
X383928Y-4446643D01*
X369643Y-4460929D01*
X341071Y-4475214D01*
X312500Y-4475214D01*
X283928Y-4460929D01*
X269643Y-4446643D01*
X255357Y-4418072D01*
X241071Y-4360929D01*
X241071Y-4289500D01*
X255357Y-4232357D01*
X269643Y-4203786D01*
X283928Y-4189500D01*
X312500Y-4175214D01*
X541071Y-4446643D02*
X555357Y-4460929D01*
X541071Y-4475214D01*
X526786Y-4460929D01*
X541071Y-4446643D01*
X541071Y-4475214D01*
X741071Y-4175214D02*
X769643Y-4175214D01*
X798214Y-4189500D01*
X812500Y-4203786D01*
X826785Y-4232357D01*
X841071Y-4289500D01*
X841071Y-4360929D01*
X826785Y-4418072D01*
X812500Y-4446643D01*
X798214Y-4460929D01*
X769643Y-4475214D01*
X741071Y-4475214D01*
X712500Y-4460929D01*
X698214Y-4446643D01*
X683928Y-4418072D01*
X669643Y-4360929D01*
X669643Y-4289500D01*
X683928Y-4232357D01*
X698214Y-4203786D01*
X712500Y-4189500D01*
X741071Y-4175214D01*
X955357Y-4203786D02*
X969643Y-4189500D01*
X998214Y-4175214D01*
X1069643Y-4175214D01*
X1098214Y-4189500D01*
X1112500Y-4203786D01*
X1126786Y-4232357D01*
X1126786Y-4260929D01*
X1112500Y-4303786D01*
X941071Y-4475214D01*
X1126786Y-4475214D01*
X1312500Y-4175214D02*
X1341071Y-4175214D01*
X1369643Y-4189500D01*
X1383928Y-4203786D01*
X1398214Y-4232357D01*
X1412500Y-4289500D01*
X1412500Y-4360929D01*
X1398214Y-4418072D01*
X1383928Y-4446643D01*
X1369643Y-4460929D01*
X1341071Y-4475214D01*
X1312500Y-4475214D01*
X1283928Y-4460929D01*
X1269643Y-4446643D01*
X1255357Y-4418072D01*
X1241071Y-4360929D01*
X1241071Y-4289500D01*
X1255357Y-4232357D01*
X1269643Y-4203786D01*
X1283928Y-4189500D01*
X1312500Y-4175214D01*
X1526786Y-4175214D02*
X1526786Y-4232357D01*
X1641071Y-4175214D02*
X1641071Y-4232357D01*
X2083928Y-4589500D02*
X2069643Y-4575214D01*
X2041071Y-4532357D01*
X2026785Y-4503786D01*
X2012500Y-4460929D01*
X1998214Y-4389500D01*
X1998214Y-4332357D01*
X2012500Y-4260929D01*
X2026785Y-4218072D01*
X2041071Y-4189500D01*
X2069643Y-4146643D01*
X2083928Y-4132357D01*
X2355357Y-4475214D02*
X2183928Y-4475214D01*
X2269643Y-4475214D02*
X2269643Y-4175214D01*
X2241071Y-4218072D01*
X2212500Y-4246643D01*
X2183928Y-4260929D01*
X2712500Y-4475214D02*
X2712500Y-4175214D01*
X2841071Y-4475214D02*
X2841071Y-4318072D01*
X2826785Y-4289500D01*
X2798214Y-4275214D01*
X2755357Y-4275214D01*
X2726786Y-4289500D01*
X2712500Y-4303786D01*
X3026785Y-4475214D02*
X2998214Y-4460929D01*
X2983928Y-4446643D01*
X2969643Y-4418072D01*
X2969643Y-4332357D01*
X2983928Y-4303786D01*
X2998214Y-4289500D01*
X3026785Y-4275214D01*
X3069643Y-4275214D01*
X3098214Y-4289500D01*
X3112500Y-4303786D01*
X3126785Y-4332357D01*
X3126785Y-4418072D01*
X3112500Y-4446643D01*
X3098214Y-4460929D01*
X3069643Y-4475214D01*
X3026785Y-4475214D01*
X3298214Y-4475214D02*
X3269643Y-4460929D01*
X3255357Y-4432357D01*
X3255357Y-4175214D01*
X3526786Y-4460929D02*
X3498214Y-4475214D01*
X3441071Y-4475214D01*
X3412500Y-4460929D01*
X3398214Y-4432357D01*
X3398214Y-4318072D01*
X3412500Y-4289500D01*
X3441071Y-4275214D01*
X3498214Y-4275214D01*
X3526786Y-4289500D01*
X3541071Y-4318072D01*
X3541071Y-4346643D01*
X3398214Y-4375214D01*
X3641071Y-4589500D02*
X3655357Y-4575214D01*
X3683928Y-4532357D01*
X3698214Y-4503786D01*
X3712500Y-4460929D01*
X3726786Y-4389500D01*
X3726786Y-4332357D01*
X3712500Y-4260929D01*
X3698214Y-4218072D01*
X3683928Y-4189500D01*
X3655357Y-4146643D01*
X3641071Y-4132357D01*
X-2597751Y-4760249D02*
X-2597751Y-4710751D01*
X-2647249Y-4710751D01*
X-2647249Y-4760249D01*
X-2597751Y-4760249D01*
X-2258929Y-4571214D02*
X-2230357Y-4571214D01*
X-2201786Y-4585500D01*
X-2187500Y-4599786D01*
X-2173214Y-4628357D01*
X-2158929Y-4685500D01*
X-2158929Y-4756929D01*
X-2173214Y-4814072D01*
X-2187500Y-4842643D01*
X-2201786Y-4856929D01*
X-2230357Y-4871214D01*
X-2258929Y-4871214D01*
X-2287500Y-4856929D01*
X-2301786Y-4842643D01*
X-2316072Y-4814072D01*
X-2330357Y-4756929D01*
X-2330357Y-4685500D01*
X-2316072Y-4628357D01*
X-2301786Y-4599786D01*
X-2287500Y-4585500D01*
X-2258929Y-4571214D01*
X-2030357Y-4842643D02*
X-2016071Y-4856929D01*
X-2030357Y-4871214D01*
X-2044643Y-4856929D01*
X-2030357Y-4842643D01*
X-2030357Y-4871214D01*
X-1916072Y-4571214D02*
X-1716072Y-4571214D01*
X-1844643Y-4871214D01*
X-1544643Y-4571214D02*
X-1516071Y-4571214D01*
X-1487500Y-4585500D01*
X-1473214Y-4599786D01*
X-1458929Y-4628357D01*
X-1444643Y-4685500D01*
X-1444643Y-4756929D01*
X-1458929Y-4814072D01*
X-1473214Y-4842643D01*
X-1487500Y-4856929D01*
X-1516071Y-4871214D01*
X-1544643Y-4871214D01*
X-1573214Y-4856929D01*
X-1587500Y-4842643D01*
X-1601786Y-4814072D01*
X-1616071Y-4756929D01*
X-1616071Y-4685500D01*
X-1601786Y-4628357D01*
X-1587500Y-4599786D01*
X-1573214Y-4585500D01*
X-1544643Y-4571214D01*
X-1316072Y-4871214D02*
X-1316072Y-4671214D01*
X-1316072Y-4699786D02*
X-1301786Y-4685500D01*
X-1273214Y-4671214D01*
X-1230357Y-4671214D01*
X-1201786Y-4685500D01*
X-1187500Y-4714072D01*
X-1187500Y-4871214D01*
X-1187500Y-4714072D02*
X-1173214Y-4685500D01*
X-1144643Y-4671214D01*
X-1101786Y-4671214D01*
X-1073214Y-4685500D01*
X-1058929Y-4714072D01*
X-1058929Y-4871214D01*
X-916071Y-4871214D02*
X-916071Y-4671214D01*
X-916071Y-4699786D02*
X-901786Y-4685500D01*
X-873214Y-4671214D01*
X-830357Y-4671214D01*
X-801786Y-4685500D01*
X-787500Y-4714072D01*
X-787500Y-4871214D01*
X-787500Y-4714072D02*
X-773214Y-4685500D01*
X-744643Y-4671214D01*
X-701786Y-4671214D01*
X-673214Y-4685500D01*
X-658929Y-4714072D01*
X-658929Y-4871214D01*
X-73214Y-4556929D02*
X-330357Y-4942643D01*
X312500Y-4571214D02*
X341071Y-4571214D01*
X369643Y-4585500D01*
X383928Y-4599786D01*
X398214Y-4628357D01*
X412500Y-4685500D01*
X412500Y-4756929D01*
X398214Y-4814072D01*
X383928Y-4842643D01*
X369643Y-4856929D01*
X341071Y-4871214D01*
X312500Y-4871214D01*
X283928Y-4856929D01*
X269643Y-4842643D01*
X255357Y-4814072D01*
X241071Y-4756929D01*
X241071Y-4685500D01*
X255357Y-4628357D01*
X269643Y-4599786D01*
X283928Y-4585500D01*
X312500Y-4571214D01*
X541071Y-4842643D02*
X555357Y-4856929D01*
X541071Y-4871214D01*
X526786Y-4856929D01*
X541071Y-4842643D01*
X541071Y-4871214D01*
X741071Y-4571214D02*
X769643Y-4571214D01*
X798214Y-4585500D01*
X812500Y-4599786D01*
X826785Y-4628357D01*
X841071Y-4685500D01*
X841071Y-4756929D01*
X826785Y-4814072D01*
X812500Y-4842643D01*
X798214Y-4856929D01*
X769643Y-4871214D01*
X741071Y-4871214D01*
X712500Y-4856929D01*
X698214Y-4842643D01*
X683928Y-4814072D01*
X669643Y-4756929D01*
X669643Y-4685500D01*
X683928Y-4628357D01*
X698214Y-4599786D01*
X712500Y-4585500D01*
X741071Y-4571214D01*
X955357Y-4599786D02*
X969643Y-4585500D01*
X998214Y-4571214D01*
X1069643Y-4571214D01*
X1098214Y-4585500D01*
X1112500Y-4599786D01*
X1126786Y-4628357D01*
X1126786Y-4656929D01*
X1112500Y-4699786D01*
X941071Y-4871214D01*
X1126786Y-4871214D01*
X1298214Y-4699786D02*
X1269643Y-4685500D01*
X1255357Y-4671214D01*
X1241071Y-4642643D01*
X1241071Y-4628357D01*
X1255357Y-4599786D01*
X1269643Y-4585500D01*
X1298214Y-4571214D01*
X1355357Y-4571214D01*
X1383928Y-4585500D01*
X1398214Y-4599786D01*
X1412500Y-4628357D01*
X1412500Y-4642643D01*
X1398214Y-4671214D01*
X1383928Y-4685500D01*
X1355357Y-4699786D01*
X1298214Y-4699786D01*
X1269643Y-4714072D01*
X1255357Y-4728357D01*
X1241071Y-4756929D01*
X1241071Y-4814072D01*
X1255357Y-4842643D01*
X1269643Y-4856929D01*
X1298214Y-4871214D01*
X1355357Y-4871214D01*
X1383928Y-4856929D01*
X1398214Y-4842643D01*
X1412500Y-4814072D01*
X1412500Y-4756929D01*
X1398214Y-4728357D01*
X1383928Y-4714072D01*
X1355357Y-4699786D01*
X1526786Y-4571214D02*
X1526786Y-4628357D01*
X1641071Y-4571214D02*
X1641071Y-4628357D01*
X2083928Y-4985500D02*
X2069643Y-4971214D01*
X2041071Y-4928357D01*
X2026785Y-4899786D01*
X2012500Y-4856929D01*
X1998214Y-4785500D01*
X1998214Y-4728357D01*
X2012500Y-4656929D01*
X2026785Y-4614072D01*
X2041071Y-4585500D01*
X2069643Y-4542643D01*
X2083928Y-4528357D01*
X2169643Y-4571214D02*
X2369643Y-4571214D01*
X2241071Y-4871214D01*
X2712500Y-4871214D02*
X2712500Y-4571214D01*
X2841071Y-4871214D02*
X2841071Y-4714072D01*
X2826785Y-4685500D01*
X2798214Y-4671214D01*
X2755357Y-4671214D01*
X2726786Y-4685500D01*
X2712500Y-4699786D01*
X3026785Y-4871214D02*
X2998214Y-4856929D01*
X2983928Y-4842643D01*
X2969643Y-4814072D01*
X2969643Y-4728357D01*
X2983928Y-4699786D01*
X2998214Y-4685500D01*
X3026785Y-4671214D01*
X3069643Y-4671214D01*
X3098214Y-4685500D01*
X3112500Y-4699786D01*
X3126785Y-4728357D01*
X3126785Y-4814072D01*
X3112500Y-4842643D01*
X3098214Y-4856929D01*
X3069643Y-4871214D01*
X3026785Y-4871214D01*
X3298214Y-4871214D02*
X3269643Y-4856929D01*
X3255357Y-4828357D01*
X3255357Y-4571214D01*
X3526786Y-4856929D02*
X3498214Y-4871214D01*
X3441071Y-4871214D01*
X3412500Y-4856929D01*
X3398214Y-4828357D01*
X3398214Y-4714072D01*
X3412500Y-4685500D01*
X3441071Y-4671214D01*
X3498214Y-4671214D01*
X3526786Y-4685500D01*
X3541071Y-4714072D01*
X3541071Y-4742643D01*
X3398214Y-4771214D01*
X3655357Y-4856929D02*
X3683928Y-4871214D01*
X3741071Y-4871214D01*
X3769643Y-4856929D01*
X3783928Y-4828357D01*
X3783928Y-4814072D01*
X3769643Y-4785500D01*
X3741071Y-4771214D01*
X3698214Y-4771214D01*
X3669643Y-4756929D01*
X3655357Y-4728357D01*
X3655357Y-4714072D01*
X3669643Y-4685500D01*
X3698214Y-4671214D01*
X3741071Y-4671214D01*
X3769643Y-4685500D01*
X3883928Y-4985500D02*
X3898214Y-4971214D01*
X3926786Y-4928357D01*
X3941071Y-4899786D01*
X3955357Y-4856929D01*
X3969643Y-4785500D01*
X3969643Y-4728357D01*
X3955357Y-4656929D01*
X3941071Y-4614072D01*
X3926786Y-4585500D01*
X3898214Y-4542643D01*
X3883928Y-4528357D01*
X-2662557Y-5206557D02*
X-2587500Y-5131500D01*
X-2662557Y-5056443D01*
X-2737614Y-5131500D01*
X-2662557Y-5206557D01*
X-2158929Y-5267214D02*
X-2330357Y-5267214D01*
X-2244643Y-5267214D02*
X-2244643Y-4967214D01*
X-2273214Y-5010072D01*
X-2301786Y-5038643D01*
X-2330357Y-5052929D01*
X-2030357Y-5238643D02*
X-2016071Y-5252929D01*
X-2030357Y-5267214D01*
X-2044643Y-5252929D01*
X-2030357Y-5238643D01*
X-2030357Y-5267214D01*
X-1744643Y-4967214D02*
X-1887500Y-4967214D01*
X-1901786Y-5110072D01*
X-1887500Y-5095786D01*
X-1858929Y-5081500D01*
X-1787500Y-5081500D01*
X-1758929Y-5095786D01*
X-1744643Y-5110072D01*
X-1730357Y-5138643D01*
X-1730357Y-5210072D01*
X-1744643Y-5238643D01*
X-1758929Y-5252929D01*
X-1787500Y-5267214D01*
X-1858929Y-5267214D01*
X-1887500Y-5252929D01*
X-1901786Y-5238643D01*
X-1544643Y-4967214D02*
X-1516071Y-4967214D01*
X-1487500Y-4981500D01*
X-1473214Y-4995786D01*
X-1458929Y-5024357D01*
X-1444643Y-5081500D01*
X-1444643Y-5152929D01*
X-1458929Y-5210072D01*
X-1473214Y-5238643D01*
X-1487500Y-5252929D01*
X-1516071Y-5267214D01*
X-1544643Y-5267214D01*
X-1573214Y-5252929D01*
X-1587500Y-5238643D01*
X-1601786Y-5210072D01*
X-1616071Y-5152929D01*
X-1616071Y-5081500D01*
X-1601786Y-5024357D01*
X-1587500Y-4995786D01*
X-1573214Y-4981500D01*
X-1544643Y-4967214D01*
X-1316072Y-5267214D02*
X-1316072Y-5067214D01*
X-1316072Y-5095786D02*
X-1301786Y-5081500D01*
X-1273214Y-5067214D01*
X-1230357Y-5067214D01*
X-1201786Y-5081500D01*
X-1187500Y-5110072D01*
X-1187500Y-5267214D01*
X-1187500Y-5110072D02*
X-1173214Y-5081500D01*
X-1144643Y-5067214D01*
X-1101786Y-5067214D01*
X-1073214Y-5081500D01*
X-1058929Y-5110072D01*
X-1058929Y-5267214D01*
X-916071Y-5267214D02*
X-916071Y-5067214D01*
X-916071Y-5095786D02*
X-901786Y-5081500D01*
X-873214Y-5067214D01*
X-830357Y-5067214D01*
X-801786Y-5081500D01*
X-787500Y-5110072D01*
X-787500Y-5267214D01*
X-787500Y-5110072D02*
X-773214Y-5081500D01*
X-744643Y-5067214D01*
X-701786Y-5067214D01*
X-673214Y-5081500D01*
X-658929Y-5110072D01*
X-658929Y-5267214D01*
X-73214Y-4952929D02*
X-330357Y-5338643D01*
X312500Y-4967214D02*
X341071Y-4967214D01*
X369643Y-4981500D01*
X383928Y-4995786D01*
X398214Y-5024357D01*
X412500Y-5081500D01*
X412500Y-5152929D01*
X398214Y-5210072D01*
X383928Y-5238643D01*
X369643Y-5252929D01*
X341071Y-5267214D01*
X312500Y-5267214D01*
X283928Y-5252929D01*
X269643Y-5238643D01*
X255357Y-5210072D01*
X241071Y-5152929D01*
X241071Y-5081500D01*
X255357Y-5024357D01*
X269643Y-4995786D01*
X283928Y-4981500D01*
X312500Y-4967214D01*
X541071Y-5238643D02*
X555357Y-5252929D01*
X541071Y-5267214D01*
X526786Y-5252929D01*
X541071Y-5238643D01*
X541071Y-5267214D01*
X741071Y-4967214D02*
X769643Y-4967214D01*
X798214Y-4981500D01*
X812500Y-4995786D01*
X826785Y-5024357D01*
X841071Y-5081500D01*
X841071Y-5152929D01*
X826785Y-5210072D01*
X812500Y-5238643D01*
X798214Y-5252929D01*
X769643Y-5267214D01*
X741071Y-5267214D01*
X712500Y-5252929D01*
X698214Y-5238643D01*
X683928Y-5210072D01*
X669643Y-5152929D01*
X669643Y-5081500D01*
X683928Y-5024357D01*
X698214Y-4995786D01*
X712500Y-4981500D01*
X741071Y-4967214D01*
X1112500Y-4967214D02*
X969643Y-4967214D01*
X955357Y-5110072D01*
X969643Y-5095786D01*
X998214Y-5081500D01*
X1069643Y-5081500D01*
X1098214Y-5095786D01*
X1112500Y-5110072D01*
X1126786Y-5138643D01*
X1126786Y-5210072D01*
X1112500Y-5238643D01*
X1098214Y-5252929D01*
X1069643Y-5267214D01*
X998214Y-5267214D01*
X969643Y-5252929D01*
X955357Y-5238643D01*
X1269643Y-5267214D02*
X1326786Y-5267214D01*
X1355357Y-5252929D01*
X1369643Y-5238643D01*
X1398214Y-5195786D01*
X1412500Y-5138643D01*
X1412500Y-5024357D01*
X1398214Y-4995786D01*
X1383928Y-4981500D01*
X1355357Y-4967214D01*
X1298214Y-4967214D01*
X1269643Y-4981500D01*
X1255357Y-4995786D01*
X1241071Y-5024357D01*
X1241071Y-5095786D01*
X1255357Y-5124357D01*
X1269643Y-5138643D01*
X1298214Y-5152929D01*
X1355357Y-5152929D01*
X1383928Y-5138643D01*
X1398214Y-5124357D01*
X1412500Y-5095786D01*
X1526786Y-4967214D02*
X1526786Y-5024357D01*
X1641071Y-4967214D02*
X1641071Y-5024357D01*
X2083928Y-5381500D02*
X2069643Y-5367214D01*
X2041071Y-5324357D01*
X2026785Y-5295786D01*
X2012500Y-5252929D01*
X1998214Y-5181500D01*
X1998214Y-5124357D01*
X2012500Y-5052929D01*
X2026785Y-5010072D01*
X2041071Y-4981500D01*
X2069643Y-4938643D01*
X2083928Y-4924357D01*
X2169643Y-4967214D02*
X2355357Y-4967214D01*
X2255357Y-5081500D01*
X2298214Y-5081500D01*
X2326786Y-5095786D01*
X2341071Y-5110072D01*
X2355357Y-5138643D01*
X2355357Y-5210072D01*
X2341071Y-5238643D01*
X2326786Y-5252929D01*
X2298214Y-5267214D01*
X2212500Y-5267214D01*
X2183928Y-5252929D01*
X2169643Y-5238643D01*
X2712500Y-5267214D02*
X2712500Y-4967214D01*
X2841071Y-5267214D02*
X2841071Y-5110072D01*
X2826785Y-5081500D01*
X2798214Y-5067214D01*
X2755357Y-5067214D01*
X2726786Y-5081500D01*
X2712500Y-5095786D01*
X3026785Y-5267214D02*
X2998214Y-5252929D01*
X2983928Y-5238643D01*
X2969643Y-5210072D01*
X2969643Y-5124357D01*
X2983928Y-5095786D01*
X2998214Y-5081500D01*
X3026785Y-5067214D01*
X3069643Y-5067214D01*
X3098214Y-5081500D01*
X3112500Y-5095786D01*
X3126785Y-5124357D01*
X3126785Y-5210072D01*
X3112500Y-5238643D01*
X3098214Y-5252929D01*
X3069643Y-5267214D01*
X3026785Y-5267214D01*
X3298214Y-5267214D02*
X3269643Y-5252929D01*
X3255357Y-5224357D01*
X3255357Y-4967214D01*
X3526786Y-5252929D02*
X3498214Y-5267214D01*
X3441071Y-5267214D01*
X3412500Y-5252929D01*
X3398214Y-5224357D01*
X3398214Y-5110072D01*
X3412500Y-5081500D01*
X3441071Y-5067214D01*
X3498214Y-5067214D01*
X3526786Y-5081500D01*
X3541071Y-5110072D01*
X3541071Y-5138643D01*
X3398214Y-5167214D01*
X3655357Y-5252929D02*
X3683928Y-5267214D01*
X3741071Y-5267214D01*
X3769643Y-5252929D01*
X3783928Y-5224357D01*
X3783928Y-5210072D01*
X3769643Y-5181500D01*
X3741071Y-5167214D01*
X3698214Y-5167214D01*
X3669643Y-5152929D01*
X3655357Y-5124357D01*
X3655357Y-5110072D01*
X3669643Y-5081500D01*
X3698214Y-5067214D01*
X3741071Y-5067214D01*
X3769643Y-5081500D01*
X3883928Y-5381500D02*
X3898214Y-5367214D01*
X3926786Y-5324357D01*
X3941071Y-5295786D01*
X3955357Y-5252929D01*
X3969643Y-5181500D01*
X3969643Y-5124357D01*
X3955357Y-5052929D01*
X3941071Y-5010072D01*
X3926786Y-4981500D01*
X3898214Y-4938643D01*
X3883928Y-4924357D01*
X-2837436Y-5402532D02*
X-2587500Y-5652468D01*
X-2587500Y-5402532D02*
X-2837436Y-5652468D01*
X-2587500Y-5527500D02*
G75*
G03X-2587500Y-5527500I-124968J0D01*
G01*
X-2330357Y-5391786D02*
X-2316072Y-5377500D01*
X-2287500Y-5363214D01*
X-2216072Y-5363214D01*
X-2187500Y-5377500D01*
X-2173214Y-5391786D01*
X-2158929Y-5420357D01*
X-2158929Y-5448929D01*
X-2173214Y-5491786D01*
X-2344643Y-5663214D01*
X-2158929Y-5663214D01*
X-2030357Y-5634643D02*
X-2016071Y-5648929D01*
X-2030357Y-5663214D01*
X-2044643Y-5648929D01*
X-2030357Y-5634643D01*
X-2030357Y-5663214D01*
X-1744643Y-5363214D02*
X-1887500Y-5363214D01*
X-1901786Y-5506072D01*
X-1887500Y-5491786D01*
X-1858929Y-5477500D01*
X-1787500Y-5477500D01*
X-1758929Y-5491786D01*
X-1744643Y-5506072D01*
X-1730357Y-5534643D01*
X-1730357Y-5606071D01*
X-1744643Y-5634643D01*
X-1758929Y-5648929D01*
X-1787500Y-5663214D01*
X-1858929Y-5663214D01*
X-1887500Y-5648929D01*
X-1901786Y-5634643D01*
X-1544643Y-5363214D02*
X-1516071Y-5363214D01*
X-1487500Y-5377500D01*
X-1473214Y-5391786D01*
X-1458929Y-5420357D01*
X-1444643Y-5477500D01*
X-1444643Y-5548929D01*
X-1458929Y-5606071D01*
X-1473214Y-5634643D01*
X-1487500Y-5648929D01*
X-1516071Y-5663214D01*
X-1544643Y-5663214D01*
X-1573214Y-5648929D01*
X-1587500Y-5634643D01*
X-1601786Y-5606071D01*
X-1616071Y-5548929D01*
X-1616071Y-5477500D01*
X-1601786Y-5420357D01*
X-1587500Y-5391786D01*
X-1573214Y-5377500D01*
X-1544643Y-5363214D01*
X-1316072Y-5663214D02*
X-1316072Y-5463214D01*
X-1316072Y-5491786D02*
X-1301786Y-5477500D01*
X-1273214Y-5463214D01*
X-1230357Y-5463214D01*
X-1201786Y-5477500D01*
X-1187500Y-5506072D01*
X-1187500Y-5663214D01*
X-1187500Y-5506072D02*
X-1173214Y-5477500D01*
X-1144643Y-5463214D01*
X-1101786Y-5463214D01*
X-1073214Y-5477500D01*
X-1058929Y-5506072D01*
X-1058929Y-5663214D01*
X-916071Y-5663214D02*
X-916071Y-5463214D01*
X-916071Y-5491786D02*
X-901786Y-5477500D01*
X-873214Y-5463214D01*
X-830357Y-5463214D01*
X-801786Y-5477500D01*
X-787500Y-5506072D01*
X-787500Y-5663214D01*
X-787500Y-5506072D02*
X-773214Y-5477500D01*
X-744643Y-5463214D01*
X-701786Y-5463214D01*
X-673214Y-5477500D01*
X-658929Y-5506072D01*
X-658929Y-5663214D01*
X-73214Y-5348929D02*
X-330357Y-5734643D01*
X312500Y-5363214D02*
X341071Y-5363214D01*
X369643Y-5377500D01*
X383928Y-5391786D01*
X398214Y-5420357D01*
X412500Y-5477500D01*
X412500Y-5548929D01*
X398214Y-5606071D01*
X383928Y-5634643D01*
X369643Y-5648929D01*
X341071Y-5663214D01*
X312500Y-5663214D01*
X283928Y-5648929D01*
X269643Y-5634643D01*
X255357Y-5606071D01*
X241071Y-5548929D01*
X241071Y-5477500D01*
X255357Y-5420357D01*
X269643Y-5391786D01*
X283928Y-5377500D01*
X312500Y-5363214D01*
X541071Y-5634643D02*
X555357Y-5648929D01*
X541071Y-5663214D01*
X526786Y-5648929D01*
X541071Y-5634643D01*
X541071Y-5663214D01*
X741071Y-5363214D02*
X769643Y-5363214D01*
X798214Y-5377500D01*
X812500Y-5391786D01*
X826785Y-5420357D01*
X841071Y-5477500D01*
X841071Y-5548929D01*
X826785Y-5606071D01*
X812500Y-5634643D01*
X798214Y-5648929D01*
X769643Y-5663214D01*
X741071Y-5663214D01*
X712500Y-5648929D01*
X698214Y-5634643D01*
X683928Y-5606071D01*
X669643Y-5548929D01*
X669643Y-5477500D01*
X683928Y-5420357D01*
X698214Y-5391786D01*
X712500Y-5377500D01*
X741071Y-5363214D01*
X983928Y-5663214D02*
X1041071Y-5663214D01*
X1069643Y-5648929D01*
X1083928Y-5634643D01*
X1112500Y-5591786D01*
X1126786Y-5534643D01*
X1126786Y-5420357D01*
X1112500Y-5391786D01*
X1098214Y-5377500D01*
X1069643Y-5363214D01*
X1012500Y-5363214D01*
X983928Y-5377500D01*
X969643Y-5391786D01*
X955357Y-5420357D01*
X955357Y-5491786D01*
X969643Y-5520357D01*
X983928Y-5534643D01*
X1012500Y-5548929D01*
X1069643Y-5548929D01*
X1098214Y-5534643D01*
X1112500Y-5520357D01*
X1126786Y-5491786D01*
X1298214Y-5491786D02*
X1269643Y-5477500D01*
X1255357Y-5463214D01*
X1241071Y-5434643D01*
X1241071Y-5420357D01*
X1255357Y-5391786D01*
X1269643Y-5377500D01*
X1298214Y-5363214D01*
X1355357Y-5363214D01*
X1383928Y-5377500D01*
X1398214Y-5391786D01*
X1412500Y-5420357D01*
X1412500Y-5434643D01*
X1398214Y-5463214D01*
X1383928Y-5477500D01*
X1355357Y-5491786D01*
X1298214Y-5491786D01*
X1269643Y-5506072D01*
X1255357Y-5520357D01*
X1241071Y-5548929D01*
X1241071Y-5606071D01*
X1255357Y-5634643D01*
X1269643Y-5648929D01*
X1298214Y-5663214D01*
X1355357Y-5663214D01*
X1383928Y-5648929D01*
X1398214Y-5634643D01*
X1412500Y-5606071D01*
X1412500Y-5548929D01*
X1398214Y-5520357D01*
X1383928Y-5506072D01*
X1355357Y-5491786D01*
X1526786Y-5363214D02*
X1526786Y-5420357D01*
X1641071Y-5363214D02*
X1641071Y-5420357D01*
X2083928Y-5777500D02*
X2069643Y-5763214D01*
X2041071Y-5720357D01*
X2026785Y-5691786D01*
X2012500Y-5648929D01*
X1998214Y-5577500D01*
X1998214Y-5520357D01*
X2012500Y-5448929D01*
X2026785Y-5406072D01*
X2041071Y-5377500D01*
X2069643Y-5334643D01*
X2083928Y-5320357D01*
X2183928Y-5391786D02*
X2198214Y-5377500D01*
X2226786Y-5363214D01*
X2298214Y-5363214D01*
X2326786Y-5377500D01*
X2341071Y-5391786D01*
X2355357Y-5420357D01*
X2355357Y-5448929D01*
X2341071Y-5491786D01*
X2169643Y-5663214D01*
X2355357Y-5663214D01*
X2712500Y-5663214D02*
X2712500Y-5363214D01*
X2841071Y-5663214D02*
X2841071Y-5506072D01*
X2826785Y-5477500D01*
X2798214Y-5463214D01*
X2755357Y-5463214D01*
X2726786Y-5477500D01*
X2712500Y-5491786D01*
X3026785Y-5663214D02*
X2998214Y-5648929D01*
X2983928Y-5634643D01*
X2969643Y-5606071D01*
X2969643Y-5520357D01*
X2983928Y-5491786D01*
X2998214Y-5477500D01*
X3026785Y-5463214D01*
X3069643Y-5463214D01*
X3098214Y-5477500D01*
X3112500Y-5491786D01*
X3126785Y-5520357D01*
X3126785Y-5606071D01*
X3112500Y-5634643D01*
X3098214Y-5648929D01*
X3069643Y-5663214D01*
X3026785Y-5663214D01*
X3298214Y-5663214D02*
X3269643Y-5648929D01*
X3255357Y-5620357D01*
X3255357Y-5363214D01*
X3526786Y-5648929D02*
X3498214Y-5663214D01*
X3441071Y-5663214D01*
X3412500Y-5648929D01*
X3398214Y-5620357D01*
X3398214Y-5506072D01*
X3412500Y-5477500D01*
X3441071Y-5463214D01*
X3498214Y-5463214D01*
X3526786Y-5477500D01*
X3541071Y-5506072D01*
X3541071Y-5534643D01*
X3398214Y-5563214D01*
X3655357Y-5648929D02*
X3683928Y-5663214D01*
X3741071Y-5663214D01*
X3769643Y-5648929D01*
X3783928Y-5620357D01*
X3783928Y-5606071D01*
X3769643Y-5577500D01*
X3741071Y-5563214D01*
X3698214Y-5563214D01*
X3669643Y-5548929D01*
X3655357Y-5520357D01*
X3655357Y-5506072D01*
X3669643Y-5477500D01*
X3698214Y-5463214D01*
X3741071Y-5463214D01*
X3769643Y-5477500D01*
X3883928Y-5777500D02*
X3898214Y-5763214D01*
X3926786Y-5720357D01*
X3941071Y-5691786D01*
X3955357Y-5648929D01*
X3969643Y-5577500D01*
X3969643Y-5520357D01*
X3955357Y-5448929D01*
X3941071Y-5406072D01*
X3926786Y-5377500D01*
X3898214Y-5334643D01*
X3883928Y-5320357D01*
M02*
