G04 #@! TF.FileFunction,Soldermask,Bot*
%FSLAX46Y46*%
G04 Gerber Fmt 4.6, Leading zero omitted, Abs format (unit mm)*
G04 Created by KiCad (PCBNEW 4.0.7) date 03/16/20 11:51:46*
%MOMM*%
%LPD*%
G01*
G04 APERTURE LIST*
%ADD10C,0.100000*%
G04 APERTURE END LIST*
D10*
G36*
X-3153414Y-18702450D02*
X-2519520Y-18832571D01*
X-1922967Y-19083338D01*
X-1386485Y-19445200D01*
X-930507Y-19904373D01*
X-572400Y-20443366D01*
X-325803Y-21041656D01*
X-200317Y-21675406D01*
X-200317Y-21675442D01*
X-200119Y-21676444D01*
X-210439Y-22415568D01*
X-210667Y-22416570D01*
X-210667Y-22416601D01*
X-353799Y-23046600D01*
X-617004Y-23637768D01*
X-990022Y-24166555D01*
X-1458645Y-24612819D01*
X-2005017Y-24959556D01*
X-2608343Y-25193572D01*
X-3245621Y-25305941D01*
X-3892592Y-25292388D01*
X-4524614Y-25153430D01*
X-5117602Y-24894360D01*
X-5648978Y-24525044D01*
X-6098503Y-24059547D01*
X-6449049Y-23515605D01*
X-6687266Y-22913937D01*
X-6804085Y-22277449D01*
X-6795049Y-21630403D01*
X-6660506Y-20997426D01*
X-6405583Y-20402645D01*
X-6039983Y-19868699D01*
X-5577640Y-19415940D01*
X-5036158Y-19061605D01*
X-4436160Y-18819190D01*
X-3800511Y-18697933D01*
X-3153414Y-18702450D01*
X-3153414Y-18702450D01*
G37*
G36*
X3846586Y-18702450D02*
X4480480Y-18832571D01*
X5077033Y-19083338D01*
X5613515Y-19445200D01*
X6069493Y-19904373D01*
X6427600Y-20443366D01*
X6674197Y-21041656D01*
X6799683Y-21675406D01*
X6799683Y-21675442D01*
X6799881Y-21676444D01*
X6789561Y-22415568D01*
X6789333Y-22416570D01*
X6789333Y-22416601D01*
X6646201Y-23046600D01*
X6382996Y-23637768D01*
X6009978Y-24166555D01*
X5541355Y-24612819D01*
X4994983Y-24959556D01*
X4391657Y-25193572D01*
X3754379Y-25305941D01*
X3107408Y-25292388D01*
X2475386Y-25153430D01*
X1882398Y-24894360D01*
X1351022Y-24525044D01*
X901497Y-24059547D01*
X550951Y-23515605D01*
X312734Y-22913937D01*
X195915Y-22277449D01*
X204951Y-21630403D01*
X339494Y-20997426D01*
X594417Y-20402645D01*
X960017Y-19868699D01*
X1422360Y-19415940D01*
X1963842Y-19061605D01*
X2563840Y-18819190D01*
X3199489Y-18697933D01*
X3846586Y-18702450D01*
X3846586Y-18702450D01*
G37*
G36*
X-9921224Y-21250492D02*
X-9777147Y-21280067D01*
X-9641553Y-21337065D01*
X-9519614Y-21419314D01*
X-9415974Y-21523681D01*
X-9334580Y-21646188D01*
X-9278529Y-21782178D01*
X-9250166Y-21925420D01*
X-9250167Y-21925456D01*
X-9249968Y-21926459D01*
X-9252314Y-22094455D01*
X-9252540Y-22095452D01*
X-9252541Y-22095488D01*
X-9284892Y-22237881D01*
X-9344718Y-22372252D01*
X-9429502Y-22492441D01*
X-9536017Y-22593874D01*
X-9660204Y-22672685D01*
X-9797332Y-22725874D01*
X-9942181Y-22751415D01*
X-10089232Y-22748334D01*
X-10232887Y-22716750D01*
X-10367665Y-22657866D01*
X-10488447Y-22573921D01*
X-10590620Y-22468118D01*
X-10670297Y-22344485D01*
X-10724441Y-22207732D01*
X-10750993Y-22063060D01*
X-10748939Y-21915994D01*
X-10718359Y-21772125D01*
X-10660416Y-21636934D01*
X-10577318Y-21515571D01*
X-10472231Y-21412663D01*
X-10349158Y-21332126D01*
X-10212782Y-21277027D01*
X-10068303Y-21249466D01*
X-9921224Y-21250492D01*
X-9921224Y-21250492D01*
G37*
G36*
X-15750000Y-5950000D02*
X-15744061Y-5991789D01*
X-15726716Y-6030269D01*
X-15699337Y-6062393D01*
X-15664092Y-6085618D01*
X-15623772Y-6098104D01*
X-15600000Y-6100000D01*
X-15450000Y-6100000D01*
X-15450000Y-9900000D01*
X-17050000Y-9900000D01*
X-17050000Y-5950000D01*
X-17055939Y-5908211D01*
X-17073284Y-5869731D01*
X-17100663Y-5837607D01*
X-17135908Y-5814382D01*
X-17176228Y-5801896D01*
X-17200000Y-5800000D01*
X-21500000Y-5800000D01*
X-21541789Y-5805939D01*
X-21580269Y-5823284D01*
X-21612393Y-5850663D01*
X-21635618Y-5885908D01*
X-21648104Y-5926228D01*
X-21650000Y-5950000D01*
X-21650000Y-9900000D01*
X-23250000Y-9900000D01*
X-23250000Y-4700000D01*
X-15750000Y-4700000D01*
X-15750000Y-5950000D01*
X-15750000Y-5950000D01*
G37*
G36*
X-15750000Y-4300000D02*
X-23250000Y-4300000D01*
X-23250000Y-3200000D01*
X-15750000Y-3200000D01*
X-15750000Y-4300000D01*
X-15750000Y-4300000D01*
G37*
G36*
X23491606Y2298725D02*
X23933495Y2208019D01*
X24349349Y2033209D01*
X24723333Y1780953D01*
X25041197Y1460863D01*
X25290834Y1085130D01*
X25462736Y668064D01*
X25550150Y226589D01*
X25550150Y226558D01*
X25550349Y225551D01*
X25543154Y-289693D01*
X25542927Y-290690D01*
X25542927Y-290725D01*
X25443220Y-729586D01*
X25259740Y-1141689D01*
X24999708Y-1510308D01*
X24673030Y-1821399D01*
X24292155Y-2063109D01*
X23871574Y-2226242D01*
X23427328Y-2304575D01*
X22976324Y-2295127D01*
X22535739Y-2198259D01*
X22122369Y-2017662D01*
X21751946Y-1760211D01*
X21438581Y-1435712D01*
X21194215Y-1056530D01*
X21028154Y-637107D01*
X20946719Y-193409D01*
X20953018Y257646D01*
X21046808Y698896D01*
X21224515Y1113518D01*
X21479373Y1485729D01*
X21801678Y1801353D01*
X22179142Y2048358D01*
X22597402Y2217346D01*
X23040514Y2301874D01*
X23491606Y2298725D01*
X23491606Y2298725D01*
G37*
G36*
X-23008394Y2298725D02*
X-22566505Y2208019D01*
X-22150651Y2033209D01*
X-21776667Y1780953D01*
X-21458803Y1460863D01*
X-21209166Y1085130D01*
X-21037264Y668064D01*
X-20949850Y226589D01*
X-20949850Y226558D01*
X-20949651Y225551D01*
X-20956846Y-289693D01*
X-20957073Y-290690D01*
X-20957073Y-290725D01*
X-21056780Y-729586D01*
X-21240260Y-1141689D01*
X-21500292Y-1510308D01*
X-21826970Y-1821399D01*
X-22207845Y-2063109D01*
X-22628426Y-2226242D01*
X-23072672Y-2304575D01*
X-23523676Y-2295127D01*
X-23964261Y-2198259D01*
X-24377631Y-2017662D01*
X-24748054Y-1760211D01*
X-25061419Y-1435712D01*
X-25305785Y-1056530D01*
X-25471846Y-637107D01*
X-25553281Y-193409D01*
X-25546982Y257646D01*
X-25453192Y698896D01*
X-25275485Y1113518D01*
X-25020627Y1485729D01*
X-24698322Y1801353D01*
X-24320858Y2048358D01*
X-23902598Y2217346D01*
X-23459486Y2301874D01*
X-23008394Y2298725D01*
X-23008394Y2298725D01*
G37*
G36*
X16950000Y-668811D02*
X14050000Y-668811D01*
X14050000Y681189D01*
X16950000Y681189D01*
X16950000Y-668811D01*
X16950000Y-668811D01*
G37*
G36*
X-12825000Y11450000D02*
X-12819061Y11408211D01*
X-12801716Y11369731D01*
X-12774337Y11337607D01*
X-12750000Y11321570D01*
X-12750000Y10200000D01*
X-20175000Y10200000D01*
X-20216789Y10194061D01*
X-20255269Y10176716D01*
X-20287393Y10149337D01*
X-20310618Y10114092D01*
X-20323104Y10073772D01*
X-20325000Y10050000D01*
X-20325000Y9950000D01*
X-20319061Y9908211D01*
X-20301716Y9869731D01*
X-20274337Y9837607D01*
X-20239092Y9814382D01*
X-20198772Y9801896D01*
X-20175000Y9800000D01*
X-12750000Y9800000D01*
X-12750000Y8700000D01*
X-14100000Y8700000D01*
X-14141789Y8694061D01*
X-14180269Y8676716D01*
X-14212393Y8649337D01*
X-14235618Y8614092D01*
X-14248104Y8573772D01*
X-14250000Y8550000D01*
X-14250000Y7700000D01*
X-17150000Y7700000D01*
X-17191789Y7694061D01*
X-17230269Y7676716D01*
X-17262393Y7649337D01*
X-17285618Y7614092D01*
X-17298104Y7573772D01*
X-17300000Y7550000D01*
X-17300000Y7450000D01*
X-17294061Y7408211D01*
X-17276716Y7369731D01*
X-17249337Y7337607D01*
X-17214092Y7314382D01*
X-17173772Y7301896D01*
X-17150000Y7300000D01*
X-14250000Y7300000D01*
X-14250000Y6200000D01*
X-16625894Y6200000D01*
X-16667683Y6194061D01*
X-16706163Y6176716D01*
X-16738287Y6149337D01*
X-16761512Y6114092D01*
X-16773998Y6073772D01*
X-16775276Y6036403D01*
X-16771502Y5994944D01*
X-16785089Y5865680D01*
X-16783551Y5823499D01*
X-16770323Y5783416D01*
X-16746452Y5748606D01*
X-16713828Y5721825D01*
X-16675034Y5705192D01*
X-16635911Y5700000D01*
X-15825000Y5700000D01*
X-15825000Y2825000D01*
X-15819061Y2783211D01*
X-15801716Y2744731D01*
X-15774337Y2712607D01*
X-15739092Y2689382D01*
X-15698772Y2676896D01*
X-15675000Y2675000D01*
X-14300000Y2675000D01*
X-14300000Y1325000D01*
X-17200000Y1325000D01*
X-17200000Y2744795D01*
X-17189382Y2760908D01*
X-17176896Y2801228D01*
X-17175000Y2825000D01*
X-17175000Y2850000D01*
X-17180939Y2891789D01*
X-17198284Y2930269D01*
X-17225663Y2962393D01*
X-17260908Y2985618D01*
X-17301228Y2998104D01*
X-17325000Y3000000D01*
X-21000000Y3000000D01*
X-21041789Y2994061D01*
X-21080269Y2976716D01*
X-21111615Y2950000D01*
X-23350000Y2950000D01*
X-23350000Y4550000D01*
X-21109899Y4550000D01*
X-21099337Y4537607D01*
X-21064092Y4514382D01*
X-21023772Y4501896D01*
X-21000000Y4500000D01*
X-18800000Y4500000D01*
X-18758211Y4505939D01*
X-18719731Y4523284D01*
X-18687607Y4550663D01*
X-18664382Y4585908D01*
X-18651896Y4626228D01*
X-18650000Y4650000D01*
X-18650000Y5600000D01*
X-18338412Y5600000D01*
X-18296623Y5605939D01*
X-18258143Y5623284D01*
X-18226019Y5650663D01*
X-18202794Y5685908D01*
X-18190308Y5726228D01*
X-18189549Y5768430D01*
X-18194468Y5792123D01*
X-18215666Y5864149D01*
X-18215675Y5864247D01*
X-18215685Y5864281D01*
X-18228497Y6005060D01*
X-18213722Y6145635D01*
X-18213712Y6145668D01*
X-18213700Y6145781D01*
X-18171859Y6280949D01*
X-18104560Y6405415D01*
X-18014368Y6514439D01*
X-17904717Y6603868D01*
X-17779784Y6670296D01*
X-17644328Y6711192D01*
X-17503508Y6725000D01*
X-17496235Y6725000D01*
X-17492458Y6724974D01*
X-17492436Y6724972D01*
X-17486369Y6724929D01*
X-17412210Y6716611D01*
X-17374531Y6717721D01*
X-17334357Y6730669D01*
X-17299381Y6754297D01*
X-17272372Y6786733D01*
X-17255469Y6825409D01*
X-17250000Y6865543D01*
X-17250000Y7175000D01*
X-17255939Y7216789D01*
X-17273284Y7255269D01*
X-17300663Y7287393D01*
X-17335908Y7310618D01*
X-17376228Y7323104D01*
X-17400000Y7325000D01*
X-18700000Y7325000D01*
X-18741789Y7319061D01*
X-18780269Y7301716D01*
X-18812393Y7274337D01*
X-18835618Y7239092D01*
X-18848104Y7198772D01*
X-18850000Y7175000D01*
X-18850000Y5900000D01*
X-21190101Y5900000D01*
X-21200663Y5912393D01*
X-21235908Y5935618D01*
X-21276228Y5948104D01*
X-21300000Y5950000D01*
X-23350000Y5950000D01*
X-23350000Y7550000D01*
X-22325000Y7550000D01*
X-22283211Y7555939D01*
X-22244731Y7573284D01*
X-22212607Y7600663D01*
X-22189382Y7635908D01*
X-22176896Y7676228D01*
X-22175000Y7700000D01*
X-22175000Y9050000D01*
X-20400000Y9050000D01*
X-20358211Y9055939D01*
X-20319731Y9073284D01*
X-20287607Y9100663D01*
X-20264382Y9135908D01*
X-20251896Y9176228D01*
X-20250000Y9200000D01*
X-20250000Y9300000D01*
X-20255939Y9341789D01*
X-20273284Y9380269D01*
X-20300663Y9412393D01*
X-20335908Y9435618D01*
X-20376228Y9448104D01*
X-20400000Y9450000D01*
X-22175000Y9450000D01*
X-22175000Y11050000D01*
X-20400000Y11050000D01*
X-20358211Y11055939D01*
X-20319731Y11073284D01*
X-20287607Y11100663D01*
X-20264382Y11135908D01*
X-20251896Y11176228D01*
X-20250000Y11200000D01*
X-20250000Y11300000D01*
X-14325000Y11300000D01*
X-14283211Y11305939D01*
X-14244731Y11323284D01*
X-14212607Y11350663D01*
X-14189382Y11385908D01*
X-14176896Y11426228D01*
X-14175000Y11450000D01*
X-14175000Y11550000D01*
X-14180939Y11591789D01*
X-14198284Y11630269D01*
X-14225663Y11662393D01*
X-14260908Y11685618D01*
X-14301228Y11698104D01*
X-14325000Y11700000D01*
X-20250000Y11700000D01*
X-20250000Y12800000D01*
X-14325000Y12800000D01*
X-14283211Y12805939D01*
X-14244731Y12823284D01*
X-14212607Y12850663D01*
X-14189382Y12885908D01*
X-14176896Y12926228D01*
X-14175000Y12950000D01*
X-14175000Y13050000D01*
X-14180939Y13091789D01*
X-14198284Y13130269D01*
X-14225663Y13162393D01*
X-14260908Y13185618D01*
X-14301228Y13198104D01*
X-14325000Y13200000D01*
X-20250000Y13200000D01*
X-20250000Y14300000D01*
X-14325000Y14300000D01*
X-14283211Y14305939D01*
X-14244731Y14323284D01*
X-14212607Y14350663D01*
X-14189382Y14385908D01*
X-14176896Y14426228D01*
X-14175000Y14450000D01*
X-12825000Y14450000D01*
X-12825000Y11450000D01*
X-12825000Y11450000D01*
G37*
G36*
X23250000Y3200000D02*
X15750000Y3200000D01*
X15750000Y4300000D01*
X23250000Y4300000D01*
X23250000Y3200000D01*
X23250000Y3200000D01*
G37*
G36*
X17050000Y5950000D02*
X17055939Y5908211D01*
X17073284Y5869731D01*
X17100663Y5837607D01*
X17135908Y5814382D01*
X17176228Y5801896D01*
X17200000Y5800000D01*
X21500000Y5800000D01*
X21541789Y5805939D01*
X21580269Y5823284D01*
X21612393Y5850663D01*
X21635618Y5885908D01*
X21648104Y5926228D01*
X21650000Y5950000D01*
X21650000Y9900000D01*
X23250000Y9900000D01*
X23250000Y4700000D01*
X15750000Y4700000D01*
X15750000Y5950000D01*
X15744061Y5991789D01*
X15726716Y6030269D01*
X15699337Y6062393D01*
X15664092Y6085618D01*
X15623772Y6098104D01*
X15600000Y6100000D01*
X15450000Y6100000D01*
X15450000Y9900000D01*
X17050000Y9900000D01*
X17050000Y5950000D01*
X17050000Y5950000D01*
G37*
G36*
X-10825000Y8550000D02*
X-12175000Y8550000D01*
X-12175000Y17450000D01*
X-10825000Y17450000D01*
X-10825000Y8550000D01*
X-10825000Y8550000D01*
G37*
G36*
X672365Y14050000D02*
X-677635Y14050000D01*
X-677635Y16950000D01*
X672365Y16950000D01*
X672365Y14050000D01*
X672365Y14050000D01*
G37*
G36*
X-4700000Y15750000D02*
X-5950000Y15750000D01*
X-5991789Y15744061D01*
X-6030269Y15726716D01*
X-6062393Y15699337D01*
X-6085618Y15664092D01*
X-6098104Y15623772D01*
X-6100000Y15600000D01*
X-6100000Y15450000D01*
X-9900000Y15450000D01*
X-9900000Y17050000D01*
X-5950000Y17050000D01*
X-5908211Y17055939D01*
X-5869731Y17073284D01*
X-5837607Y17100663D01*
X-5814382Y17135908D01*
X-5801896Y17176228D01*
X-5800000Y17200000D01*
X-5800000Y21500000D01*
X-5805939Y21541789D01*
X-5823284Y21580269D01*
X-5850663Y21612393D01*
X-5885908Y21635618D01*
X-5926228Y21648104D01*
X-5950000Y21650000D01*
X-9900000Y21650000D01*
X-9900000Y23250000D01*
X-4700000Y23250000D01*
X-4700000Y15750000D01*
X-4700000Y15750000D01*
G37*
G36*
X-3200000Y15750000D02*
X-4300000Y15750000D01*
X-4300000Y23250000D01*
X-3200000Y23250000D01*
X-3200000Y15750000D01*
X-3200000Y15750000D01*
G37*
G36*
X-12052618Y21568312D02*
X-11901531Y21528942D01*
X-11760968Y21460976D01*
X-11636283Y21367002D01*
X-11532226Y21250600D01*
X-11527654Y21244352D01*
X-11527576Y21244244D01*
X-11527522Y21244170D01*
X-11524699Y21240256D01*
X-11524692Y21240244D01*
X-11521121Y21235291D01*
X-11443539Y21099799D01*
X-11393752Y20951816D01*
X-11373656Y20796982D01*
X-11380878Y20688398D01*
X-11377856Y20648065D01*
X-11363101Y20608519D01*
X-11337913Y20574650D01*
X-11304286Y20549139D01*
X-11261502Y20533271D01*
X-11187766Y20518135D01*
X-11043142Y20457340D01*
X-10913070Y20369606D01*
X-10802520Y20258281D01*
X-10715699Y20127605D01*
X-10655913Y19982554D01*
X-10625645Y19829690D01*
X-10625645Y19829654D01*
X-10625447Y19828652D01*
X-10627949Y19649456D01*
X-10628176Y19648459D01*
X-10628176Y19648424D01*
X-10662700Y19496468D01*
X-10726514Y19353140D01*
X-10816953Y19224935D01*
X-10930563Y19116744D01*
X-11063028Y19032680D01*
X-11209305Y18975943D01*
X-11363808Y18948699D01*
X-11517751Y18951924D01*
X-11559656Y18946862D01*
X-11598490Y18930326D01*
X-11631181Y18903626D01*
X-11655139Y18868875D01*
X-11665245Y18842199D01*
X-11699212Y18715476D01*
X-11768158Y18575391D01*
X-11863000Y18451365D01*
X-11863059Y18451313D01*
X-11863079Y18451287D01*
X-11980094Y18348136D01*
X-12114917Y18269677D01*
X-12114965Y18269661D01*
X-12115074Y18269597D01*
X-12262705Y18218778D01*
X-12417395Y18197602D01*
X-12537064Y18204723D01*
X-12578041Y18201365D01*
X-12617482Y18186334D01*
X-12651175Y18160910D01*
X-12676451Y18127106D01*
X-12689292Y18095085D01*
X-12724051Y17965407D01*
X-12792997Y17825322D01*
X-12887839Y17701296D01*
X-12887898Y17701244D01*
X-12887918Y17701218D01*
X-13004933Y17598067D01*
X-13139756Y17519608D01*
X-13139804Y17519592D01*
X-13139913Y17519528D01*
X-13287544Y17468709D01*
X-13442234Y17447533D01*
X-13561903Y17454654D01*
X-13602881Y17451296D01*
X-13642322Y17436265D01*
X-13676015Y17410841D01*
X-13701291Y17377037D01*
X-13714132Y17345015D01*
X-13748891Y17215337D01*
X-13817837Y17075252D01*
X-13912679Y16951226D01*
X-13912738Y16951174D01*
X-13912758Y16951148D01*
X-14029773Y16847997D01*
X-14164596Y16769538D01*
X-14164644Y16769522D01*
X-14164753Y16769458D01*
X-14312384Y16718639D01*
X-14467074Y16697463D01*
X-14622932Y16706737D01*
X-14774019Y16746106D01*
X-14914582Y16814072D01*
X-15039267Y16908047D01*
X-15143324Y17024448D01*
X-15147896Y17030696D01*
X-15148041Y17030894D01*
X-15150849Y17034787D01*
X-15150862Y17034810D01*
X-15154429Y17039757D01*
X-15232011Y17175250D01*
X-15281798Y17323232D01*
X-15301894Y17478066D01*
X-15294675Y17586603D01*
X-15297697Y17626933D01*
X-15312452Y17666479D01*
X-15337640Y17700349D01*
X-15371267Y17725860D01*
X-15412002Y17741293D01*
X-15498483Y17760307D01*
X-15642249Y17823117D01*
X-15771076Y17912655D01*
X-15880063Y18025514D01*
X-15965052Y18157391D01*
X-16022806Y18303259D01*
X-16051128Y18457575D01*
X-16048937Y18614446D01*
X-16016317Y18767910D01*
X-15954514Y18912110D01*
X-15865877Y19041560D01*
X-15753780Y19151334D01*
X-15622504Y19237238D01*
X-15477034Y19296011D01*
X-15322926Y19325409D01*
X-15155397Y19324240D01*
X-15113568Y19329886D01*
X-15074967Y19346963D01*
X-15042653Y19374117D01*
X-15019183Y19409199D01*
X-15010029Y19433880D01*
X-14976338Y19559572D01*
X-14907392Y19699658D01*
X-14812550Y19823683D01*
X-14812487Y19823739D01*
X-14812472Y19823758D01*
X-14695454Y19926912D01*
X-14560628Y20005372D01*
X-14560588Y20005386D01*
X-14560476Y20005451D01*
X-14412845Y20056270D01*
X-14258155Y20077446D01*
X-14138474Y20070325D01*
X-14097511Y20073682D01*
X-14058069Y20088712D01*
X-14024375Y20114136D01*
X-13999099Y20147940D01*
X-13986259Y20179960D01*
X-13951499Y20309641D01*
X-13882553Y20449727D01*
X-13787711Y20573752D01*
X-13787648Y20573808D01*
X-13787633Y20573827D01*
X-13670615Y20676981D01*
X-13535789Y20755441D01*
X-13535749Y20755455D01*
X-13535637Y20755520D01*
X-13388006Y20806339D01*
X-13233316Y20827515D01*
X-13113635Y20820394D01*
X-13072670Y20823751D01*
X-13033228Y20838781D01*
X-12999535Y20864205D01*
X-12974259Y20898009D01*
X-12961420Y20930027D01*
X-12926659Y21059711D01*
X-12857713Y21199797D01*
X-12762871Y21323822D01*
X-12762808Y21323878D01*
X-12762793Y21323897D01*
X-12645775Y21427051D01*
X-12510949Y21505511D01*
X-12510909Y21505525D01*
X-12510797Y21505590D01*
X-12363166Y21556409D01*
X-12208476Y21577585D01*
X-12052618Y21568312D01*
X-12052618Y21568312D01*
G37*
G36*
X241606Y25548725D02*
X683495Y25458019D01*
X1099349Y25283209D01*
X1473333Y25030953D01*
X1791197Y24710863D01*
X2040834Y24335130D01*
X2212736Y23918064D01*
X2300150Y23476589D01*
X2300150Y23476558D01*
X2300349Y23475551D01*
X2293154Y22960307D01*
X2292927Y22959310D01*
X2292927Y22959275D01*
X2193220Y22520414D01*
X2009740Y22108311D01*
X1749708Y21739692D01*
X1423030Y21428601D01*
X1042155Y21186891D01*
X621574Y21023758D01*
X177328Y20945425D01*
X-273676Y20954873D01*
X-714261Y21051741D01*
X-1127631Y21232338D01*
X-1498054Y21489789D01*
X-1811419Y21814288D01*
X-2055785Y22193470D01*
X-2221846Y22612893D01*
X-2303281Y23056591D01*
X-2296982Y23507646D01*
X-2203192Y23948896D01*
X-2025485Y24363518D01*
X-1770627Y24735729D01*
X-1448322Y25051353D01*
X-1070858Y25298358D01*
X-652598Y25467346D01*
X-209486Y25551874D01*
X241606Y25548725D01*
X241606Y25548725D01*
G37*
G36*
X10078776Y22749508D02*
X10222853Y22719933D01*
X10358447Y22662935D01*
X10480386Y22580686D01*
X10584026Y22476319D01*
X10665420Y22353812D01*
X10721471Y22217822D01*
X10749834Y22074580D01*
X10749833Y22074544D01*
X10750032Y22073541D01*
X10747686Y21905545D01*
X10747460Y21904548D01*
X10747459Y21904512D01*
X10715108Y21762119D01*
X10655282Y21627748D01*
X10570498Y21507559D01*
X10463983Y21406126D01*
X10339796Y21327315D01*
X10202668Y21274126D01*
X10057819Y21248585D01*
X9910768Y21251666D01*
X9767113Y21283250D01*
X9632335Y21342134D01*
X9511553Y21426079D01*
X9409380Y21531882D01*
X9329703Y21655515D01*
X9275559Y21792268D01*
X9249007Y21936940D01*
X9251061Y22084006D01*
X9281641Y22227875D01*
X9339584Y22363066D01*
X9422682Y22484429D01*
X9527769Y22587337D01*
X9650842Y22667874D01*
X9787218Y22722973D01*
X9931697Y22750534D01*
X10078776Y22749508D01*
X10078776Y22749508D01*
G37*
M02*
