G04 #@! TF.FileFunction,Soldermask,Top*
%FSLAX46Y46*%
G04 Gerber Fmt 4.6, Leading zero omitted, Abs format (unit mm)*
G04 Created by KiCad (PCBNEW 4.0.7) date 03/16/20 11:51:46*
%MOMM*%
%LPD*%
G01*
G04 APERTURE LIST*
%ADD10C,0.100000*%
G04 APERTURE END LIST*
D10*
G36*
X-3153414Y-18702450D02*
X-2519520Y-18832571D01*
X-1922967Y-19083338D01*
X-1386485Y-19445200D01*
X-930507Y-19904373D01*
X-572400Y-20443366D01*
X-325803Y-21041656D01*
X-200317Y-21675406D01*
X-200317Y-21675442D01*
X-200119Y-21676444D01*
X-210439Y-22415568D01*
X-210667Y-22416570D01*
X-210667Y-22416601D01*
X-353799Y-23046600D01*
X-617004Y-23637768D01*
X-990022Y-24166555D01*
X-1458645Y-24612819D01*
X-2005017Y-24959556D01*
X-2608343Y-25193572D01*
X-3245621Y-25305941D01*
X-3892592Y-25292388D01*
X-4524614Y-25153430D01*
X-5117602Y-24894360D01*
X-5648978Y-24525044D01*
X-6098503Y-24059547D01*
X-6449049Y-23515605D01*
X-6687266Y-22913937D01*
X-6804085Y-22277449D01*
X-6795049Y-21630403D01*
X-6660506Y-20997426D01*
X-6405583Y-20402645D01*
X-6039983Y-19868699D01*
X-5577640Y-19415940D01*
X-5036158Y-19061605D01*
X-4436160Y-18819190D01*
X-3800511Y-18697933D01*
X-3153414Y-18702450D01*
X-3153414Y-18702450D01*
G37*
G36*
X3846586Y-18702450D02*
X4480480Y-18832571D01*
X5077033Y-19083338D01*
X5613515Y-19445200D01*
X6069493Y-19904373D01*
X6427600Y-20443366D01*
X6674197Y-21041656D01*
X6799683Y-21675406D01*
X6799683Y-21675442D01*
X6799881Y-21676444D01*
X6789561Y-22415568D01*
X6789333Y-22416570D01*
X6789333Y-22416601D01*
X6646201Y-23046600D01*
X6382996Y-23637768D01*
X6009978Y-24166555D01*
X5541355Y-24612819D01*
X4994983Y-24959556D01*
X4391657Y-25193572D01*
X3754379Y-25305941D01*
X3107408Y-25292388D01*
X2475386Y-25153430D01*
X1882398Y-24894360D01*
X1351022Y-24525044D01*
X901497Y-24059547D01*
X550951Y-23515605D01*
X312734Y-22913937D01*
X195915Y-22277449D01*
X204951Y-21630403D01*
X339494Y-20997426D01*
X594417Y-20402645D01*
X960017Y-19868699D01*
X1422360Y-19415940D01*
X1963842Y-19061605D01*
X2563840Y-18819190D01*
X3199489Y-18697933D01*
X3846586Y-18702450D01*
X3846586Y-18702450D01*
G37*
G36*
X-9921224Y-21250492D02*
X-9777147Y-21280067D01*
X-9641553Y-21337065D01*
X-9519614Y-21419314D01*
X-9415974Y-21523681D01*
X-9334580Y-21646188D01*
X-9278529Y-21782178D01*
X-9250166Y-21925420D01*
X-9250167Y-21925456D01*
X-9249968Y-21926459D01*
X-9252314Y-22094455D01*
X-9252540Y-22095452D01*
X-9252541Y-22095488D01*
X-9284892Y-22237881D01*
X-9344718Y-22372252D01*
X-9429502Y-22492441D01*
X-9536017Y-22593874D01*
X-9660204Y-22672685D01*
X-9797332Y-22725874D01*
X-9942181Y-22751415D01*
X-10089232Y-22748334D01*
X-10232887Y-22716750D01*
X-10367665Y-22657866D01*
X-10488447Y-22573921D01*
X-10590620Y-22468118D01*
X-10670297Y-22344485D01*
X-10724441Y-22207732D01*
X-10750993Y-22063060D01*
X-10748939Y-21915994D01*
X-10718359Y-21772125D01*
X-10660416Y-21636934D01*
X-10577318Y-21515571D01*
X-10472231Y-21412663D01*
X-10349158Y-21332126D01*
X-10212782Y-21277027D01*
X-10068303Y-21249466D01*
X-9921224Y-21250492D01*
X-9921224Y-21250492D01*
G37*
G36*
X250000Y-17900000D02*
X-1250000Y-17900000D01*
X-1250000Y-15600000D01*
X250000Y-15600000D01*
X250000Y-17900000D01*
X250000Y-17900000D01*
G37*
G36*
X-2650000Y-17900000D02*
X-4150000Y-17900000D01*
X-4150000Y-17850000D01*
X-4155939Y-17808211D01*
X-4173284Y-17769731D01*
X-4200663Y-17737607D01*
X-4235908Y-17714382D01*
X-4276228Y-17701896D01*
X-4300000Y-17700000D01*
X-6440101Y-17700000D01*
X-6450663Y-17687607D01*
X-6485908Y-17664382D01*
X-6526228Y-17651896D01*
X-6550000Y-17650000D01*
X-9150000Y-17650000D01*
X-9150000Y-15850000D01*
X-6550000Y-15850000D01*
X-6508211Y-15844061D01*
X-6469731Y-15826716D01*
X-6438385Y-15800000D01*
X-4300000Y-15800000D01*
X-4258211Y-15794061D01*
X-4219731Y-15776716D01*
X-4187607Y-15749337D01*
X-4164382Y-15714092D01*
X-4151896Y-15673772D01*
X-4150000Y-15650000D01*
X-4150000Y-15600000D01*
X-2650000Y-15600000D01*
X-2650000Y-17900000D01*
X-2650000Y-17900000D01*
G37*
G36*
X-10550000Y-17670000D02*
X-17550000Y-17670000D01*
X-17550000Y-11270000D01*
X-10550000Y-11270000D01*
X-10550000Y-17670000D01*
X-10550000Y-17670000D01*
G37*
G36*
X10550000Y-17300000D02*
X5950000Y-17300000D01*
X5950000Y-14200000D01*
X10550000Y-14200000D01*
X10550000Y-17300000D01*
X10550000Y-17300000D01*
G37*
G36*
X16650000Y-17300000D02*
X12050000Y-17300000D01*
X12050000Y-14200000D01*
X16650000Y-14200000D01*
X16650000Y-17300000D01*
X16650000Y-17300000D01*
G37*
G36*
X-6350000Y-12150000D02*
X-6344061Y-12191789D01*
X-6326716Y-12230269D01*
X-6299337Y-12262393D01*
X-6264092Y-12285618D01*
X-6223772Y-12298104D01*
X-6200000Y-12300000D01*
X-4100000Y-12300000D01*
X-4100000Y-14200000D01*
X-6400000Y-14200000D01*
X-6400000Y-13240000D01*
X-6405939Y-13198211D01*
X-6423284Y-13159731D01*
X-6450663Y-13127607D01*
X-6485908Y-13104382D01*
X-6526228Y-13091896D01*
X-6550000Y-13090000D01*
X-9150000Y-13090000D01*
X-9150000Y-11290000D01*
X-6350000Y-11290000D01*
X-6350000Y-12150000D01*
X-6350000Y-12150000D01*
G37*
G36*
X-21664092Y-4710618D02*
X-21623772Y-4723104D01*
X-21600000Y-4725000D01*
X-20650000Y-4725000D01*
X-20650000Y-5775000D01*
X-21600000Y-5775000D01*
X-21641789Y-5780939D01*
X-21680269Y-5798284D01*
X-21712393Y-5825663D01*
X-21735618Y-5860908D01*
X-21748104Y-5901228D01*
X-21750000Y-5925000D01*
X-21750000Y-5950000D01*
X-21744061Y-5991789D01*
X-21726716Y-6030269D01*
X-21699337Y-6062393D01*
X-21664092Y-6085618D01*
X-21650000Y-6089982D01*
X-21650000Y-9900000D01*
X-23250000Y-9900000D01*
X-23250000Y-5950000D01*
X-23255939Y-5908211D01*
X-23273284Y-5869731D01*
X-23300663Y-5837607D01*
X-23335908Y-5814382D01*
X-23376228Y-5801896D01*
X-23400000Y-5800000D01*
X-24750000Y-5800000D01*
X-24750000Y-4700000D01*
X-21680205Y-4700000D01*
X-21664092Y-4710618D01*
X-21664092Y-4710618D01*
G37*
G36*
X-15450000Y-9900000D02*
X-17050000Y-9900000D01*
X-17050000Y-6100000D01*
X-15450000Y-6100000D01*
X-15450000Y-9900000D01*
X-15450000Y-9900000D01*
G37*
G36*
X-15300000Y-5775000D02*
X-16500000Y-5775000D01*
X-16500000Y-4725000D01*
X-15300000Y-4725000D01*
X-15300000Y-5775000D01*
X-15300000Y-5775000D01*
G37*
G36*
X-17400000Y-5775000D02*
X-19750000Y-5775000D01*
X-19750000Y-4725000D01*
X-17400000Y-4725000D01*
X-17400000Y-5775000D01*
X-17400000Y-5775000D01*
G37*
G36*
X-21200000Y2200000D02*
X-21907300Y2200000D01*
X-21949089Y2194061D01*
X-21987569Y2176716D01*
X-22019693Y2149337D01*
X-22042918Y2114092D01*
X-22055404Y2073772D01*
X-22056163Y2031570D01*
X-22045135Y1990827D01*
X-22023193Y1954770D01*
X-21991179Y1925645D01*
X-21776670Y1780956D01*
X-21601436Y1604495D01*
X-21567776Y1579027D01*
X-21528353Y1563945D01*
X-21486290Y1560443D01*
X-21444916Y1568798D01*
X-21407508Y1588349D01*
X-21377028Y1617547D01*
X-21355889Y1654081D01*
X-21345000Y1710190D01*
X-21345000Y1790000D01*
X-21020000Y1790000D01*
X-20978211Y1795939D01*
X-20939731Y1813284D01*
X-20907607Y1840663D01*
X-20884382Y1875908D01*
X-20871896Y1916228D01*
X-20870000Y1940000D01*
X-20870000Y2795000D01*
X-20650000Y2795000D01*
X-20608211Y2800939D01*
X-20569731Y2818284D01*
X-20537607Y2845663D01*
X-20514382Y2880908D01*
X-20501896Y2921228D01*
X-20500000Y2945000D01*
X-20500000Y4200000D01*
X-19000000Y4200000D01*
X-18994061Y4158211D01*
X-18976716Y4119731D01*
X-18949337Y4087607D01*
X-18914092Y4064382D01*
X-18873772Y4051896D01*
X-18850000Y4050000D01*
X-15750000Y4050000D01*
X-15750000Y2926837D01*
X-15750269Y2926716D01*
X-15782393Y2899337D01*
X-15805618Y2864092D01*
X-15818104Y2823772D01*
X-15820000Y2800000D01*
X-15820000Y1940000D01*
X-15814061Y1898211D01*
X-15796716Y1859731D01*
X-15769337Y1827607D01*
X-15734092Y1804382D01*
X-15693772Y1791896D01*
X-15670000Y1790000D01*
X-15345000Y1790000D01*
X-15345000Y390000D01*
X-15670000Y390000D01*
X-15711789Y384061D01*
X-15750269Y366716D01*
X-15782393Y339337D01*
X-15805618Y304092D01*
X-15818104Y263772D01*
X-15820000Y240000D01*
X-15820000Y-510000D01*
X-15814061Y-551789D01*
X-15796716Y-590269D01*
X-15769337Y-622393D01*
X-15734092Y-645618D01*
X-15693772Y-658104D01*
X-15670000Y-660000D01*
X-15345000Y-660000D01*
X-15345000Y-2060000D01*
X-15670000Y-2060000D01*
X-15711789Y-2065939D01*
X-15750269Y-2083284D01*
X-15782393Y-2110663D01*
X-15805618Y-2145908D01*
X-15818104Y-2186228D01*
X-15820000Y-2210000D01*
X-15820000Y-2400000D01*
X-15815000Y-2435182D01*
X-15815000Y-4400000D01*
X-20875000Y-4400000D01*
X-20875000Y-2433795D01*
X-20871896Y-2423772D01*
X-20870000Y-2400000D01*
X-20870000Y-2210000D01*
X-20875939Y-2168211D01*
X-20893284Y-2129731D01*
X-20920663Y-2097607D01*
X-20955908Y-2074382D01*
X-20996228Y-2061896D01*
X-21020000Y-2060000D01*
X-21345000Y-2060000D01*
X-21345000Y-1712402D01*
X-21350939Y-1670613D01*
X-21368284Y-1632133D01*
X-21395663Y-1600009D01*
X-21430908Y-1576784D01*
X-21471228Y-1564298D01*
X-21513430Y-1563539D01*
X-21554173Y-1574567D01*
X-21598443Y-1603776D01*
X-21826970Y-1821399D01*
X-22207845Y-2063109D01*
X-22628426Y-2226242D01*
X-23072672Y-2304575D01*
X-23523676Y-2295127D01*
X-23964261Y-2198259D01*
X-24377631Y-2017662D01*
X-24748054Y-1760211D01*
X-25061419Y-1435712D01*
X-25305785Y-1056530D01*
X-25471846Y-637107D01*
X-25553281Y-193409D01*
X-25546982Y257646D01*
X-25453192Y698896D01*
X-25275485Y1113518D01*
X-25020627Y1485729D01*
X-24698322Y1801353D01*
X-24320858Y2048358D01*
X-23902598Y2217347D01*
X-23721893Y2251818D01*
X-23681957Y2265482D01*
X-23647408Y2289731D01*
X-23620984Y2322645D01*
X-23604774Y2361617D01*
X-23600000Y2399161D01*
X-23600000Y5300000D01*
X-21200000Y5300000D01*
X-21200000Y2200000D01*
X-21200000Y2200000D01*
G37*
G36*
X-21750000Y-4300000D02*
X-24750000Y-4300000D01*
X-24750000Y-3200000D01*
X-21750000Y-3200000D01*
X-21750000Y-4300000D01*
X-21750000Y-4300000D01*
G37*
G36*
X23250000Y5950000D02*
X23255939Y5908211D01*
X23273284Y5869731D01*
X23300663Y5837607D01*
X23335908Y5814382D01*
X23376228Y5801896D01*
X23400000Y5800000D01*
X24750000Y5800000D01*
X24750000Y4700000D01*
X21680205Y4700000D01*
X21664092Y4710618D01*
X21623772Y4723104D01*
X21600000Y4725000D01*
X21025000Y4725000D01*
X20983211Y4719061D01*
X20944731Y4701716D01*
X20912607Y4674337D01*
X20889382Y4639092D01*
X20876896Y4598772D01*
X20875000Y4575000D01*
X20875000Y2458795D01*
X20871896Y2448772D01*
X20870000Y2425000D01*
X20870000Y2235000D01*
X20875939Y2193211D01*
X20893284Y2154731D01*
X20920663Y2122607D01*
X20955908Y2099382D01*
X20996228Y2086896D01*
X21020000Y2085000D01*
X21345000Y2085000D01*
X21345000Y1710977D01*
X21350939Y1669188D01*
X21368284Y1630708D01*
X21395663Y1598584D01*
X21430908Y1575359D01*
X21471228Y1562873D01*
X21513430Y1562114D01*
X21554173Y1573142D01*
X21599950Y1603806D01*
X21801678Y1801353D01*
X22179142Y2048358D01*
X22597402Y2217346D01*
X23040514Y2301874D01*
X23491606Y2298725D01*
X23933495Y2208019D01*
X24349349Y2033209D01*
X24723333Y1780953D01*
X25041197Y1460863D01*
X25290834Y1085130D01*
X25462736Y668064D01*
X25550150Y226589D01*
X25550150Y226558D01*
X25550349Y225551D01*
X25543154Y-289693D01*
X25542927Y-290690D01*
X25542927Y-290725D01*
X25443220Y-729586D01*
X25259740Y-1141689D01*
X24999708Y-1510308D01*
X24673030Y-1821399D01*
X24292155Y-2063109D01*
X23871574Y-2226242D01*
X23427328Y-2304575D01*
X22976324Y-2295127D01*
X22535739Y-2198259D01*
X22122369Y-2017662D01*
X21751946Y-1760211D01*
X21602901Y-1605870D01*
X21569600Y-1579935D01*
X21530392Y-1564304D01*
X21488382Y-1560215D01*
X21446896Y-1567992D01*
X21409218Y-1587018D01*
X21378333Y-1615788D01*
X21356686Y-1652023D01*
X21345000Y-1710069D01*
X21345000Y-1765000D01*
X21020000Y-1765000D01*
X20978211Y-1770939D01*
X20939731Y-1788284D01*
X20907607Y-1815663D01*
X20884382Y-1850908D01*
X20871896Y-1891228D01*
X20870000Y-1915000D01*
X20870000Y-2770000D01*
X19745000Y-2770000D01*
X19709818Y-2775000D01*
X16978795Y-2775000D01*
X16968772Y-2771896D01*
X16945000Y-2770000D01*
X15820000Y-2770000D01*
X15820000Y-1915000D01*
X15814061Y-1873211D01*
X15796716Y-1834731D01*
X15769337Y-1802607D01*
X15734092Y-1779382D01*
X15693772Y-1766896D01*
X15670000Y-1765000D01*
X15345000Y-1765000D01*
X15345000Y-365000D01*
X15670000Y-365000D01*
X15711789Y-359061D01*
X15750269Y-341716D01*
X15782393Y-314337D01*
X15805618Y-279092D01*
X15818104Y-238772D01*
X15820000Y-215000D01*
X15820000Y535000D01*
X15814061Y576789D01*
X15796716Y615269D01*
X15769337Y647393D01*
X15734092Y670618D01*
X15693772Y683104D01*
X15670000Y685000D01*
X15345000Y685000D01*
X15345000Y2085000D01*
X15670000Y2085000D01*
X15711789Y2090939D01*
X15750269Y2108284D01*
X15782393Y2135663D01*
X15805618Y2170908D01*
X15818104Y2211228D01*
X15820000Y2235000D01*
X15820000Y2425000D01*
X15815000Y2460182D01*
X15815000Y4575000D01*
X15809061Y4616789D01*
X15791716Y4655269D01*
X15764337Y4687393D01*
X15729092Y4710618D01*
X15688772Y4723104D01*
X15665000Y4725000D01*
X15300000Y4725000D01*
X15300000Y5775000D01*
X16500000Y5775000D01*
X16500000Y4575000D01*
X16505939Y4533211D01*
X16523284Y4494731D01*
X16550663Y4462607D01*
X16585908Y4439382D01*
X16626228Y4426896D01*
X16650000Y4425000D01*
X17250000Y4425000D01*
X17291789Y4430939D01*
X17330269Y4448284D01*
X17362393Y4475663D01*
X17385618Y4510908D01*
X17398104Y4551228D01*
X17400000Y4575000D01*
X17400000Y5775000D01*
X19750000Y5775000D01*
X19750000Y4575000D01*
X19755939Y4533211D01*
X19773284Y4494731D01*
X19800663Y4462607D01*
X19835908Y4439382D01*
X19876228Y4426896D01*
X19900000Y4425000D01*
X20500000Y4425000D01*
X20541789Y4430939D01*
X20580269Y4448284D01*
X20612393Y4475663D01*
X20635618Y4510908D01*
X20648104Y4551228D01*
X20650000Y4575000D01*
X20650000Y5775000D01*
X21600000Y5775000D01*
X21641789Y5780939D01*
X21680269Y5798284D01*
X21712393Y5825663D01*
X21735618Y5860908D01*
X21748104Y5901228D01*
X21750000Y5925000D01*
X21750000Y5950000D01*
X21744061Y5991789D01*
X21726716Y6030269D01*
X21699337Y6062393D01*
X21664092Y6085618D01*
X21650000Y6089982D01*
X21650000Y9900000D01*
X23250000Y9900000D01*
X23250000Y5950000D01*
X23250000Y5950000D01*
G37*
G36*
X24750000Y3200000D02*
X21750000Y3200000D01*
X21750000Y4300000D01*
X24750000Y4300000D01*
X24750000Y3200000D01*
X24750000Y3200000D01*
G37*
G36*
X-12550000Y14850000D02*
X-12544061Y14808211D01*
X-12526716Y14769731D01*
X-12499337Y14737607D01*
X-12464092Y14714382D01*
X-12423772Y14701896D01*
X-12400000Y14700000D01*
X-11575000Y14700000D01*
X-11575000Y8300000D01*
X-12400000Y8300000D01*
X-12441789Y8294061D01*
X-12480269Y8276716D01*
X-12512393Y8249337D01*
X-12535618Y8214092D01*
X-12548104Y8173772D01*
X-12550000Y8150000D01*
X-12550000Y7325000D01*
X-17800000Y7325000D01*
X-17841789Y7319061D01*
X-17880269Y7301716D01*
X-17912393Y7274337D01*
X-17935618Y7239092D01*
X-17948104Y7198772D01*
X-17950000Y7175000D01*
X-17950000Y6820352D01*
X-17944061Y6778563D01*
X-17926716Y6740083D01*
X-17899337Y6707959D01*
X-17864092Y6684734D01*
X-17823772Y6672248D01*
X-17781570Y6671489D01*
X-17762466Y6675525D01*
X-17644328Y6711192D01*
X-17503508Y6725000D01*
X-17496235Y6725000D01*
X-17492458Y6724974D01*
X-17492436Y6724972D01*
X-17486369Y6724929D01*
X-17345756Y6709157D01*
X-17210884Y6666373D01*
X-17086891Y6598207D01*
X-16978499Y6507256D01*
X-16889838Y6396983D01*
X-16824284Y6271590D01*
X-16784334Y6135851D01*
X-16784325Y6135753D01*
X-16784315Y6135719D01*
X-16771503Y5994940D01*
X-16786278Y5854366D01*
X-16786288Y5854334D01*
X-16786300Y5854219D01*
X-16820358Y5744194D01*
X-16827016Y5702680D01*
X-16821825Y5660791D01*
X-16805170Y5622008D01*
X-16778369Y5589399D01*
X-16743544Y5565549D01*
X-16703454Y5552344D01*
X-16677040Y5550000D01*
X-15750000Y5550000D01*
X-15750000Y4450000D01*
X-18750000Y4450000D01*
X-18750000Y4750000D01*
X-18755939Y4791789D01*
X-18773284Y4830269D01*
X-18800663Y4862393D01*
X-18835908Y4885618D01*
X-18876228Y4898104D01*
X-18900000Y4900000D01*
X-20500000Y4900000D01*
X-20500000Y5850000D01*
X-19000000Y5850000D01*
X-19000000Y5700000D01*
X-18994061Y5658211D01*
X-18976716Y5619731D01*
X-18949337Y5587607D01*
X-18914092Y5564382D01*
X-18873772Y5551896D01*
X-18850000Y5550000D01*
X-18323696Y5550000D01*
X-18281907Y5555939D01*
X-18243427Y5573284D01*
X-18211303Y5600663D01*
X-18188078Y5635908D01*
X-18175592Y5676228D01*
X-18174833Y5718430D01*
X-18179751Y5742120D01*
X-18215666Y5864149D01*
X-18215675Y5864248D01*
X-18216191Y5866001D01*
X-18225323Y5904670D01*
X-18246083Y5941420D01*
X-18276261Y5970932D01*
X-18313465Y5990867D01*
X-18365005Y6000000D01*
X-18850000Y6000000D01*
X-18891789Y5994061D01*
X-18930269Y5976716D01*
X-18962393Y5949337D01*
X-18985618Y5914092D01*
X-18998104Y5873772D01*
X-19000000Y5850000D01*
X-20500000Y5850000D01*
X-20505939Y5891789D01*
X-20523284Y5930269D01*
X-20550000Y5961615D01*
X-20550000Y7500000D01*
X-19450000Y7500000D01*
X-19450000Y6450000D01*
X-19444061Y6408211D01*
X-19426716Y6369731D01*
X-19399337Y6337607D01*
X-19364092Y6314382D01*
X-19323772Y6301896D01*
X-19300000Y6300000D01*
X-19200000Y6300000D01*
X-19158211Y6305939D01*
X-19119731Y6323284D01*
X-19087607Y6350663D01*
X-19064382Y6385908D01*
X-19051896Y6426228D01*
X-19050000Y6450000D01*
X-19050000Y7509640D01*
X-19019731Y7523284D01*
X-18987607Y7550663D01*
X-18964382Y7585908D01*
X-18951896Y7626228D01*
X-18950000Y7650000D01*
X-18950000Y8150000D01*
X-18955939Y8191789D01*
X-18973284Y8230269D01*
X-19000663Y8262393D01*
X-19035908Y8285618D01*
X-19076228Y8298104D01*
X-19100000Y8300000D01*
X-19925000Y8300000D01*
X-19925000Y14075000D01*
X-18475000Y14075000D01*
X-18475000Y8925000D01*
X-18469061Y8883211D01*
X-18451716Y8844731D01*
X-18424337Y8812607D01*
X-18389092Y8789382D01*
X-18348772Y8776896D01*
X-18325000Y8775000D01*
X-13175000Y8775000D01*
X-13133211Y8780939D01*
X-13094731Y8798284D01*
X-13062607Y8825663D01*
X-13039382Y8860908D01*
X-13026896Y8901228D01*
X-13025000Y8925000D01*
X-13025000Y14075000D01*
X-13030939Y14116789D01*
X-13048284Y14155269D01*
X-13075663Y14187393D01*
X-13110908Y14210618D01*
X-13151228Y14223104D01*
X-13175000Y14225000D01*
X-18325000Y14225000D01*
X-18366789Y14219061D01*
X-18405269Y14201716D01*
X-18437393Y14174337D01*
X-18460618Y14139092D01*
X-18473104Y14098772D01*
X-18475000Y14075000D01*
X-19925000Y14075000D01*
X-19925000Y14700000D01*
X-19100000Y14700000D01*
X-19058211Y14705939D01*
X-19019731Y14723284D01*
X-18987607Y14750663D01*
X-18964382Y14785908D01*
X-18951896Y14826228D01*
X-18950000Y14850000D01*
X-18950000Y15675000D01*
X-12550000Y15675000D01*
X-12550000Y14850000D01*
X-12550000Y14850000D01*
G37*
G36*
X-14100000Y9850000D02*
X-17400000Y9850000D01*
X-17400000Y13150000D01*
X-14100000Y13150000D01*
X-14100000Y9850000D01*
X-14100000Y9850000D01*
G37*
G36*
X17050000Y6100000D02*
X15450000Y6100000D01*
X15450000Y9900000D01*
X17050000Y9900000D01*
X17050000Y6100000D01*
X17050000Y6100000D01*
G37*
G36*
X-21200000Y6200000D02*
X-23600000Y6200000D01*
X-23600000Y9300000D01*
X-21200000Y9300000D01*
X-21200000Y6200000D01*
X-21200000Y6200000D01*
G37*
G36*
X16650000Y13950000D02*
X12050000Y13950000D01*
X12050000Y17050000D01*
X16650000Y17050000D01*
X16650000Y13950000D01*
X16650000Y13950000D01*
G37*
G36*
X10550000Y13950000D02*
X5950000Y13950000D01*
X5950000Y17050000D01*
X10550000Y17050000D01*
X10550000Y13950000D01*
X10550000Y13950000D01*
G37*
G36*
X-4725000Y15300000D02*
X-5775000Y15300000D01*
X-5775000Y16500000D01*
X-4725000Y16500000D01*
X-4725000Y15300000D01*
X-4725000Y15300000D01*
G37*
G36*
X241606Y25548725D02*
X683495Y25458019D01*
X1099349Y25283209D01*
X1473333Y25030953D01*
X1791197Y24710863D01*
X2040834Y24335130D01*
X2212736Y23918064D01*
X2300150Y23476589D01*
X2300150Y23476558D01*
X2300349Y23475551D01*
X2293154Y22960307D01*
X2292927Y22959310D01*
X2292927Y22959275D01*
X2193220Y22520414D01*
X2009740Y22108311D01*
X1749708Y21739692D01*
X1606824Y21603626D01*
X1580657Y21570507D01*
X1564753Y21531409D01*
X1560371Y21489428D01*
X1567857Y21447889D01*
X1586620Y21410079D01*
X1615174Y21378994D01*
X1651257Y21357095D01*
X1710267Y21345000D01*
X1790000Y21345000D01*
X1790000Y21020000D01*
X1795939Y20978211D01*
X1813284Y20939731D01*
X1840663Y20907607D01*
X1875908Y20884382D01*
X1916228Y20871896D01*
X1940000Y20870000D01*
X2795000Y20870000D01*
X2795000Y19745000D01*
X2800000Y19709818D01*
X2800000Y16978795D01*
X2796896Y16968772D01*
X2795000Y16945000D01*
X2795000Y15820000D01*
X1940000Y15820000D01*
X1898211Y15814061D01*
X1859731Y15796716D01*
X1827607Y15769337D01*
X1804382Y15734092D01*
X1791896Y15693772D01*
X1790000Y15670000D01*
X1790000Y15345000D01*
X390000Y15345000D01*
X390000Y15670000D01*
X384061Y15711789D01*
X366716Y15750269D01*
X339337Y15782393D01*
X304092Y15805618D01*
X263772Y15818104D01*
X240000Y15820000D01*
X-510000Y15820000D01*
X-551789Y15814061D01*
X-590269Y15796716D01*
X-622393Y15769337D01*
X-645618Y15734092D01*
X-658104Y15693772D01*
X-660000Y15670000D01*
X-660000Y15345000D01*
X-2060000Y15345000D01*
X-2060000Y15670000D01*
X-2065939Y15711789D01*
X-2083284Y15750269D01*
X-2110663Y15782393D01*
X-2145908Y15805618D01*
X-2186228Y15818104D01*
X-2210000Y15820000D01*
X-2400000Y15820000D01*
X-2435182Y15815000D01*
X-4400000Y15815000D01*
X-4400000Y20875000D01*
X-2433795Y20875000D01*
X-2423772Y20871896D01*
X-2400000Y20870000D01*
X-2210000Y20870000D01*
X-2168211Y20875939D01*
X-2129731Y20893284D01*
X-2097607Y20920663D01*
X-2074382Y20955908D01*
X-2061896Y20996228D01*
X-2060000Y21020000D01*
X-2060000Y21345000D01*
X-1711611Y21345000D01*
X-1669822Y21350939D01*
X-1631342Y21368284D01*
X-1599218Y21395663D01*
X-1575993Y21430908D01*
X-1563507Y21471228D01*
X-1562748Y21513430D01*
X-1573776Y21554173D01*
X-1603710Y21599199D01*
X-1811419Y21814288D01*
X-2055785Y22193470D01*
X-2221846Y22612893D01*
X-2303281Y23056591D01*
X-2296982Y23507646D01*
X-2203192Y23948896D01*
X-2025485Y24363518D01*
X-1770627Y24735729D01*
X-1448322Y25051353D01*
X-1070858Y25298358D01*
X-652598Y25467346D01*
X-209486Y25551874D01*
X241606Y25548725D01*
X241606Y25548725D01*
G37*
G36*
X-6100000Y15450000D02*
X-9900000Y15450000D01*
X-9900000Y17050000D01*
X-6100000Y17050000D01*
X-6100000Y15450000D01*
X-6100000Y15450000D01*
G37*
G36*
X-12052618Y21568312D02*
X-11901531Y21528942D01*
X-11760968Y21460976D01*
X-11636283Y21367002D01*
X-11532226Y21250600D01*
X-11527654Y21244352D01*
X-11527576Y21244244D01*
X-11527522Y21244170D01*
X-11524699Y21240256D01*
X-11524692Y21240244D01*
X-11521121Y21235291D01*
X-11443539Y21099799D01*
X-11393752Y20951816D01*
X-11373656Y20796982D01*
X-11380878Y20688398D01*
X-11377856Y20648065D01*
X-11363101Y20608519D01*
X-11337913Y20574650D01*
X-11304286Y20549139D01*
X-11261502Y20533271D01*
X-11187766Y20518135D01*
X-11043142Y20457340D01*
X-10913070Y20369606D01*
X-10802520Y20258281D01*
X-10715699Y20127605D01*
X-10655913Y19982554D01*
X-10625645Y19829690D01*
X-10625645Y19829654D01*
X-10625447Y19828652D01*
X-10627949Y19649456D01*
X-10628176Y19648459D01*
X-10628176Y19648424D01*
X-10662700Y19496468D01*
X-10726514Y19353140D01*
X-10816953Y19224935D01*
X-10930563Y19116744D01*
X-11063028Y19032680D01*
X-11209305Y18975943D01*
X-11363808Y18948699D01*
X-11517751Y18951924D01*
X-11559656Y18946862D01*
X-11598490Y18930326D01*
X-11631181Y18903626D01*
X-11655139Y18868875D01*
X-11665245Y18842199D01*
X-11699212Y18715476D01*
X-11768158Y18575391D01*
X-11863000Y18451365D01*
X-11863059Y18451313D01*
X-11863079Y18451287D01*
X-11980094Y18348136D01*
X-12114917Y18269677D01*
X-12114965Y18269661D01*
X-12115074Y18269597D01*
X-12262705Y18218778D01*
X-12417395Y18197602D01*
X-12537064Y18204723D01*
X-12578041Y18201365D01*
X-12617482Y18186334D01*
X-12651175Y18160910D01*
X-12676451Y18127106D01*
X-12689292Y18095085D01*
X-12724051Y17965407D01*
X-12792997Y17825322D01*
X-12887839Y17701296D01*
X-12887898Y17701244D01*
X-12887918Y17701218D01*
X-13004933Y17598067D01*
X-13139756Y17519608D01*
X-13139804Y17519592D01*
X-13139913Y17519528D01*
X-13287544Y17468709D01*
X-13442234Y17447533D01*
X-13561903Y17454654D01*
X-13602881Y17451296D01*
X-13642322Y17436265D01*
X-13676015Y17410841D01*
X-13701291Y17377037D01*
X-13714132Y17345015D01*
X-13748891Y17215337D01*
X-13817837Y17075252D01*
X-13912679Y16951226D01*
X-13912738Y16951174D01*
X-13912758Y16951148D01*
X-14029773Y16847997D01*
X-14164596Y16769538D01*
X-14164644Y16769522D01*
X-14164753Y16769458D01*
X-14312384Y16718639D01*
X-14467074Y16697463D01*
X-14622932Y16706737D01*
X-14774019Y16746106D01*
X-14914582Y16814072D01*
X-15039267Y16908047D01*
X-15143324Y17024448D01*
X-15147896Y17030696D01*
X-15148041Y17030894D01*
X-15150849Y17034787D01*
X-15150862Y17034810D01*
X-15154429Y17039757D01*
X-15232011Y17175250D01*
X-15281798Y17323232D01*
X-15301894Y17478066D01*
X-15294675Y17586603D01*
X-15297697Y17626933D01*
X-15312452Y17666479D01*
X-15337640Y17700349D01*
X-15371267Y17725860D01*
X-15412002Y17741293D01*
X-15498483Y17760307D01*
X-15642249Y17823117D01*
X-15771076Y17912655D01*
X-15880063Y18025514D01*
X-15965052Y18157391D01*
X-16022806Y18303259D01*
X-16051128Y18457575D01*
X-16048937Y18614446D01*
X-16016317Y18767910D01*
X-15954514Y18912110D01*
X-15865877Y19041560D01*
X-15753780Y19151334D01*
X-15622504Y19237238D01*
X-15477034Y19296011D01*
X-15322926Y19325409D01*
X-15155397Y19324240D01*
X-15113568Y19329886D01*
X-15074967Y19346963D01*
X-15042653Y19374117D01*
X-15019183Y19409199D01*
X-15010029Y19433880D01*
X-14976338Y19559572D01*
X-14907392Y19699658D01*
X-14812550Y19823683D01*
X-14812487Y19823739D01*
X-14812472Y19823758D01*
X-14695454Y19926912D01*
X-14560628Y20005372D01*
X-14560588Y20005386D01*
X-14560476Y20005451D01*
X-14412845Y20056270D01*
X-14258155Y20077446D01*
X-14138474Y20070325D01*
X-14097511Y20073682D01*
X-14058069Y20088712D01*
X-14024375Y20114136D01*
X-13999099Y20147940D01*
X-13986259Y20179960D01*
X-13951499Y20309641D01*
X-13882553Y20449727D01*
X-13787711Y20573752D01*
X-13787648Y20573808D01*
X-13787633Y20573827D01*
X-13670615Y20676981D01*
X-13535789Y20755441D01*
X-13535749Y20755455D01*
X-13535637Y20755520D01*
X-13388006Y20806339D01*
X-13233316Y20827515D01*
X-13113635Y20820394D01*
X-13072670Y20823751D01*
X-13033228Y20838781D01*
X-12999535Y20864205D01*
X-12974259Y20898009D01*
X-12961420Y20930027D01*
X-12926659Y21059711D01*
X-12857713Y21199797D01*
X-12762871Y21323822D01*
X-12762808Y21323878D01*
X-12762793Y21323897D01*
X-12645775Y21427051D01*
X-12510949Y21505511D01*
X-12510909Y21505525D01*
X-12510797Y21505590D01*
X-12363166Y21556409D01*
X-12208476Y21577585D01*
X-12052618Y21568312D01*
X-12052618Y21568312D01*
G37*
G36*
X-4725000Y17400000D02*
X-5775000Y17400000D01*
X-5775000Y19750000D01*
X-4725000Y19750000D01*
X-4725000Y17400000D01*
X-4725000Y17400000D01*
G37*
G36*
X-4700000Y21680205D02*
X-4710618Y21664092D01*
X-4723104Y21623772D01*
X-4725000Y21600000D01*
X-4725000Y20650000D01*
X-5775000Y20650000D01*
X-5775000Y21600000D01*
X-5780939Y21641789D01*
X-5798284Y21680269D01*
X-5825663Y21712393D01*
X-5860908Y21735618D01*
X-5901228Y21748104D01*
X-5925000Y21750000D01*
X-5950000Y21750000D01*
X-5991789Y21744061D01*
X-6030269Y21726716D01*
X-6062393Y21699337D01*
X-6085618Y21664092D01*
X-6089982Y21650000D01*
X-9900000Y21650000D01*
X-9900000Y23250000D01*
X-5950000Y23250000D01*
X-5908211Y23255939D01*
X-5869731Y23273284D01*
X-5837607Y23300663D01*
X-5814382Y23335908D01*
X-5801896Y23376228D01*
X-5800000Y23400000D01*
X-5800000Y24750000D01*
X-4700000Y24750000D01*
X-4700000Y21680205D01*
X-4700000Y21680205D01*
G37*
G36*
X10078776Y22749508D02*
X10222853Y22719933D01*
X10358447Y22662935D01*
X10480386Y22580686D01*
X10584026Y22476319D01*
X10665420Y22353812D01*
X10721471Y22217822D01*
X10749834Y22074580D01*
X10749833Y22074544D01*
X10750032Y22073541D01*
X10747686Y21905545D01*
X10747460Y21904548D01*
X10747459Y21904512D01*
X10715108Y21762119D01*
X10655282Y21627748D01*
X10570498Y21507559D01*
X10463983Y21406126D01*
X10339796Y21327315D01*
X10202668Y21274126D01*
X10057819Y21248585D01*
X9910768Y21251666D01*
X9767113Y21283250D01*
X9632335Y21342134D01*
X9511553Y21426079D01*
X9409380Y21531882D01*
X9329703Y21655515D01*
X9275559Y21792268D01*
X9249007Y21936940D01*
X9251061Y22084006D01*
X9281641Y22227875D01*
X9339584Y22363066D01*
X9422682Y22484429D01*
X9527769Y22587337D01*
X9650842Y22667874D01*
X9787218Y22722973D01*
X9931697Y22750534D01*
X10078776Y22749508D01*
X10078776Y22749508D01*
G37*
G36*
X-3200000Y21750000D02*
X-4300000Y21750000D01*
X-4300000Y24750000D01*
X-3200000Y24750000D01*
X-3200000Y21750000D01*
X-3200000Y21750000D01*
G37*
M02*
