M48
;DRILL file {KiCad 4.0.7} date 03/16/20 11:51:48
;FORMAT={-:-/ absolute / metric / decimal}
FMAT,2
METRIC,TZ
T1C0.300
T2C0.400
T3C0.500
T4C0.700
T5C1.501
T6C2.499
%
G90
G05
M71
T1
X-24.75Y4.5
X-24.75Y3.5
X-24.75Y2.5
X-24.Y-3.75
X-23.5Y9.5
X-23.25Y-4.5
X-22.75Y8.5
X-22.75Y7.5
X-22.75Y6.5
X-22.75Y5.5
X-22.75Y-7.25
X-22.75Y-8.25
X-22.75Y-9.25
X-22.5Y-5.25
X-22.25Y11.5
X-22.25Y9.
X-22.25Y8.
X-22.25Y7.
X-22.25Y6.
X-22.25Y-6.75
X-22.25Y-7.75
X-22.25Y-8.75
X-21.75Y8.5
X-21.75Y7.5
X-21.75Y6.5
X-21.5Y11.5
X-21.5Y2.
X-21.25Y-5.25
X-21.Y3.75
X-20.75Y11.5
X-20.7Y6.5
X-20.25Y9.5
X-20.Y1.5
X-20.Y0.5
X-20.Y-0.5
X-20.Y-1.5
X-19.5Y1.
X-19.5Y0.
X-19.5Y-1.
X-19.25Y-3.75
X-19.25Y-5.25
X-19.Y1.5
X-19.Y0.5
X-19.Y-0.5
X-19.Y-1.5
X-18.75Y15.
X-18.5Y6.
X-18.25Y12.25
X-18.25Y11.5
X-18.Y16.25
X-18.Y2.75
X-18.Y-5.25
X-17.75Y7.
X-17.75Y0.5
X-17.75Y-0.5
X-17.75Y-1.5
X-17.75Y-3.
X-17.25Y16.
X-17.25Y13.75
X-17.25Y1.
X-17.25Y0.
X-17.25Y-1.
X-16.75Y19.
X-16.75Y17.5
X-16.75Y1.5
X-16.75Y0.5
X-16.75Y-0.5
X-16.75Y-1.5
X-16.5Y12.25
X-16.5Y11.5
X-16.5Y10.75
X-16.5Y5.
X-16.5Y3.5
X-16.5Y-3.75
X-16.5Y-6.75
X-16.5Y-7.75
X-16.5Y-8.75
X-16.Y19.
X-16.Y-5.25
X-16.Y-7.25
X-16.Y-8.25
X-16.Y-9.25
X-15.75Y16.5
X-15.75Y12.25
X-15.75Y11.5
X-15.75Y10.75
X-15.5Y3.5
X-15.5Y2.
X-15.25Y16.
X-15.235Y1.
X-15.Y13.75
X-15.Y12.25
X-15.Y11.5
X-15.Y10.75
X-15.Y5.75
X-14.75Y0.5
X-14.25Y6.
X-14.25Y0.
X-14.Y4.5
X-13.75Y16.5
X-13.75Y6.5
X-13.5Y13.75
X-13.5Y10.
X-12.75Y8.
X-12.Y8.
X-11.5Y18.25
X-11.5Y15.25
X-11.25Y16.25
X-11.25Y9.
X-10.5Y9.5
X-10.25Y18.5
X-9.5Y14.5
X-9.25Y22.75
X-9.25Y16.
X-9.Y13.
X-9.Y12.25
X-8.75Y22.25
X-8.75Y16.5
X-8.5Y13.5
X-8.25Y22.75
X-8.25Y18.5
X-8.25Y16.
X-7.75Y22.25
X-7.75Y16.5
X-7.25Y22.75
X-7.25Y16.
X-6.75Y24.25
X-6.75Y22.25
X-6.75Y16.5
X-6.25Y20.25
X-5.25Y22.5
X-5.25Y21.25
X-5.25Y19.25
X-5.25Y18.
X-5.25Y16.
X-3.75Y24.
X-3.75Y19.25
X-3.75Y16.5
X-3.Y17.75
X-3.Y13.
X-2.5Y15.75
X-1.5Y20.
X-1.5Y19.
X-1.5Y17.75
X-1.5Y16.75
X-1.Y19.5
X-1.Y17.25
X-0.503Y17.703
X-0.5Y20.
X-0.5Y19.
X-0.5Y16.75
X-0.5Y-16.75
X0.Y19.5
X0.Y17.25
X0.Y16.25
X0.5Y20.
X0.5Y19.
X0.5Y17.75
X0.5Y16.75
X1.Y19.5
X1.Y17.25
X1.5Y20.
X1.5Y19.
X1.5Y17.75
X1.5Y16.75
X3.Y15.75
X3.Y13.
X6.75Y16.5
X6.75Y15.5
X6.75Y14.5
X6.75Y11.5
X7.75Y16.5
X7.75Y15.5
X7.75Y14.5
X7.75Y11.5
X7.75Y10.75
X8.75Y16.5
X8.75Y15.5
X8.75Y14.5
X8.75Y11.5
X8.75Y10.75
X8.75Y10.
X9.75Y16.5
X9.75Y15.5
X9.75Y14.5
X9.75Y11.5
X9.75Y10.75
X9.75Y10.
X9.75Y9.25
X12.75Y16.5
X12.75Y15.5
X12.75Y14.5
X12.75Y-14.75
X12.75Y-15.75
X12.75Y-16.75
X13.75Y16.5
X13.75Y15.5
X13.75Y14.5
X13.75Y-14.75
X13.75Y-15.75
X13.75Y-16.75
X14.75Y16.5
X14.75Y15.5
X14.75Y14.5
X14.75Y-14.75
X14.75Y-15.75
X14.75Y-16.75
X15.75Y16.5
X15.75Y15.5
X15.75Y14.5
X15.75Y-14.75
X15.75Y-15.75
X15.75Y-16.75
X16.Y9.25
X16.Y8.25
X16.Y7.25
X16.Y5.25
X16.25Y0.
X16.25Y-1.
X16.5Y8.75
X16.5Y7.75
X16.5Y6.75
X16.5Y3.75
X16.75Y1.5
X16.75Y0.5
X16.75Y-0.5
X16.75Y-1.5
X17.25Y6.75
X17.25Y1.
X17.25Y0.
X17.25Y-1.
X17.75Y3.
X17.75Y1.5
X17.75Y0.5
X17.75Y-1.5
X17.846Y-0.494
X18.Y5.25
X18.5Y6.
X19.Y3.75
X19.Y1.5
X19.Y0.5
X19.Y-0.5
X19.Y-1.5
X19.25Y5.25
X19.5Y1.
X19.5Y0.
X19.5Y-1.
X20.Y1.5
X20.Y0.5
X20.Y-1.5
X20.096Y-0.494
X21.25Y5.25
X22.25Y8.75
X22.25Y7.75
X22.25Y6.75
X22.5Y5.25
X22.75Y9.25
X22.75Y8.25
X22.75Y7.25
X24.Y3.75
X24.75Y4.5
T2
X-24.75Y0.
X-24.25Y1.
X-24.25Y-1.
X-23.25Y1.5
X-23.25Y-1.5
X-22.25Y1.
X-22.25Y-1.
X-21.75Y0.
X-16.5Y-12.25
X-16.5Y-13.75
X-16.5Y-15.25
X-16.5Y-16.75
X-14.75Y-12.25
X-14.75Y-13.75
X-14.75Y-15.25
X-14.75Y-16.75
X-13.25Y-12.25
X-13.25Y-13.75
X-13.25Y-15.25
X-13.25Y-16.75
X-11.5Y-12.25
X-11.5Y-13.75
X-11.5Y-15.25
X-11.5Y-16.75
X-5.75Y-21.75
X-5.Y-20.5
X-5.Y-23.5
X-3.5Y-19.75
X-3.5Y-24.25
X-2.Y-20.5
X-2.Y-23.5
X-1.5Y23.25
X-1.25Y-22.
X-1.Y24.25
X-1.Y22.25
X0.Y24.75
X0.Y21.75
X1.Y24.25
X1.Y22.25
X1.25Y-22.
X1.5Y23.25
X2.Y-20.5
X2.Y-23.5
X3.5Y-19.75
X3.5Y-24.25
X5.Y-20.5
X5.Y-23.5
X5.75Y-22.
X21.75Y0.
X22.25Y1.
X22.25Y-1.
X23.25Y1.5
X23.25Y-1.5
X24.25Y1.006
X24.25Y-1.
X24.75Y0.
T3
X-17.5Y6.
T4
X-14.5Y17.5
X-14.225Y19.275
X-13.475Y18.25
X-13.2Y20.025
X-12.45Y19.
X-12.176Y20.775
X-11.425Y19.75
T5
X-23.25Y0.
X0.Y23.25
X23.25Y0.
T6
X-3.5Y-22.
X3.5Y-22.
T0
M30
