G04 #@! TF.FileFunction,Copper,L1,Top,Signal*
%FSLAX46Y46*%
G04 Gerber Fmt 4.6, Leading zero omitted, Abs format (unit mm)*
G04 Created by KiCad (PCBNEW 4.0.7) date 03/16/20 11:51:46*
%MOMM*%
%LPD*%
G01*
G04 APERTURE LIST*
%ADD10C,0.100000*%
%ADD11R,2.200000X1.200000*%
%ADD12R,6.400000X5.800000*%
%ADD13R,3.050000X2.750000*%
%ADD14R,4.000000X2.500000*%
%ADD15C,1.000000*%
%ADD16C,1.000000*%
%ADD17R,0.850000X0.300000*%
%ADD18R,0.300000X0.850000*%
%ADD19R,2.700000X2.700000*%
%ADD20R,0.475000X0.800000*%
%ADD21R,0.650000X0.550000*%
%ADD22R,0.750000X0.550000*%
%ADD23R,2.025000X3.900000*%
%ADD24R,0.650000X1.250000*%
%ADD25C,5.999480*%
%ADD26R,0.900000X0.800000*%
%ADD27R,0.500000X0.900000*%
%ADD28R,1.800000X2.500000*%
%ADD29R,0.450000X0.600000*%
%ADD30R,0.600000X0.450000*%
%ADD31R,3.200000X1.000000*%
%ADD32R,1.000000X3.200000*%
%ADD33R,1.700000X1.300000*%
%ADD34R,0.800000X0.475000*%
%ADD35R,0.550000X0.650000*%
%ADD36R,0.550000X0.750000*%
%ADD37R,3.900000X2.025000*%
%ADD38R,1.250000X0.650000*%
%ADD39C,4.000500*%
%ADD40R,0.900000X0.500000*%
%ADD41R,0.900000X1.700000*%
%ADD42C,0.750000*%
%ADD43O,0.850000X0.850000*%
%ADD44C,0.500000*%
%ADD45C,0.650000*%
%ADD46C,0.300000*%
%ADD47C,0.370000*%
%ADD48C,0.500000*%
%ADD49C,0.800000*%
G04 APERTURE END LIST*
D10*
D11*
X-7750000Y-16750000D03*
X-7750000Y-12190000D03*
D12*
X-14050000Y-14470000D03*
D13*
X-15725000Y-12945000D03*
X-12375000Y-15995000D03*
X-15725000Y-15995000D03*
X-12375000Y-12945000D03*
D14*
X8250000Y15500000D03*
X14350000Y15500000D03*
D15*
X-11425481Y19750208D03*
D16*
X-12175550Y20775048D02*
X-12175550Y20775048D01*
X-12450321Y19000139D02*
X-12450321Y19000139D01*
X-13200390Y20024978D02*
X-13200390Y20024978D01*
X-13475160Y18250070D02*
X-13475160Y18250070D01*
X-14225229Y19274909D02*
X-14225229Y19274909D01*
X-14500000Y17500000D02*
X-14500000Y17500000D01*
D17*
X-19200000Y14250000D03*
X-19200000Y13750000D03*
X-19200000Y13250000D03*
X-19200000Y12750000D03*
X-19200000Y12250000D03*
X-19200000Y11750000D03*
X-19200000Y11250000D03*
X-19200000Y10750000D03*
X-19200000Y10250000D03*
X-19200000Y9750000D03*
X-19200000Y9250000D03*
X-19200000Y8750000D03*
D18*
X-18500000Y8050000D03*
X-18000000Y8050000D03*
X-17500000Y8050000D03*
X-17000000Y8050000D03*
X-16500000Y8050000D03*
X-16000000Y8050000D03*
X-15500000Y8050000D03*
X-15000000Y8050000D03*
X-14500000Y8050000D03*
X-14000000Y8050000D03*
X-13500000Y8050000D03*
X-13000000Y8050000D03*
D17*
X-12300000Y8750000D03*
X-12300000Y9250000D03*
X-12300000Y9750000D03*
X-12300000Y10250000D03*
X-12300000Y10750000D03*
X-12300000Y11250000D03*
X-12300000Y11750000D03*
X-12300000Y12250000D03*
X-12300000Y12750000D03*
X-12300000Y13250000D03*
X-12300000Y13750000D03*
X-12300000Y14250000D03*
D18*
X-13000000Y14950000D03*
X-13500000Y14950000D03*
X-14000000Y14950000D03*
X-14500000Y14950000D03*
X-15000000Y14950000D03*
X-15500000Y14950000D03*
X-16000000Y14950000D03*
X-16500000Y14950000D03*
X-17000000Y14950000D03*
X-17500000Y14950000D03*
X-18000000Y14950000D03*
X-18500000Y14950000D03*
D19*
X-15750000Y11500000D03*
D20*
X-20807500Y-1360000D03*
X-20807500Y1090000D03*
X-15882500Y-1360000D03*
D21*
X-20245000Y2220000D03*
D22*
X-18920000Y2225000D03*
D23*
X-19557500Y0D03*
D24*
X-20250000Y-3475000D03*
X-18980000Y-3475000D03*
X-17710000Y-3475000D03*
X-16440000Y-3475000D03*
D22*
X-17770000Y2225000D03*
D23*
X-17132500Y0D03*
D21*
X-16445000Y2220000D03*
D20*
X-15882500Y1090000D03*
D25*
X3500000Y-22000000D03*
D26*
X-19750000Y3500000D03*
X-19750000Y5600000D03*
D27*
X-20000000Y6750000D03*
X-18500000Y6750000D03*
D28*
X-22400000Y3750000D03*
X-22400000Y7750000D03*
D29*
X-5250000Y15900000D03*
X-5250000Y18000000D03*
X-5250000Y19150000D03*
X-5250000Y21250000D03*
D30*
X15900000Y5250000D03*
X18000000Y5250000D03*
X19150000Y5250000D03*
X21250000Y5250000D03*
X-19150000Y-5250000D03*
X-21250000Y-5250000D03*
D31*
X-8000000Y16250000D03*
X-8000000Y22450000D03*
D32*
X16250000Y8000000D03*
X22450000Y8000000D03*
X-16250000Y-8000000D03*
X-22450000Y-8000000D03*
D30*
X-15900000Y-5250000D03*
X-18000000Y-5250000D03*
D33*
X-5250000Y-13250000D03*
X-5250000Y-16750000D03*
D34*
X-1360000Y20807500D03*
X1090000Y20807500D03*
X-1360000Y15882500D03*
D35*
X2220000Y20245000D03*
D36*
X2225000Y18920000D03*
D37*
X0Y19557500D03*
D38*
X-3475000Y20250000D03*
X-3475000Y18980000D03*
X-3475000Y17710000D03*
X-3475000Y16440000D03*
D36*
X2225000Y17770000D03*
D37*
X0Y17132500D03*
D35*
X2220000Y16445000D03*
D34*
X1090000Y15882500D03*
D20*
X20807500Y1385000D03*
X20807500Y-1065000D03*
X15882500Y1385000D03*
D21*
X20245000Y-2195000D03*
D22*
X18920000Y-2200000D03*
D23*
X19557500Y25000D03*
D24*
X20250000Y3500000D03*
X18980000Y3500000D03*
X17710000Y3500000D03*
X16440000Y3500000D03*
D22*
X17770000Y-2200000D03*
D23*
X17132500Y25000D03*
D21*
X16445000Y-2195000D03*
D20*
X15882500Y-1065000D03*
D25*
X-3500000Y-22000000D03*
D39*
X0Y23250000D03*
X23250000Y0D03*
X-23250000Y0D03*
D40*
X-18000000Y3500000D03*
X-18000000Y5000000D03*
X-22500000Y-3750000D03*
X-22500000Y-5250000D03*
X-24000000Y-5250000D03*
X-24000000Y-3750000D03*
X-16500000Y3500000D03*
X-16500000Y5000000D03*
X24000000Y3750000D03*
X24000000Y5250000D03*
X22500000Y3750000D03*
X22500000Y5250000D03*
D27*
X-3750000Y24000000D03*
X-5250000Y24000000D03*
X-3750000Y22500000D03*
X-5250000Y22500000D03*
D41*
X-500000Y-16750000D03*
X-3400000Y-16750000D03*
D14*
X8250000Y-15750000D03*
X14350000Y-15750000D03*
D42*
X-10000000Y-22000000D03*
X10000000Y22000000D03*
D43*
X-17500000Y6000000D03*
D44*
X-11500000Y15250000D03*
X-9000000Y13000000D03*
X-10500000Y9500000D03*
X-5250000Y18000000D03*
X-5250000Y21250000D03*
X18000000Y5250000D03*
X21250000Y5250000D03*
X-21250000Y-5250000D03*
X-20750000Y11500000D03*
X-3000000Y17750000D03*
X-11250000Y16250000D03*
X1000000Y19500000D03*
D45*
X1000000Y22250000D03*
X-1000000Y24250000D03*
X1000000Y24250000D03*
X1500000Y23250000D03*
X-1000000Y22250000D03*
X-1500000Y23250000D03*
X0Y24750000D03*
X0Y21750000D03*
D44*
X1500000Y20000000D03*
X1500000Y19000000D03*
X500000Y20000000D03*
X0Y19500000D03*
X-1000000Y19500000D03*
X-1500000Y20000000D03*
X-1500000Y19000000D03*
X-500000Y20000000D03*
X-500000Y19000000D03*
X500000Y19000000D03*
X17750000Y3000000D03*
X-9000000Y12250000D03*
X19500000Y1000000D03*
D45*
X22250000Y1000000D03*
X22250000Y-1000000D03*
X24250000Y-1000000D03*
X23250000Y-1500000D03*
X24250000Y1006189D03*
X23250000Y1500000D03*
X21750000Y0D03*
X24750000Y0D03*
D44*
X20000000Y1500000D03*
X20000000Y500000D03*
X20095743Y-493811D03*
X19500000Y-1000000D03*
X20000000Y-1500000D03*
X19000000Y-1500000D03*
X19000000Y-500000D03*
X19500000Y0D03*
X19000000Y500000D03*
X19000000Y1500000D03*
X-24750000Y4500000D03*
X-24750000Y3500000D03*
X-24750000Y2500000D03*
X-17750000Y-3000000D03*
X-11250000Y9000000D03*
X-19500000Y-1000000D03*
X-20000000Y1500000D03*
X-20000000Y500000D03*
D45*
X-22250000Y-1000000D03*
X-22250000Y1000000D03*
X-24250000Y1000000D03*
X-24250000Y-1000000D03*
X-23250000Y-1500000D03*
X-23250000Y1500000D03*
X-21750000Y0D03*
X-24750000Y0D03*
D44*
X-19500000Y1000000D03*
X-20000000Y-500000D03*
X-20000000Y-1500000D03*
X-19000000Y-1500000D03*
X-19000000Y-500000D03*
X-19500000Y0D03*
X-19000000Y500000D03*
X-19000000Y1500000D03*
X-13750000Y6500000D03*
X9750000Y10000000D03*
X8750000Y10750000D03*
X9750000Y10750000D03*
X9750000Y9250000D03*
X8750000Y10000000D03*
X7750000Y10750000D03*
X1000000Y17250000D03*
X0Y17250000D03*
X-1000000Y17250000D03*
X500000Y16750000D03*
X9750000Y11500000D03*
X6750000Y11500000D03*
X7750000Y11500000D03*
X8750000Y11500000D03*
X9750000Y14500000D03*
X8750000Y14500000D03*
X7750000Y14500000D03*
X6750000Y14500000D03*
X7750000Y15500000D03*
X8750000Y15500000D03*
X9750000Y15500000D03*
X9750000Y16500000D03*
X8750000Y16500000D03*
X7750000Y16500000D03*
X6750000Y16500000D03*
X6750000Y15500000D03*
X0Y16250000D03*
X-16750000Y-1500000D03*
X-1500000Y16750000D03*
X-17250000Y1000000D03*
X-17250000Y0D03*
X-16750000Y-500000D03*
X-16750000Y1500000D03*
X17250000Y-1000000D03*
X16250000Y-1000000D03*
X16250000Y0D03*
X17250000Y0D03*
X16750000Y500000D03*
X16750000Y-500000D03*
X16750000Y-1500000D03*
X17750000Y-1500000D03*
X17845743Y-493811D03*
X17750000Y500000D03*
X17250000Y1000000D03*
X16750000Y1500000D03*
X17750000Y1500000D03*
X1500000Y16750000D03*
X-500000Y16750000D03*
X-1500000Y17750000D03*
X-502635Y17703189D03*
X500000Y17750000D03*
X1500000Y17750000D03*
X-16750000Y500000D03*
X-17250000Y-1000000D03*
X-17750000Y-1500000D03*
X-17750000Y-500000D03*
X-17750000Y500000D03*
X-23500000Y9500000D03*
X-18000000Y2750000D03*
X-16500000Y5000000D03*
X-15000000Y13750000D03*
X-17250000Y13750000D03*
X-12750000Y8000000D03*
X-5250000Y16000000D03*
X-5250000Y19250000D03*
X17250000Y6750000D03*
X16000000Y5250000D03*
X19250000Y5250000D03*
X-14000000Y4500000D03*
X-12000000Y8000000D03*
X-14750000Y500000D03*
X-16000000Y-5250000D03*
X-18000000Y-5250000D03*
X-14250000Y0D03*
X-19250000Y-5250000D03*
X-15234998Y1000000D03*
X-22500000Y-5250000D03*
X-13750000Y16500000D03*
X-11500000Y18250000D03*
X-9500000Y14500000D03*
X-2500000Y15750000D03*
X3000000Y15750000D03*
X22500000Y5250000D03*
X-15250000Y16000000D03*
X-17250000Y16000000D03*
X-5250000Y22500000D03*
D45*
X-16500000Y-15250000D03*
X-13250000Y-15250000D03*
X-11500000Y-15250000D03*
X-16500000Y-16750000D03*
X-14750000Y-15250000D03*
X-14750000Y-16750000D03*
X-11500000Y-16750000D03*
X-13250000Y-16750000D03*
X-11500000Y-13750000D03*
X-13250000Y-13750000D03*
X-13250000Y-12250000D03*
X-11500000Y-12250000D03*
X-16500000Y-13750000D03*
X-14750000Y-13750000D03*
X-14750000Y-12250000D03*
X-16500000Y-12250000D03*
X-3500000Y-24250000D03*
X-1250000Y-22000000D03*
X-5000000Y-23500000D03*
X-2000000Y-20500000D03*
X-5750000Y-21750000D03*
X-2000000Y-23500000D03*
X-5000000Y-20500000D03*
X-3500000Y-19750000D03*
D44*
X-6750000Y24250000D03*
X-6250000Y20250000D03*
X-9250000Y22750000D03*
X-8750000Y22250000D03*
X-8250000Y22750000D03*
X-7750000Y22250000D03*
X-7250000Y22750000D03*
X-6750000Y22250000D03*
X24750000Y4500000D03*
X22750000Y9250000D03*
X22250000Y8750000D03*
X22750000Y8250000D03*
X22250000Y7750000D03*
X22750000Y7250000D03*
X22250000Y6750000D03*
X-23250000Y-4500000D03*
X-22750000Y-9250000D03*
X-22250000Y-8750000D03*
X-22750000Y-8250000D03*
X-22750000Y-7250000D03*
X-22250000Y-6750000D03*
X-22250000Y-7750000D03*
X-3750000Y16500000D03*
X-3750000Y19250000D03*
X16500000Y3750000D03*
X19000000Y3750000D03*
X-16500000Y-3750000D03*
X-19250000Y-3750000D03*
X18500000Y6000000D03*
X-3000000Y13000000D03*
X-16750000Y19000000D03*
X3000000Y13000000D03*
X15750000Y16500000D03*
X12750000Y14500000D03*
X12750000Y15500000D03*
X12750000Y16500000D03*
X13750000Y16500000D03*
X13750000Y14500000D03*
X13750000Y15500000D03*
X14750000Y15500000D03*
X14750000Y16500000D03*
X15750000Y15500000D03*
X15750000Y14500000D03*
X14750000Y14500000D03*
X-8500000Y13500000D03*
X15750000Y-16750000D03*
X14750000Y-16750000D03*
X13750000Y-16750000D03*
X12750000Y-16750000D03*
X15750000Y-15750000D03*
X15750000Y-14750000D03*
X14750000Y-15750000D03*
X14750000Y-14750000D03*
X13750000Y-15750000D03*
X13750000Y-14750000D03*
X12750000Y-15750000D03*
X12750000Y-14750000D03*
X-8250000Y18500000D03*
X-10250000Y18500000D03*
X-22250000Y11500000D03*
X-24000000Y-3750000D03*
X-16500000Y3500000D03*
X-15500000Y3500000D03*
X16000000Y9250000D03*
X16500000Y8750000D03*
X16000000Y8250000D03*
X16500000Y7750000D03*
X16000000Y7250000D03*
X16500000Y6750000D03*
X-500000Y-16750000D03*
X-9250000Y16000000D03*
X-8750000Y16500000D03*
X-8250000Y16000000D03*
X-7750000Y16500000D03*
X-7250000Y16000000D03*
X-6750000Y16500000D03*
D45*
X2000000Y-23500000D03*
X3500000Y-24250000D03*
D44*
X-16000000Y-9250000D03*
X-16500000Y-8750000D03*
X-16000000Y-8250000D03*
X-16500000Y-7750000D03*
X-16000000Y-7250000D03*
X-16500000Y-6750000D03*
X-22250000Y6000000D03*
X-22250000Y9000000D03*
X-22250000Y8000000D03*
X-22250000Y7000000D03*
X-21750000Y7500000D03*
X-15500000Y2000000D03*
D45*
X3500000Y-19750000D03*
X5000000Y-23500000D03*
X1250000Y-22000000D03*
X2000000Y-20500000D03*
X5750000Y-22000000D03*
X5000000Y-20500000D03*
D44*
X-15000000Y5750000D03*
X-22750000Y8500000D03*
X-22750000Y6500000D03*
X-21750000Y6500000D03*
X-22750000Y7500000D03*
X-21750000Y8500000D03*
X-15750000Y10750000D03*
X-15750000Y12250000D03*
X-15000000Y11500000D03*
X-16500000Y11500000D03*
X-15750000Y11500000D03*
X-16500000Y10750000D03*
X-15000000Y10750000D03*
X-15000000Y12250000D03*
X-16500000Y12250000D03*
X-21000000Y3750000D03*
X-21500000Y2000000D03*
X24000000Y3750000D03*
X-16000000Y19000000D03*
X-16750000Y17500000D03*
X-3750000Y24000000D03*
X-18000000Y16250000D03*
X-18500000Y6000000D03*
X-18750000Y15000000D03*
X-13500000Y13750000D03*
X-13500000Y10000000D03*
X-20250000Y9500000D03*
X-21500000Y11500000D03*
X-17750000Y7000000D03*
X-14250000Y6000000D03*
X-15750000Y16500000D03*
X-18250000Y11500000D03*
X-18250000Y12250000D03*
X-22750000Y5500000D03*
X-20700002Y6500000D03*
D46*
X-11500000Y13750000D02*
X-11500000Y15250000D01*
X-12300000Y13750000D02*
X-11500000Y13750000D01*
X-9250000Y13000000D02*
X-9000000Y13000000D01*
X-12300000Y11750000D02*
X-10500000Y11750000D01*
X-10500000Y11750000D02*
X-9250000Y13000000D01*
X-12300000Y9750000D02*
X-10750000Y9750000D01*
X-10750000Y9750000D02*
X-10500000Y9500000D01*
X-20500000Y11250000D02*
X-20750000Y11500000D01*
X-19200000Y11250000D02*
X-20500000Y11250000D01*
X-2500000Y19000000D02*
X-1500000Y20000000D01*
X-2500000Y18250000D02*
X-2500000Y19000000D01*
X-3000000Y17750000D02*
X-2500000Y18250000D01*
X-4400000Y17750000D02*
X-3475000Y17750000D01*
X-3000000Y17750000D02*
X-3435000Y17750000D01*
X-12300000Y13250000D02*
X-11250000Y13250000D01*
X-11250000Y13250000D02*
X-10750000Y13750000D01*
X-10750000Y13750000D02*
X-10750000Y15750000D01*
X-10750000Y15750000D02*
X-11250000Y16250000D01*
X-10250000Y17250000D02*
X-4900000Y17250000D01*
X-4900000Y17250000D02*
X-4400000Y17750000D01*
X-11250000Y16250000D02*
X-10250000Y17250000D01*
X-9000000Y12250000D02*
X-8750000Y12250000D01*
X-8750000Y12250000D02*
X-7250000Y13750000D01*
X-3750000Y14500000D02*
X3750000Y14500000D01*
X5500000Y12750000D02*
X18750000Y12750000D01*
X-7250000Y13750000D02*
X-4500000Y13750000D01*
X-4500000Y13750000D02*
X-3750000Y14500000D01*
X3750000Y14500000D02*
X5500000Y12750000D01*
X18750000Y12750000D02*
X18750000Y7250000D01*
X18750000Y7250000D02*
X17250000Y5750000D01*
X17250000Y5750000D02*
X17250000Y4750000D01*
X17250000Y4750000D02*
X17750000Y4250000D01*
X17750000Y4250000D02*
X17750000Y3500000D01*
X18250000Y2500000D02*
X19000000Y2500000D01*
X19000000Y2500000D02*
X20000000Y1500000D01*
X17750000Y3000000D02*
X18250000Y2500000D01*
X-10000000Y11250000D02*
X-9000000Y12250000D01*
X-12300000Y11250000D02*
X-10000000Y11250000D01*
X-24750000Y2500000D02*
X-24750000Y3500000D01*
X-18999999Y-2499999D02*
X-19750001Y-1749999D01*
X-19750001Y-1749999D02*
X-20000000Y-1500000D01*
X-17750000Y-3000000D02*
X-18250001Y-2499999D01*
X-18250001Y-2499999D02*
X-18999999Y-2499999D01*
X-11500000Y9250000D02*
X-11250000Y9000000D01*
X-12300000Y9250000D02*
X-11500000Y9250000D01*
X-14000000Y6750000D02*
X-13750000Y6500000D01*
X-14000000Y8050000D02*
X-14000000Y6750000D01*
X9750000Y10000000D02*
X9750000Y9250000D01*
X9750000Y10750000D02*
X9750000Y10000000D01*
X8750000Y10750000D02*
X8750000Y10000000D01*
X8750000Y11500000D02*
X8750000Y10750000D01*
X9750000Y11500000D02*
X9750000Y10750000D01*
X8250000Y-15750000D02*
X8250000Y-13250000D01*
X8250000Y-13250000D02*
X-5250000Y-13250000D01*
X-15000000Y-250000D02*
X-15250000Y0D01*
X-15250000Y0D02*
X-16750000Y1500000D01*
X14750000Y1500000D02*
X14750000Y4250000D01*
X9750000Y9250000D02*
X14750000Y4250000D01*
X7750000Y11500000D02*
X7750000Y10750000D01*
X9750000Y11500000D02*
X6750000Y11500000D01*
X-15000000Y-250000D02*
X-15000000Y-5000000D01*
X-15000000Y-5000000D02*
X-6750000Y-13250000D01*
X-6750000Y-13250000D02*
X-5250000Y-13250000D01*
X1500000Y17750000D02*
X5500000Y17750000D01*
X16750000Y1500000D02*
X14750000Y1500000D01*
X5500000Y17750000D02*
X6750000Y16500000D01*
D47*
X-18000000Y3500000D02*
X-18000000Y2415000D01*
D48*
X-18000000Y2750000D02*
X-17750000Y2500000D01*
X-23500000Y9500000D02*
X-22250000Y10750000D01*
X-22250000Y10750000D02*
X-21000000Y10750000D01*
D46*
X-19200000Y10750000D02*
X-21000000Y10750000D01*
X-18000000Y5000000D02*
X-16500000Y5000000D01*
X-15500000Y8050000D02*
X-15500000Y6250000D01*
X-16500000Y5000000D02*
X-16500000Y5250000D01*
X-16500000Y5250000D02*
X-15500000Y6250000D01*
X-15500000Y14950000D02*
X-15500000Y14250000D01*
X-15500000Y14250000D02*
X-15000000Y13750000D01*
X-17500000Y14950000D02*
X-17500000Y14000000D01*
X-17500000Y14000000D02*
X-17250000Y13750000D01*
X-13000000Y8050000D02*
X-12800000Y8050000D01*
X-12800000Y8050000D02*
X-12750000Y8000000D01*
X-12300000Y12750000D02*
X-11000000Y12750000D01*
X-11000000Y12750000D02*
X-10250000Y13500000D01*
X-10250000Y13500000D02*
X-10250000Y14750000D01*
X-10250000Y14750000D02*
X-9750000Y15250000D01*
X-9750000Y15250000D02*
X-6000000Y15250000D01*
X-6000000Y15250000D02*
X-5250000Y16000000D01*
X-12000000Y15750000D02*
X-12500000Y15250000D01*
X-12500000Y15250000D02*
X-12500000Y14450000D01*
X-12500000Y14450000D02*
X-12300000Y14250000D01*
X-12000000Y15750000D02*
X-12000000Y16500000D01*
X-12000000Y16500000D02*
X-10750000Y17750000D01*
X-10750000Y17750000D02*
X-6750000Y17750000D01*
X-6750000Y17750000D02*
X-5250000Y19250000D01*
X17250000Y6750000D02*
X18250000Y7750000D01*
X18250000Y12250000D02*
X18250000Y7750000D01*
X-12300000Y10750000D02*
X-9500000Y10750000D01*
X-9500000Y10750000D02*
X-7000000Y13250000D01*
X-7000000Y13250000D02*
X-4250000Y13250000D01*
X-4250000Y13250000D02*
X-3500000Y14000000D01*
X-3500000Y14000000D02*
X3500000Y14000000D01*
X3500000Y14000000D02*
X5250000Y12250000D01*
X5250000Y12250000D02*
X18250000Y12250000D01*
X-12300000Y12250000D02*
X-10750000Y12250000D01*
X-4000000Y15000000D02*
X4000000Y15000000D01*
X-10750000Y12250000D02*
X-8750000Y14250000D01*
X-8750000Y14250000D02*
X-4750000Y14250000D01*
X-4750000Y14250000D02*
X-4000000Y15000000D01*
X4000000Y15000000D02*
X5750000Y13250000D01*
X5750000Y13250000D02*
X19250000Y13250000D01*
X19250000Y13250000D02*
X19250000Y5250000D01*
X-14750000Y500000D02*
X-14249992Y1000008D01*
X-14249992Y1000008D02*
X-14249992Y4249992D01*
X-14249992Y4249992D02*
X-14249999Y4250001D01*
X-14249999Y4250001D02*
X-14000000Y4500000D01*
X-12300000Y8750000D02*
X-12000000Y8450000D01*
X-12000000Y8450000D02*
X-12000000Y8000000D01*
X-13749982Y3750018D02*
X-13749982Y500018D01*
X-13749982Y500018D02*
X-14250000Y0D01*
X-13250000Y4250000D02*
X-13749982Y3750018D01*
X-12500000Y6000000D02*
X-13250000Y5250000D01*
X-13250000Y5250000D02*
X-13250000Y4250000D01*
X-12300000Y10250000D02*
X-10250000Y10250000D01*
X-10250000Y10250000D02*
X-9750000Y9750000D01*
X-9750000Y9750000D02*
X-9750000Y9250000D01*
X-10500000Y8750000D02*
X-11250000Y8000000D01*
X-9750000Y9250000D02*
X-10250000Y8750000D01*
X-10250000Y8750000D02*
X-10500000Y8750000D01*
X-12500000Y6500000D02*
X-12500000Y6000000D01*
X-11250000Y8000000D02*
X-11250000Y7750000D01*
X-11250000Y7750000D02*
X-12500000Y6500000D01*
D49*
X-5250000Y-16750000D02*
X-3400000Y-16750000D01*
X-7750000Y-16750000D02*
X-5250000Y-16750000D01*
D46*
X-24000000Y-5250000D02*
X-22500000Y-5250000D01*
X-13500000Y8050000D02*
X-13500000Y7250000D01*
X-13500000Y7250000D02*
X-13000000Y6750000D01*
X-13000000Y6750000D02*
X-13000000Y6250000D01*
X-13000000Y6250000D02*
X-14000000Y5250000D01*
X-14000000Y5250000D02*
X-14500000Y5250000D01*
X-14500000Y5250000D02*
X-14750000Y5000000D01*
X-14750000Y5000000D02*
X-14750000Y1484998D01*
X-14750000Y1484998D02*
X-15234998Y1000000D01*
X-12500000Y16000000D02*
X-12500000Y19000000D01*
X-13000000Y15500000D02*
X-12500000Y16000000D01*
X-13000000Y14950000D02*
X-13000000Y15500000D01*
X-13000001Y16249999D02*
X-13000001Y17750001D01*
X-13000001Y17750001D02*
X-13500000Y18250000D01*
X-13500000Y14950000D02*
X-13500000Y15750000D01*
X-13500000Y15750000D02*
X-13000001Y16249999D01*
X-10500000Y20250000D02*
X-11000000Y20750000D01*
X-11000000Y20750000D02*
X-12250000Y20750000D01*
X-10500000Y19500000D02*
X-10500000Y20250000D01*
X-11500000Y18250000D02*
X-11500000Y18500000D01*
X-11500000Y18500000D02*
X-10500000Y19500000D01*
X-14000000Y16250000D02*
X-13750000Y16500000D01*
X-14000000Y16000000D02*
X-14000000Y16250000D01*
X-14000000Y14950000D02*
X-14000000Y16000000D01*
X-14500000Y14950000D02*
X-14500000Y16250000D01*
X-14500000Y16250000D02*
X-15500000Y17250000D01*
X-15500000Y17250000D02*
X-15500000Y18000000D01*
X-15500000Y18000000D02*
X-15250000Y18250000D01*
X-15250000Y18250000D02*
X-15250000Y19750000D01*
X-15250000Y19750000D02*
X-14750000Y20250000D01*
X-14750000Y20250000D02*
X-13500000Y20250000D01*
X-13500000Y20250000D02*
X-13250000Y20000000D01*
X-9500000Y14500000D02*
X-9250000Y14750000D01*
X-4250000Y15500000D02*
X-2750000Y15500000D01*
X-9250000Y14750000D02*
X-5000000Y14750000D01*
X-5000000Y14750000D02*
X-4250000Y15500000D01*
X-2750000Y15500000D02*
X-2500000Y15750000D01*
X23500000Y5250000D02*
X23500000Y9750000D01*
X23500000Y9750000D02*
X19500000Y13750000D01*
X6000000Y13750000D02*
X4249999Y15500001D01*
X19500000Y13750000D02*
X6000000Y13750000D01*
X4249999Y15500001D02*
X3249999Y15500001D01*
X3249999Y15500001D02*
X3000000Y15750000D01*
X24000000Y5250000D02*
X23500000Y5250000D01*
X23500000Y5250000D02*
X22500000Y5250000D01*
X-15000000Y14950000D02*
X-15000000Y15750000D01*
X-15000000Y15750000D02*
X-15250000Y16000000D01*
X-5250000Y22500000D02*
X-5250000Y24000000D01*
X-17000000Y15750000D02*
X-17250000Y16000000D01*
X-17000000Y14950000D02*
X-17000000Y15750000D01*
X-6750000Y22250000D02*
X-6750000Y24250000D01*
X-6250000Y20250000D02*
X-3861998Y20250000D01*
X-6750000Y20250000D02*
X-6250000Y20250000D01*
X-3750000Y22500000D02*
X-3750000Y20250000D01*
X-6750000Y22250000D02*
X-6750000Y20250000D01*
X23250000Y4500000D02*
X24750000Y4500000D01*
X22500000Y3750000D02*
X23250000Y4500000D01*
X20250000Y3750000D02*
X22500000Y3750000D01*
X20250000Y6750000D02*
X22250000Y6750000D01*
X20250000Y3500000D02*
X20250000Y6750000D01*
X-22500000Y-3750000D02*
X-23250000Y-4500000D01*
X-20250000Y-3750000D02*
X-22500000Y-3750000D01*
X-20250000Y-6750000D02*
X-20250000Y-3475000D01*
X-22250000Y-6750000D02*
X-20250000Y-6750000D01*
X-17750000Y18000000D02*
X-16750000Y19000000D01*
X-17750000Y17250000D02*
X-17750000Y18000000D01*
D48*
X-18250000Y17250000D02*
X-17750000Y17250000D01*
X-18750000Y16750000D02*
X-18250000Y17250000D01*
X-20500000Y14750000D02*
X-18750000Y16500000D01*
X-18750000Y16500000D02*
X-18750000Y16750000D01*
X-17250000Y16750000D02*
X-16750000Y16750000D01*
X-17250000Y16750000D02*
X-17750000Y17250000D01*
X-20500000Y13750000D02*
X-20500000Y14750000D01*
D46*
X-10000000Y18250000D02*
X-8499999Y18250001D01*
X-8499999Y18250001D02*
X-8250000Y18500000D01*
X-10250000Y18500000D02*
X-10000000Y18250000D01*
X-16750000Y16750000D02*
X-16500000Y16500000D01*
X-16500000Y16500000D02*
X-16500000Y16250000D01*
X-16500000Y16250000D02*
X-16500000Y14950000D01*
D48*
X-22250000Y12000000D02*
X-20500000Y13750000D01*
X-22250000Y12000000D02*
X-22250000Y11500000D01*
X-19750000Y4250000D02*
X-20500000Y4250000D01*
X-17250000Y4250000D02*
X-19750000Y4250000D01*
X-19750000Y4250000D02*
X-19750000Y3500000D01*
X-16500000Y3500000D02*
X-17250000Y4250000D01*
X-20750000Y4500000D02*
X-20500000Y4250000D01*
X-20750000Y5250000D02*
X-20750000Y4500000D01*
X-21000000Y5500000D02*
X-20750000Y5250000D01*
D46*
X-20500000Y13750000D02*
X-19200000Y13750000D01*
D48*
X-22250000Y6000000D02*
X-22250000Y7000000D01*
X-21750000Y5500000D02*
X-21000000Y5500000D01*
X-22250000Y6000000D02*
X-21750000Y5500000D01*
X-15500000Y3500000D02*
X-15500000Y2000000D01*
X-15500000Y5250000D02*
X-15000000Y5750000D01*
X-15500000Y3500000D02*
X-15500000Y5250000D01*
X-16500000Y3500000D02*
X-15500000Y3500000D01*
D46*
X-15000000Y8050000D02*
X-15000000Y5750000D01*
X-16500000Y14950000D02*
X-16500000Y12250000D01*
X-15000000Y8050000D02*
X-15000000Y10750000D01*
X-15000000Y10750000D02*
X-15750000Y11500000D01*
X-16500000Y12250000D02*
X-15750000Y11500000D01*
X-21000000Y2500000D02*
X-21000000Y3750000D01*
X-21500000Y2000000D02*
X-21000000Y2500000D01*
X-16750000Y17500000D02*
X-16750000Y18250000D01*
X-16750000Y18250000D02*
X-16000000Y19000000D01*
X-18500000Y15750000D02*
X-18000000Y16250000D01*
X-18500000Y14950000D02*
X-18500000Y15750000D01*
X-19200000Y14250000D02*
X-19000000Y14250000D01*
X-19000000Y14250000D02*
X-18500000Y14750000D01*
X-18500000Y14750000D02*
X-18500000Y14950000D01*
D48*
X-18500000Y6750000D02*
X-18500000Y6000000D01*
X-20250000Y9500000D02*
X-20250000Y8500000D01*
X-18500000Y6750000D02*
X-20250000Y8500000D01*
D46*
X-18500000Y14950000D02*
X-18700000Y14950000D01*
X-18700000Y14950000D02*
X-18750000Y15000000D01*
D48*
X-13500000Y10000000D02*
X-13500000Y13750000D01*
D46*
X-20000000Y9750000D02*
X-20250000Y9500000D01*
X-19200000Y9750000D02*
X-20000000Y9750000D01*
X-20000000Y6750000D02*
X-20000000Y5600000D01*
X-19249989Y11750000D02*
X-20000000Y11750000D01*
X-20000000Y11750000D02*
X-20500000Y12250000D01*
X-20500000Y12250000D02*
X-21000000Y12250000D01*
X-21000000Y12250000D02*
X-21500000Y11750000D01*
X-21500000Y11750000D02*
X-21500000Y11500000D01*
X-18000000Y8050000D02*
X-18000000Y7250000D01*
X-18000000Y7250000D02*
X-17750000Y7000000D01*
X-14500000Y8050000D02*
X-14500000Y6250000D01*
X-14500000Y6250000D02*
X-14250000Y6000000D01*
X-16000000Y14950000D02*
X-16000000Y16250000D01*
X-16000000Y16250000D02*
X-15750000Y16500000D01*
X-18250000Y11500000D02*
X-18250000Y9500000D01*
X-18250000Y9500000D02*
X-17500000Y8750000D01*
X-17500000Y8750000D02*
X-17500000Y8050000D01*
X-18250000Y14000000D02*
X-18250000Y12250000D01*
X-17000000Y8050000D02*
X-17000000Y9000000D01*
X-17000000Y9000000D02*
X-17750000Y9750000D01*
X-17750000Y9750000D02*
X-17750000Y11000000D01*
X-17750000Y11000000D02*
X-17500000Y11250000D01*
X-17500000Y11250000D02*
X-17500000Y11750000D01*
X-17500000Y11750000D02*
X-18000000Y12250000D01*
X-18000000Y12250000D02*
X-18250000Y12250000D01*
X-18000000Y14250000D02*
X-18000000Y14950000D01*
X-18250000Y14000000D02*
X-18000000Y14250000D01*
D48*
X-21000000Y9750000D02*
X-21000000Y6799998D01*
X-22750000Y4250000D02*
X-22750000Y5500000D01*
X-21000000Y6799998D02*
X-20700002Y6500000D01*
D46*
X-20500000Y10250000D02*
X-20750000Y10000000D01*
D48*
X-21000000Y9750000D02*
X-20750000Y10000000D01*
D46*
X-19200000Y10250000D02*
X-20500000Y10250000D01*
X-16750000Y6000000D02*
X-17500000Y6000000D01*
X-16750000Y6000000D02*
X-16000000Y6750000D01*
X-16000000Y8050000D02*
X-16000000Y6750000D01*
D10*
G36*
X18413737Y4194985D02*
X18403791Y4125000D01*
X18403791Y2875000D01*
X18406966Y2835189D01*
X18427877Y2767664D01*
X18466772Y2708638D01*
X18520571Y2662786D01*
X18585015Y2633737D01*
X18655000Y2623791D01*
X19305000Y2623791D01*
X19344811Y2626966D01*
X19412336Y2647877D01*
X19471362Y2686772D01*
X19482636Y2700000D01*
X19746907Y2700000D01*
X19790571Y2662786D01*
X19855015Y2633737D01*
X19925000Y2623791D01*
X20575000Y2623791D01*
X20614811Y2626966D01*
X20682336Y2647877D01*
X20741362Y2686772D01*
X20752636Y2700000D01*
X25410263Y2700000D01*
X25675000Y0D01*
X25664990Y-716888D01*
X25036960Y-5688258D01*
X23455280Y-10442963D01*
X20980195Y-14799900D01*
X18550000Y-17615309D01*
X18550000Y2000000D01*
X18548020Y2013930D01*
X18542239Y2026756D01*
X18535355Y2035355D01*
X17785355Y2785355D01*
X17774106Y2793805D01*
X17760948Y2798787D01*
X17750000Y2800000D01*
X17050000Y2800000D01*
X17050000Y4200000D01*
X18415998Y4200000D01*
X18413737Y4194985D01*
X18413737Y4194985D01*
G37*
X18413737Y4194985D02*
X18403791Y4125000D01*
X18403791Y2875000D01*
X18406966Y2835189D01*
X18427877Y2767664D01*
X18466772Y2708638D01*
X18520571Y2662786D01*
X18585015Y2633737D01*
X18655000Y2623791D01*
X19305000Y2623791D01*
X19344811Y2626966D01*
X19412336Y2647877D01*
X19471362Y2686772D01*
X19482636Y2700000D01*
X19746907Y2700000D01*
X19790571Y2662786D01*
X19855015Y2633737D01*
X19925000Y2623791D01*
X20575000Y2623791D01*
X20614811Y2626966D01*
X20682336Y2647877D01*
X20741362Y2686772D01*
X20752636Y2700000D01*
X25410263Y2700000D01*
X25675000Y0D01*
X25664990Y-716888D01*
X25036960Y-5688258D01*
X23455280Y-10442963D01*
X20980195Y-14799900D01*
X18550000Y-17615309D01*
X18550000Y2000000D01*
X18548020Y2013930D01*
X18542239Y2026756D01*
X18535355Y2035355D01*
X17785355Y2785355D01*
X17774106Y2793805D01*
X17760948Y2798787D01*
X17750000Y2800000D01*
X17050000Y2800000D01*
X17050000Y4200000D01*
X18415998Y4200000D01*
X18413737Y4194985D01*
G36*
X-19800000Y-16156112D02*
X-21581548Y-13908358D01*
X-23872011Y-9451598D01*
X-25148486Y-5000000D01*
X-24701209Y-5000000D01*
X-24701209Y-5500000D01*
X-24698034Y-5539811D01*
X-24677123Y-5607336D01*
X-24638228Y-5666362D01*
X-24584429Y-5712214D01*
X-24519985Y-5741263D01*
X-24450000Y-5751209D01*
X-23550000Y-5751209D01*
X-23510189Y-5748034D01*
X-23442664Y-5727123D01*
X-23383638Y-5688228D01*
X-23351057Y-5650000D01*
X-23149010Y-5650000D01*
X-23138228Y-5666362D01*
X-23084429Y-5712214D01*
X-23019985Y-5741263D01*
X-22950000Y-5751209D01*
X-22050000Y-5751209D01*
X-22010189Y-5748034D01*
X-21942664Y-5727123D01*
X-21883638Y-5688228D01*
X-21837786Y-5634429D01*
X-21808737Y-5569985D01*
X-21799063Y-5501912D01*
X-21798034Y-5514811D01*
X-21777123Y-5582336D01*
X-21738228Y-5641362D01*
X-21684429Y-5687214D01*
X-21619985Y-5716263D01*
X-21550000Y-5726209D01*
X-21408964Y-5726209D01*
X-21405256Y-5727829D01*
X-21309488Y-5748885D01*
X-21211455Y-5750938D01*
X-21114890Y-5733911D01*
X-21095033Y-5726209D01*
X-20950000Y-5726209D01*
X-20910189Y-5723034D01*
X-20842664Y-5702123D01*
X-20783638Y-5663228D01*
X-20737786Y-5609429D01*
X-20708737Y-5544985D01*
X-20698791Y-5475000D01*
X-20698791Y-5025000D01*
X-20701966Y-4985189D01*
X-20722877Y-4917664D01*
X-20761772Y-4858638D01*
X-20815571Y-4812786D01*
X-20880015Y-4783737D01*
X-20950000Y-4773791D01*
X-21092531Y-4773791D01*
X-21101431Y-4770050D01*
X-21197483Y-4750333D01*
X-21295536Y-4749649D01*
X-21391854Y-4768022D01*
X-21406133Y-4773791D01*
X-21550000Y-4773791D01*
X-21589811Y-4776966D01*
X-21657336Y-4797877D01*
X-21716362Y-4836772D01*
X-21762214Y-4890571D01*
X-21791263Y-4955015D01*
X-21798791Y-5007986D01*
X-21798791Y-5000000D01*
X-21801966Y-4960189D01*
X-21822877Y-4892664D01*
X-21861772Y-4833638D01*
X-21915571Y-4787786D01*
X-21980015Y-4758737D01*
X-22050000Y-4748791D01*
X-22950000Y-4748791D01*
X-22989811Y-4751966D01*
X-23057336Y-4772877D01*
X-23116362Y-4811772D01*
X-23148943Y-4850000D01*
X-23350990Y-4850000D01*
X-23361772Y-4833638D01*
X-23415571Y-4787786D01*
X-23480015Y-4758737D01*
X-23550000Y-4748791D01*
X-24450000Y-4748791D01*
X-24489811Y-4751966D01*
X-24557336Y-4772877D01*
X-24616362Y-4811772D01*
X-24662214Y-4865571D01*
X-24691263Y-4930015D01*
X-24701209Y-5000000D01*
X-25148486Y-5000000D01*
X-25253198Y-4634829D01*
X-25348492Y-3500000D01*
X-24701209Y-3500000D01*
X-24701209Y-4000000D01*
X-24698034Y-4039811D01*
X-24677123Y-4107336D01*
X-24638228Y-4166362D01*
X-24584429Y-4212214D01*
X-24519985Y-4241263D01*
X-24450000Y-4251209D01*
X-23550000Y-4251209D01*
X-23510189Y-4248034D01*
X-23442664Y-4227123D01*
X-23383638Y-4188228D01*
X-23337786Y-4134429D01*
X-23308737Y-4069985D01*
X-23298791Y-4000000D01*
X-23298791Y-3500000D01*
X-23301966Y-3460189D01*
X-23322877Y-3392664D01*
X-23361772Y-3333638D01*
X-23415571Y-3287786D01*
X-23480015Y-3258737D01*
X-23550000Y-3248791D01*
X-24450000Y-3248791D01*
X-24489811Y-3251966D01*
X-24557336Y-3272877D01*
X-24616362Y-3311772D01*
X-24662214Y-3365571D01*
X-24691263Y-3430015D01*
X-24701209Y-3500000D01*
X-25348492Y-3500000D01*
X-25386280Y-3050000D01*
X-19800000Y-3050000D01*
X-19800000Y-16156112D01*
X-19800000Y-16156112D01*
G37*
X-19800000Y-16156112D02*
X-21581548Y-13908358D01*
X-23872011Y-9451598D01*
X-25148486Y-5000000D01*
X-24701209Y-5000000D01*
X-24701209Y-5500000D01*
X-24698034Y-5539811D01*
X-24677123Y-5607336D01*
X-24638228Y-5666362D01*
X-24584429Y-5712214D01*
X-24519985Y-5741263D01*
X-24450000Y-5751209D01*
X-23550000Y-5751209D01*
X-23510189Y-5748034D01*
X-23442664Y-5727123D01*
X-23383638Y-5688228D01*
X-23351057Y-5650000D01*
X-23149010Y-5650000D01*
X-23138228Y-5666362D01*
X-23084429Y-5712214D01*
X-23019985Y-5741263D01*
X-22950000Y-5751209D01*
X-22050000Y-5751209D01*
X-22010189Y-5748034D01*
X-21942664Y-5727123D01*
X-21883638Y-5688228D01*
X-21837786Y-5634429D01*
X-21808737Y-5569985D01*
X-21799063Y-5501912D01*
X-21798034Y-5514811D01*
X-21777123Y-5582336D01*
X-21738228Y-5641362D01*
X-21684429Y-5687214D01*
X-21619985Y-5716263D01*
X-21550000Y-5726209D01*
X-21408964Y-5726209D01*
X-21405256Y-5727829D01*
X-21309488Y-5748885D01*
X-21211455Y-5750938D01*
X-21114890Y-5733911D01*
X-21095033Y-5726209D01*
X-20950000Y-5726209D01*
X-20910189Y-5723034D01*
X-20842664Y-5702123D01*
X-20783638Y-5663228D01*
X-20737786Y-5609429D01*
X-20708737Y-5544985D01*
X-20698791Y-5475000D01*
X-20698791Y-5025000D01*
X-20701966Y-4985189D01*
X-20722877Y-4917664D01*
X-20761772Y-4858638D01*
X-20815571Y-4812786D01*
X-20880015Y-4783737D01*
X-20950000Y-4773791D01*
X-21092531Y-4773791D01*
X-21101431Y-4770050D01*
X-21197483Y-4750333D01*
X-21295536Y-4749649D01*
X-21391854Y-4768022D01*
X-21406133Y-4773791D01*
X-21550000Y-4773791D01*
X-21589811Y-4776966D01*
X-21657336Y-4797877D01*
X-21716362Y-4836772D01*
X-21762214Y-4890571D01*
X-21791263Y-4955015D01*
X-21798791Y-5007986D01*
X-21798791Y-5000000D01*
X-21801966Y-4960189D01*
X-21822877Y-4892664D01*
X-21861772Y-4833638D01*
X-21915571Y-4787786D01*
X-21980015Y-4758737D01*
X-22050000Y-4748791D01*
X-22950000Y-4748791D01*
X-22989811Y-4751966D01*
X-23057336Y-4772877D01*
X-23116362Y-4811772D01*
X-23148943Y-4850000D01*
X-23350990Y-4850000D01*
X-23361772Y-4833638D01*
X-23415571Y-4787786D01*
X-23480015Y-4758737D01*
X-23550000Y-4748791D01*
X-24450000Y-4748791D01*
X-24489811Y-4751966D01*
X-24557336Y-4772877D01*
X-24616362Y-4811772D01*
X-24662214Y-4865571D01*
X-24691263Y-4930015D01*
X-24701209Y-5000000D01*
X-25148486Y-5000000D01*
X-25253198Y-4634829D01*
X-25348492Y-3500000D01*
X-24701209Y-3500000D01*
X-24701209Y-4000000D01*
X-24698034Y-4039811D01*
X-24677123Y-4107336D01*
X-24638228Y-4166362D01*
X-24584429Y-4212214D01*
X-24519985Y-4241263D01*
X-24450000Y-4251209D01*
X-23550000Y-4251209D01*
X-23510189Y-4248034D01*
X-23442664Y-4227123D01*
X-23383638Y-4188228D01*
X-23337786Y-4134429D01*
X-23308737Y-4069985D01*
X-23298791Y-4000000D01*
X-23298791Y-3500000D01*
X-23301966Y-3460189D01*
X-23322877Y-3392664D01*
X-23361772Y-3333638D01*
X-23415571Y-3287786D01*
X-23480015Y-3258737D01*
X-23550000Y-3248791D01*
X-24450000Y-3248791D01*
X-24489811Y-3251966D01*
X-24557336Y-3272877D01*
X-24616362Y-3311772D01*
X-24662214Y-3365571D01*
X-24691263Y-3430015D01*
X-24701209Y-3500000D01*
X-25348492Y-3500000D01*
X-25386280Y-3050000D01*
X-19800000Y-3050000D01*
X-19800000Y-16156112D01*
G36*
X-14035355Y-11535355D02*
X-14024106Y-11543805D01*
X-14010948Y-11548787D01*
X-14000000Y-11550000D01*
X-10800000Y-11550000D01*
X-10800000Y-14500000D01*
X-10798020Y-14513930D01*
X-10792239Y-14526756D01*
X-10785355Y-14535355D01*
X-9101209Y-16219501D01*
X-9101209Y-17350000D01*
X-9098034Y-17389811D01*
X-9077123Y-17457336D01*
X-9038228Y-17516362D01*
X-8984429Y-17562214D01*
X-8919985Y-17591263D01*
X-8850000Y-17601209D01*
X-7719501Y-17601209D01*
X-7035355Y-18285355D01*
X-7024106Y-18293805D01*
X-7010948Y-18298787D01*
X-7000000Y-18300000D01*
X-199839Y-18300000D01*
X-176157Y-25641550D01*
X-537697Y-25669369D01*
X-5513330Y-25076061D01*
X-10278961Y-23527613D01*
X-12891944Y-22067266D01*
X-10801052Y-22067266D01*
X-10772730Y-22221577D01*
X-10714976Y-22367448D01*
X-10629988Y-22499323D01*
X-10521005Y-22612179D01*
X-10392176Y-22701717D01*
X-10248410Y-22764527D01*
X-10095182Y-22798216D01*
X-9938328Y-22801502D01*
X-9783823Y-22774258D01*
X-9637553Y-22717524D01*
X-9505088Y-22633459D01*
X-9391474Y-22525266D01*
X-9301038Y-22397066D01*
X-9237226Y-22253741D01*
X-9202468Y-22100752D01*
X-9199966Y-21921556D01*
X-9230439Y-21767656D01*
X-9290224Y-21622605D01*
X-9377045Y-21491930D01*
X-9487593Y-21380607D01*
X-9617659Y-21292876D01*
X-9762289Y-21232079D01*
X-9915973Y-21200533D01*
X-10072857Y-21199437D01*
X-10226966Y-21228835D01*
X-10372430Y-21287607D01*
X-10503709Y-21373513D01*
X-10615801Y-21483282D01*
X-10704438Y-21612732D01*
X-10766242Y-21756934D01*
X-10798861Y-21910393D01*
X-10801052Y-22067266D01*
X-12891944Y-22067266D01*
X-14653071Y-21083006D01*
X-18469049Y-17835354D01*
X-19450000Y-16597702D01*
X-19450000Y-10050000D01*
X-15520710Y-10050000D01*
X-14035355Y-11535355D01*
X-14035355Y-11535355D01*
G37*
X-14035355Y-11535355D02*
X-14024106Y-11543805D01*
X-14010948Y-11548787D01*
X-14000000Y-11550000D01*
X-10800000Y-11550000D01*
X-10800000Y-14500000D01*
X-10798020Y-14513930D01*
X-10792239Y-14526756D01*
X-10785355Y-14535355D01*
X-9101209Y-16219501D01*
X-9101209Y-17350000D01*
X-9098034Y-17389811D01*
X-9077123Y-17457336D01*
X-9038228Y-17516362D01*
X-8984429Y-17562214D01*
X-8919985Y-17591263D01*
X-8850000Y-17601209D01*
X-7719501Y-17601209D01*
X-7035355Y-18285355D01*
X-7024106Y-18293805D01*
X-7010948Y-18298787D01*
X-7000000Y-18300000D01*
X-199839Y-18300000D01*
X-176157Y-25641550D01*
X-537697Y-25669369D01*
X-5513330Y-25076061D01*
X-10278961Y-23527613D01*
X-12891944Y-22067266D01*
X-10801052Y-22067266D01*
X-10772730Y-22221577D01*
X-10714976Y-22367448D01*
X-10629988Y-22499323D01*
X-10521005Y-22612179D01*
X-10392176Y-22701717D01*
X-10248410Y-22764527D01*
X-10095182Y-22798216D01*
X-9938328Y-22801502D01*
X-9783823Y-22774258D01*
X-9637553Y-22717524D01*
X-9505088Y-22633459D01*
X-9391474Y-22525266D01*
X-9301038Y-22397066D01*
X-9237226Y-22253741D01*
X-9202468Y-22100752D01*
X-9199966Y-21921556D01*
X-9230439Y-21767656D01*
X-9290224Y-21622605D01*
X-9377045Y-21491930D01*
X-9487593Y-21380607D01*
X-9617659Y-21292876D01*
X-9762289Y-21232079D01*
X-9915973Y-21200533D01*
X-10072857Y-21199437D01*
X-10226966Y-21228835D01*
X-10372430Y-21287607D01*
X-10503709Y-21373513D01*
X-10615801Y-21483282D01*
X-10704438Y-21612732D01*
X-10766242Y-21756934D01*
X-10798861Y-21910393D01*
X-10801052Y-22067266D01*
X-12891944Y-22067266D01*
X-14653071Y-21083006D01*
X-18469049Y-17835354D01*
X-19450000Y-16597702D01*
X-19450000Y-10050000D01*
X-15520710Y-10050000D01*
X-14035355Y-11535355D01*
G36*
X-16000000Y2005012D02*
X-16000657Y1957959D01*
X-15982956Y1861515D01*
X-15946860Y1770345D01*
X-15893742Y1687924D01*
X-15825628Y1617389D01*
X-15800000Y1599577D01*
X-15800000Y750000D01*
X-15798020Y736070D01*
X-15792239Y723244D01*
X-15785355Y714645D01*
X-14785355Y-285355D01*
X-14774106Y-293805D01*
X-14760948Y-298787D01*
X-14750000Y-300000D01*
X-14651525Y-300000D01*
X-14643742Y-312076D01*
X-14575628Y-382611D01*
X-14495110Y-438573D01*
X-14405256Y-477829D01*
X-14309488Y-498885D01*
X-14211455Y-500938D01*
X-14114890Y-483911D01*
X-14023471Y-448452D01*
X-13940680Y-395912D01*
X-13869671Y-328291D01*
X-13849714Y-300000D01*
X-12875630Y-300000D01*
X-12738639Y-2180369D01*
X-12736715Y-2191545D01*
X-12734951Y-2202725D01*
X-12734500Y-2204411D01*
X-12098126Y-4519993D01*
X-12716465Y-4876727D01*
X-12722740Y-4881216D01*
X-12725767Y-4882933D01*
X-12728831Y-4885574D01*
X-12736306Y-4890922D01*
X-12741725Y-4896689D01*
X-12744245Y-4898861D01*
X-12746627Y-4901905D01*
X-12753012Y-4908700D01*
X-12757264Y-4915500D01*
X-12759278Y-4918074D01*
X-12760995Y-4921466D01*
X-12765946Y-4929385D01*
X-12768800Y-4936892D01*
X-12770293Y-4939842D01*
X-12771329Y-4943544D01*
X-12774616Y-4952188D01*
X-12775946Y-4960032D01*
X-12776870Y-4963334D01*
X-12777178Y-4967306D01*
X-12778693Y-4976241D01*
X-12778478Y-4984034D01*
X-12778759Y-4987657D01*
X-12778262Y-4991852D01*
X-12778019Y-5000627D01*
X-12776347Y-5007999D01*
X-12775886Y-5011883D01*
X-12774485Y-5016206D01*
X-12772622Y-5024418D01*
X-12769678Y-5031035D01*
X-12768364Y-5035091D01*
X-12767656Y-5036685D01*
X-12208405Y-6271849D01*
X-12204235Y-6279084D01*
X-12200519Y-6286563D01*
X-12199584Y-6288036D01*
X-10761051Y-8518745D01*
X-10755632Y-8525577D01*
X-10750600Y-8532706D01*
X-10748063Y-8535120D01*
X-10745891Y-8537859D01*
X-10739249Y-8543508D01*
X-10732928Y-8549524D01*
X-10729973Y-8551398D01*
X-10727308Y-8553665D01*
X-10719698Y-8557915D01*
X-10712327Y-8562590D01*
X-10709061Y-8563856D01*
X-10706009Y-8565560D01*
X-10697715Y-8568252D01*
X-10689579Y-8571405D01*
X-10686134Y-8572011D01*
X-10682805Y-8573092D01*
X-10674134Y-8574124D01*
X-10665553Y-8575634D01*
X-10662061Y-8575560D01*
X-10658580Y-8575974D01*
X-10649866Y-8575301D01*
X-10641163Y-8575116D01*
X-10637752Y-8574365D01*
X-10634257Y-8574095D01*
X-10625840Y-8571742D01*
X-10617338Y-8569870D01*
X-10614137Y-8568470D01*
X-10610762Y-8567527D01*
X-10602966Y-8563586D01*
X-10594985Y-8560097D01*
X-10593468Y-8559235D01*
X-9983960Y-8207094D01*
X-9865179Y-8350677D01*
X-9860956Y-8354870D01*
X-9857170Y-8359471D01*
X-9855926Y-8360695D01*
X-8063367Y-10100624D01*
X-8054508Y-10107683D01*
X-8045745Y-10114867D01*
X-8044287Y-10115826D01*
X-5947914Y-11474443D01*
X-5937837Y-11479654D01*
X-5927861Y-11484991D01*
X-5926244Y-11485649D01*
X-3605905Y-12411202D01*
X-3595033Y-12414349D01*
X-3584185Y-12417655D01*
X-3582472Y-12417986D01*
X-1126550Y-12875223D01*
X-1115290Y-12876197D01*
X-1103990Y-12877335D01*
X-1102245Y-12877327D01*
X-50000Y-12865324D01*
X-50000Y-15500000D01*
X-48020Y-15513930D01*
X-42239Y-15526756D01*
X-33112Y-15537464D01*
X-21364Y-15545206D01*
X-7924Y-15549368D01*
X0Y-15550000D01*
X450000Y-15550000D01*
X450000Y-17950000D01*
X-6979290Y-17950000D01*
X-7328081Y-17601209D01*
X-6650000Y-17601209D01*
X-6610189Y-17598034D01*
X-6542664Y-17577123D01*
X-6483638Y-17538228D01*
X-6437786Y-17484429D01*
X-6408737Y-17419985D01*
X-6405897Y-17400000D01*
X-6351209Y-17400000D01*
X-6348034Y-17439811D01*
X-6327123Y-17507336D01*
X-6288228Y-17566362D01*
X-6234429Y-17612214D01*
X-6169985Y-17641263D01*
X-6100000Y-17651209D01*
X-4400000Y-17651209D01*
X-4360189Y-17648034D01*
X-4292664Y-17627123D01*
X-4233638Y-17588228D01*
X-4187786Y-17534429D01*
X-4158737Y-17469985D01*
X-4148791Y-17400000D01*
X-4101209Y-17400000D01*
X-4101209Y-17600000D01*
X-4098034Y-17639811D01*
X-4077123Y-17707336D01*
X-4038228Y-17766362D01*
X-3984429Y-17812214D01*
X-3919985Y-17841263D01*
X-3850000Y-17851209D01*
X-2950000Y-17851209D01*
X-2910189Y-17848034D01*
X-2842664Y-17827123D01*
X-2783638Y-17788228D01*
X-2737786Y-17734429D01*
X-2708737Y-17669985D01*
X-2698791Y-17600000D01*
X-2698791Y-15900000D01*
X-1201209Y-15900000D01*
X-1201209Y-17600000D01*
X-1198034Y-17639811D01*
X-1177123Y-17707336D01*
X-1138228Y-17766362D01*
X-1084429Y-17812214D01*
X-1019985Y-17841263D01*
X-950000Y-17851209D01*
X-50000Y-17851209D01*
X-10189Y-17848034D01*
X57336Y-17827123D01*
X116362Y-17788228D01*
X162214Y-17734429D01*
X191263Y-17669985D01*
X201209Y-17600000D01*
X201209Y-15900000D01*
X198034Y-15860189D01*
X177123Y-15792664D01*
X138228Y-15733638D01*
X84429Y-15687786D01*
X19985Y-15658737D01*
X-50000Y-15648791D01*
X-950000Y-15648791D01*
X-989811Y-15651966D01*
X-1057336Y-15672877D01*
X-1116362Y-15711772D01*
X-1162214Y-15765571D01*
X-1191263Y-15830015D01*
X-1201209Y-15900000D01*
X-2698791Y-15900000D01*
X-2701966Y-15860189D01*
X-2722877Y-15792664D01*
X-2761772Y-15733638D01*
X-2815571Y-15687786D01*
X-2880015Y-15658737D01*
X-2950000Y-15648791D01*
X-3850000Y-15648791D01*
X-3889811Y-15651966D01*
X-3957336Y-15672877D01*
X-4016362Y-15711772D01*
X-4062214Y-15765571D01*
X-4091263Y-15830015D01*
X-4101209Y-15900000D01*
X-4101209Y-16100000D01*
X-4148791Y-16100000D01*
X-4151966Y-16060189D01*
X-4172877Y-15992664D01*
X-4211772Y-15933638D01*
X-4265571Y-15887786D01*
X-4330015Y-15858737D01*
X-4400000Y-15848791D01*
X-6100000Y-15848791D01*
X-6139811Y-15851966D01*
X-6207336Y-15872877D01*
X-6266362Y-15911772D01*
X-6312214Y-15965571D01*
X-6341263Y-16030015D01*
X-6351209Y-16100000D01*
X-6405121Y-16100000D01*
X-6422877Y-16042664D01*
X-6461772Y-15983638D01*
X-6515571Y-15937786D01*
X-6580015Y-15908737D01*
X-6650000Y-15898791D01*
X-8850000Y-15898791D01*
X-8889811Y-15901966D01*
X-8957336Y-15922877D01*
X-8986919Y-15942371D01*
X-10450000Y-14479290D01*
X-10450000Y-11250000D01*
X-10451980Y-11236070D01*
X-10457761Y-11223244D01*
X-10466888Y-11212536D01*
X-10478636Y-11204794D01*
X-10492076Y-11200632D01*
X-10500000Y-11200000D01*
X-13979290Y-11200000D01*
X-15450000Y-9729290D01*
X-15450000Y-5674010D01*
X-15433638Y-5663228D01*
X-15387786Y-5609429D01*
X-15358737Y-5544985D01*
X-15348791Y-5475000D01*
X-15348791Y-5025000D01*
X-15351966Y-4985189D01*
X-15372877Y-4917664D01*
X-15411772Y-4858638D01*
X-15450000Y-4826057D01*
X-15450000Y-2500000D01*
X-15451980Y-2486070D01*
X-15457761Y-2473244D01*
X-15466888Y-2462536D01*
X-15478636Y-2454794D01*
X-15492076Y-2450632D01*
X-15500000Y-2450000D01*
X-17729290Y-2450000D01*
X-18200000Y-1979290D01*
X-18200000Y2450000D01*
X-16000000Y2450000D01*
X-16000000Y2005012D01*
X-16000000Y2005012D01*
G37*
X-16000000Y2005012D02*
X-16000657Y1957959D01*
X-15982956Y1861515D01*
X-15946860Y1770345D01*
X-15893742Y1687924D01*
X-15825628Y1617389D01*
X-15800000Y1599577D01*
X-15800000Y750000D01*
X-15798020Y736070D01*
X-15792239Y723244D01*
X-15785355Y714645D01*
X-14785355Y-285355D01*
X-14774106Y-293805D01*
X-14760948Y-298787D01*
X-14750000Y-300000D01*
X-14651525Y-300000D01*
X-14643742Y-312076D01*
X-14575628Y-382611D01*
X-14495110Y-438573D01*
X-14405256Y-477829D01*
X-14309488Y-498885D01*
X-14211455Y-500938D01*
X-14114890Y-483911D01*
X-14023471Y-448452D01*
X-13940680Y-395912D01*
X-13869671Y-328291D01*
X-13849714Y-300000D01*
X-12875630Y-300000D01*
X-12738639Y-2180369D01*
X-12736715Y-2191545D01*
X-12734951Y-2202725D01*
X-12734500Y-2204411D01*
X-12098126Y-4519993D01*
X-12716465Y-4876727D01*
X-12722740Y-4881216D01*
X-12725767Y-4882933D01*
X-12728831Y-4885574D01*
X-12736306Y-4890922D01*
X-12741725Y-4896689D01*
X-12744245Y-4898861D01*
X-12746627Y-4901905D01*
X-12753012Y-4908700D01*
X-12757264Y-4915500D01*
X-12759278Y-4918074D01*
X-12760995Y-4921466D01*
X-12765946Y-4929385D01*
X-12768800Y-4936892D01*
X-12770293Y-4939842D01*
X-12771329Y-4943544D01*
X-12774616Y-4952188D01*
X-12775946Y-4960032D01*
X-12776870Y-4963334D01*
X-12777178Y-4967306D01*
X-12778693Y-4976241D01*
X-12778478Y-4984034D01*
X-12778759Y-4987657D01*
X-12778262Y-4991852D01*
X-12778019Y-5000627D01*
X-12776347Y-5007999D01*
X-12775886Y-5011883D01*
X-12774485Y-5016206D01*
X-12772622Y-5024418D01*
X-12769678Y-5031035D01*
X-12768364Y-5035091D01*
X-12767656Y-5036685D01*
X-12208405Y-6271849D01*
X-12204235Y-6279084D01*
X-12200519Y-6286563D01*
X-12199584Y-6288036D01*
X-10761051Y-8518745D01*
X-10755632Y-8525577D01*
X-10750600Y-8532706D01*
X-10748063Y-8535120D01*
X-10745891Y-8537859D01*
X-10739249Y-8543508D01*
X-10732928Y-8549524D01*
X-10729973Y-8551398D01*
X-10727308Y-8553665D01*
X-10719698Y-8557915D01*
X-10712327Y-8562590D01*
X-10709061Y-8563856D01*
X-10706009Y-8565560D01*
X-10697715Y-8568252D01*
X-10689579Y-8571405D01*
X-10686134Y-8572011D01*
X-10682805Y-8573092D01*
X-10674134Y-8574124D01*
X-10665553Y-8575634D01*
X-10662061Y-8575560D01*
X-10658580Y-8575974D01*
X-10649866Y-8575301D01*
X-10641163Y-8575116D01*
X-10637752Y-8574365D01*
X-10634257Y-8574095D01*
X-10625840Y-8571742D01*
X-10617338Y-8569870D01*
X-10614137Y-8568470D01*
X-10610762Y-8567527D01*
X-10602966Y-8563586D01*
X-10594985Y-8560097D01*
X-10593468Y-8559235D01*
X-9983960Y-8207094D01*
X-9865179Y-8350677D01*
X-9860956Y-8354870D01*
X-9857170Y-8359471D01*
X-9855926Y-8360695D01*
X-8063367Y-10100624D01*
X-8054508Y-10107683D01*
X-8045745Y-10114867D01*
X-8044287Y-10115826D01*
X-5947914Y-11474443D01*
X-5937837Y-11479654D01*
X-5927861Y-11484991D01*
X-5926244Y-11485649D01*
X-3605905Y-12411202D01*
X-3595033Y-12414349D01*
X-3584185Y-12417655D01*
X-3582472Y-12417986D01*
X-1126550Y-12875223D01*
X-1115290Y-12876197D01*
X-1103990Y-12877335D01*
X-1102245Y-12877327D01*
X-50000Y-12865324D01*
X-50000Y-15500000D01*
X-48020Y-15513930D01*
X-42239Y-15526756D01*
X-33112Y-15537464D01*
X-21364Y-15545206D01*
X-7924Y-15549368D01*
X0Y-15550000D01*
X450000Y-15550000D01*
X450000Y-17950000D01*
X-6979290Y-17950000D01*
X-7328081Y-17601209D01*
X-6650000Y-17601209D01*
X-6610189Y-17598034D01*
X-6542664Y-17577123D01*
X-6483638Y-17538228D01*
X-6437786Y-17484429D01*
X-6408737Y-17419985D01*
X-6405897Y-17400000D01*
X-6351209Y-17400000D01*
X-6348034Y-17439811D01*
X-6327123Y-17507336D01*
X-6288228Y-17566362D01*
X-6234429Y-17612214D01*
X-6169985Y-17641263D01*
X-6100000Y-17651209D01*
X-4400000Y-17651209D01*
X-4360189Y-17648034D01*
X-4292664Y-17627123D01*
X-4233638Y-17588228D01*
X-4187786Y-17534429D01*
X-4158737Y-17469985D01*
X-4148791Y-17400000D01*
X-4101209Y-17400000D01*
X-4101209Y-17600000D01*
X-4098034Y-17639811D01*
X-4077123Y-17707336D01*
X-4038228Y-17766362D01*
X-3984429Y-17812214D01*
X-3919985Y-17841263D01*
X-3850000Y-17851209D01*
X-2950000Y-17851209D01*
X-2910189Y-17848034D01*
X-2842664Y-17827123D01*
X-2783638Y-17788228D01*
X-2737786Y-17734429D01*
X-2708737Y-17669985D01*
X-2698791Y-17600000D01*
X-2698791Y-15900000D01*
X-1201209Y-15900000D01*
X-1201209Y-17600000D01*
X-1198034Y-17639811D01*
X-1177123Y-17707336D01*
X-1138228Y-17766362D01*
X-1084429Y-17812214D01*
X-1019985Y-17841263D01*
X-950000Y-17851209D01*
X-50000Y-17851209D01*
X-10189Y-17848034D01*
X57336Y-17827123D01*
X116362Y-17788228D01*
X162214Y-17734429D01*
X191263Y-17669985D01*
X201209Y-17600000D01*
X201209Y-15900000D01*
X198034Y-15860189D01*
X177123Y-15792664D01*
X138228Y-15733638D01*
X84429Y-15687786D01*
X19985Y-15658737D01*
X-50000Y-15648791D01*
X-950000Y-15648791D01*
X-989811Y-15651966D01*
X-1057336Y-15672877D01*
X-1116362Y-15711772D01*
X-1162214Y-15765571D01*
X-1191263Y-15830015D01*
X-1201209Y-15900000D01*
X-2698791Y-15900000D01*
X-2701966Y-15860189D01*
X-2722877Y-15792664D01*
X-2761772Y-15733638D01*
X-2815571Y-15687786D01*
X-2880015Y-15658737D01*
X-2950000Y-15648791D01*
X-3850000Y-15648791D01*
X-3889811Y-15651966D01*
X-3957336Y-15672877D01*
X-4016362Y-15711772D01*
X-4062214Y-15765571D01*
X-4091263Y-15830015D01*
X-4101209Y-15900000D01*
X-4101209Y-16100000D01*
X-4148791Y-16100000D01*
X-4151966Y-16060189D01*
X-4172877Y-15992664D01*
X-4211772Y-15933638D01*
X-4265571Y-15887786D01*
X-4330015Y-15858737D01*
X-4400000Y-15848791D01*
X-6100000Y-15848791D01*
X-6139811Y-15851966D01*
X-6207336Y-15872877D01*
X-6266362Y-15911772D01*
X-6312214Y-15965571D01*
X-6341263Y-16030015D01*
X-6351209Y-16100000D01*
X-6405121Y-16100000D01*
X-6422877Y-16042664D01*
X-6461772Y-15983638D01*
X-6515571Y-15937786D01*
X-6580015Y-15908737D01*
X-6650000Y-15898791D01*
X-8850000Y-15898791D01*
X-8889811Y-15901966D01*
X-8957336Y-15922877D01*
X-8986919Y-15942371D01*
X-10450000Y-14479290D01*
X-10450000Y-11250000D01*
X-10451980Y-11236070D01*
X-10457761Y-11223244D01*
X-10466888Y-11212536D01*
X-10478636Y-11204794D01*
X-10492076Y-11200632D01*
X-10500000Y-11200000D01*
X-13979290Y-11200000D01*
X-15450000Y-9729290D01*
X-15450000Y-5674010D01*
X-15433638Y-5663228D01*
X-15387786Y-5609429D01*
X-15358737Y-5544985D01*
X-15348791Y-5475000D01*
X-15348791Y-5025000D01*
X-15351966Y-4985189D01*
X-15372877Y-4917664D01*
X-15411772Y-4858638D01*
X-15450000Y-4826057D01*
X-15450000Y-2500000D01*
X-15451980Y-2486070D01*
X-15457761Y-2473244D01*
X-15466888Y-2462536D01*
X-15478636Y-2454794D01*
X-15492076Y-2450632D01*
X-15500000Y-2450000D01*
X-17729290Y-2450000D01*
X-18200000Y-1979290D01*
X-18200000Y2450000D01*
X-16000000Y2450000D01*
X-16000000Y2005012D01*
G36*
X-15800000Y-9700000D02*
X-19450000Y-9700000D01*
X-19450000Y-5800000D01*
X-15800000Y-5800000D01*
X-15800000Y-9700000D01*
X-15800000Y-9700000D01*
G37*
X-15800000Y-9700000D02*
X-19450000Y-9700000D01*
X-19450000Y-5800000D01*
X-15800000Y-5800000D01*
X-15800000Y-9700000D01*
G36*
X15450000Y6979290D02*
X15450000Y5674010D01*
X15433638Y5663228D01*
X15387786Y5609429D01*
X15358737Y5544985D01*
X15348791Y5475000D01*
X15348791Y5025000D01*
X15351966Y4985189D01*
X15372877Y4917664D01*
X15411772Y4858638D01*
X15450000Y4826057D01*
X15450000Y2500000D01*
X15451980Y2486070D01*
X15457761Y2473244D01*
X15466888Y2462536D01*
X15478636Y2454794D01*
X15492076Y2450632D01*
X15500000Y2450000D01*
X17479290Y2450000D01*
X18200000Y1729290D01*
X18200000Y-13700000D01*
X11750000Y-13700000D01*
X11736070Y-13701980D01*
X11723244Y-13707761D01*
X11712536Y-13716888D01*
X11704794Y-13728636D01*
X11700632Y-13742076D01*
X11700000Y-13750000D01*
X11700000Y-17950000D01*
X550000Y-17950000D01*
X550000Y-15500000D01*
X548020Y-15486070D01*
X542239Y-15473244D01*
X533112Y-15462536D01*
X521364Y-15454794D01*
X507924Y-15450632D01*
X500000Y-15450000D01*
X50000Y-15450000D01*
X50000Y-12864183D01*
X1395716Y-12848832D01*
X1406992Y-12847596D01*
X1418256Y-12846521D01*
X1419965Y-12846174D01*
X1419967Y-12846174D01*
X1419969Y-12846173D01*
X3864820Y-12333031D01*
X3875585Y-12329646D01*
X3886482Y-12326387D01*
X3888092Y-12325714D01*
X6186713Y-11347470D01*
X6196623Y-11342055D01*
X6206672Y-11336745D01*
X6208121Y-11335772D01*
X8272956Y-9929687D01*
X8281655Y-9922425D01*
X8290452Y-9915289D01*
X8291684Y-9914054D01*
X9976460Y-8202390D01*
X10593468Y-8558864D01*
X10600890Y-8562233D01*
X10604144Y-8564139D01*
X10608168Y-8565537D01*
X10615682Y-8568948D01*
X10622793Y-8570618D01*
X10627188Y-8572145D01*
X10632390Y-8572872D01*
X10639432Y-8574526D01*
X10645837Y-8574752D01*
X10651348Y-8575522D01*
X10657621Y-8575167D01*
X10663812Y-8575385D01*
X10669224Y-8574510D01*
X10675706Y-8574143D01*
X10682810Y-8572313D01*
X10687895Y-8571491D01*
X10692174Y-8569901D01*
X10699330Y-8568058D01*
X10706845Y-8564450D01*
X10710763Y-8562995D01*
X10713916Y-8561057D01*
X10721323Y-8557501D01*
X10728753Y-8551934D01*
X10731546Y-8550217D01*
X10733676Y-8548245D01*
X10740847Y-8542873D01*
X10747612Y-8535349D01*
X10749450Y-8533648D01*
X10750753Y-8531855D01*
X10757158Y-8524732D01*
X10758183Y-8523319D01*
X11546439Y-7420594D01*
X11550609Y-7413359D01*
X11555217Y-7406398D01*
X11556023Y-7404850D01*
X12765275Y-5041947D01*
X12768439Y-5033914D01*
X12772061Y-5026070D01*
X12772904Y-5022579D01*
X12774216Y-5019249D01*
X12775759Y-5010763D01*
X12777789Y-5002357D01*
X12777938Y-4998772D01*
X12778579Y-4995246D01*
X12778444Y-4986616D01*
X12778803Y-4977983D01*
X12778253Y-4974439D01*
X12778197Y-4970853D01*
X12776388Y-4962414D01*
X12775063Y-4953875D01*
X12773833Y-4950500D01*
X12773083Y-4947000D01*
X12769673Y-4939081D01*
X12766712Y-4930953D01*
X12764852Y-4927884D01*
X12763435Y-4924593D01*
X12758548Y-4917482D01*
X12754068Y-4910090D01*
X12751647Y-4907440D01*
X12749617Y-4904487D01*
X12743431Y-4898449D01*
X12737611Y-4892081D01*
X12734730Y-4889958D01*
X12732159Y-4887449D01*
X12724925Y-4882733D01*
X12717971Y-4877609D01*
X12716465Y-4876727D01*
X12106599Y-4524881D01*
X12161472Y-4377163D01*
X12162973Y-4371471D01*
X12165042Y-4365965D01*
X12165481Y-4364276D01*
X12777840Y-1942328D01*
X12779529Y-1931147D01*
X12781381Y-1919947D01*
X12781484Y-1918205D01*
X12911756Y576560D01*
X12911240Y587877D01*
X12910882Y599201D01*
X12910645Y600930D01*
X12553866Y3073485D01*
X12551158Y3084499D01*
X12548611Y3095526D01*
X12548042Y3097176D01*
X11717803Y5453343D01*
X11713025Y5463583D01*
X11708367Y5473944D01*
X11707489Y5475452D01*
X10435413Y7625485D01*
X10428712Y7634637D01*
X10422155Y7643860D01*
X10421001Y7645168D01*
X8755541Y9507174D01*
X8747212Y9514830D01*
X8738967Y9522624D01*
X8737580Y9523684D01*
X6742173Y11026739D01*
X6732482Y11032652D01*
X6722914Y11038675D01*
X6721348Y11039445D01*
X6300000Y11243034D01*
X6300000Y11850000D01*
X10579290Y11850000D01*
X15450000Y6979290D01*
X15450000Y6979290D01*
G37*
X15450000Y6979290D02*
X15450000Y5674010D01*
X15433638Y5663228D01*
X15387786Y5609429D01*
X15358737Y5544985D01*
X15348791Y5475000D01*
X15348791Y5025000D01*
X15351966Y4985189D01*
X15372877Y4917664D01*
X15411772Y4858638D01*
X15450000Y4826057D01*
X15450000Y2500000D01*
X15451980Y2486070D01*
X15457761Y2473244D01*
X15466888Y2462536D01*
X15478636Y2454794D01*
X15492076Y2450632D01*
X15500000Y2450000D01*
X17479290Y2450000D01*
X18200000Y1729290D01*
X18200000Y-13700000D01*
X11750000Y-13700000D01*
X11736070Y-13701980D01*
X11723244Y-13707761D01*
X11712536Y-13716888D01*
X11704794Y-13728636D01*
X11700632Y-13742076D01*
X11700000Y-13750000D01*
X11700000Y-17950000D01*
X550000Y-17950000D01*
X550000Y-15500000D01*
X548020Y-15486070D01*
X542239Y-15473244D01*
X533112Y-15462536D01*
X521364Y-15454794D01*
X507924Y-15450632D01*
X500000Y-15450000D01*
X50000Y-15450000D01*
X50000Y-12864183D01*
X1395716Y-12848832D01*
X1406992Y-12847596D01*
X1418256Y-12846521D01*
X1419965Y-12846174D01*
X1419967Y-12846174D01*
X1419969Y-12846173D01*
X3864820Y-12333031D01*
X3875585Y-12329646D01*
X3886482Y-12326387D01*
X3888092Y-12325714D01*
X6186713Y-11347470D01*
X6196623Y-11342055D01*
X6206672Y-11336745D01*
X6208121Y-11335772D01*
X8272956Y-9929687D01*
X8281655Y-9922425D01*
X8290452Y-9915289D01*
X8291684Y-9914054D01*
X9976460Y-8202390D01*
X10593468Y-8558864D01*
X10600890Y-8562233D01*
X10604144Y-8564139D01*
X10608168Y-8565537D01*
X10615682Y-8568948D01*
X10622793Y-8570618D01*
X10627188Y-8572145D01*
X10632390Y-8572872D01*
X10639432Y-8574526D01*
X10645837Y-8574752D01*
X10651348Y-8575522D01*
X10657621Y-8575167D01*
X10663812Y-8575385D01*
X10669224Y-8574510D01*
X10675706Y-8574143D01*
X10682810Y-8572313D01*
X10687895Y-8571491D01*
X10692174Y-8569901D01*
X10699330Y-8568058D01*
X10706845Y-8564450D01*
X10710763Y-8562995D01*
X10713916Y-8561057D01*
X10721323Y-8557501D01*
X10728753Y-8551934D01*
X10731546Y-8550217D01*
X10733676Y-8548245D01*
X10740847Y-8542873D01*
X10747612Y-8535349D01*
X10749450Y-8533648D01*
X10750753Y-8531855D01*
X10757158Y-8524732D01*
X10758183Y-8523319D01*
X11546439Y-7420594D01*
X11550609Y-7413359D01*
X11555217Y-7406398D01*
X11556023Y-7404850D01*
X12765275Y-5041947D01*
X12768439Y-5033914D01*
X12772061Y-5026070D01*
X12772904Y-5022579D01*
X12774216Y-5019249D01*
X12775759Y-5010763D01*
X12777789Y-5002357D01*
X12777938Y-4998772D01*
X12778579Y-4995246D01*
X12778444Y-4986616D01*
X12778803Y-4977983D01*
X12778253Y-4974439D01*
X12778197Y-4970853D01*
X12776388Y-4962414D01*
X12775063Y-4953875D01*
X12773833Y-4950500D01*
X12773083Y-4947000D01*
X12769673Y-4939081D01*
X12766712Y-4930953D01*
X12764852Y-4927884D01*
X12763435Y-4924593D01*
X12758548Y-4917482D01*
X12754068Y-4910090D01*
X12751647Y-4907440D01*
X12749617Y-4904487D01*
X12743431Y-4898449D01*
X12737611Y-4892081D01*
X12734730Y-4889958D01*
X12732159Y-4887449D01*
X12724925Y-4882733D01*
X12717971Y-4877609D01*
X12716465Y-4876727D01*
X12106599Y-4524881D01*
X12161472Y-4377163D01*
X12162973Y-4371471D01*
X12165042Y-4365965D01*
X12165481Y-4364276D01*
X12777840Y-1942328D01*
X12779529Y-1931147D01*
X12781381Y-1919947D01*
X12781484Y-1918205D01*
X12911756Y576560D01*
X12911240Y587877D01*
X12910882Y599201D01*
X12910645Y600930D01*
X12553866Y3073485D01*
X12551158Y3084499D01*
X12548611Y3095526D01*
X12548042Y3097176D01*
X11717803Y5453343D01*
X11713025Y5463583D01*
X11708367Y5473944D01*
X11707489Y5475452D01*
X10435413Y7625485D01*
X10428712Y7634637D01*
X10422155Y7643860D01*
X10421001Y7645168D01*
X8755541Y9507174D01*
X8747212Y9514830D01*
X8738967Y9522624D01*
X8737580Y9523684D01*
X6742173Y11026739D01*
X6732482Y11032652D01*
X6722914Y11038675D01*
X6721348Y11039445D01*
X6300000Y11243034D01*
X6300000Y11850000D01*
X10579290Y11850000D01*
X15450000Y6979290D01*
G36*
X10200000Y14150000D02*
X6170710Y14150000D01*
X4535355Y15785355D01*
X4524106Y15793805D01*
X4515557Y15797042D01*
X4504257Y15806324D01*
X4475986Y15830046D01*
X4474144Y15831059D01*
X4472517Y15832395D01*
X4439946Y15849859D01*
X4407576Y15867655D01*
X4405570Y15868291D01*
X4403717Y15869285D01*
X4368420Y15880076D01*
X4333164Y15891260D01*
X4331070Y15891495D01*
X4329061Y15892109D01*
X4292312Y15895842D01*
X4255584Y15899962D01*
X4251477Y15899991D01*
X4251395Y15899999D01*
X4251319Y15899992D01*
X4249999Y15900001D01*
X3479003Y15900001D01*
X3443610Y15985871D01*
X3389347Y16067544D01*
X3320254Y16137120D01*
X3238963Y16191952D01*
X3148569Y16229950D01*
X3052517Y16249667D01*
X2954464Y16250351D01*
X2858146Y16231978D01*
X2767231Y16195246D01*
X2685182Y16141554D01*
X2615125Y16072949D01*
X2559727Y15992042D01*
X2521099Y15901916D01*
X2500712Y15806004D01*
X2500628Y15800000D01*
X-2000171Y15800000D01*
X-2019024Y15895215D01*
X-2056390Y15985871D01*
X-2110653Y16067544D01*
X-2179746Y16137120D01*
X-2261037Y16191952D01*
X-2351431Y16229950D01*
X-2447483Y16249667D01*
X-2450000Y16249685D01*
X-2450000Y17729290D01*
X-1979290Y18200000D01*
X10200000Y18200000D01*
X10200000Y14150000D01*
X10200000Y14150000D01*
G37*
X10200000Y14150000D02*
X6170710Y14150000D01*
X4535355Y15785355D01*
X4524106Y15793805D01*
X4515557Y15797042D01*
X4504257Y15806324D01*
X4475986Y15830046D01*
X4474144Y15831059D01*
X4472517Y15832395D01*
X4439946Y15849859D01*
X4407576Y15867655D01*
X4405570Y15868291D01*
X4403717Y15869285D01*
X4368420Y15880076D01*
X4333164Y15891260D01*
X4331070Y15891495D01*
X4329061Y15892109D01*
X4292312Y15895842D01*
X4255584Y15899962D01*
X4251477Y15899991D01*
X4251395Y15899999D01*
X4251319Y15899992D01*
X4249999Y15900001D01*
X3479003Y15900001D01*
X3443610Y15985871D01*
X3389347Y16067544D01*
X3320254Y16137120D01*
X3238963Y16191952D01*
X3148569Y16229950D01*
X3052517Y16249667D01*
X2954464Y16250351D01*
X2858146Y16231978D01*
X2767231Y16195246D01*
X2685182Y16141554D01*
X2615125Y16072949D01*
X2559727Y15992042D01*
X2521099Y15901916D01*
X2500712Y15806004D01*
X2500628Y15800000D01*
X-2000171Y15800000D01*
X-2019024Y15895215D01*
X-2056390Y15985871D01*
X-2110653Y16067544D01*
X-2179746Y16137120D01*
X-2261037Y16191952D01*
X-2351431Y16229950D01*
X-2447483Y16249667D01*
X-2450000Y16249685D01*
X-2450000Y17729290D01*
X-1979290Y18200000D01*
X10200000Y18200000D01*
X10200000Y14150000D01*
G36*
X22714645Y9964645D02*
X22725894Y9956195D01*
X22729475Y9954839D01*
X23100000Y9584314D01*
X23100000Y5698943D01*
X23084429Y5712214D01*
X23019985Y5741263D01*
X22950000Y5751209D01*
X22050000Y5751209D01*
X22010189Y5748034D01*
X21942664Y5727123D01*
X21883638Y5688228D01*
X21837786Y5634429D01*
X21808737Y5569985D01*
X21799063Y5501912D01*
X21798034Y5514811D01*
X21777123Y5582336D01*
X21738228Y5641362D01*
X21684429Y5687214D01*
X21619985Y5716263D01*
X21550000Y5726209D01*
X21407469Y5726209D01*
X21398569Y5729950D01*
X21302517Y5749667D01*
X21204464Y5750351D01*
X21108146Y5731978D01*
X21093867Y5726209D01*
X20950000Y5726209D01*
X20910189Y5723034D01*
X20842664Y5702123D01*
X20783638Y5663228D01*
X20737786Y5609429D01*
X20708737Y5544985D01*
X20698791Y5475000D01*
X20698791Y5025000D01*
X20701966Y4985189D01*
X20722877Y4917664D01*
X20761772Y4858638D01*
X20815571Y4812786D01*
X20880015Y4783737D01*
X20950000Y4773791D01*
X21091036Y4773791D01*
X21094744Y4772171D01*
X21190512Y4751115D01*
X21288545Y4749062D01*
X21385110Y4766089D01*
X21404967Y4773791D01*
X21550000Y4773791D01*
X21589811Y4776966D01*
X21657336Y4797877D01*
X21716362Y4836772D01*
X21762214Y4890571D01*
X21791263Y4955015D01*
X21798791Y5007986D01*
X21798791Y5000000D01*
X21801966Y4960189D01*
X21822877Y4892664D01*
X21861772Y4833638D01*
X21915571Y4787786D01*
X21980015Y4758737D01*
X22050000Y4748791D01*
X22950000Y4748791D01*
X22989811Y4751966D01*
X23057336Y4772877D01*
X23116362Y4811772D01*
X23148943Y4850000D01*
X23350990Y4850000D01*
X23361772Y4833638D01*
X23415571Y4787786D01*
X23480015Y4758737D01*
X23550000Y4748791D01*
X24450000Y4748791D01*
X24489811Y4751966D01*
X24557336Y4772877D01*
X24616362Y4811772D01*
X24662214Y4865571D01*
X24691263Y4930015D01*
X24701209Y5000000D01*
X24701209Y5500000D01*
X24698034Y5539811D01*
X24677123Y5607336D01*
X24638228Y5666362D01*
X24584429Y5712214D01*
X24519985Y5741263D01*
X24450000Y5751209D01*
X23900000Y5751209D01*
X23900000Y9246482D01*
X25186024Y4986967D01*
X25375945Y3050000D01*
X19800000Y3050000D01*
X19800000Y4000000D01*
X23298791Y4000000D01*
X23298791Y3500000D01*
X23301966Y3460189D01*
X23322877Y3392664D01*
X23361772Y3333638D01*
X23415571Y3287786D01*
X23480015Y3258737D01*
X23550000Y3248791D01*
X24450000Y3248791D01*
X24489811Y3251966D01*
X24557336Y3272877D01*
X24616362Y3311772D01*
X24662214Y3365571D01*
X24691263Y3430015D01*
X24701209Y3500000D01*
X24701209Y4000000D01*
X24698034Y4039811D01*
X24677123Y4107336D01*
X24638228Y4166362D01*
X24584429Y4212214D01*
X24519985Y4241263D01*
X24450000Y4251209D01*
X23550000Y4251209D01*
X23510189Y4248034D01*
X23442664Y4227123D01*
X23383638Y4188228D01*
X23337786Y4134429D01*
X23308737Y4069985D01*
X23298791Y4000000D01*
X19800000Y4000000D01*
X19800000Y12879290D01*
X22714645Y9964645D01*
X22714645Y9964645D01*
G37*
X22714645Y9964645D02*
X22725894Y9956195D01*
X22729475Y9954839D01*
X23100000Y9584314D01*
X23100000Y5698943D01*
X23084429Y5712214D01*
X23019985Y5741263D01*
X22950000Y5751209D01*
X22050000Y5751209D01*
X22010189Y5748034D01*
X21942664Y5727123D01*
X21883638Y5688228D01*
X21837786Y5634429D01*
X21808737Y5569985D01*
X21799063Y5501912D01*
X21798034Y5514811D01*
X21777123Y5582336D01*
X21738228Y5641362D01*
X21684429Y5687214D01*
X21619985Y5716263D01*
X21550000Y5726209D01*
X21407469Y5726209D01*
X21398569Y5729950D01*
X21302517Y5749667D01*
X21204464Y5750351D01*
X21108146Y5731978D01*
X21093867Y5726209D01*
X20950000Y5726209D01*
X20910189Y5723034D01*
X20842664Y5702123D01*
X20783638Y5663228D01*
X20737786Y5609429D01*
X20708737Y5544985D01*
X20698791Y5475000D01*
X20698791Y5025000D01*
X20701966Y4985189D01*
X20722877Y4917664D01*
X20761772Y4858638D01*
X20815571Y4812786D01*
X20880015Y4783737D01*
X20950000Y4773791D01*
X21091036Y4773791D01*
X21094744Y4772171D01*
X21190512Y4751115D01*
X21288545Y4749062D01*
X21385110Y4766089D01*
X21404967Y4773791D01*
X21550000Y4773791D01*
X21589811Y4776966D01*
X21657336Y4797877D01*
X21716362Y4836772D01*
X21762214Y4890571D01*
X21791263Y4955015D01*
X21798791Y5007986D01*
X21798791Y5000000D01*
X21801966Y4960189D01*
X21822877Y4892664D01*
X21861772Y4833638D01*
X21915571Y4787786D01*
X21980015Y4758737D01*
X22050000Y4748791D01*
X22950000Y4748791D01*
X22989811Y4751966D01*
X23057336Y4772877D01*
X23116362Y4811772D01*
X23148943Y4850000D01*
X23350990Y4850000D01*
X23361772Y4833638D01*
X23415571Y4787786D01*
X23480015Y4758737D01*
X23550000Y4748791D01*
X24450000Y4748791D01*
X24489811Y4751966D01*
X24557336Y4772877D01*
X24616362Y4811772D01*
X24662214Y4865571D01*
X24691263Y4930015D01*
X24701209Y5000000D01*
X24701209Y5500000D01*
X24698034Y5539811D01*
X24677123Y5607336D01*
X24638228Y5666362D01*
X24584429Y5712214D01*
X24519985Y5741263D01*
X24450000Y5751209D01*
X23900000Y5751209D01*
X23900000Y9246482D01*
X25186024Y4986967D01*
X25375945Y3050000D01*
X19800000Y3050000D01*
X19800000Y4000000D01*
X23298791Y4000000D01*
X23298791Y3500000D01*
X23301966Y3460189D01*
X23322877Y3392664D01*
X23361772Y3333638D01*
X23415571Y3287786D01*
X23480015Y3258737D01*
X23550000Y3248791D01*
X24450000Y3248791D01*
X24489811Y3251966D01*
X24557336Y3272877D01*
X24616362Y3311772D01*
X24662214Y3365571D01*
X24691263Y3430015D01*
X24701209Y3500000D01*
X24701209Y4000000D01*
X24698034Y4039811D01*
X24677123Y4107336D01*
X24638228Y4166362D01*
X24584429Y4212214D01*
X24519985Y4241263D01*
X24450000Y4251209D01*
X23550000Y4251209D01*
X23510189Y4248034D01*
X23442664Y4227123D01*
X23383638Y4188228D01*
X23337786Y4134429D01*
X23308737Y4069985D01*
X23298791Y4000000D01*
X19800000Y4000000D01*
X19800000Y12879290D01*
X22714645Y9964645D01*
G36*
X17850000Y7915685D02*
X17179998Y7245684D01*
X17108146Y7231978D01*
X17017231Y7195246D01*
X16935182Y7141554D01*
X16865125Y7072949D01*
X16809727Y6992042D01*
X16771099Y6901916D01*
X16750712Y6806004D01*
X16749343Y6707959D01*
X16767044Y6611515D01*
X16803140Y6520345D01*
X16856258Y6437924D01*
X16924372Y6367389D01*
X17004890Y6311427D01*
X17094744Y6272171D01*
X17186345Y6252031D01*
X16967157Y6032843D01*
X16943677Y6004258D01*
X16919955Y5975987D01*
X16918942Y5974145D01*
X16917606Y5972518D01*
X16900142Y5939947D01*
X16882346Y5907577D01*
X16881710Y5905571D01*
X16880716Y5903718D01*
X16869925Y5868421D01*
X16858741Y5833165D01*
X16858506Y5831071D01*
X16857892Y5829062D01*
X16854159Y5792313D01*
X16850039Y5755585D01*
X16850010Y5751478D01*
X16850002Y5751396D01*
X16850009Y5751320D01*
X16850000Y5750000D01*
X16850000Y4750000D01*
X16853607Y4713216D01*
X16856826Y4676420D01*
X16857413Y4674401D01*
X16857618Y4672306D01*
X16868301Y4636923D01*
X16878606Y4601453D01*
X16879574Y4599585D01*
X16880182Y4597572D01*
X16897531Y4564942D01*
X16905276Y4550000D01*
X15800000Y4550000D01*
X15800000Y4773791D01*
X15841036Y4773791D01*
X15844744Y4772171D01*
X15940512Y4751115D01*
X16038545Y4749062D01*
X16135110Y4766089D01*
X16154967Y4773791D01*
X16200000Y4773791D01*
X16239811Y4776966D01*
X16307336Y4797877D01*
X16366362Y4836772D01*
X16412214Y4890571D01*
X16441263Y4955015D01*
X16451209Y5025000D01*
X16451209Y5034083D01*
X16476733Y5091412D01*
X16498457Y5187030D01*
X16500021Y5299028D01*
X16480976Y5395215D01*
X16451209Y5467435D01*
X16451209Y5475000D01*
X16448034Y5514811D01*
X16427123Y5582336D01*
X16388228Y5641362D01*
X16334429Y5687214D01*
X16269985Y5716263D01*
X16200000Y5726209D01*
X16157469Y5726209D01*
X16148569Y5729950D01*
X16052517Y5749667D01*
X15954464Y5750351D01*
X15858146Y5731978D01*
X15843867Y5726209D01*
X15800000Y5726209D01*
X15800000Y7000000D01*
X15798020Y7013930D01*
X15792239Y7026756D01*
X15785355Y7035355D01*
X10970710Y11850000D01*
X17850000Y11850000D01*
X17850000Y7915685D01*
X17850000Y7915685D01*
G37*
X17850000Y7915685D02*
X17179998Y7245684D01*
X17108146Y7231978D01*
X17017231Y7195246D01*
X16935182Y7141554D01*
X16865125Y7072949D01*
X16809727Y6992042D01*
X16771099Y6901916D01*
X16750712Y6806004D01*
X16749343Y6707959D01*
X16767044Y6611515D01*
X16803140Y6520345D01*
X16856258Y6437924D01*
X16924372Y6367389D01*
X17004890Y6311427D01*
X17094744Y6272171D01*
X17186345Y6252031D01*
X16967157Y6032843D01*
X16943677Y6004258D01*
X16919955Y5975987D01*
X16918942Y5974145D01*
X16917606Y5972518D01*
X16900142Y5939947D01*
X16882346Y5907577D01*
X16881710Y5905571D01*
X16880716Y5903718D01*
X16869925Y5868421D01*
X16858741Y5833165D01*
X16858506Y5831071D01*
X16857892Y5829062D01*
X16854159Y5792313D01*
X16850039Y5755585D01*
X16850010Y5751478D01*
X16850002Y5751396D01*
X16850009Y5751320D01*
X16850000Y5750000D01*
X16850000Y4750000D01*
X16853607Y4713216D01*
X16856826Y4676420D01*
X16857413Y4674401D01*
X16857618Y4672306D01*
X16868301Y4636923D01*
X16878606Y4601453D01*
X16879574Y4599585D01*
X16880182Y4597572D01*
X16897531Y4564942D01*
X16905276Y4550000D01*
X15800000Y4550000D01*
X15800000Y4773791D01*
X15841036Y4773791D01*
X15844744Y4772171D01*
X15940512Y4751115D01*
X16038545Y4749062D01*
X16135110Y4766089D01*
X16154967Y4773791D01*
X16200000Y4773791D01*
X16239811Y4776966D01*
X16307336Y4797877D01*
X16366362Y4836772D01*
X16412214Y4890571D01*
X16441263Y4955015D01*
X16451209Y5025000D01*
X16451209Y5034083D01*
X16476733Y5091412D01*
X16498457Y5187030D01*
X16500021Y5299028D01*
X16480976Y5395215D01*
X16451209Y5467435D01*
X16451209Y5475000D01*
X16448034Y5514811D01*
X16427123Y5582336D01*
X16388228Y5641362D01*
X16334429Y5687214D01*
X16269985Y5716263D01*
X16200000Y5726209D01*
X16157469Y5726209D01*
X16148569Y5729950D01*
X16052517Y5749667D01*
X15954464Y5750351D01*
X15858146Y5731978D01*
X15843867Y5726209D01*
X15800000Y5726209D01*
X15800000Y7000000D01*
X15798020Y7013930D01*
X15792239Y7026756D01*
X15785355Y7035355D01*
X10970710Y11850000D01*
X17850000Y11850000D01*
X17850000Y7915685D01*
G36*
X18850000Y5726209D02*
X18810189Y5723034D01*
X18742664Y5702123D01*
X18683638Y5663228D01*
X18637786Y5609429D01*
X18608737Y5544985D01*
X18598791Y5475000D01*
X18598791Y5025000D01*
X18601966Y4985189D01*
X18622877Y4917664D01*
X18661772Y4858638D01*
X18715571Y4812786D01*
X18780015Y4783737D01*
X18850000Y4773791D01*
X19091036Y4773791D01*
X19094744Y4772171D01*
X19190512Y4751115D01*
X19288545Y4749062D01*
X19385110Y4766089D01*
X19404967Y4773791D01*
X19450000Y4773791D01*
X19450000Y4550000D01*
X18015686Y4550000D01*
X17791895Y4773791D01*
X17841036Y4773791D01*
X17844744Y4772171D01*
X17940512Y4751115D01*
X18038545Y4749062D01*
X18135110Y4766089D01*
X18154967Y4773791D01*
X18300000Y4773791D01*
X18339811Y4776966D01*
X18407336Y4797877D01*
X18466362Y4836772D01*
X18512214Y4890571D01*
X18541263Y4955015D01*
X18551209Y5025000D01*
X18551209Y5475000D01*
X18548034Y5514811D01*
X18527123Y5582336D01*
X18488228Y5641362D01*
X18434429Y5687214D01*
X18369985Y5716263D01*
X18300000Y5726209D01*
X18157469Y5726209D01*
X18148569Y5729950D01*
X18052517Y5749667D01*
X17954464Y5750351D01*
X17858146Y5731978D01*
X17843867Y5726209D01*
X17791895Y5726209D01*
X18850000Y6784315D01*
X18850000Y5726209D01*
X18850000Y5726209D01*
G37*
X18850000Y5726209D02*
X18810189Y5723034D01*
X18742664Y5702123D01*
X18683638Y5663228D01*
X18637786Y5609429D01*
X18608737Y5544985D01*
X18598791Y5475000D01*
X18598791Y5025000D01*
X18601966Y4985189D01*
X18622877Y4917664D01*
X18661772Y4858638D01*
X18715571Y4812786D01*
X18780015Y4783737D01*
X18850000Y4773791D01*
X19091036Y4773791D01*
X19094744Y4772171D01*
X19190512Y4751115D01*
X19288545Y4749062D01*
X19385110Y4766089D01*
X19404967Y4773791D01*
X19450000Y4773791D01*
X19450000Y4550000D01*
X18015686Y4550000D01*
X17791895Y4773791D01*
X17841036Y4773791D01*
X17844744Y4772171D01*
X17940512Y4751115D01*
X18038545Y4749062D01*
X18135110Y4766089D01*
X18154967Y4773791D01*
X18300000Y4773791D01*
X18339811Y4776966D01*
X18407336Y4797877D01*
X18466362Y4836772D01*
X18512214Y4890571D01*
X18541263Y4955015D01*
X18551209Y5025000D01*
X18551209Y5475000D01*
X18548034Y5514811D01*
X18527123Y5582336D01*
X18488228Y5641362D01*
X18434429Y5687214D01*
X18369985Y5716263D01*
X18300000Y5726209D01*
X18157469Y5726209D01*
X18148569Y5729950D01*
X18052517Y5749667D01*
X17954464Y5750351D01*
X17858146Y5731978D01*
X17843867Y5726209D01*
X17791895Y5726209D01*
X18850000Y6784315D01*
X18850000Y5726209D01*
G36*
X19279290Y14150000D02*
X10550000Y14150000D01*
X10550000Y18200000D01*
X15229290Y18200000D01*
X19279290Y14150000D01*
X19279290Y14150000D01*
G37*
X19279290Y14150000D02*
X10550000Y14150000D01*
X10550000Y18200000D01*
X15229290Y18200000D01*
X19279290Y14150000D01*
G36*
X4967157Y11967157D02*
X4995742Y11943677D01*
X5024013Y11919955D01*
X5025855Y11918942D01*
X5027482Y11917606D01*
X5060053Y11900142D01*
X5092423Y11882346D01*
X5094429Y11881710D01*
X5096282Y11880716D01*
X5131620Y11869912D01*
X5166835Y11858741D01*
X5168924Y11858507D01*
X5170938Y11857891D01*
X5207737Y11854153D01*
X5244415Y11850039D01*
X5248522Y11850010D01*
X5248604Y11850002D01*
X5248680Y11850009D01*
X5250000Y11850000D01*
X5950000Y11850000D01*
X5950000Y11412148D01*
X4471998Y12126297D01*
X4461354Y12130211D01*
X4450787Y12134265D01*
X4449101Y12134717D01*
X2125000Y12739630D01*
X2125000Y13452000D01*
X2124135Y13460819D01*
X2124153Y13463380D01*
X2123599Y13466283D01*
X2122619Y13476279D01*
X2120102Y13484614D01*
X2119582Y13487343D01*
X2118382Y13490312D01*
X2115568Y13499634D01*
X2111603Y13507091D01*
X2110443Y13509962D01*
X2108488Y13512949D01*
X2104115Y13521174D01*
X2099009Y13527434D01*
X2097084Y13530376D01*
X2094248Y13533272D01*
X2088696Y13540079D01*
X2082823Y13544938D01*
X2080015Y13547805D01*
X2076199Y13550418D01*
X2069899Y13555630D01*
X2063664Y13559001D01*
X2059886Y13561588D01*
X2055032Y13563668D01*
X2048439Y13567233D01*
X2042229Y13569155D01*
X2037463Y13571198D01*
X2031616Y13572441D01*
X2025135Y13574447D01*
X2019283Y13575062D01*
X2013600Y13576270D01*
X2011864Y13576453D01*
X1771682Y13600000D01*
X3334314Y13600000D01*
X4967157Y11967157D01*
X4967157Y11967157D01*
G37*
X4967157Y11967157D02*
X4995742Y11943677D01*
X5024013Y11919955D01*
X5025855Y11918942D01*
X5027482Y11917606D01*
X5060053Y11900142D01*
X5092423Y11882346D01*
X5094429Y11881710D01*
X5096282Y11880716D01*
X5131620Y11869912D01*
X5166835Y11858741D01*
X5168924Y11858507D01*
X5170938Y11857891D01*
X5207737Y11854153D01*
X5244415Y11850039D01*
X5248522Y11850010D01*
X5248604Y11850002D01*
X5248680Y11850009D01*
X5250000Y11850000D01*
X5950000Y11850000D01*
X5950000Y11412148D01*
X4471998Y12126297D01*
X4461354Y12130211D01*
X4450787Y12134265D01*
X4449101Y12134717D01*
X2125000Y12739630D01*
X2125000Y13452000D01*
X2124135Y13460819D01*
X2124153Y13463380D01*
X2123599Y13466283D01*
X2122619Y13476279D01*
X2120102Y13484614D01*
X2119582Y13487343D01*
X2118382Y13490312D01*
X2115568Y13499634D01*
X2111603Y13507091D01*
X2110443Y13509962D01*
X2108488Y13512949D01*
X2104115Y13521174D01*
X2099009Y13527434D01*
X2097084Y13530376D01*
X2094248Y13533272D01*
X2088696Y13540079D01*
X2082823Y13544938D01*
X2080015Y13547805D01*
X2076199Y13550418D01*
X2069899Y13555630D01*
X2063664Y13559001D01*
X2059886Y13561588D01*
X2055032Y13563668D01*
X2048439Y13567233D01*
X2042229Y13569155D01*
X2037463Y13571198D01*
X2031616Y13572441D01*
X2025135Y13574447D01*
X2019283Y13575062D01*
X2013600Y13576270D01*
X2011864Y13576453D01*
X1771682Y13600000D01*
X3334314Y13600000D01*
X4967157Y11967157D01*
G36*
X18200000Y-18020788D02*
X17705982Y-18593113D01*
X13757353Y-21678119D01*
X9284711Y-23937414D01*
X4458417Y-25284939D01*
X175000Y-25614530D01*
X175000Y-18300000D01*
X12000000Y-18300000D01*
X12013930Y-18298020D01*
X12026756Y-18292239D01*
X12037464Y-18283112D01*
X12045206Y-18271364D01*
X12049368Y-18257924D01*
X12050000Y-18250000D01*
X12050000Y-14050000D01*
X18200000Y-14050000D01*
X18200000Y-18020788D01*
X18200000Y-18020788D01*
G37*
X18200000Y-18020788D02*
X17705982Y-18593113D01*
X13757353Y-21678119D01*
X9284711Y-23937414D01*
X4458417Y-25284939D01*
X175000Y-25614530D01*
X175000Y-18300000D01*
X12000000Y-18300000D01*
X12013930Y-18298020D01*
X12026756Y-18292239D01*
X12037464Y-18283112D01*
X12045206Y-18271364D01*
X12049368Y-18257924D01*
X12050000Y-18250000D01*
X12050000Y-14050000D01*
X18200000Y-14050000D01*
X18200000Y-18020788D01*
G36*
X-3050000Y19800000D02*
X-10100000Y19800000D01*
X-10100000Y20250000D01*
X-10103607Y20286784D01*
X-10106826Y20323580D01*
X-10107413Y20325599D01*
X-10107618Y20327694D01*
X-10118287Y20363030D01*
X-10128605Y20398547D01*
X-10129576Y20400419D01*
X-10130182Y20402428D01*
X-10147492Y20434983D01*
X-10164531Y20467855D01*
X-10165845Y20469502D01*
X-10166832Y20471357D01*
X-10190179Y20499984D01*
X-10213236Y20528866D01*
X-10216124Y20531796D01*
X-10216172Y20531854D01*
X-10216226Y20531899D01*
X-10217157Y20532843D01*
X-10717157Y21032843D01*
X-10745742Y21056323D01*
X-10774013Y21080045D01*
X-10775855Y21081058D01*
X-10777482Y21082394D01*
X-10810053Y21099858D01*
X-10842423Y21117654D01*
X-10844429Y21118290D01*
X-10846282Y21119284D01*
X-10881579Y21130075D01*
X-10916835Y21141259D01*
X-10918929Y21141494D01*
X-10920938Y21142108D01*
X-10957687Y21145841D01*
X-10994415Y21149961D01*
X-10998522Y21149990D01*
X-10998604Y21149998D01*
X-10998680Y21149991D01*
X-11000000Y21150000D01*
X-11450000Y21150000D01*
X-11450000Y22847712D01*
X-9618024Y23805445D01*
X-7428015Y24450000D01*
X-5751209Y24450000D01*
X-5751209Y23550000D01*
X-5748034Y23510189D01*
X-5727123Y23442664D01*
X-5688228Y23383638D01*
X-5650000Y23351057D01*
X-5650000Y23149010D01*
X-5666362Y23138228D01*
X-5712214Y23084429D01*
X-5741263Y23019985D01*
X-5751209Y22950000D01*
X-5751209Y22050000D01*
X-5748034Y22010189D01*
X-5727123Y21942664D01*
X-5688228Y21883638D01*
X-5634429Y21837786D01*
X-5569985Y21808737D01*
X-5501912Y21799063D01*
X-5514811Y21798034D01*
X-5582336Y21777123D01*
X-5641362Y21738228D01*
X-5687214Y21684429D01*
X-5716263Y21619985D01*
X-5726209Y21550000D01*
X-5726209Y21408197D01*
X-5728901Y21401916D01*
X-5749288Y21306004D01*
X-5750657Y21207959D01*
X-5732956Y21111515D01*
X-5726209Y21094474D01*
X-5726209Y20950000D01*
X-5723034Y20910189D01*
X-5702123Y20842664D01*
X-5663228Y20783638D01*
X-5609429Y20737786D01*
X-5544985Y20708737D01*
X-5475000Y20698791D01*
X-5025000Y20698791D01*
X-4985189Y20701966D01*
X-4917664Y20722877D01*
X-4858638Y20761772D01*
X-4812786Y20815571D01*
X-4783737Y20880015D01*
X-4773791Y20950000D01*
X-4773791Y21090235D01*
X-4773267Y21091412D01*
X-4751543Y21187030D01*
X-4749979Y21299028D01*
X-4769024Y21395215D01*
X-4773791Y21406781D01*
X-4773791Y21550000D01*
X-4776966Y21589811D01*
X-4797877Y21657336D01*
X-4836772Y21716362D01*
X-4890571Y21762214D01*
X-4955015Y21791263D01*
X-5007986Y21798791D01*
X-5000000Y21798791D01*
X-4960189Y21801966D01*
X-4892664Y21822877D01*
X-4833638Y21861772D01*
X-4787786Y21915571D01*
X-4758737Y21980015D01*
X-4748791Y22050000D01*
X-4748791Y22950000D01*
X-4751966Y22989811D01*
X-4772877Y23057336D01*
X-4811772Y23116362D01*
X-4850000Y23148943D01*
X-4850000Y23350990D01*
X-4833638Y23361772D01*
X-4787786Y23415571D01*
X-4758737Y23480015D01*
X-4748791Y23550000D01*
X-4748791Y24450000D01*
X-4251209Y24450000D01*
X-4251209Y23550000D01*
X-4248034Y23510189D01*
X-4227123Y23442664D01*
X-4188228Y23383638D01*
X-4134429Y23337786D01*
X-4069985Y23308737D01*
X-4000000Y23298791D01*
X-3500000Y23298791D01*
X-3460189Y23301966D01*
X-3392664Y23322877D01*
X-3333638Y23361772D01*
X-3287786Y23415571D01*
X-3258737Y23480015D01*
X-3248791Y23550000D01*
X-3248791Y24450000D01*
X-3251966Y24489811D01*
X-3272877Y24557336D01*
X-3311772Y24616362D01*
X-3365571Y24662214D01*
X-3430015Y24691263D01*
X-3500000Y24701209D01*
X-4000000Y24701209D01*
X-4039811Y24698034D01*
X-4107336Y24677123D01*
X-4166362Y24638228D01*
X-4212214Y24584429D01*
X-4241263Y24519985D01*
X-4251209Y24450000D01*
X-4748791Y24450000D01*
X-4751966Y24489811D01*
X-4772877Y24557336D01*
X-4811772Y24616362D01*
X-4865571Y24662214D01*
X-4930015Y24691263D01*
X-5000000Y24701209D01*
X-5500000Y24701209D01*
X-5539811Y24698034D01*
X-5607336Y24677123D01*
X-5666362Y24638228D01*
X-5712214Y24584429D01*
X-5741263Y24519985D01*
X-5751209Y24450000D01*
X-7428015Y24450000D01*
X-4811015Y25220225D01*
X-3050000Y25380490D01*
X-3050000Y19800000D01*
X-3050000Y19800000D01*
G37*
X-3050000Y19800000D02*
X-10100000Y19800000D01*
X-10100000Y20250000D01*
X-10103607Y20286784D01*
X-10106826Y20323580D01*
X-10107413Y20325599D01*
X-10107618Y20327694D01*
X-10118287Y20363030D01*
X-10128605Y20398547D01*
X-10129576Y20400419D01*
X-10130182Y20402428D01*
X-10147492Y20434983D01*
X-10164531Y20467855D01*
X-10165845Y20469502D01*
X-10166832Y20471357D01*
X-10190179Y20499984D01*
X-10213236Y20528866D01*
X-10216124Y20531796D01*
X-10216172Y20531854D01*
X-10216226Y20531899D01*
X-10217157Y20532843D01*
X-10717157Y21032843D01*
X-10745742Y21056323D01*
X-10774013Y21080045D01*
X-10775855Y21081058D01*
X-10777482Y21082394D01*
X-10810053Y21099858D01*
X-10842423Y21117654D01*
X-10844429Y21118290D01*
X-10846282Y21119284D01*
X-10881579Y21130075D01*
X-10916835Y21141259D01*
X-10918929Y21141494D01*
X-10920938Y21142108D01*
X-10957687Y21145841D01*
X-10994415Y21149961D01*
X-10998522Y21149990D01*
X-10998604Y21149998D01*
X-10998680Y21149991D01*
X-11000000Y21150000D01*
X-11450000Y21150000D01*
X-11450000Y22847712D01*
X-9618024Y23805445D01*
X-7428015Y24450000D01*
X-5751209Y24450000D01*
X-5751209Y23550000D01*
X-5748034Y23510189D01*
X-5727123Y23442664D01*
X-5688228Y23383638D01*
X-5650000Y23351057D01*
X-5650000Y23149010D01*
X-5666362Y23138228D01*
X-5712214Y23084429D01*
X-5741263Y23019985D01*
X-5751209Y22950000D01*
X-5751209Y22050000D01*
X-5748034Y22010189D01*
X-5727123Y21942664D01*
X-5688228Y21883638D01*
X-5634429Y21837786D01*
X-5569985Y21808737D01*
X-5501912Y21799063D01*
X-5514811Y21798034D01*
X-5582336Y21777123D01*
X-5641362Y21738228D01*
X-5687214Y21684429D01*
X-5716263Y21619985D01*
X-5726209Y21550000D01*
X-5726209Y21408197D01*
X-5728901Y21401916D01*
X-5749288Y21306004D01*
X-5750657Y21207959D01*
X-5732956Y21111515D01*
X-5726209Y21094474D01*
X-5726209Y20950000D01*
X-5723034Y20910189D01*
X-5702123Y20842664D01*
X-5663228Y20783638D01*
X-5609429Y20737786D01*
X-5544985Y20708737D01*
X-5475000Y20698791D01*
X-5025000Y20698791D01*
X-4985189Y20701966D01*
X-4917664Y20722877D01*
X-4858638Y20761772D01*
X-4812786Y20815571D01*
X-4783737Y20880015D01*
X-4773791Y20950000D01*
X-4773791Y21090235D01*
X-4773267Y21091412D01*
X-4751543Y21187030D01*
X-4749979Y21299028D01*
X-4769024Y21395215D01*
X-4773791Y21406781D01*
X-4773791Y21550000D01*
X-4776966Y21589811D01*
X-4797877Y21657336D01*
X-4836772Y21716362D01*
X-4890571Y21762214D01*
X-4955015Y21791263D01*
X-5007986Y21798791D01*
X-5000000Y21798791D01*
X-4960189Y21801966D01*
X-4892664Y21822877D01*
X-4833638Y21861772D01*
X-4787786Y21915571D01*
X-4758737Y21980015D01*
X-4748791Y22050000D01*
X-4748791Y22950000D01*
X-4751966Y22989811D01*
X-4772877Y23057336D01*
X-4811772Y23116362D01*
X-4850000Y23148943D01*
X-4850000Y23350990D01*
X-4833638Y23361772D01*
X-4787786Y23415571D01*
X-4758737Y23480015D01*
X-4748791Y23550000D01*
X-4748791Y24450000D01*
X-4251209Y24450000D01*
X-4251209Y23550000D01*
X-4248034Y23510189D01*
X-4227123Y23442664D01*
X-4188228Y23383638D01*
X-4134429Y23337786D01*
X-4069985Y23308737D01*
X-4000000Y23298791D01*
X-3500000Y23298791D01*
X-3460189Y23301966D01*
X-3392664Y23322877D01*
X-3333638Y23361772D01*
X-3287786Y23415571D01*
X-3258737Y23480015D01*
X-3248791Y23550000D01*
X-3248791Y24450000D01*
X-3251966Y24489811D01*
X-3272877Y24557336D01*
X-3311772Y24616362D01*
X-3365571Y24662214D01*
X-3430015Y24691263D01*
X-3500000Y24701209D01*
X-4000000Y24701209D01*
X-4039811Y24698034D01*
X-4107336Y24677123D01*
X-4166362Y24638228D01*
X-4212214Y24584429D01*
X-4241263Y24519985D01*
X-4251209Y24450000D01*
X-4748791Y24450000D01*
X-4751966Y24489811D01*
X-4772877Y24557336D01*
X-4811772Y24616362D01*
X-4865571Y24662214D01*
X-4930015Y24691263D01*
X-5000000Y24701209D01*
X-5500000Y24701209D01*
X-5539811Y24698034D01*
X-5607336Y24677123D01*
X-5666362Y24638228D01*
X-5712214Y24584429D01*
X-5741263Y24519985D01*
X-5751209Y24450000D01*
X-7428015Y24450000D01*
X-4811015Y25220225D01*
X-3050000Y25380490D01*
X-3050000Y19800000D01*
G36*
X5162676Y25150595D02*
X9949463Y23668836D01*
X14357278Y21285540D01*
X18218229Y18091483D01*
X21385253Y14208328D01*
X23398217Y10422493D01*
X15285355Y18535355D01*
X15274106Y18543805D01*
X15260948Y18548787D01*
X15250000Y18550000D01*
X-2000000Y18550000D01*
X-2013930Y18548020D01*
X-2026756Y18542239D01*
X-2035355Y18535355D01*
X-2785355Y17785355D01*
X-2793805Y17774106D01*
X-2798787Y17760948D01*
X-2800000Y17750000D01*
X-2800000Y17050000D01*
X-4700000Y17050000D01*
X-4700000Y18450000D01*
X-4242893Y18450000D01*
X-4234429Y18442786D01*
X-4169985Y18413737D01*
X-4100000Y18403791D01*
X-2850000Y18403791D01*
X-2810189Y18406966D01*
X-2742664Y18427877D01*
X-2683638Y18466772D01*
X-2637786Y18520571D01*
X-2608737Y18585015D01*
X-2598791Y18655000D01*
X-2598791Y19305000D01*
X-2601966Y19344811D01*
X-2622877Y19412336D01*
X-2661772Y19471362D01*
X-2700000Y19503943D01*
X-2700000Y19725990D01*
X-2683638Y19736772D01*
X-2637786Y19790571D01*
X-2608737Y19855015D01*
X-2598791Y19925000D01*
X-2598791Y20575000D01*
X-2601966Y20614811D01*
X-2622877Y20682336D01*
X-2661772Y20741362D01*
X-2700000Y20773943D01*
X-2700000Y21932734D01*
X9198948Y21932734D01*
X9227270Y21778423D01*
X9285024Y21632552D01*
X9370012Y21500677D01*
X9478995Y21387821D01*
X9607824Y21298283D01*
X9751590Y21235473D01*
X9904818Y21201784D01*
X10061672Y21198498D01*
X10216177Y21225742D01*
X10362447Y21282476D01*
X10494912Y21366541D01*
X10608526Y21474734D01*
X10698962Y21602934D01*
X10762774Y21746259D01*
X10797532Y21899248D01*
X10800034Y22078444D01*
X10769561Y22232344D01*
X10709776Y22377395D01*
X10622955Y22508070D01*
X10512407Y22619393D01*
X10382341Y22707124D01*
X10237711Y22767921D01*
X10084027Y22799467D01*
X9927143Y22800563D01*
X9773034Y22771165D01*
X9627570Y22712393D01*
X9496291Y22626487D01*
X9384199Y22516718D01*
X9295562Y22387268D01*
X9233758Y22243066D01*
X9201139Y22089607D01*
X9198948Y21932734D01*
X-2700000Y21932734D01*
X-2700000Y25412342D01*
X179244Y25674374D01*
X5162676Y25150595D01*
X5162676Y25150595D01*
G37*
X5162676Y25150595D02*
X9949463Y23668836D01*
X14357278Y21285540D01*
X18218229Y18091483D01*
X21385253Y14208328D01*
X23398217Y10422493D01*
X15285355Y18535355D01*
X15274106Y18543805D01*
X15260948Y18548787D01*
X15250000Y18550000D01*
X-2000000Y18550000D01*
X-2013930Y18548020D01*
X-2026756Y18542239D01*
X-2035355Y18535355D01*
X-2785355Y17785355D01*
X-2793805Y17774106D01*
X-2798787Y17760948D01*
X-2800000Y17750000D01*
X-2800000Y17050000D01*
X-4700000Y17050000D01*
X-4700000Y18450000D01*
X-4242893Y18450000D01*
X-4234429Y18442786D01*
X-4169985Y18413737D01*
X-4100000Y18403791D01*
X-2850000Y18403791D01*
X-2810189Y18406966D01*
X-2742664Y18427877D01*
X-2683638Y18466772D01*
X-2637786Y18520571D01*
X-2608737Y18585015D01*
X-2598791Y18655000D01*
X-2598791Y19305000D01*
X-2601966Y19344811D01*
X-2622877Y19412336D01*
X-2661772Y19471362D01*
X-2700000Y19503943D01*
X-2700000Y19725990D01*
X-2683638Y19736772D01*
X-2637786Y19790571D01*
X-2608737Y19855015D01*
X-2598791Y19925000D01*
X-2598791Y20575000D01*
X-2601966Y20614811D01*
X-2622877Y20682336D01*
X-2661772Y20741362D01*
X-2700000Y20773943D01*
X-2700000Y21932734D01*
X9198948Y21932734D01*
X9227270Y21778423D01*
X9285024Y21632552D01*
X9370012Y21500677D01*
X9478995Y21387821D01*
X9607824Y21298283D01*
X9751590Y21235473D01*
X9904818Y21201784D01*
X10061672Y21198498D01*
X10216177Y21225742D01*
X10362447Y21282476D01*
X10494912Y21366541D01*
X10608526Y21474734D01*
X10698962Y21602934D01*
X10762774Y21746259D01*
X10797532Y21899248D01*
X10800034Y22078444D01*
X10769561Y22232344D01*
X10709776Y22377395D01*
X10622955Y22508070D01*
X10512407Y22619393D01*
X10382341Y22707124D01*
X10237711Y22767921D01*
X10084027Y22799467D01*
X9927143Y22800563D01*
X9773034Y22771165D01*
X9627570Y22712393D01*
X9496291Y22626487D01*
X9384199Y22516718D01*
X9295562Y22387268D01*
X9233758Y22243066D01*
X9201139Y22089607D01*
X9198948Y21932734D01*
X-2700000Y21932734D01*
X-2700000Y25412342D01*
X179244Y25674374D01*
X5162676Y25150595D01*
G36*
X-23825628Y9117389D02*
X-23745110Y9061427D01*
X-23655256Y9022171D01*
X-23559488Y9001115D01*
X-23551076Y9000939D01*
X-23551209Y9000000D01*
X-23551209Y6500000D01*
X-23550000Y6484840D01*
X-23550000Y5008507D01*
X-23551209Y5000000D01*
X-23551209Y2500000D01*
X-23548034Y2460189D01*
X-23527123Y2392664D01*
X-23488228Y2333638D01*
X-23434429Y2287786D01*
X-23369985Y2258737D01*
X-23300000Y2248791D01*
X-21935652Y2248791D01*
X-21940273Y2242042D01*
X-21978901Y2151916D01*
X-21999288Y2056004D01*
X-22000657Y1957959D01*
X-21982956Y1861515D01*
X-21946860Y1770345D01*
X-21893742Y1687924D01*
X-21825628Y1617389D01*
X-21745110Y1561427D01*
X-21655256Y1522171D01*
X-21559488Y1501115D01*
X-21461455Y1499062D01*
X-21364890Y1516089D01*
X-21273471Y1551548D01*
X-21190680Y1604088D01*
X-21119671Y1671709D01*
X-21063149Y1751834D01*
X-21023267Y1841412D01*
X-21002795Y1931519D01*
X-20717157Y2217157D01*
X-20693677Y2245742D01*
X-20669955Y2274013D01*
X-20668942Y2275855D01*
X-20667606Y2277482D01*
X-20650142Y2310053D01*
X-20632346Y2342423D01*
X-20631710Y2344429D01*
X-20630716Y2346282D01*
X-20619912Y2381620D01*
X-20608741Y2416835D01*
X-20608507Y2418924D01*
X-20607891Y2420938D01*
X-20604939Y2450000D01*
X-18550000Y2450000D01*
X-18550000Y-2000000D01*
X-18548020Y-2013930D01*
X-18542239Y-2026756D01*
X-18535355Y-2035355D01*
X-17785355Y-2785355D01*
X-17774106Y-2793805D01*
X-17760948Y-2798787D01*
X-17750000Y-2800000D01*
X-17050000Y-2800000D01*
X-17050000Y-4700000D01*
X-18450000Y-4700000D01*
X-18450000Y-4242893D01*
X-18442786Y-4234429D01*
X-18413737Y-4169985D01*
X-18403791Y-4100000D01*
X-18403791Y-2850000D01*
X-18406966Y-2810189D01*
X-18427877Y-2742664D01*
X-18466772Y-2683638D01*
X-18520571Y-2637786D01*
X-18585015Y-2608737D01*
X-18655000Y-2598791D01*
X-19305000Y-2598791D01*
X-19344811Y-2601966D01*
X-19412336Y-2622877D01*
X-19471362Y-2661772D01*
X-19503943Y-2700000D01*
X-19725990Y-2700000D01*
X-19736772Y-2683638D01*
X-19790571Y-2637786D01*
X-19855015Y-2608737D01*
X-19925000Y-2598791D01*
X-20575000Y-2598791D01*
X-20614811Y-2601966D01*
X-20682336Y-2622877D01*
X-20741362Y-2661772D01*
X-20773943Y-2700000D01*
X-25415670Y-2700000D01*
X-25672497Y358479D01*
X-25113940Y5338133D01*
X-23892968Y9187123D01*
X-23825628Y9117389D01*
X-23825628Y9117389D01*
G37*
X-23825628Y9117389D02*
X-23745110Y9061427D01*
X-23655256Y9022171D01*
X-23559488Y9001115D01*
X-23551076Y9000939D01*
X-23551209Y9000000D01*
X-23551209Y6500000D01*
X-23550000Y6484840D01*
X-23550000Y5008507D01*
X-23551209Y5000000D01*
X-23551209Y2500000D01*
X-23548034Y2460189D01*
X-23527123Y2392664D01*
X-23488228Y2333638D01*
X-23434429Y2287786D01*
X-23369985Y2258737D01*
X-23300000Y2248791D01*
X-21935652Y2248791D01*
X-21940273Y2242042D01*
X-21978901Y2151916D01*
X-21999288Y2056004D01*
X-22000657Y1957959D01*
X-21982956Y1861515D01*
X-21946860Y1770345D01*
X-21893742Y1687924D01*
X-21825628Y1617389D01*
X-21745110Y1561427D01*
X-21655256Y1522171D01*
X-21559488Y1501115D01*
X-21461455Y1499062D01*
X-21364890Y1516089D01*
X-21273471Y1551548D01*
X-21190680Y1604088D01*
X-21119671Y1671709D01*
X-21063149Y1751834D01*
X-21023267Y1841412D01*
X-21002795Y1931519D01*
X-20717157Y2217157D01*
X-20693677Y2245742D01*
X-20669955Y2274013D01*
X-20668942Y2275855D01*
X-20667606Y2277482D01*
X-20650142Y2310053D01*
X-20632346Y2342423D01*
X-20631710Y2344429D01*
X-20630716Y2346282D01*
X-20619912Y2381620D01*
X-20608741Y2416835D01*
X-20608507Y2418924D01*
X-20607891Y2420938D01*
X-20604939Y2450000D01*
X-18550000Y2450000D01*
X-18550000Y-2000000D01*
X-18548020Y-2013930D01*
X-18542239Y-2026756D01*
X-18535355Y-2035355D01*
X-17785355Y-2785355D01*
X-17774106Y-2793805D01*
X-17760948Y-2798787D01*
X-17750000Y-2800000D01*
X-17050000Y-2800000D01*
X-17050000Y-4700000D01*
X-18450000Y-4700000D01*
X-18450000Y-4242893D01*
X-18442786Y-4234429D01*
X-18413737Y-4169985D01*
X-18403791Y-4100000D01*
X-18403791Y-2850000D01*
X-18406966Y-2810189D01*
X-18427877Y-2742664D01*
X-18466772Y-2683638D01*
X-18520571Y-2637786D01*
X-18585015Y-2608737D01*
X-18655000Y-2598791D01*
X-19305000Y-2598791D01*
X-19344811Y-2601966D01*
X-19412336Y-2622877D01*
X-19471362Y-2661772D01*
X-19503943Y-2700000D01*
X-19725990Y-2700000D01*
X-19736772Y-2683638D01*
X-19790571Y-2637786D01*
X-19855015Y-2608737D01*
X-19925000Y-2598791D01*
X-20575000Y-2598791D01*
X-20614811Y-2601966D01*
X-20682336Y-2622877D01*
X-20741362Y-2661772D01*
X-20773943Y-2700000D01*
X-25415670Y-2700000D01*
X-25672497Y358479D01*
X-25113940Y5338133D01*
X-23892968Y9187123D01*
X-23825628Y9117389D01*
G36*
X-2006230Y13576845D02*
X-2014800Y13575571D01*
X-2023423Y13574786D01*
X-2026839Y13573781D01*
X-2030360Y13573257D01*
X-2038510Y13570346D01*
X-2046826Y13567898D01*
X-2049986Y13566246D01*
X-2053334Y13565050D01*
X-2060759Y13560614D01*
X-2068445Y13556596D01*
X-2071222Y13554363D01*
X-2074277Y13552538D01*
X-2080704Y13546739D01*
X-2087458Y13541309D01*
X-2089749Y13538579D01*
X-2092390Y13536196D01*
X-2097571Y13529256D01*
X-2103139Y13522621D01*
X-2104853Y13519504D01*
X-2106985Y13516648D01*
X-2110722Y13508828D01*
X-2114892Y13501243D01*
X-2115968Y13497849D01*
X-2117504Y13494636D01*
X-2119650Y13486242D01*
X-2122268Y13477989D01*
X-2122665Y13474451D01*
X-2123547Y13471001D01*
X-2124022Y13462357D01*
X-2124988Y13453745D01*
X-2125000Y13452000D01*
X-2125000Y12747936D01*
X-2280096Y12721761D01*
X-2285769Y12720222D01*
X-2291576Y12719264D01*
X-2293259Y12718801D01*
X-4697293Y12040032D01*
X-4707835Y12035907D01*
X-4718452Y12031924D01*
X-4720012Y12031144D01*
X-6946422Y10898356D01*
X-6955987Y10892247D01*
X-6965602Y10886293D01*
X-6966982Y10885224D01*
X-8930964Y9341564D01*
X-8939145Y9333728D01*
X-8947437Y9326005D01*
X-8948582Y9324688D01*
X-10575328Y7428956D01*
X-10581838Y7419670D01*
X-10588464Y7410494D01*
X-10589332Y7408980D01*
X-11816880Y5233380D01*
X-11821438Y5223062D01*
X-11826181Y5212718D01*
X-11826738Y5211064D01*
X-12608332Y2838468D01*
X-12610807Y2827424D01*
X-12613442Y2816393D01*
X-12613667Y2814663D01*
X-12919536Y335438D01*
X-12919819Y324116D01*
X-12920261Y312791D01*
X-12920147Y311049D01*
X-12901129Y50000D01*
X-13634314Y50000D01*
X-13467139Y217175D01*
X-13443659Y245760D01*
X-13419937Y274031D01*
X-13418924Y275873D01*
X-13417588Y277500D01*
X-13400124Y310071D01*
X-13382328Y342441D01*
X-13381692Y344447D01*
X-13380698Y346300D01*
X-13369907Y381597D01*
X-13358723Y416853D01*
X-13358488Y418947D01*
X-13357874Y420956D01*
X-13354146Y457660D01*
X-13350021Y494433D01*
X-13349992Y498551D01*
X-13349985Y498622D01*
X-13349991Y498688D01*
X-13349982Y500018D01*
X-13349982Y3584332D01*
X-12967158Y3967157D01*
X-12943702Y3995712D01*
X-12919955Y4024013D01*
X-12918942Y4025855D01*
X-12917606Y4027482D01*
X-12900161Y4060018D01*
X-12882346Y4092423D01*
X-12881708Y4094433D01*
X-12880717Y4096282D01*
X-12869936Y4131546D01*
X-12858741Y4166835D01*
X-12858506Y4168928D01*
X-12857892Y4170937D01*
X-12854163Y4207647D01*
X-12850039Y4244415D01*
X-12850010Y4248533D01*
X-12850003Y4248604D01*
X-12850009Y4248670D01*
X-12850000Y4250000D01*
X-12850000Y5084314D01*
X-12217157Y5717157D01*
X-12193677Y5745742D01*
X-12169955Y5774013D01*
X-12168942Y5775855D01*
X-12167606Y5777482D01*
X-12150142Y5810053D01*
X-12132346Y5842423D01*
X-12131710Y5844429D01*
X-12130716Y5846282D01*
X-12119925Y5881579D01*
X-12108741Y5916835D01*
X-12108506Y5918929D01*
X-12107892Y5920938D01*
X-12104164Y5957642D01*
X-12100039Y5994415D01*
X-12100010Y5998533D01*
X-12100003Y5998604D01*
X-12100009Y5998670D01*
X-12100000Y6000000D01*
X-12100000Y6334314D01*
X-10967157Y7467157D01*
X-10943677Y7495742D01*
X-10919955Y7524013D01*
X-10918942Y7525855D01*
X-10917606Y7527482D01*
X-10900142Y7560053D01*
X-10882346Y7592423D01*
X-10881710Y7594429D01*
X-10880716Y7596282D01*
X-10869925Y7631579D01*
X-10858741Y7666835D01*
X-10858506Y7668929D01*
X-10857892Y7670938D01*
X-10854159Y7707687D01*
X-10850039Y7744415D01*
X-10850010Y7748522D01*
X-10850002Y7748604D01*
X-10850009Y7748680D01*
X-10850000Y7750000D01*
X-10850000Y7834314D01*
X-10334314Y8350000D01*
X-10250000Y8350000D01*
X-10213216Y8353607D01*
X-10176420Y8356826D01*
X-10174401Y8357413D01*
X-10172306Y8357618D01*
X-10136923Y8368301D01*
X-10101453Y8378606D01*
X-10099585Y8379574D01*
X-10097572Y8380182D01*
X-10064942Y8397531D01*
X-10032145Y8414532D01*
X-10030502Y8415844D01*
X-10028643Y8416832D01*
X-9999989Y8440202D01*
X-9971134Y8463236D01*
X-9968204Y8466124D01*
X-9968146Y8466172D01*
X-9968101Y8466226D01*
X-9967157Y8467157D01*
X-9467157Y8967157D01*
X-9443677Y8995742D01*
X-9419955Y9024013D01*
X-9418942Y9025855D01*
X-9417606Y9027482D01*
X-9400142Y9060053D01*
X-9382346Y9092423D01*
X-9381710Y9094429D01*
X-9380716Y9096282D01*
X-9369912Y9131620D01*
X-9358741Y9166835D01*
X-9358507Y9168924D01*
X-9357891Y9170938D01*
X-9354153Y9207737D01*
X-9350039Y9244415D01*
X-9350010Y9248522D01*
X-9350002Y9248604D01*
X-9350009Y9248680D01*
X-9350000Y9250000D01*
X-9350000Y9750000D01*
X-9353607Y9786784D01*
X-9356826Y9823580D01*
X-9357413Y9825599D01*
X-9357618Y9827694D01*
X-9368287Y9863030D01*
X-9378605Y9898547D01*
X-9379576Y9900419D01*
X-9380182Y9902428D01*
X-9397492Y9934983D01*
X-9414531Y9967855D01*
X-9415845Y9969502D01*
X-9416832Y9971357D01*
X-9440183Y9999988D01*
X-9463236Y10028866D01*
X-9466124Y10031796D01*
X-9466172Y10031854D01*
X-9466226Y10031899D01*
X-9467157Y10032843D01*
X-9784314Y10350000D01*
X-9500000Y10350000D01*
X-9463216Y10353607D01*
X-9426420Y10356826D01*
X-9424401Y10357413D01*
X-9422306Y10357618D01*
X-9386923Y10368301D01*
X-9351453Y10378606D01*
X-9349585Y10379574D01*
X-9347572Y10380182D01*
X-9314942Y10397531D01*
X-9282145Y10414532D01*
X-9280502Y10415844D01*
X-9278643Y10416832D01*
X-9249989Y10440202D01*
X-9221134Y10463236D01*
X-9218204Y10466124D01*
X-9218146Y10466172D01*
X-9218101Y10466226D01*
X-9217157Y10467157D01*
X-6834314Y12850000D01*
X-4250000Y12850000D01*
X-4213216Y12853607D01*
X-4176420Y12856826D01*
X-4174401Y12857413D01*
X-4172306Y12857618D01*
X-4136923Y12868301D01*
X-4101453Y12878606D01*
X-4099585Y12879574D01*
X-4097572Y12880182D01*
X-4064942Y12897531D01*
X-4032145Y12914532D01*
X-4030502Y12915844D01*
X-4028643Y12916832D01*
X-3999989Y12940202D01*
X-3971134Y12963236D01*
X-3968204Y12966124D01*
X-3968146Y12966172D01*
X-3968101Y12966226D01*
X-3967157Y12967157D01*
X-3334314Y13600000D01*
X-1542186Y13600000D01*
X-2006230Y13576845D01*
X-2006230Y13576845D01*
G37*
X-2006230Y13576845D02*
X-2014800Y13575571D01*
X-2023423Y13574786D01*
X-2026839Y13573781D01*
X-2030360Y13573257D01*
X-2038510Y13570346D01*
X-2046826Y13567898D01*
X-2049986Y13566246D01*
X-2053334Y13565050D01*
X-2060759Y13560614D01*
X-2068445Y13556596D01*
X-2071222Y13554363D01*
X-2074277Y13552538D01*
X-2080704Y13546739D01*
X-2087458Y13541309D01*
X-2089749Y13538579D01*
X-2092390Y13536196D01*
X-2097571Y13529256D01*
X-2103139Y13522621D01*
X-2104853Y13519504D01*
X-2106985Y13516648D01*
X-2110722Y13508828D01*
X-2114892Y13501243D01*
X-2115968Y13497849D01*
X-2117504Y13494636D01*
X-2119650Y13486242D01*
X-2122268Y13477989D01*
X-2122665Y13474451D01*
X-2123547Y13471001D01*
X-2124022Y13462357D01*
X-2124988Y13453745D01*
X-2125000Y13452000D01*
X-2125000Y12747936D01*
X-2280096Y12721761D01*
X-2285769Y12720222D01*
X-2291576Y12719264D01*
X-2293259Y12718801D01*
X-4697293Y12040032D01*
X-4707835Y12035907D01*
X-4718452Y12031924D01*
X-4720012Y12031144D01*
X-6946422Y10898356D01*
X-6955987Y10892247D01*
X-6965602Y10886293D01*
X-6966982Y10885224D01*
X-8930964Y9341564D01*
X-8939145Y9333728D01*
X-8947437Y9326005D01*
X-8948582Y9324688D01*
X-10575328Y7428956D01*
X-10581838Y7419670D01*
X-10588464Y7410494D01*
X-10589332Y7408980D01*
X-11816880Y5233380D01*
X-11821438Y5223062D01*
X-11826181Y5212718D01*
X-11826738Y5211064D01*
X-12608332Y2838468D01*
X-12610807Y2827424D01*
X-12613442Y2816393D01*
X-12613667Y2814663D01*
X-12919536Y335438D01*
X-12919819Y324116D01*
X-12920261Y312791D01*
X-12920147Y311049D01*
X-12901129Y50000D01*
X-13634314Y50000D01*
X-13467139Y217175D01*
X-13443659Y245760D01*
X-13419937Y274031D01*
X-13418924Y275873D01*
X-13417588Y277500D01*
X-13400124Y310071D01*
X-13382328Y342441D01*
X-13381692Y344447D01*
X-13380698Y346300D01*
X-13369907Y381597D01*
X-13358723Y416853D01*
X-13358488Y418947D01*
X-13357874Y420956D01*
X-13354146Y457660D01*
X-13350021Y494433D01*
X-13349992Y498551D01*
X-13349985Y498622D01*
X-13349991Y498688D01*
X-13349982Y500018D01*
X-13349982Y3584332D01*
X-12967158Y3967157D01*
X-12943702Y3995712D01*
X-12919955Y4024013D01*
X-12918942Y4025855D01*
X-12917606Y4027482D01*
X-12900161Y4060018D01*
X-12882346Y4092423D01*
X-12881708Y4094433D01*
X-12880717Y4096282D01*
X-12869936Y4131546D01*
X-12858741Y4166835D01*
X-12858506Y4168928D01*
X-12857892Y4170937D01*
X-12854163Y4207647D01*
X-12850039Y4244415D01*
X-12850010Y4248533D01*
X-12850003Y4248604D01*
X-12850009Y4248670D01*
X-12850000Y4250000D01*
X-12850000Y5084314D01*
X-12217157Y5717157D01*
X-12193677Y5745742D01*
X-12169955Y5774013D01*
X-12168942Y5775855D01*
X-12167606Y5777482D01*
X-12150142Y5810053D01*
X-12132346Y5842423D01*
X-12131710Y5844429D01*
X-12130716Y5846282D01*
X-12119925Y5881579D01*
X-12108741Y5916835D01*
X-12108506Y5918929D01*
X-12107892Y5920938D01*
X-12104164Y5957642D01*
X-12100039Y5994415D01*
X-12100010Y5998533D01*
X-12100003Y5998604D01*
X-12100009Y5998670D01*
X-12100000Y6000000D01*
X-12100000Y6334314D01*
X-10967157Y7467157D01*
X-10943677Y7495742D01*
X-10919955Y7524013D01*
X-10918942Y7525855D01*
X-10917606Y7527482D01*
X-10900142Y7560053D01*
X-10882346Y7592423D01*
X-10881710Y7594429D01*
X-10880716Y7596282D01*
X-10869925Y7631579D01*
X-10858741Y7666835D01*
X-10858506Y7668929D01*
X-10857892Y7670938D01*
X-10854159Y7707687D01*
X-10850039Y7744415D01*
X-10850010Y7748522D01*
X-10850002Y7748604D01*
X-10850009Y7748680D01*
X-10850000Y7750000D01*
X-10850000Y7834314D01*
X-10334314Y8350000D01*
X-10250000Y8350000D01*
X-10213216Y8353607D01*
X-10176420Y8356826D01*
X-10174401Y8357413D01*
X-10172306Y8357618D01*
X-10136923Y8368301D01*
X-10101453Y8378606D01*
X-10099585Y8379574D01*
X-10097572Y8380182D01*
X-10064942Y8397531D01*
X-10032145Y8414532D01*
X-10030502Y8415844D01*
X-10028643Y8416832D01*
X-9999989Y8440202D01*
X-9971134Y8463236D01*
X-9968204Y8466124D01*
X-9968146Y8466172D01*
X-9968101Y8466226D01*
X-9967157Y8467157D01*
X-9467157Y8967157D01*
X-9443677Y8995742D01*
X-9419955Y9024013D01*
X-9418942Y9025855D01*
X-9417606Y9027482D01*
X-9400142Y9060053D01*
X-9382346Y9092423D01*
X-9381710Y9094429D01*
X-9380716Y9096282D01*
X-9369912Y9131620D01*
X-9358741Y9166835D01*
X-9358507Y9168924D01*
X-9357891Y9170938D01*
X-9354153Y9207737D01*
X-9350039Y9244415D01*
X-9350010Y9248522D01*
X-9350002Y9248604D01*
X-9350009Y9248680D01*
X-9350000Y9250000D01*
X-9350000Y9750000D01*
X-9353607Y9786784D01*
X-9356826Y9823580D01*
X-9357413Y9825599D01*
X-9357618Y9827694D01*
X-9368287Y9863030D01*
X-9378605Y9898547D01*
X-9379576Y9900419D01*
X-9380182Y9902428D01*
X-9397492Y9934983D01*
X-9414531Y9967855D01*
X-9415845Y9969502D01*
X-9416832Y9971357D01*
X-9440183Y9999988D01*
X-9463236Y10028866D01*
X-9466124Y10031796D01*
X-9466172Y10031854D01*
X-9466226Y10031899D01*
X-9467157Y10032843D01*
X-9784314Y10350000D01*
X-9500000Y10350000D01*
X-9463216Y10353607D01*
X-9426420Y10356826D01*
X-9424401Y10357413D01*
X-9422306Y10357618D01*
X-9386923Y10368301D01*
X-9351453Y10378606D01*
X-9349585Y10379574D01*
X-9347572Y10380182D01*
X-9314942Y10397531D01*
X-9282145Y10414532D01*
X-9280502Y10415844D01*
X-9278643Y10416832D01*
X-9249989Y10440202D01*
X-9221134Y10463236D01*
X-9218204Y10466124D01*
X-9218146Y10466172D01*
X-9218101Y10466226D01*
X-9217157Y10467157D01*
X-6834314Y12850000D01*
X-4250000Y12850000D01*
X-4213216Y12853607D01*
X-4176420Y12856826D01*
X-4174401Y12857413D01*
X-4172306Y12857618D01*
X-4136923Y12868301D01*
X-4101453Y12878606D01*
X-4099585Y12879574D01*
X-4097572Y12880182D01*
X-4064942Y12897531D01*
X-4032145Y12914532D01*
X-4030502Y12915844D01*
X-4028643Y12916832D01*
X-3999989Y12940202D01*
X-3971134Y12963236D01*
X-3968204Y12966124D01*
X-3968146Y12966172D01*
X-3968101Y12966226D01*
X-3967157Y12967157D01*
X-3334314Y13600000D01*
X-1542186Y13600000D01*
X-2006230Y13576845D01*
G36*
X-11800000Y21424455D02*
X-11918724Y21481848D01*
X-12060372Y21518743D01*
X-12206488Y21527423D01*
X-12351508Y21507557D01*
X-12489908Y21459901D01*
X-12616415Y21386271D01*
X-12726211Y21289471D01*
X-12815115Y21173189D01*
X-12879739Y21041853D01*
X-12917624Y20900466D01*
X-12927323Y20754413D01*
X-12923098Y20721885D01*
X-12943564Y20731778D01*
X-13085212Y20768673D01*
X-13231328Y20777353D01*
X-13376348Y20757487D01*
X-13514748Y20709831D01*
X-13617546Y20650000D01*
X-14750000Y20650000D01*
X-14786784Y20646393D01*
X-14823580Y20643174D01*
X-14825599Y20642587D01*
X-14827694Y20642382D01*
X-14863030Y20631713D01*
X-14898547Y20621395D01*
X-14900419Y20620424D01*
X-14902428Y20619818D01*
X-14934983Y20602508D01*
X-14967855Y20585469D01*
X-14969502Y20584155D01*
X-14971357Y20583168D01*
X-14999984Y20559821D01*
X-15028866Y20536764D01*
X-15031796Y20533876D01*
X-15031854Y20533828D01*
X-15031899Y20533774D01*
X-15032843Y20532843D01*
X-15532843Y20032843D01*
X-15556323Y20004258D01*
X-15580045Y19975987D01*
X-15581058Y19974145D01*
X-15582394Y19972518D01*
X-15599858Y19939947D01*
X-15617654Y19907577D01*
X-15618290Y19905571D01*
X-15619284Y19903718D01*
X-15630075Y19868421D01*
X-15641259Y19833165D01*
X-15641494Y19831071D01*
X-15642108Y19829062D01*
X-15645841Y19792313D01*
X-15649961Y19755585D01*
X-15649990Y19751478D01*
X-15649998Y19751396D01*
X-15649991Y19751320D01*
X-15650000Y19750000D01*
X-15650000Y19357166D01*
X-15679746Y19387120D01*
X-15761037Y19441952D01*
X-15851431Y19479950D01*
X-15947483Y19499667D01*
X-16045536Y19500351D01*
X-16141854Y19481978D01*
X-16232769Y19445246D01*
X-16314818Y19391554D01*
X-16384875Y19322949D01*
X-16440273Y19242042D01*
X-16478901Y19151916D01*
X-16496482Y19069204D01*
X-17032843Y18532843D01*
X-17056323Y18504258D01*
X-17080045Y18475987D01*
X-17081058Y18474145D01*
X-17082394Y18472518D01*
X-17099858Y18439947D01*
X-17117654Y18407577D01*
X-17118290Y18405571D01*
X-17119284Y18403718D01*
X-17130075Y18368421D01*
X-17141259Y18333165D01*
X-17141494Y18331071D01*
X-17142108Y18329062D01*
X-17145841Y18292313D01*
X-17149961Y18255585D01*
X-17149990Y18251478D01*
X-17149998Y18251396D01*
X-17149991Y18251320D01*
X-17150000Y18250000D01*
X-17150000Y17800859D01*
X-17190273Y17742042D01*
X-17228901Y17651916D01*
X-17249288Y17556004D01*
X-17250657Y17457959D01*
X-17232956Y17361515D01*
X-17196860Y17270345D01*
X-17143742Y17187924D01*
X-17075628Y17117389D01*
X-16995110Y17061427D01*
X-16905256Y17022171D01*
X-16809488Y17001115D01*
X-16711455Y16999062D01*
X-16614890Y17016089D01*
X-16523471Y17051548D01*
X-16440680Y17104088D01*
X-16369671Y17171709D01*
X-16313149Y17251834D01*
X-16273267Y17341412D01*
X-16251543Y17437030D01*
X-16249979Y17549028D01*
X-16269024Y17645215D01*
X-16306390Y17735871D01*
X-16350000Y17801510D01*
X-16350000Y18084314D01*
X-15929643Y18504671D01*
X-15864890Y18516089D01*
X-15773471Y18551548D01*
X-15690680Y18604088D01*
X-15650000Y18642827D01*
X-15650000Y18415685D01*
X-15782843Y18282843D01*
X-15806323Y18254258D01*
X-15830045Y18225987D01*
X-15831058Y18224145D01*
X-15832394Y18222518D01*
X-15849858Y18189947D01*
X-15867654Y18157577D01*
X-15868290Y18155571D01*
X-15869284Y18153718D01*
X-15880075Y18118421D01*
X-15891259Y18083165D01*
X-15891494Y18081071D01*
X-15892108Y18079062D01*
X-15895841Y18042313D01*
X-15899961Y18005585D01*
X-15899990Y18001478D01*
X-15899998Y18001396D01*
X-15899991Y18001320D01*
X-15900000Y18000000D01*
X-15900000Y17250000D01*
X-15896393Y17213216D01*
X-15893174Y17176420D01*
X-15892587Y17174401D01*
X-15892382Y17172306D01*
X-15881712Y17136966D01*
X-15871394Y17101453D01*
X-15870426Y17099585D01*
X-15869818Y17097572D01*
X-15852469Y17064942D01*
X-15835468Y17032145D01*
X-15834156Y17030502D01*
X-15833168Y17028643D01*
X-15809807Y17000000D01*
X-15808164Y16997942D01*
X-15891854Y16981978D01*
X-15982769Y16945246D01*
X-16064818Y16891554D01*
X-16134875Y16822949D01*
X-16190273Y16742042D01*
X-16228901Y16651916D01*
X-16246482Y16569204D01*
X-16282843Y16532843D01*
X-16306323Y16504258D01*
X-16330045Y16475987D01*
X-16331058Y16474145D01*
X-16332394Y16472518D01*
X-16349858Y16439947D01*
X-16367654Y16407577D01*
X-16368290Y16405571D01*
X-16369284Y16403718D01*
X-16380075Y16368421D01*
X-16391259Y16333165D01*
X-16391494Y16331071D01*
X-16392108Y16329062D01*
X-16395841Y16292313D01*
X-16399961Y16255585D01*
X-16399990Y16251478D01*
X-16399998Y16251396D01*
X-16399991Y16251320D01*
X-16400000Y16250000D01*
X-16400000Y15383507D01*
X-16401209Y15375000D01*
X-16401209Y14525000D01*
X-16398034Y14485189D01*
X-16377123Y14417664D01*
X-16338228Y14358638D01*
X-16284429Y14312786D01*
X-16219985Y14283737D01*
X-16150000Y14273791D01*
X-15900000Y14273791D01*
X-15900000Y14250000D01*
X-15896395Y14213236D01*
X-15893174Y14176420D01*
X-15892587Y14174401D01*
X-15892382Y14172306D01*
X-15881699Y14136923D01*
X-15871394Y14101453D01*
X-15870426Y14099585D01*
X-15869818Y14097572D01*
X-15852469Y14064942D01*
X-15835468Y14032145D01*
X-15834156Y14030502D01*
X-15833168Y14028643D01*
X-15809807Y14000000D01*
X-15786764Y13971134D01*
X-15783876Y13968204D01*
X-15783828Y13968146D01*
X-15783774Y13968101D01*
X-15782843Y13967157D01*
X-15495489Y13679803D01*
X-15482956Y13611515D01*
X-15446860Y13520345D01*
X-15393742Y13437924D01*
X-15325628Y13367389D01*
X-15245110Y13311427D01*
X-15155256Y13272171D01*
X-15059488Y13251115D01*
X-14961455Y13249062D01*
X-14864890Y13266089D01*
X-14773471Y13301548D01*
X-14690680Y13354088D01*
X-14619671Y13421709D01*
X-14563149Y13501834D01*
X-14523267Y13591412D01*
X-14501543Y13687030D01*
X-14501251Y13707959D01*
X-14000657Y13707959D01*
X-14000000Y13704379D01*
X-14000000Y10005012D01*
X-14000657Y9957959D01*
X-13982956Y9861515D01*
X-13946860Y9770345D01*
X-13893742Y9687924D01*
X-13825628Y9617389D01*
X-13745110Y9561427D01*
X-13655256Y9522171D01*
X-13559488Y9501115D01*
X-13461455Y9499062D01*
X-13364890Y9516089D01*
X-13273471Y9551548D01*
X-13190680Y9604088D01*
X-13119671Y9671709D01*
X-13063149Y9751834D01*
X-13023267Y9841412D01*
X-13001543Y9937030D01*
X-13000862Y9985767D01*
X-13000049Y9993019D01*
X-13000000Y10000000D01*
X-13000000Y10047524D01*
X-12999979Y10049028D01*
X-13000000Y10049134D01*
X-13000000Y13750000D01*
X-13000581Y13755925D01*
X-12999979Y13799028D01*
X-13019024Y13895215D01*
X-13056390Y13985871D01*
X-13110653Y14067544D01*
X-13179746Y14137120D01*
X-13261037Y14191952D01*
X-13351431Y14229950D01*
X-13447483Y14249667D01*
X-13545536Y14250351D01*
X-13641854Y14231978D01*
X-13732769Y14195246D01*
X-13814818Y14141554D01*
X-13884875Y14072949D01*
X-13940273Y13992042D01*
X-13978901Y13901916D01*
X-13999288Y13806004D01*
X-14000657Y13707959D01*
X-14501251Y13707959D01*
X-14499979Y13799028D01*
X-14519024Y13895215D01*
X-14556390Y13985871D01*
X-14610653Y14067544D01*
X-14679746Y14137120D01*
X-14761037Y14191952D01*
X-14851431Y14229950D01*
X-14930493Y14246179D01*
X-14958105Y14273791D01*
X-14850000Y14273791D01*
X-14810189Y14276966D01*
X-14747815Y14296282D01*
X-14719985Y14283737D01*
X-14650000Y14273791D01*
X-14350000Y14273791D01*
X-14310189Y14276966D01*
X-14247815Y14296282D01*
X-14219985Y14283737D01*
X-14150000Y14273791D01*
X-13850000Y14273791D01*
X-13810189Y14276966D01*
X-13747815Y14296282D01*
X-13719985Y14283737D01*
X-13650000Y14273791D01*
X-13350000Y14273791D01*
X-13310189Y14276966D01*
X-13247815Y14296282D01*
X-13219985Y14283737D01*
X-13150000Y14273791D01*
X-12976209Y14273791D01*
X-12976209Y14100000D01*
X-12973034Y14060189D01*
X-12953718Y13997815D01*
X-12966263Y13969985D01*
X-12976209Y13900000D01*
X-12976209Y13600000D01*
X-12973034Y13560189D01*
X-12953718Y13497815D01*
X-12966263Y13469985D01*
X-12976209Y13400000D01*
X-12976209Y13100000D01*
X-12973034Y13060189D01*
X-12953718Y12997815D01*
X-12966263Y12969985D01*
X-12976209Y12900000D01*
X-12976209Y12600000D01*
X-12973034Y12560189D01*
X-12953718Y12497815D01*
X-12966263Y12469985D01*
X-12976209Y12400000D01*
X-12976209Y12100000D01*
X-12973034Y12060189D01*
X-12953718Y11997815D01*
X-12966263Y11969985D01*
X-12976209Y11900000D01*
X-12976209Y11600000D01*
X-12973034Y11560189D01*
X-12953718Y11497815D01*
X-12966263Y11469985D01*
X-12976209Y11400000D01*
X-12976209Y11100000D01*
X-12973034Y11060189D01*
X-12953718Y10997815D01*
X-12966263Y10969985D01*
X-12976209Y10900000D01*
X-12976209Y10600000D01*
X-12973034Y10560189D01*
X-12953718Y10497815D01*
X-12966263Y10469985D01*
X-12976209Y10400000D01*
X-12976209Y10100000D01*
X-12973034Y10060189D01*
X-12953718Y9997815D01*
X-12966263Y9969985D01*
X-12976209Y9900000D01*
X-12976209Y9600000D01*
X-12973034Y9560189D01*
X-12953718Y9497815D01*
X-12966263Y9469985D01*
X-12976209Y9400000D01*
X-12976209Y9100000D01*
X-12973034Y9060189D01*
X-12953718Y8997815D01*
X-12966263Y8969985D01*
X-12976209Y8900000D01*
X-12976209Y8726209D01*
X-13150000Y8726209D01*
X-13189811Y8723034D01*
X-13252185Y8703718D01*
X-13280015Y8716263D01*
X-13350000Y8726209D01*
X-13650000Y8726209D01*
X-13689811Y8723034D01*
X-13752185Y8703718D01*
X-13780015Y8716263D01*
X-13850000Y8726209D01*
X-14150000Y8726209D01*
X-14189811Y8723034D01*
X-14252185Y8703718D01*
X-14280015Y8716263D01*
X-14350000Y8726209D01*
X-14650000Y8726209D01*
X-14689811Y8723034D01*
X-14757336Y8702123D01*
X-14816362Y8663228D01*
X-14862214Y8609429D01*
X-14891263Y8544985D01*
X-14901209Y8475000D01*
X-14901209Y7625000D01*
X-14900000Y7609840D01*
X-14900000Y6250000D01*
X-14896395Y6213236D01*
X-14893174Y6176420D01*
X-14892587Y6174401D01*
X-14892382Y6172306D01*
X-14881699Y6136923D01*
X-14871394Y6101453D01*
X-14870426Y6099585D01*
X-14869818Y6097572D01*
X-14852469Y6064942D01*
X-14835468Y6032145D01*
X-14834156Y6030502D01*
X-14833168Y6028643D01*
X-14809807Y6000000D01*
X-14786764Y5971134D01*
X-14783876Y5968204D01*
X-14783828Y5968146D01*
X-14783774Y5968101D01*
X-14782843Y5967157D01*
X-14745489Y5929804D01*
X-14732956Y5861515D01*
X-14696860Y5770345D01*
X-14643742Y5687924D01*
X-14594781Y5637223D01*
X-14613077Y5631699D01*
X-14648547Y5621394D01*
X-14650415Y5620426D01*
X-14652428Y5619818D01*
X-14685037Y5602479D01*
X-14717856Y5585468D01*
X-14719501Y5584155D01*
X-14721357Y5583168D01*
X-14749989Y5559816D01*
X-14778866Y5536764D01*
X-14781791Y5533879D01*
X-14781854Y5533828D01*
X-14781902Y5533770D01*
X-14782843Y5532842D01*
X-15032843Y5282843D01*
X-15056323Y5254258D01*
X-15080045Y5225987D01*
X-15081058Y5224145D01*
X-15082394Y5222518D01*
X-15099858Y5189947D01*
X-15117654Y5157577D01*
X-15118290Y5155571D01*
X-15119284Y5153718D01*
X-15130075Y5118421D01*
X-15141259Y5083165D01*
X-15141494Y5081071D01*
X-15142108Y5079062D01*
X-15145841Y5042313D01*
X-15149961Y5005585D01*
X-15149990Y5001478D01*
X-15149998Y5001396D01*
X-15149991Y5001320D01*
X-15150000Y5000000D01*
X-15150000Y1650684D01*
X-15305000Y1495684D01*
X-15376852Y1481978D01*
X-15393791Y1475134D01*
X-15393791Y1490000D01*
X-15396966Y1529811D01*
X-15417877Y1597336D01*
X-15456772Y1656362D01*
X-15510571Y1702214D01*
X-15575015Y1731263D01*
X-15645000Y1741209D01*
X-15670499Y1741209D01*
X-15700000Y1770710D01*
X-15700000Y2750000D01*
X-15701980Y2763930D01*
X-15707761Y2776756D01*
X-15716888Y2787464D01*
X-15728636Y2795206D01*
X-15742076Y2799368D01*
X-15750000Y2800000D01*
X-17352762Y2800000D01*
X-17391545Y2848583D01*
X-17396447Y2853554D01*
X-17542299Y2999405D01*
X-17510189Y3001966D01*
X-17442664Y3022877D01*
X-17383638Y3061772D01*
X-17337786Y3115571D01*
X-17308737Y3180015D01*
X-17298791Y3250000D01*
X-17298791Y3750000D01*
X-17301966Y3789811D01*
X-17322877Y3857336D01*
X-17361772Y3916362D01*
X-17415571Y3962214D01*
X-17480015Y3991263D01*
X-17550000Y4001209D01*
X-18450000Y4001209D01*
X-18489811Y3998034D01*
X-18557336Y3977123D01*
X-18616362Y3938228D01*
X-18662214Y3884429D01*
X-18691263Y3819985D01*
X-18701209Y3750000D01*
X-18701209Y3250000D01*
X-18698034Y3210189D01*
X-18677123Y3142664D01*
X-18638228Y3083638D01*
X-18584429Y3037786D01*
X-18519985Y3008737D01*
X-18450000Y2998791D01*
X-18435652Y2998791D01*
X-18440273Y2992042D01*
X-18478901Y2901916D01*
X-18499288Y2806004D01*
X-18499372Y2800000D01*
X-20600000Y2800000D01*
X-20600000Y3449594D01*
X-20563149Y3501834D01*
X-20523267Y3591412D01*
X-20501543Y3687030D01*
X-20499979Y3799028D01*
X-20519024Y3895215D01*
X-20556390Y3985871D01*
X-20610653Y4067544D01*
X-20679746Y4137120D01*
X-20761037Y4191952D01*
X-20851431Y4229950D01*
X-20947483Y4249667D01*
X-21045536Y4250351D01*
X-21141854Y4231978D01*
X-21232769Y4195246D01*
X-21248791Y4184761D01*
X-21248791Y5000000D01*
X-21251966Y5039811D01*
X-21272877Y5107336D01*
X-21311772Y5166362D01*
X-21365571Y5212214D01*
X-21430015Y5241263D01*
X-21500000Y5251209D01*
X-22250000Y5251209D01*
X-22250000Y5500000D01*
X-22250581Y5505925D01*
X-22249979Y5549028D01*
X-22269024Y5645215D01*
X-22306390Y5735871D01*
X-22360653Y5817544D01*
X-22429746Y5887120D01*
X-22511037Y5941952D01*
X-22601431Y5979950D01*
X-22697483Y5999667D01*
X-22795536Y6000351D01*
X-22891854Y5981978D01*
X-22982769Y5945246D01*
X-23064818Y5891554D01*
X-23134875Y5822949D01*
X-23190273Y5742042D01*
X-23200000Y5719347D01*
X-23200000Y9098173D01*
X-23190680Y9104088D01*
X-23119671Y9171709D01*
X-23116045Y9176849D01*
X-22042894Y10250000D01*
X-21207107Y10250000D01*
X-21353553Y10103553D01*
X-21382832Y10067908D01*
X-21412557Y10032484D01*
X-21413825Y10030177D01*
X-21415492Y10028148D01*
X-21437299Y9987479D01*
X-21459568Y9946971D01*
X-21460363Y9944464D01*
X-21461605Y9942148D01*
X-21475107Y9897985D01*
X-21489074Y9853956D01*
X-21489367Y9851345D01*
X-21490136Y9848829D01*
X-21494806Y9802853D01*
X-21499951Y9756981D01*
X-21499987Y9751843D01*
X-21499997Y9751745D01*
X-21499988Y9751654D01*
X-21500000Y9750000D01*
X-21500000Y6799998D01*
X-21495495Y6754054D01*
X-21491468Y6708022D01*
X-21490735Y6705497D01*
X-21490478Y6702881D01*
X-21477131Y6658675D01*
X-21464243Y6614314D01*
X-21463033Y6611979D01*
X-21462273Y6609463D01*
X-21440606Y6568713D01*
X-21419336Y6527678D01*
X-21417694Y6525622D01*
X-21416461Y6523302D01*
X-21387272Y6487513D01*
X-21358455Y6451416D01*
X-21354848Y6447758D01*
X-21354785Y6447681D01*
X-21354714Y6447622D01*
X-21353553Y6446445D01*
X-21057479Y6150370D01*
X-21025630Y6117389D01*
X-20945112Y6061427D01*
X-20855258Y6022171D01*
X-20759490Y6001115D01*
X-20661457Y5999062D01*
X-20564892Y6016089D01*
X-20473473Y6051548D01*
X-20439998Y6072792D01*
X-20441263Y6069985D01*
X-20451209Y6000000D01*
X-20451209Y5200000D01*
X-20448034Y5160189D01*
X-20427123Y5092664D01*
X-20388228Y5033638D01*
X-20334429Y4987786D01*
X-20269985Y4958737D01*
X-20200000Y4948791D01*
X-19300000Y4948791D01*
X-19260189Y4951966D01*
X-19192664Y4972877D01*
X-19133638Y5011772D01*
X-19087786Y5065571D01*
X-19058737Y5130015D01*
X-19048791Y5200000D01*
X-19048791Y6000000D01*
X-19051966Y6039811D01*
X-19072877Y6107336D01*
X-19111772Y6166362D01*
X-19165571Y6212214D01*
X-19230015Y6241263D01*
X-19300000Y6251209D01*
X-19505725Y6251209D01*
X-19498791Y6300000D01*
X-19498791Y7041684D01*
X-19001209Y6544102D01*
X-19001209Y6300000D01*
X-19000000Y6284840D01*
X-19000000Y6005012D01*
X-19000657Y5957959D01*
X-18982956Y5861515D01*
X-18946860Y5770345D01*
X-18893742Y5687924D01*
X-18825628Y5617389D01*
X-18745110Y5561427D01*
X-18655256Y5522171D01*
X-18559488Y5501115D01*
X-18473704Y5499319D01*
X-18489811Y5498034D01*
X-18557336Y5477123D01*
X-18616362Y5438228D01*
X-18662214Y5384429D01*
X-18691263Y5319985D01*
X-18701209Y5250000D01*
X-18701209Y4750000D01*
X-18698034Y4710189D01*
X-18677123Y4642664D01*
X-18638228Y4583638D01*
X-18584429Y4537786D01*
X-18519985Y4508737D01*
X-18450000Y4498791D01*
X-17550000Y4498791D01*
X-17510189Y4501966D01*
X-17442664Y4522877D01*
X-17383638Y4561772D01*
X-17351057Y4600000D01*
X-17149010Y4600000D01*
X-17138228Y4583638D01*
X-17084429Y4537786D01*
X-17019985Y4508737D01*
X-16950000Y4498791D01*
X-16050000Y4498791D01*
X-16010189Y4501966D01*
X-15942664Y4522877D01*
X-15883638Y4561772D01*
X-15837786Y4615571D01*
X-15808737Y4680015D01*
X-15798791Y4750000D01*
X-15798791Y5250000D01*
X-15801966Y5289811D01*
X-15822877Y5357336D01*
X-15824506Y5359808D01*
X-15217157Y5967158D01*
X-15193698Y5995718D01*
X-15169955Y6024013D01*
X-15168942Y6025855D01*
X-15167606Y6027482D01*
X-15150142Y6060053D01*
X-15132346Y6092423D01*
X-15131710Y6094429D01*
X-15130716Y6096282D01*
X-15119912Y6131620D01*
X-15108741Y6166835D01*
X-15108507Y6168924D01*
X-15107891Y6170938D01*
X-15104153Y6207737D01*
X-15100039Y6244415D01*
X-15100010Y6248522D01*
X-15100002Y6248604D01*
X-15100009Y6248680D01*
X-15100000Y6250000D01*
X-15100000Y7616493D01*
X-15098791Y7625000D01*
X-15098791Y8475000D01*
X-15101966Y8514811D01*
X-15122877Y8582336D01*
X-15161772Y8641362D01*
X-15215571Y8687214D01*
X-15280015Y8716263D01*
X-15350000Y8726209D01*
X-15650000Y8726209D01*
X-15689811Y8723034D01*
X-15752185Y8703718D01*
X-15780015Y8716263D01*
X-15850000Y8726209D01*
X-16150000Y8726209D01*
X-16189811Y8723034D01*
X-16252185Y8703718D01*
X-16280015Y8716263D01*
X-16350000Y8726209D01*
X-16600000Y8726209D01*
X-16600000Y9000000D01*
X-16603607Y9036784D01*
X-16606826Y9073580D01*
X-16607413Y9075599D01*
X-16607618Y9077694D01*
X-16618301Y9113077D01*
X-16628606Y9148547D01*
X-16629574Y9150415D01*
X-16630182Y9152428D01*
X-16647531Y9185058D01*
X-16664532Y9217855D01*
X-16665844Y9219498D01*
X-16666832Y9221357D01*
X-16690202Y9250011D01*
X-16713236Y9278866D01*
X-16716124Y9281796D01*
X-16716172Y9281854D01*
X-16716226Y9281899D01*
X-16717157Y9282843D01*
X-17350000Y9915686D01*
X-17350000Y10834314D01*
X-17217158Y10967157D01*
X-17193702Y10995712D01*
X-17169955Y11024013D01*
X-17168942Y11025855D01*
X-17167606Y11027482D01*
X-17150161Y11060018D01*
X-17132346Y11092423D01*
X-17131708Y11094433D01*
X-17130717Y11096282D01*
X-17119936Y11131546D01*
X-17108741Y11166835D01*
X-17108506Y11168928D01*
X-17107892Y11170937D01*
X-17104163Y11207647D01*
X-17100039Y11244415D01*
X-17100010Y11248533D01*
X-17100003Y11248604D01*
X-17100009Y11248670D01*
X-17100000Y11250000D01*
X-17100000Y11750000D01*
X-17103607Y11786784D01*
X-17106826Y11823580D01*
X-17107413Y11825599D01*
X-17107618Y11827694D01*
X-17118287Y11863030D01*
X-17128605Y11898547D01*
X-17129576Y11900419D01*
X-17130182Y11902428D01*
X-17147492Y11934983D01*
X-17164531Y11967855D01*
X-17165845Y11969502D01*
X-17166832Y11971357D01*
X-17190179Y11999984D01*
X-17213236Y12028866D01*
X-17216124Y12031796D01*
X-17216172Y12031854D01*
X-17216226Y12031899D01*
X-17217157Y12032843D01*
X-17717157Y12532843D01*
X-17745742Y12556323D01*
X-17774013Y12580045D01*
X-17775855Y12581058D01*
X-17777482Y12582394D01*
X-17810053Y12599858D01*
X-17842423Y12617654D01*
X-17844429Y12618290D01*
X-17846282Y12619284D01*
X-17850000Y12620421D01*
X-17850000Y13810180D01*
X-17835468Y13782145D01*
X-17834156Y13780502D01*
X-17833168Y13778643D01*
X-17809807Y13750000D01*
X-17786764Y13721134D01*
X-17783876Y13718204D01*
X-17783828Y13718146D01*
X-17783774Y13718101D01*
X-17782843Y13717157D01*
X-17745489Y13679804D01*
X-17732956Y13611515D01*
X-17696860Y13520345D01*
X-17643742Y13437924D01*
X-17575628Y13367389D01*
X-17495110Y13311427D01*
X-17405256Y13272171D01*
X-17309488Y13251115D01*
X-17211455Y13249062D01*
X-17114890Y13266089D01*
X-17023471Y13301548D01*
X-16940680Y13354088D01*
X-16869671Y13421709D01*
X-16813149Y13501834D01*
X-16773267Y13591412D01*
X-16751543Y13687030D01*
X-16749979Y13799028D01*
X-16769024Y13895215D01*
X-16806390Y13985871D01*
X-16860653Y14067544D01*
X-16929746Y14137120D01*
X-17011037Y14191952D01*
X-17100000Y14229348D01*
X-17100000Y14273791D01*
X-16850000Y14273791D01*
X-16810189Y14276966D01*
X-16742664Y14297877D01*
X-16683638Y14336772D01*
X-16637786Y14390571D01*
X-16608737Y14455015D01*
X-16598791Y14525000D01*
X-16598791Y15375000D01*
X-16600000Y15390160D01*
X-16600000Y15750000D01*
X-16603607Y15786784D01*
X-16606826Y15823580D01*
X-16607413Y15825599D01*
X-16607618Y15827694D01*
X-16618301Y15863077D01*
X-16628606Y15898547D01*
X-16629574Y15900415D01*
X-16630182Y15902428D01*
X-16647521Y15935037D01*
X-16664532Y15967856D01*
X-16665845Y15969501D01*
X-16666832Y15971357D01*
X-16690184Y15999989D01*
X-16713236Y16028866D01*
X-16716121Y16031791D01*
X-16716172Y16031854D01*
X-16716230Y16031902D01*
X-16717158Y16032843D01*
X-16754086Y16069771D01*
X-16769024Y16145215D01*
X-16806390Y16235871D01*
X-16860653Y16317544D01*
X-16929746Y16387120D01*
X-17011037Y16441952D01*
X-17101431Y16479950D01*
X-17197483Y16499667D01*
X-17295536Y16500351D01*
X-17391854Y16481978D01*
X-17482769Y16445246D01*
X-17527563Y16415933D01*
X-17556390Y16485871D01*
X-17610653Y16567544D01*
X-17679746Y16637120D01*
X-17761037Y16691952D01*
X-17851431Y16729950D01*
X-17947483Y16749667D01*
X-18045536Y16750351D01*
X-18141854Y16731978D01*
X-18232769Y16695246D01*
X-18314818Y16641554D01*
X-18384875Y16572949D01*
X-18440273Y16492042D01*
X-18478901Y16401916D01*
X-18496482Y16319204D01*
X-18782843Y16032843D01*
X-18806323Y16004258D01*
X-18830045Y15975987D01*
X-18831058Y15974145D01*
X-18832394Y15972518D01*
X-18849858Y15939947D01*
X-18867654Y15907577D01*
X-18868290Y15905571D01*
X-18869284Y15903718D01*
X-18880075Y15868421D01*
X-18891259Y15833165D01*
X-18891494Y15831071D01*
X-18892108Y15829062D01*
X-18895841Y15792313D01*
X-18899961Y15755585D01*
X-18899990Y15751478D01*
X-18899998Y15751396D01*
X-18899991Y15751320D01*
X-18900000Y15750000D01*
X-18900000Y15478687D01*
X-18982769Y15445246D01*
X-19064818Y15391554D01*
X-19134875Y15322949D01*
X-19190273Y15242042D01*
X-19228901Y15151916D01*
X-19249288Y15056004D01*
X-19250657Y14957959D01*
X-19232956Y14861515D01*
X-19196860Y14770345D01*
X-19143742Y14687924D01*
X-19135892Y14679794D01*
X-19164477Y14651209D01*
X-19625000Y14651209D01*
X-19664811Y14648034D01*
X-19732336Y14627123D01*
X-19791362Y14588228D01*
X-19837214Y14534429D01*
X-19866263Y14469985D01*
X-19876209Y14400000D01*
X-19876209Y14100000D01*
X-19873034Y14060189D01*
X-19852123Y13992664D01*
X-19813228Y13933638D01*
X-19759429Y13887786D01*
X-19694985Y13858737D01*
X-19625000Y13848791D01*
X-18775000Y13848791D01*
X-18735189Y13851966D01*
X-18667664Y13872877D01*
X-18650000Y13884517D01*
X-18650000Y13616464D01*
X-18705015Y13641263D01*
X-18775000Y13651209D01*
X-19625000Y13651209D01*
X-19664811Y13648034D01*
X-19732336Y13627123D01*
X-19791362Y13588228D01*
X-19837214Y13534429D01*
X-19866263Y13469985D01*
X-19876209Y13400000D01*
X-19876209Y13100000D01*
X-19873034Y13060189D01*
X-19853718Y12997815D01*
X-19866263Y12969985D01*
X-19876209Y12900000D01*
X-19876209Y12600000D01*
X-19873034Y12560189D01*
X-19853718Y12497815D01*
X-19866263Y12469985D01*
X-19876209Y12400000D01*
X-19876209Y12191895D01*
X-20217157Y12532843D01*
X-20245742Y12556323D01*
X-20274013Y12580045D01*
X-20275855Y12581058D01*
X-20277482Y12582394D01*
X-20310053Y12599858D01*
X-20342423Y12617654D01*
X-20344429Y12618290D01*
X-20346282Y12619284D01*
X-20381579Y12630075D01*
X-20416835Y12641259D01*
X-20418929Y12641494D01*
X-20420938Y12642108D01*
X-20457687Y12645841D01*
X-20494415Y12649961D01*
X-20498522Y12649990D01*
X-20498604Y12649998D01*
X-20498680Y12649991D01*
X-20500000Y12650000D01*
X-21000000Y12650000D01*
X-21036784Y12646393D01*
X-21073580Y12643174D01*
X-21075599Y12642587D01*
X-21077694Y12642382D01*
X-21113030Y12631713D01*
X-21148547Y12621395D01*
X-21150419Y12620424D01*
X-21152428Y12619818D01*
X-21184983Y12602508D01*
X-21217855Y12585469D01*
X-21219502Y12584155D01*
X-21221357Y12583168D01*
X-21249984Y12559821D01*
X-21278866Y12536764D01*
X-21281796Y12533876D01*
X-21281854Y12533828D01*
X-21281899Y12533774D01*
X-21282843Y12532843D01*
X-21782843Y12032843D01*
X-21806323Y12004258D01*
X-21830045Y11975987D01*
X-21831058Y11974145D01*
X-21832394Y11972518D01*
X-21849858Y11939947D01*
X-21867654Y11907577D01*
X-21868290Y11905571D01*
X-21869284Y11903718D01*
X-21880075Y11868421D01*
X-21891259Y11833165D01*
X-21891494Y11831071D01*
X-21892108Y11829062D01*
X-21894097Y11809480D01*
X-21940273Y11742042D01*
X-21978901Y11651916D01*
X-21999288Y11556004D01*
X-22000657Y11457959D01*
X-21982956Y11361515D01*
X-21946860Y11270345D01*
X-21933748Y11250000D01*
X-22250000Y11250000D01*
X-22295948Y11245495D01*
X-22341975Y11241468D01*
X-22344499Y11240735D01*
X-22347117Y11240478D01*
X-22391335Y11227127D01*
X-22435684Y11214243D01*
X-22438019Y11213033D01*
X-22440535Y11212273D01*
X-22481285Y11190606D01*
X-22522320Y11169336D01*
X-22524376Y11167694D01*
X-22526696Y11166461D01*
X-22562485Y11137272D01*
X-22598582Y11108455D01*
X-22602240Y11104848D01*
X-22602317Y11104785D01*
X-22602376Y11104714D01*
X-22603553Y11103553D01*
X-23601659Y10105447D01*
X-23598800Y10114459D01*
X-21184789Y14505528D01*
X-17963856Y18344086D01*
X-14058686Y21483924D01*
X-11800000Y22664736D01*
X-11800000Y21424455D01*
X-11800000Y21424455D01*
G37*
X-11800000Y21424455D02*
X-11918724Y21481848D01*
X-12060372Y21518743D01*
X-12206488Y21527423D01*
X-12351508Y21507557D01*
X-12489908Y21459901D01*
X-12616415Y21386271D01*
X-12726211Y21289471D01*
X-12815115Y21173189D01*
X-12879739Y21041853D01*
X-12917624Y20900466D01*
X-12927323Y20754413D01*
X-12923098Y20721885D01*
X-12943564Y20731778D01*
X-13085212Y20768673D01*
X-13231328Y20777353D01*
X-13376348Y20757487D01*
X-13514748Y20709831D01*
X-13617546Y20650000D01*
X-14750000Y20650000D01*
X-14786784Y20646393D01*
X-14823580Y20643174D01*
X-14825599Y20642587D01*
X-14827694Y20642382D01*
X-14863030Y20631713D01*
X-14898547Y20621395D01*
X-14900419Y20620424D01*
X-14902428Y20619818D01*
X-14934983Y20602508D01*
X-14967855Y20585469D01*
X-14969502Y20584155D01*
X-14971357Y20583168D01*
X-14999984Y20559821D01*
X-15028866Y20536764D01*
X-15031796Y20533876D01*
X-15031854Y20533828D01*
X-15031899Y20533774D01*
X-15032843Y20532843D01*
X-15532843Y20032843D01*
X-15556323Y20004258D01*
X-15580045Y19975987D01*
X-15581058Y19974145D01*
X-15582394Y19972518D01*
X-15599858Y19939947D01*
X-15617654Y19907577D01*
X-15618290Y19905571D01*
X-15619284Y19903718D01*
X-15630075Y19868421D01*
X-15641259Y19833165D01*
X-15641494Y19831071D01*
X-15642108Y19829062D01*
X-15645841Y19792313D01*
X-15649961Y19755585D01*
X-15649990Y19751478D01*
X-15649998Y19751396D01*
X-15649991Y19751320D01*
X-15650000Y19750000D01*
X-15650000Y19357166D01*
X-15679746Y19387120D01*
X-15761037Y19441952D01*
X-15851431Y19479950D01*
X-15947483Y19499667D01*
X-16045536Y19500351D01*
X-16141854Y19481978D01*
X-16232769Y19445246D01*
X-16314818Y19391554D01*
X-16384875Y19322949D01*
X-16440273Y19242042D01*
X-16478901Y19151916D01*
X-16496482Y19069204D01*
X-17032843Y18532843D01*
X-17056323Y18504258D01*
X-17080045Y18475987D01*
X-17081058Y18474145D01*
X-17082394Y18472518D01*
X-17099858Y18439947D01*
X-17117654Y18407577D01*
X-17118290Y18405571D01*
X-17119284Y18403718D01*
X-17130075Y18368421D01*
X-17141259Y18333165D01*
X-17141494Y18331071D01*
X-17142108Y18329062D01*
X-17145841Y18292313D01*
X-17149961Y18255585D01*
X-17149990Y18251478D01*
X-17149998Y18251396D01*
X-17149991Y18251320D01*
X-17150000Y18250000D01*
X-17150000Y17800859D01*
X-17190273Y17742042D01*
X-17228901Y17651916D01*
X-17249288Y17556004D01*
X-17250657Y17457959D01*
X-17232956Y17361515D01*
X-17196860Y17270345D01*
X-17143742Y17187924D01*
X-17075628Y17117389D01*
X-16995110Y17061427D01*
X-16905256Y17022171D01*
X-16809488Y17001115D01*
X-16711455Y16999062D01*
X-16614890Y17016089D01*
X-16523471Y17051548D01*
X-16440680Y17104088D01*
X-16369671Y17171709D01*
X-16313149Y17251834D01*
X-16273267Y17341412D01*
X-16251543Y17437030D01*
X-16249979Y17549028D01*
X-16269024Y17645215D01*
X-16306390Y17735871D01*
X-16350000Y17801510D01*
X-16350000Y18084314D01*
X-15929643Y18504671D01*
X-15864890Y18516089D01*
X-15773471Y18551548D01*
X-15690680Y18604088D01*
X-15650000Y18642827D01*
X-15650000Y18415685D01*
X-15782843Y18282843D01*
X-15806323Y18254258D01*
X-15830045Y18225987D01*
X-15831058Y18224145D01*
X-15832394Y18222518D01*
X-15849858Y18189947D01*
X-15867654Y18157577D01*
X-15868290Y18155571D01*
X-15869284Y18153718D01*
X-15880075Y18118421D01*
X-15891259Y18083165D01*
X-15891494Y18081071D01*
X-15892108Y18079062D01*
X-15895841Y18042313D01*
X-15899961Y18005585D01*
X-15899990Y18001478D01*
X-15899998Y18001396D01*
X-15899991Y18001320D01*
X-15900000Y18000000D01*
X-15900000Y17250000D01*
X-15896393Y17213216D01*
X-15893174Y17176420D01*
X-15892587Y17174401D01*
X-15892382Y17172306D01*
X-15881712Y17136966D01*
X-15871394Y17101453D01*
X-15870426Y17099585D01*
X-15869818Y17097572D01*
X-15852469Y17064942D01*
X-15835468Y17032145D01*
X-15834156Y17030502D01*
X-15833168Y17028643D01*
X-15809807Y17000000D01*
X-15808164Y16997942D01*
X-15891854Y16981978D01*
X-15982769Y16945246D01*
X-16064818Y16891554D01*
X-16134875Y16822949D01*
X-16190273Y16742042D01*
X-16228901Y16651916D01*
X-16246482Y16569204D01*
X-16282843Y16532843D01*
X-16306323Y16504258D01*
X-16330045Y16475987D01*
X-16331058Y16474145D01*
X-16332394Y16472518D01*
X-16349858Y16439947D01*
X-16367654Y16407577D01*
X-16368290Y16405571D01*
X-16369284Y16403718D01*
X-16380075Y16368421D01*
X-16391259Y16333165D01*
X-16391494Y16331071D01*
X-16392108Y16329062D01*
X-16395841Y16292313D01*
X-16399961Y16255585D01*
X-16399990Y16251478D01*
X-16399998Y16251396D01*
X-16399991Y16251320D01*
X-16400000Y16250000D01*
X-16400000Y15383507D01*
X-16401209Y15375000D01*
X-16401209Y14525000D01*
X-16398034Y14485189D01*
X-16377123Y14417664D01*
X-16338228Y14358638D01*
X-16284429Y14312786D01*
X-16219985Y14283737D01*
X-16150000Y14273791D01*
X-15900000Y14273791D01*
X-15900000Y14250000D01*
X-15896395Y14213236D01*
X-15893174Y14176420D01*
X-15892587Y14174401D01*
X-15892382Y14172306D01*
X-15881699Y14136923D01*
X-15871394Y14101453D01*
X-15870426Y14099585D01*
X-15869818Y14097572D01*
X-15852469Y14064942D01*
X-15835468Y14032145D01*
X-15834156Y14030502D01*
X-15833168Y14028643D01*
X-15809807Y14000000D01*
X-15786764Y13971134D01*
X-15783876Y13968204D01*
X-15783828Y13968146D01*
X-15783774Y13968101D01*
X-15782843Y13967157D01*
X-15495489Y13679803D01*
X-15482956Y13611515D01*
X-15446860Y13520345D01*
X-15393742Y13437924D01*
X-15325628Y13367389D01*
X-15245110Y13311427D01*
X-15155256Y13272171D01*
X-15059488Y13251115D01*
X-14961455Y13249062D01*
X-14864890Y13266089D01*
X-14773471Y13301548D01*
X-14690680Y13354088D01*
X-14619671Y13421709D01*
X-14563149Y13501834D01*
X-14523267Y13591412D01*
X-14501543Y13687030D01*
X-14501251Y13707959D01*
X-14000657Y13707959D01*
X-14000000Y13704379D01*
X-14000000Y10005012D01*
X-14000657Y9957959D01*
X-13982956Y9861515D01*
X-13946860Y9770345D01*
X-13893742Y9687924D01*
X-13825628Y9617389D01*
X-13745110Y9561427D01*
X-13655256Y9522171D01*
X-13559488Y9501115D01*
X-13461455Y9499062D01*
X-13364890Y9516089D01*
X-13273471Y9551548D01*
X-13190680Y9604088D01*
X-13119671Y9671709D01*
X-13063149Y9751834D01*
X-13023267Y9841412D01*
X-13001543Y9937030D01*
X-13000862Y9985767D01*
X-13000049Y9993019D01*
X-13000000Y10000000D01*
X-13000000Y10047524D01*
X-12999979Y10049028D01*
X-13000000Y10049134D01*
X-13000000Y13750000D01*
X-13000581Y13755925D01*
X-12999979Y13799028D01*
X-13019024Y13895215D01*
X-13056390Y13985871D01*
X-13110653Y14067544D01*
X-13179746Y14137120D01*
X-13261037Y14191952D01*
X-13351431Y14229950D01*
X-13447483Y14249667D01*
X-13545536Y14250351D01*
X-13641854Y14231978D01*
X-13732769Y14195246D01*
X-13814818Y14141554D01*
X-13884875Y14072949D01*
X-13940273Y13992042D01*
X-13978901Y13901916D01*
X-13999288Y13806004D01*
X-14000657Y13707959D01*
X-14501251Y13707959D01*
X-14499979Y13799028D01*
X-14519024Y13895215D01*
X-14556390Y13985871D01*
X-14610653Y14067544D01*
X-14679746Y14137120D01*
X-14761037Y14191952D01*
X-14851431Y14229950D01*
X-14930493Y14246179D01*
X-14958105Y14273791D01*
X-14850000Y14273791D01*
X-14810189Y14276966D01*
X-14747815Y14296282D01*
X-14719985Y14283737D01*
X-14650000Y14273791D01*
X-14350000Y14273791D01*
X-14310189Y14276966D01*
X-14247815Y14296282D01*
X-14219985Y14283737D01*
X-14150000Y14273791D01*
X-13850000Y14273791D01*
X-13810189Y14276966D01*
X-13747815Y14296282D01*
X-13719985Y14283737D01*
X-13650000Y14273791D01*
X-13350000Y14273791D01*
X-13310189Y14276966D01*
X-13247815Y14296282D01*
X-13219985Y14283737D01*
X-13150000Y14273791D01*
X-12976209Y14273791D01*
X-12976209Y14100000D01*
X-12973034Y14060189D01*
X-12953718Y13997815D01*
X-12966263Y13969985D01*
X-12976209Y13900000D01*
X-12976209Y13600000D01*
X-12973034Y13560189D01*
X-12953718Y13497815D01*
X-12966263Y13469985D01*
X-12976209Y13400000D01*
X-12976209Y13100000D01*
X-12973034Y13060189D01*
X-12953718Y12997815D01*
X-12966263Y12969985D01*
X-12976209Y12900000D01*
X-12976209Y12600000D01*
X-12973034Y12560189D01*
X-12953718Y12497815D01*
X-12966263Y12469985D01*
X-12976209Y12400000D01*
X-12976209Y12100000D01*
X-12973034Y12060189D01*
X-12953718Y11997815D01*
X-12966263Y11969985D01*
X-12976209Y11900000D01*
X-12976209Y11600000D01*
X-12973034Y11560189D01*
X-12953718Y11497815D01*
X-12966263Y11469985D01*
X-12976209Y11400000D01*
X-12976209Y11100000D01*
X-12973034Y11060189D01*
X-12953718Y10997815D01*
X-12966263Y10969985D01*
X-12976209Y10900000D01*
X-12976209Y10600000D01*
X-12973034Y10560189D01*
X-12953718Y10497815D01*
X-12966263Y10469985D01*
X-12976209Y10400000D01*
X-12976209Y10100000D01*
X-12973034Y10060189D01*
X-12953718Y9997815D01*
X-12966263Y9969985D01*
X-12976209Y9900000D01*
X-12976209Y9600000D01*
X-12973034Y9560189D01*
X-12953718Y9497815D01*
X-12966263Y9469985D01*
X-12976209Y9400000D01*
X-12976209Y9100000D01*
X-12973034Y9060189D01*
X-12953718Y8997815D01*
X-12966263Y8969985D01*
X-12976209Y8900000D01*
X-12976209Y8726209D01*
X-13150000Y8726209D01*
X-13189811Y8723034D01*
X-13252185Y8703718D01*
X-13280015Y8716263D01*
X-13350000Y8726209D01*
X-13650000Y8726209D01*
X-13689811Y8723034D01*
X-13752185Y8703718D01*
X-13780015Y8716263D01*
X-13850000Y8726209D01*
X-14150000Y8726209D01*
X-14189811Y8723034D01*
X-14252185Y8703718D01*
X-14280015Y8716263D01*
X-14350000Y8726209D01*
X-14650000Y8726209D01*
X-14689811Y8723034D01*
X-14757336Y8702123D01*
X-14816362Y8663228D01*
X-14862214Y8609429D01*
X-14891263Y8544985D01*
X-14901209Y8475000D01*
X-14901209Y7625000D01*
X-14900000Y7609840D01*
X-14900000Y6250000D01*
X-14896395Y6213236D01*
X-14893174Y6176420D01*
X-14892587Y6174401D01*
X-14892382Y6172306D01*
X-14881699Y6136923D01*
X-14871394Y6101453D01*
X-14870426Y6099585D01*
X-14869818Y6097572D01*
X-14852469Y6064942D01*
X-14835468Y6032145D01*
X-14834156Y6030502D01*
X-14833168Y6028643D01*
X-14809807Y6000000D01*
X-14786764Y5971134D01*
X-14783876Y5968204D01*
X-14783828Y5968146D01*
X-14783774Y5968101D01*
X-14782843Y5967157D01*
X-14745489Y5929804D01*
X-14732956Y5861515D01*
X-14696860Y5770345D01*
X-14643742Y5687924D01*
X-14594781Y5637223D01*
X-14613077Y5631699D01*
X-14648547Y5621394D01*
X-14650415Y5620426D01*
X-14652428Y5619818D01*
X-14685037Y5602479D01*
X-14717856Y5585468D01*
X-14719501Y5584155D01*
X-14721357Y5583168D01*
X-14749989Y5559816D01*
X-14778866Y5536764D01*
X-14781791Y5533879D01*
X-14781854Y5533828D01*
X-14781902Y5533770D01*
X-14782843Y5532842D01*
X-15032843Y5282843D01*
X-15056323Y5254258D01*
X-15080045Y5225987D01*
X-15081058Y5224145D01*
X-15082394Y5222518D01*
X-15099858Y5189947D01*
X-15117654Y5157577D01*
X-15118290Y5155571D01*
X-15119284Y5153718D01*
X-15130075Y5118421D01*
X-15141259Y5083165D01*
X-15141494Y5081071D01*
X-15142108Y5079062D01*
X-15145841Y5042313D01*
X-15149961Y5005585D01*
X-15149990Y5001478D01*
X-15149998Y5001396D01*
X-15149991Y5001320D01*
X-15150000Y5000000D01*
X-15150000Y1650684D01*
X-15305000Y1495684D01*
X-15376852Y1481978D01*
X-15393791Y1475134D01*
X-15393791Y1490000D01*
X-15396966Y1529811D01*
X-15417877Y1597336D01*
X-15456772Y1656362D01*
X-15510571Y1702214D01*
X-15575015Y1731263D01*
X-15645000Y1741209D01*
X-15670499Y1741209D01*
X-15700000Y1770710D01*
X-15700000Y2750000D01*
X-15701980Y2763930D01*
X-15707761Y2776756D01*
X-15716888Y2787464D01*
X-15728636Y2795206D01*
X-15742076Y2799368D01*
X-15750000Y2800000D01*
X-17352762Y2800000D01*
X-17391545Y2848583D01*
X-17396447Y2853554D01*
X-17542299Y2999405D01*
X-17510189Y3001966D01*
X-17442664Y3022877D01*
X-17383638Y3061772D01*
X-17337786Y3115571D01*
X-17308737Y3180015D01*
X-17298791Y3250000D01*
X-17298791Y3750000D01*
X-17301966Y3789811D01*
X-17322877Y3857336D01*
X-17361772Y3916362D01*
X-17415571Y3962214D01*
X-17480015Y3991263D01*
X-17550000Y4001209D01*
X-18450000Y4001209D01*
X-18489811Y3998034D01*
X-18557336Y3977123D01*
X-18616362Y3938228D01*
X-18662214Y3884429D01*
X-18691263Y3819985D01*
X-18701209Y3750000D01*
X-18701209Y3250000D01*
X-18698034Y3210189D01*
X-18677123Y3142664D01*
X-18638228Y3083638D01*
X-18584429Y3037786D01*
X-18519985Y3008737D01*
X-18450000Y2998791D01*
X-18435652Y2998791D01*
X-18440273Y2992042D01*
X-18478901Y2901916D01*
X-18499288Y2806004D01*
X-18499372Y2800000D01*
X-20600000Y2800000D01*
X-20600000Y3449594D01*
X-20563149Y3501834D01*
X-20523267Y3591412D01*
X-20501543Y3687030D01*
X-20499979Y3799028D01*
X-20519024Y3895215D01*
X-20556390Y3985871D01*
X-20610653Y4067544D01*
X-20679746Y4137120D01*
X-20761037Y4191952D01*
X-20851431Y4229950D01*
X-20947483Y4249667D01*
X-21045536Y4250351D01*
X-21141854Y4231978D01*
X-21232769Y4195246D01*
X-21248791Y4184761D01*
X-21248791Y5000000D01*
X-21251966Y5039811D01*
X-21272877Y5107336D01*
X-21311772Y5166362D01*
X-21365571Y5212214D01*
X-21430015Y5241263D01*
X-21500000Y5251209D01*
X-22250000Y5251209D01*
X-22250000Y5500000D01*
X-22250581Y5505925D01*
X-22249979Y5549028D01*
X-22269024Y5645215D01*
X-22306390Y5735871D01*
X-22360653Y5817544D01*
X-22429746Y5887120D01*
X-22511037Y5941952D01*
X-22601431Y5979950D01*
X-22697483Y5999667D01*
X-22795536Y6000351D01*
X-22891854Y5981978D01*
X-22982769Y5945246D01*
X-23064818Y5891554D01*
X-23134875Y5822949D01*
X-23190273Y5742042D01*
X-23200000Y5719347D01*
X-23200000Y9098173D01*
X-23190680Y9104088D01*
X-23119671Y9171709D01*
X-23116045Y9176849D01*
X-22042894Y10250000D01*
X-21207107Y10250000D01*
X-21353553Y10103553D01*
X-21382832Y10067908D01*
X-21412557Y10032484D01*
X-21413825Y10030177D01*
X-21415492Y10028148D01*
X-21437299Y9987479D01*
X-21459568Y9946971D01*
X-21460363Y9944464D01*
X-21461605Y9942148D01*
X-21475107Y9897985D01*
X-21489074Y9853956D01*
X-21489367Y9851345D01*
X-21490136Y9848829D01*
X-21494806Y9802853D01*
X-21499951Y9756981D01*
X-21499987Y9751843D01*
X-21499997Y9751745D01*
X-21499988Y9751654D01*
X-21500000Y9750000D01*
X-21500000Y6799998D01*
X-21495495Y6754054D01*
X-21491468Y6708022D01*
X-21490735Y6705497D01*
X-21490478Y6702881D01*
X-21477131Y6658675D01*
X-21464243Y6614314D01*
X-21463033Y6611979D01*
X-21462273Y6609463D01*
X-21440606Y6568713D01*
X-21419336Y6527678D01*
X-21417694Y6525622D01*
X-21416461Y6523302D01*
X-21387272Y6487513D01*
X-21358455Y6451416D01*
X-21354848Y6447758D01*
X-21354785Y6447681D01*
X-21354714Y6447622D01*
X-21353553Y6446445D01*
X-21057479Y6150370D01*
X-21025630Y6117389D01*
X-20945112Y6061427D01*
X-20855258Y6022171D01*
X-20759490Y6001115D01*
X-20661457Y5999062D01*
X-20564892Y6016089D01*
X-20473473Y6051548D01*
X-20439998Y6072792D01*
X-20441263Y6069985D01*
X-20451209Y6000000D01*
X-20451209Y5200000D01*
X-20448034Y5160189D01*
X-20427123Y5092664D01*
X-20388228Y5033638D01*
X-20334429Y4987786D01*
X-20269985Y4958737D01*
X-20200000Y4948791D01*
X-19300000Y4948791D01*
X-19260189Y4951966D01*
X-19192664Y4972877D01*
X-19133638Y5011772D01*
X-19087786Y5065571D01*
X-19058737Y5130015D01*
X-19048791Y5200000D01*
X-19048791Y6000000D01*
X-19051966Y6039811D01*
X-19072877Y6107336D01*
X-19111772Y6166362D01*
X-19165571Y6212214D01*
X-19230015Y6241263D01*
X-19300000Y6251209D01*
X-19505725Y6251209D01*
X-19498791Y6300000D01*
X-19498791Y7041684D01*
X-19001209Y6544102D01*
X-19001209Y6300000D01*
X-19000000Y6284840D01*
X-19000000Y6005012D01*
X-19000657Y5957959D01*
X-18982956Y5861515D01*
X-18946860Y5770345D01*
X-18893742Y5687924D01*
X-18825628Y5617389D01*
X-18745110Y5561427D01*
X-18655256Y5522171D01*
X-18559488Y5501115D01*
X-18473704Y5499319D01*
X-18489811Y5498034D01*
X-18557336Y5477123D01*
X-18616362Y5438228D01*
X-18662214Y5384429D01*
X-18691263Y5319985D01*
X-18701209Y5250000D01*
X-18701209Y4750000D01*
X-18698034Y4710189D01*
X-18677123Y4642664D01*
X-18638228Y4583638D01*
X-18584429Y4537786D01*
X-18519985Y4508737D01*
X-18450000Y4498791D01*
X-17550000Y4498791D01*
X-17510189Y4501966D01*
X-17442664Y4522877D01*
X-17383638Y4561772D01*
X-17351057Y4600000D01*
X-17149010Y4600000D01*
X-17138228Y4583638D01*
X-17084429Y4537786D01*
X-17019985Y4508737D01*
X-16950000Y4498791D01*
X-16050000Y4498791D01*
X-16010189Y4501966D01*
X-15942664Y4522877D01*
X-15883638Y4561772D01*
X-15837786Y4615571D01*
X-15808737Y4680015D01*
X-15798791Y4750000D01*
X-15798791Y5250000D01*
X-15801966Y5289811D01*
X-15822877Y5357336D01*
X-15824506Y5359808D01*
X-15217157Y5967158D01*
X-15193698Y5995718D01*
X-15169955Y6024013D01*
X-15168942Y6025855D01*
X-15167606Y6027482D01*
X-15150142Y6060053D01*
X-15132346Y6092423D01*
X-15131710Y6094429D01*
X-15130716Y6096282D01*
X-15119912Y6131620D01*
X-15108741Y6166835D01*
X-15108507Y6168924D01*
X-15107891Y6170938D01*
X-15104153Y6207737D01*
X-15100039Y6244415D01*
X-15100010Y6248522D01*
X-15100002Y6248604D01*
X-15100009Y6248680D01*
X-15100000Y6250000D01*
X-15100000Y7616493D01*
X-15098791Y7625000D01*
X-15098791Y8475000D01*
X-15101966Y8514811D01*
X-15122877Y8582336D01*
X-15161772Y8641362D01*
X-15215571Y8687214D01*
X-15280015Y8716263D01*
X-15350000Y8726209D01*
X-15650000Y8726209D01*
X-15689811Y8723034D01*
X-15752185Y8703718D01*
X-15780015Y8716263D01*
X-15850000Y8726209D01*
X-16150000Y8726209D01*
X-16189811Y8723034D01*
X-16252185Y8703718D01*
X-16280015Y8716263D01*
X-16350000Y8726209D01*
X-16600000Y8726209D01*
X-16600000Y9000000D01*
X-16603607Y9036784D01*
X-16606826Y9073580D01*
X-16607413Y9075599D01*
X-16607618Y9077694D01*
X-16618301Y9113077D01*
X-16628606Y9148547D01*
X-16629574Y9150415D01*
X-16630182Y9152428D01*
X-16647531Y9185058D01*
X-16664532Y9217855D01*
X-16665844Y9219498D01*
X-16666832Y9221357D01*
X-16690202Y9250011D01*
X-16713236Y9278866D01*
X-16716124Y9281796D01*
X-16716172Y9281854D01*
X-16716226Y9281899D01*
X-16717157Y9282843D01*
X-17350000Y9915686D01*
X-17350000Y10834314D01*
X-17217158Y10967157D01*
X-17193702Y10995712D01*
X-17169955Y11024013D01*
X-17168942Y11025855D01*
X-17167606Y11027482D01*
X-17150161Y11060018D01*
X-17132346Y11092423D01*
X-17131708Y11094433D01*
X-17130717Y11096282D01*
X-17119936Y11131546D01*
X-17108741Y11166835D01*
X-17108506Y11168928D01*
X-17107892Y11170937D01*
X-17104163Y11207647D01*
X-17100039Y11244415D01*
X-17100010Y11248533D01*
X-17100003Y11248604D01*
X-17100009Y11248670D01*
X-17100000Y11250000D01*
X-17100000Y11750000D01*
X-17103607Y11786784D01*
X-17106826Y11823580D01*
X-17107413Y11825599D01*
X-17107618Y11827694D01*
X-17118287Y11863030D01*
X-17128605Y11898547D01*
X-17129576Y11900419D01*
X-17130182Y11902428D01*
X-17147492Y11934983D01*
X-17164531Y11967855D01*
X-17165845Y11969502D01*
X-17166832Y11971357D01*
X-17190179Y11999984D01*
X-17213236Y12028866D01*
X-17216124Y12031796D01*
X-17216172Y12031854D01*
X-17216226Y12031899D01*
X-17217157Y12032843D01*
X-17717157Y12532843D01*
X-17745742Y12556323D01*
X-17774013Y12580045D01*
X-17775855Y12581058D01*
X-17777482Y12582394D01*
X-17810053Y12599858D01*
X-17842423Y12617654D01*
X-17844429Y12618290D01*
X-17846282Y12619284D01*
X-17850000Y12620421D01*
X-17850000Y13810180D01*
X-17835468Y13782145D01*
X-17834156Y13780502D01*
X-17833168Y13778643D01*
X-17809807Y13750000D01*
X-17786764Y13721134D01*
X-17783876Y13718204D01*
X-17783828Y13718146D01*
X-17783774Y13718101D01*
X-17782843Y13717157D01*
X-17745489Y13679804D01*
X-17732956Y13611515D01*
X-17696860Y13520345D01*
X-17643742Y13437924D01*
X-17575628Y13367389D01*
X-17495110Y13311427D01*
X-17405256Y13272171D01*
X-17309488Y13251115D01*
X-17211455Y13249062D01*
X-17114890Y13266089D01*
X-17023471Y13301548D01*
X-16940680Y13354088D01*
X-16869671Y13421709D01*
X-16813149Y13501834D01*
X-16773267Y13591412D01*
X-16751543Y13687030D01*
X-16749979Y13799028D01*
X-16769024Y13895215D01*
X-16806390Y13985871D01*
X-16860653Y14067544D01*
X-16929746Y14137120D01*
X-17011037Y14191952D01*
X-17100000Y14229348D01*
X-17100000Y14273791D01*
X-16850000Y14273791D01*
X-16810189Y14276966D01*
X-16742664Y14297877D01*
X-16683638Y14336772D01*
X-16637786Y14390571D01*
X-16608737Y14455015D01*
X-16598791Y14525000D01*
X-16598791Y15375000D01*
X-16600000Y15390160D01*
X-16600000Y15750000D01*
X-16603607Y15786784D01*
X-16606826Y15823580D01*
X-16607413Y15825599D01*
X-16607618Y15827694D01*
X-16618301Y15863077D01*
X-16628606Y15898547D01*
X-16629574Y15900415D01*
X-16630182Y15902428D01*
X-16647521Y15935037D01*
X-16664532Y15967856D01*
X-16665845Y15969501D01*
X-16666832Y15971357D01*
X-16690184Y15999989D01*
X-16713236Y16028866D01*
X-16716121Y16031791D01*
X-16716172Y16031854D01*
X-16716230Y16031902D01*
X-16717158Y16032843D01*
X-16754086Y16069771D01*
X-16769024Y16145215D01*
X-16806390Y16235871D01*
X-16860653Y16317544D01*
X-16929746Y16387120D01*
X-17011037Y16441952D01*
X-17101431Y16479950D01*
X-17197483Y16499667D01*
X-17295536Y16500351D01*
X-17391854Y16481978D01*
X-17482769Y16445246D01*
X-17527563Y16415933D01*
X-17556390Y16485871D01*
X-17610653Y16567544D01*
X-17679746Y16637120D01*
X-17761037Y16691952D01*
X-17851431Y16729950D01*
X-17947483Y16749667D01*
X-18045536Y16750351D01*
X-18141854Y16731978D01*
X-18232769Y16695246D01*
X-18314818Y16641554D01*
X-18384875Y16572949D01*
X-18440273Y16492042D01*
X-18478901Y16401916D01*
X-18496482Y16319204D01*
X-18782843Y16032843D01*
X-18806323Y16004258D01*
X-18830045Y15975987D01*
X-18831058Y15974145D01*
X-18832394Y15972518D01*
X-18849858Y15939947D01*
X-18867654Y15907577D01*
X-18868290Y15905571D01*
X-18869284Y15903718D01*
X-18880075Y15868421D01*
X-18891259Y15833165D01*
X-18891494Y15831071D01*
X-18892108Y15829062D01*
X-18895841Y15792313D01*
X-18899961Y15755585D01*
X-18899990Y15751478D01*
X-18899998Y15751396D01*
X-18899991Y15751320D01*
X-18900000Y15750000D01*
X-18900000Y15478687D01*
X-18982769Y15445246D01*
X-19064818Y15391554D01*
X-19134875Y15322949D01*
X-19190273Y15242042D01*
X-19228901Y15151916D01*
X-19249288Y15056004D01*
X-19250657Y14957959D01*
X-19232956Y14861515D01*
X-19196860Y14770345D01*
X-19143742Y14687924D01*
X-19135892Y14679794D01*
X-19164477Y14651209D01*
X-19625000Y14651209D01*
X-19664811Y14648034D01*
X-19732336Y14627123D01*
X-19791362Y14588228D01*
X-19837214Y14534429D01*
X-19866263Y14469985D01*
X-19876209Y14400000D01*
X-19876209Y14100000D01*
X-19873034Y14060189D01*
X-19852123Y13992664D01*
X-19813228Y13933638D01*
X-19759429Y13887786D01*
X-19694985Y13858737D01*
X-19625000Y13848791D01*
X-18775000Y13848791D01*
X-18735189Y13851966D01*
X-18667664Y13872877D01*
X-18650000Y13884517D01*
X-18650000Y13616464D01*
X-18705015Y13641263D01*
X-18775000Y13651209D01*
X-19625000Y13651209D01*
X-19664811Y13648034D01*
X-19732336Y13627123D01*
X-19791362Y13588228D01*
X-19837214Y13534429D01*
X-19866263Y13469985D01*
X-19876209Y13400000D01*
X-19876209Y13100000D01*
X-19873034Y13060189D01*
X-19853718Y12997815D01*
X-19866263Y12969985D01*
X-19876209Y12900000D01*
X-19876209Y12600000D01*
X-19873034Y12560189D01*
X-19853718Y12497815D01*
X-19866263Y12469985D01*
X-19876209Y12400000D01*
X-19876209Y12191895D01*
X-20217157Y12532843D01*
X-20245742Y12556323D01*
X-20274013Y12580045D01*
X-20275855Y12581058D01*
X-20277482Y12582394D01*
X-20310053Y12599858D01*
X-20342423Y12617654D01*
X-20344429Y12618290D01*
X-20346282Y12619284D01*
X-20381579Y12630075D01*
X-20416835Y12641259D01*
X-20418929Y12641494D01*
X-20420938Y12642108D01*
X-20457687Y12645841D01*
X-20494415Y12649961D01*
X-20498522Y12649990D01*
X-20498604Y12649998D01*
X-20498680Y12649991D01*
X-20500000Y12650000D01*
X-21000000Y12650000D01*
X-21036784Y12646393D01*
X-21073580Y12643174D01*
X-21075599Y12642587D01*
X-21077694Y12642382D01*
X-21113030Y12631713D01*
X-21148547Y12621395D01*
X-21150419Y12620424D01*
X-21152428Y12619818D01*
X-21184983Y12602508D01*
X-21217855Y12585469D01*
X-21219502Y12584155D01*
X-21221357Y12583168D01*
X-21249984Y12559821D01*
X-21278866Y12536764D01*
X-21281796Y12533876D01*
X-21281854Y12533828D01*
X-21281899Y12533774D01*
X-21282843Y12532843D01*
X-21782843Y12032843D01*
X-21806323Y12004258D01*
X-21830045Y11975987D01*
X-21831058Y11974145D01*
X-21832394Y11972518D01*
X-21849858Y11939947D01*
X-21867654Y11907577D01*
X-21868290Y11905571D01*
X-21869284Y11903718D01*
X-21880075Y11868421D01*
X-21891259Y11833165D01*
X-21891494Y11831071D01*
X-21892108Y11829062D01*
X-21894097Y11809480D01*
X-21940273Y11742042D01*
X-21978901Y11651916D01*
X-21999288Y11556004D01*
X-22000657Y11457959D01*
X-21982956Y11361515D01*
X-21946860Y11270345D01*
X-21933748Y11250000D01*
X-22250000Y11250000D01*
X-22295948Y11245495D01*
X-22341975Y11241468D01*
X-22344499Y11240735D01*
X-22347117Y11240478D01*
X-22391335Y11227127D01*
X-22435684Y11214243D01*
X-22438019Y11213033D01*
X-22440535Y11212273D01*
X-22481285Y11190606D01*
X-22522320Y11169336D01*
X-22524376Y11167694D01*
X-22526696Y11166461D01*
X-22562485Y11137272D01*
X-22598582Y11108455D01*
X-22602240Y11104848D01*
X-22602317Y11104785D01*
X-22602376Y11104714D01*
X-22603553Y11103553D01*
X-23601659Y10105447D01*
X-23598800Y10114459D01*
X-21184789Y14505528D01*
X-17963856Y18344086D01*
X-14058686Y21483924D01*
X-11800000Y22664736D01*
X-11800000Y21424455D01*
G36*
X-8502736Y13062950D02*
X-8519024Y13145215D01*
X-8556390Y13235871D01*
X-8610653Y13317544D01*
X-8679746Y13387120D01*
X-8761037Y13441952D01*
X-8851431Y13479950D01*
X-8936833Y13497481D01*
X-8584314Y13850000D01*
X-7715685Y13850000D01*
X-8502736Y13062950D01*
X-8502736Y13062950D01*
G37*
X-8502736Y13062950D02*
X-8519024Y13145215D01*
X-8556390Y13235871D01*
X-8610653Y13317544D01*
X-8679746Y13387120D01*
X-8761037Y13441952D01*
X-8851431Y13479950D01*
X-8936833Y13497481D01*
X-8584314Y13850000D01*
X-7715685Y13850000D01*
X-8502736Y13062950D01*
G36*
X-5050000Y16458330D02*
X-5101431Y16479950D01*
X-5197483Y16499667D01*
X-5295536Y16500351D01*
X-5391854Y16481978D01*
X-5468010Y16451209D01*
X-5475000Y16451209D01*
X-5514811Y16448034D01*
X-5582336Y16427123D01*
X-5641362Y16388228D01*
X-5687214Y16334429D01*
X-5716263Y16269985D01*
X-5726209Y16200000D01*
X-5726209Y16158197D01*
X-5728901Y16151916D01*
X-5746482Y16069204D01*
X-6165686Y15650000D01*
X-9750000Y15650000D01*
X-9786784Y15646393D01*
X-9823580Y15643174D01*
X-9825599Y15642587D01*
X-9827694Y15642382D01*
X-9863030Y15631713D01*
X-9898547Y15621395D01*
X-9900419Y15620424D01*
X-9902428Y15619818D01*
X-9934983Y15602508D01*
X-9967855Y15585469D01*
X-9969502Y15584155D01*
X-9971357Y15583168D01*
X-9999984Y15559821D01*
X-10028866Y15536764D01*
X-10031796Y15533876D01*
X-10031854Y15533828D01*
X-10031899Y15533774D01*
X-10032843Y15532843D01*
X-10350000Y15215686D01*
X-10350000Y15750000D01*
X-10353607Y15786784D01*
X-10356826Y15823580D01*
X-10357413Y15825599D01*
X-10357618Y15827694D01*
X-10368287Y15863030D01*
X-10378605Y15898547D01*
X-10379576Y15900419D01*
X-10380182Y15902428D01*
X-10397492Y15934983D01*
X-10414531Y15967855D01*
X-10415845Y15969502D01*
X-10416832Y15971357D01*
X-10440179Y15999984D01*
X-10463236Y16028866D01*
X-10466124Y16031796D01*
X-10466172Y16031854D01*
X-10466226Y16031899D01*
X-10467157Y16032843D01*
X-10684314Y16250000D01*
X-10084315Y16850000D01*
X-5050000Y16850000D01*
X-5050000Y16458330D01*
X-5050000Y16458330D01*
G37*
X-5050000Y16458330D02*
X-5101431Y16479950D01*
X-5197483Y16499667D01*
X-5295536Y16500351D01*
X-5391854Y16481978D01*
X-5468010Y16451209D01*
X-5475000Y16451209D01*
X-5514811Y16448034D01*
X-5582336Y16427123D01*
X-5641362Y16388228D01*
X-5687214Y16334429D01*
X-5716263Y16269985D01*
X-5726209Y16200000D01*
X-5726209Y16158197D01*
X-5728901Y16151916D01*
X-5746482Y16069204D01*
X-6165686Y15650000D01*
X-9750000Y15650000D01*
X-9786784Y15646393D01*
X-9823580Y15643174D01*
X-9825599Y15642587D01*
X-9827694Y15642382D01*
X-9863030Y15631713D01*
X-9898547Y15621395D01*
X-9900419Y15620424D01*
X-9902428Y15619818D01*
X-9934983Y15602508D01*
X-9967855Y15585469D01*
X-9969502Y15584155D01*
X-9971357Y15583168D01*
X-9999984Y15559821D01*
X-10028866Y15536764D01*
X-10031796Y15533876D01*
X-10031854Y15533828D01*
X-10031899Y15533774D01*
X-10032843Y15532843D01*
X-10350000Y15215686D01*
X-10350000Y15750000D01*
X-10353607Y15786784D01*
X-10356826Y15823580D01*
X-10357413Y15825599D01*
X-10357618Y15827694D01*
X-10368287Y15863030D01*
X-10378605Y15898547D01*
X-10379576Y15900419D01*
X-10380182Y15902428D01*
X-10397492Y15934983D01*
X-10414531Y15967855D01*
X-10415845Y15969502D01*
X-10416832Y15971357D01*
X-10440179Y15999984D01*
X-10463236Y16028866D01*
X-10466124Y16031796D01*
X-10466172Y16031854D01*
X-10466226Y16031899D01*
X-10467157Y16032843D01*
X-10684314Y16250000D01*
X-10084315Y16850000D01*
X-5050000Y16850000D01*
X-5050000Y16458330D01*
G36*
X-5726209Y19408197D02*
X-5728901Y19401916D01*
X-5746483Y19319203D01*
X-6915686Y18150000D01*
X-10750000Y18150000D01*
X-10786784Y18146393D01*
X-10823580Y18143174D01*
X-10825599Y18142587D01*
X-10827694Y18142382D01*
X-10863077Y18131699D01*
X-10898547Y18121394D01*
X-10900415Y18120426D01*
X-10902428Y18119818D01*
X-10935058Y18102469D01*
X-10967855Y18085468D01*
X-10969498Y18084156D01*
X-10971357Y18083168D01*
X-11000011Y18059798D01*
X-11028866Y18036764D01*
X-11031796Y18033876D01*
X-11031854Y18033828D01*
X-11031899Y18033774D01*
X-11032843Y18032843D01*
X-11062585Y18003101D01*
X-11023267Y18091412D01*
X-11001543Y18187030D01*
X-10999979Y18299028D01*
X-11019024Y18395215D01*
X-11024883Y18409431D01*
X-10217157Y19217158D01*
X-10193698Y19245718D01*
X-10169955Y19274013D01*
X-10168942Y19275855D01*
X-10167606Y19277482D01*
X-10150142Y19310053D01*
X-10132346Y19342423D01*
X-10131710Y19344429D01*
X-10130716Y19346282D01*
X-10119912Y19381620D01*
X-10108741Y19416835D01*
X-10108507Y19418924D01*
X-10107891Y19420938D01*
X-10104939Y19450000D01*
X-5726209Y19450000D01*
X-5726209Y19408197D01*
X-5726209Y19408197D01*
G37*
X-5726209Y19408197D02*
X-5728901Y19401916D01*
X-5746483Y19319203D01*
X-6915686Y18150000D01*
X-10750000Y18150000D01*
X-10786784Y18146393D01*
X-10823580Y18143174D01*
X-10825599Y18142587D01*
X-10827694Y18142382D01*
X-10863077Y18131699D01*
X-10898547Y18121394D01*
X-10900415Y18120426D01*
X-10902428Y18119818D01*
X-10935058Y18102469D01*
X-10967855Y18085468D01*
X-10969498Y18084156D01*
X-10971357Y18083168D01*
X-11000011Y18059798D01*
X-11028866Y18036764D01*
X-11031796Y18033876D01*
X-11031854Y18033828D01*
X-11031899Y18033774D01*
X-11032843Y18032843D01*
X-11062585Y18003101D01*
X-11023267Y18091412D01*
X-11001543Y18187030D01*
X-10999979Y18299028D01*
X-11019024Y18395215D01*
X-11024883Y18409431D01*
X-10217157Y19217158D01*
X-10193698Y19245718D01*
X-10169955Y19274013D01*
X-10168942Y19275855D01*
X-10167606Y19277482D01*
X-10150142Y19310053D01*
X-10132346Y19342423D01*
X-10131710Y19344429D01*
X-10130716Y19346282D01*
X-10119912Y19381620D01*
X-10108741Y19416835D01*
X-10108507Y19418924D01*
X-10107891Y19420938D01*
X-10104939Y19450000D01*
X-5726209Y19450000D01*
X-5726209Y19408197D01*
G36*
X-10900000Y20079290D02*
X-10900000Y19665685D01*
X-11714573Y18851113D01*
X-11708247Y18874721D01*
X-11698548Y19020774D01*
X-11717401Y19165929D01*
X-11764089Y19304657D01*
X-11836834Y19431675D01*
X-11842960Y19440169D01*
X-11847247Y19446025D01*
X-11944811Y19555143D01*
X-12061711Y19643233D01*
X-12193495Y19706939D01*
X-12335143Y19743834D01*
X-12481259Y19752514D01*
X-12500267Y19749910D01*
X-12496201Y19758173D01*
X-12458316Y19899560D01*
X-12448617Y20045613D01*
X-12452842Y20078141D01*
X-12432376Y20068248D01*
X-12290728Y20031353D01*
X-12144612Y20022673D01*
X-11999592Y20042539D01*
X-11861192Y20090195D01*
X-11734685Y20163825D01*
X-11624889Y20260625D01*
X-11556557Y20350000D01*
X-11170710Y20350000D01*
X-10900000Y20079290D01*
X-10900000Y20079290D01*
G37*
X-10900000Y20079290D02*
X-10900000Y19665685D01*
X-11714573Y18851113D01*
X-11708247Y18874721D01*
X-11698548Y19020774D01*
X-11717401Y19165929D01*
X-11764089Y19304657D01*
X-11836834Y19431675D01*
X-11842960Y19440169D01*
X-11847247Y19446025D01*
X-11944811Y19555143D01*
X-12061711Y19643233D01*
X-12193495Y19706939D01*
X-12335143Y19743834D01*
X-12481259Y19752514D01*
X-12500267Y19749910D01*
X-12496201Y19758173D01*
X-12458316Y19899560D01*
X-12448617Y20045613D01*
X-12452842Y20078141D01*
X-12432376Y20068248D01*
X-12290728Y20031353D01*
X-12144612Y20022673D01*
X-11999592Y20042539D01*
X-11861192Y20090195D01*
X-11734685Y20163825D01*
X-11624889Y20260625D01*
X-11556557Y20350000D01*
X-11170710Y20350000D01*
X-10900000Y20079290D01*
M02*
