G04 #@! TF.FileFunction,Paste,Top*
%FSLAX46Y46*%
G04 Gerber Fmt 4.6, Leading zero omitted, Abs format (unit mm)*
G04 Created by KiCad (PCBNEW 4.0.7) date 03/16/20 11:51:46*
%MOMM*%
%LPD*%
G01*
G04 APERTURE LIST*
%ADD10C,0.100000*%
%ADD11R,2.200000X1.200000*%
%ADD12R,3.050000X2.750000*%
%ADD13R,4.000000X2.500000*%
%ADD14R,0.850000X0.300000*%
%ADD15R,0.300000X0.850000*%
%ADD16R,2.700000X2.700000*%
%ADD17R,0.475000X0.800000*%
%ADD18R,0.650000X0.550000*%
%ADD19R,0.750000X0.550000*%
%ADD20R,2.025000X3.900000*%
%ADD21R,0.650000X1.250000*%
%ADD22R,0.900000X0.800000*%
%ADD23R,0.500000X0.900000*%
%ADD24R,1.800000X2.500000*%
%ADD25R,0.450000X0.600000*%
%ADD26R,0.600000X0.450000*%
%ADD27R,3.200000X1.000000*%
%ADD28R,1.000000X3.200000*%
%ADD29R,1.700000X1.300000*%
%ADD30R,0.800000X0.475000*%
%ADD31R,0.550000X0.650000*%
%ADD32R,0.550000X0.750000*%
%ADD33R,3.900000X2.025000*%
%ADD34R,1.250000X0.650000*%
%ADD35R,0.900000X0.500000*%
%ADD36R,0.900000X1.700000*%
G04 APERTURE END LIST*
D10*
D11*
X-7750000Y-16750000D03*
X-7750000Y-12190000D03*
D12*
X-15725000Y-12945000D03*
X-12375000Y-15995000D03*
X-15725000Y-15995000D03*
X-12375000Y-12945000D03*
D13*
X8250000Y15500000D03*
X14350000Y15500000D03*
D14*
X-19200000Y14250000D03*
X-19200000Y13750000D03*
X-19200000Y13250000D03*
X-19200000Y12750000D03*
X-19200000Y12250000D03*
X-19200000Y11750000D03*
X-19200000Y11250000D03*
X-19200000Y10750000D03*
X-19200000Y10250000D03*
X-19200000Y9750000D03*
X-19200000Y9250000D03*
X-19200000Y8750000D03*
D15*
X-18500000Y8050000D03*
X-18000000Y8050000D03*
X-17500000Y8050000D03*
X-17000000Y8050000D03*
X-16500000Y8050000D03*
X-16000000Y8050000D03*
X-15500000Y8050000D03*
X-15000000Y8050000D03*
X-14500000Y8050000D03*
X-14000000Y8050000D03*
X-13500000Y8050000D03*
X-13000000Y8050000D03*
D14*
X-12300000Y8750000D03*
X-12300000Y9250000D03*
X-12300000Y9750000D03*
X-12300000Y10250000D03*
X-12300000Y10750000D03*
X-12300000Y11250000D03*
X-12300000Y11750000D03*
X-12300000Y12250000D03*
X-12300000Y12750000D03*
X-12300000Y13250000D03*
X-12300000Y13750000D03*
X-12300000Y14250000D03*
D15*
X-13000000Y14950000D03*
X-13500000Y14950000D03*
X-14000000Y14950000D03*
X-14500000Y14950000D03*
X-15000000Y14950000D03*
X-15500000Y14950000D03*
X-16000000Y14950000D03*
X-16500000Y14950000D03*
X-17000000Y14950000D03*
X-17500000Y14950000D03*
X-18000000Y14950000D03*
X-18500000Y14950000D03*
D16*
X-15750000Y11500000D03*
D17*
X-20807500Y-1360000D03*
X-20807500Y1090000D03*
X-15882500Y-1360000D03*
D18*
X-20245000Y2220000D03*
D19*
X-18920000Y2225000D03*
D20*
X-19557500Y0D03*
D21*
X-20250000Y-3475000D03*
X-18980000Y-3475000D03*
X-17710000Y-3475000D03*
X-16440000Y-3475000D03*
D19*
X-17770000Y2225000D03*
D20*
X-17132500Y0D03*
D18*
X-16445000Y2220000D03*
D17*
X-15882500Y1090000D03*
D22*
X-19750000Y3500000D03*
X-19750000Y5600000D03*
D23*
X-20000000Y6750000D03*
X-18500000Y6750000D03*
D24*
X-22400000Y3750000D03*
X-22400000Y7750000D03*
D25*
X-5250000Y15900000D03*
X-5250000Y18000000D03*
X-5250000Y19150000D03*
X-5250000Y21250000D03*
D26*
X15900000Y5250000D03*
X18000000Y5250000D03*
X19150000Y5250000D03*
X21250000Y5250000D03*
X-19150000Y-5250000D03*
X-21250000Y-5250000D03*
D27*
X-8000000Y16250000D03*
X-8000000Y22450000D03*
D28*
X16250000Y8000000D03*
X22450000Y8000000D03*
X-16250000Y-8000000D03*
X-22450000Y-8000000D03*
D26*
X-15900000Y-5250000D03*
X-18000000Y-5250000D03*
D29*
X-5250000Y-13250000D03*
X-5250000Y-16750000D03*
D30*
X-1360000Y20807500D03*
X1090000Y20807500D03*
X-1360000Y15882500D03*
D31*
X2220000Y20245000D03*
D32*
X2225000Y18920000D03*
D33*
X0Y19557500D03*
D34*
X-3475000Y20250000D03*
X-3475000Y18980000D03*
X-3475000Y17710000D03*
X-3475000Y16440000D03*
D32*
X2225000Y17770000D03*
D33*
X0Y17132500D03*
D31*
X2220000Y16445000D03*
D30*
X1090000Y15882500D03*
D17*
X20807500Y1385000D03*
X20807500Y-1065000D03*
X15882500Y1385000D03*
D18*
X20245000Y-2195000D03*
D19*
X18920000Y-2200000D03*
D20*
X19557500Y25000D03*
D21*
X20250000Y3500000D03*
X18980000Y3500000D03*
X17710000Y3500000D03*
X16440000Y3500000D03*
D19*
X17770000Y-2200000D03*
D20*
X17132500Y25000D03*
D18*
X16445000Y-2195000D03*
D17*
X15882500Y-1065000D03*
D35*
X-18000000Y3500000D03*
X-18000000Y5000000D03*
X-22500000Y-3750000D03*
X-22500000Y-5250000D03*
X-24000000Y-5250000D03*
X-24000000Y-3750000D03*
X-16500000Y3500000D03*
X-16500000Y5000000D03*
X24000000Y3750000D03*
X24000000Y5250000D03*
X22500000Y3750000D03*
X22500000Y5250000D03*
D23*
X-3750000Y24000000D03*
X-5250000Y24000000D03*
X-3750000Y22500000D03*
X-5250000Y22500000D03*
D36*
X-500000Y-16750000D03*
X-3400000Y-16750000D03*
D13*
X8250000Y-15750000D03*
X14350000Y-15750000D03*
M02*
